<svg width="88" height="88" viewBox="0 0 88 88" fill="none" xmlns="http://www.w3.org/2000/svg">
<path d="M22.2934 22.6286L14.6667 28.5242L17.6 29.9981M22.2934 22.6286L29.6267 23.5129M22.2934 22.6286L17.6 29.9981M22.2934 22.6286L21.4134 30.8824M22.2934 22.6286L25.8134 25.8712M29.6267 23.5129L32.2667 27.0503M29.6267 23.5129L25.8134 25.8712M32.2667 27.0503L33.1467 33.2406M32.2667 27.0503L25.8134 25.8712M32.2667 27.0503L28.16 30.5876M33.1467 33.2406L39.3067 36.1884M33.1467 33.2406L28.16 30.5876M33.1467 33.2406L24.0534 45.0318M33.1467 33.2406L26.1067 35.8936M33.1467 33.2406L35.4934 41.7892M39.3067 36.1884L58.3734 29.9981M39.3067 36.1884L35.4934 41.7892M39.3067 36.1884L39.8934 45.6213M39.3067 36.1884H49.5734M58.3734 29.9981L54.2667 36.1884M58.3734 29.9981L49.5734 36.1884M54.2667 36.1884H59.5467M54.2667 36.1884H49.5734M59.5467 36.1884L52.8 44.4422M59.5467 36.1884L39.8934 45.6213M52.8 44.4422L56.32 49.1587M52.8 44.4422L49.5734 54.7594M52.8 44.4422L39.8934 45.6213M52.8 44.4422L45.4667 49.7482M56.32 49.1587L70.4 47.9795L64.24 52.9908M56.32 49.1587L59.3511 53.5803M56.32 49.1587L64.24 52.9908M64.24 52.9908L73.3334 63.308L59.5467 56.5281M64.24 52.9908L59.3511 53.5803M64.24 52.9908L59.5467 56.5281M59.5467 56.5281L49.5734 54.7594M59.5467 56.5281L59.3511 53.5803M49.5734 54.7594L41.9467 58.2968M49.5734 54.7594L45.4667 49.7482M49.5734 54.7594L40.1867 51.5169M49.5734 54.7594L59.3511 53.5803M41.9467 58.2968L45.76 61.8341L41.9467 65.3715M41.9467 58.2968V65.3715M41.9467 58.2968L37.2534 55.6438M41.9467 58.2968L40.1867 51.5169M41.9467 65.3715L35.4934 62.4237M41.9467 65.3715L37.2534 55.6438M35.4934 62.4237L27.8667 64.7819L28.7467 61.2446M35.4934 62.4237L37.2534 55.6438M35.4934 62.4237L30.2134 56.5281M28.7467 61.2446L25.2267 58.5916L27.28 55.6438M28.7467 61.2446L30.2134 56.5281M28.7467 61.2446L27.28 55.6438M27.28 55.6438L20.8267 51.2221M27.28 55.6438L29.6267 52.1064M27.28 55.6438L30.2134 56.5281M20.8267 51.2221L17.0134 42.9683M20.8267 51.2221L29.6267 52.1064M20.8267 51.2221L24.0534 45.0318M17.0134 42.9683L19.9467 35.0093M17.0134 42.9683L24.0534 45.0318M19.9467 35.0093L16.4267 32.3563M19.9467 35.0093L21.4134 30.8824M19.9467 35.0093L24.0534 45.0318M19.9467 35.0093L26.1067 35.8936M19.9467 35.0093L28.16 30.5876M16.4267 32.3563L17.6 29.9981M16.4267 32.3563L21.4134 30.8824M17.6 29.9981L21.4134 30.8824M21.4134 30.8824L25.8134 25.8712M21.4134 30.8824L28.16 30.5876M25.8134 25.8712L28.16 30.5876M28.16 30.5876L26.1067 35.8936M35.4934 41.7892L24.0534 45.0318M35.4934 41.7892L29.6267 52.1064M35.4934 41.7892L39.8934 45.6213M24.0534 45.0318L26.1067 35.8936M24.0534 45.0318L29.6267 52.1064M29.6267 52.1064L30.2134 56.5281M29.6267 52.1064L37.2534 55.6438M29.6267 52.1064L39.8934 45.6213M29.6267 52.1064L40.1867 51.5169M30.2134 56.5281L37.2534 55.6438M37.2534 55.6438L40.1867 51.5169M39.8934 45.6213L45.4667 49.7482M39.8934 45.6213L40.1867 51.5169M45.4667 49.7482L40.1867 51.5169" stroke="url(#paint0_linear)" stroke-width="0.419048"/>
<defs>
<linearGradient id="paint0_linear" x1="44" y1="22.6286" x2="44" y2="65.3715" gradientUnits="userSpaceOnUse">
<stop stop-color="#F2463A"/>
<stop offset="1" stop-color="#F89790"/>
</linearGradient>
</defs>
</svg>
