<svg width="761px" height="351px" viewBox="0 0 761 351" version="1.1" xmlns="http://www.w3.org/2000/svg" xmlns:xlink="http://www.w3.org/1999/xlink">
    <g id="Page-1" stroke="none" stroke-width="1" fill="none" fill-rule="evenodd">
        <g id="cisco">
            <path d="M691.46,281.86 C691.46,320.63 661.26,350.11 621.68,350.07 C582.1,350.03 552.08,320.49 552.1,281.67 C552.12,242.85 582.38,213.36 621.88,213.42 C661.38,213.48 691.5,243.09 691.46,281.86 Z M656.16,281.86 C656.16,262.31 641.36,247.25 621.99,247.15 C602.62,247.05 587.41,262.08 587.37,281.72 C587.37,301.16 602.37,316.44 621.54,316.54 C640.93,316.61 656.13,301.39 656.16,281.84 L656.16,281.86 Z" id="Shape" fill="#059FD8" fill-rule="nonzero"></path>
            <path d="M293.4,331.43 C293.4,327.43 293.56,323.43 293.34,319.49 C293.19,316.76 293.8,316.15 296.57,316.9 C307.57,319.9 318.76,321.54 330.21,320.8 C334.495491,320.670873 338.711727,319.684817 342.61,317.9 C350.61,313.96 351.31,305.45 344.13,300.19 C340.21,297.32 335.6,295.97 331.05,294.55 C322.77,291.97 314.75,288.91 307.57,283.83 C286.13,268.66 289.16,233.91 311.32,221.01 C321.1,215.32 331.72,213.34 342.81,213.41 C352.66306,213.594443 362.472521,214.770372 372.09,216.92 C374.09,217.34 374.79,218.1 374.75,220.25 C374.59,227.91 374.63,235.58 374.75,243.25 C374.75,245.25 374.35,245.72 372.25,245.2 C363.25,242.97 354.15,241.36 344.8,241.93 C340.598556,242.017785 336.480998,243.122663 332.8,245.15 C326.99,248.61 326.4,255.15 331.49,259.61 C334.49,262.23 338.18,263.44 341.87,264.67 C348.46,266.87 355.24,268.53 361.48,271.73 C375.48,278.89 383.89,289.84 383.96,305.92 C384.04,322.7 376.66,335.34 361.51,343.09 C352.51,347.71 342.77,349.63 332.74,350 C320.36,350.46 308.11,349 295.91,347 C293.91,346.69 293.29,345.94 293.36,344 C293.51,339.79 293.4,335.61 293.4,331.43 Z" id="Path" fill="#059FD8"></path>
            <path d="M516.94,253.5 C507.483206,248.597812 496.913613,246.240589 486.27,246.66 C467.22,247.38 452.89,261.88 452.46,281.09 C451.755562,299.727889 466.036158,315.530152 484.65,316.71 C495.015614,317.511142 505.40969,315.573029 514.79,311.09 C515.402814,310.620902 516.172836,310.406012 516.94,310.49 L516.94,338.15 C516.94,345.55 516.94,345.61 509.53,347.33 C491.03,351.6 472.72,351.58 455.23,343.41 C430.73,331.96 417.78,312.35 416.48,285.41 C415.33,261.57 423.68,241.68 443.04,227.15 C456.7,216.9 472.45,213.04 489.36,213.51 C497.919467,213.760021 506.411761,215.104271 514.63,217.51 C515.85,217.86 517,218.03 516.99,219.9 C516.89,230.91 516.94,242 516.94,253.5 Z" id="Path" fill="#059FD8"></path>
            <path d="M169.23,253.5 C159.772041,248.581271 149.191575,246.223161 138.54,246.66 C119.38,247.39 105.05,262.05 104.76,281.45 C104.47,300.25 118.25,315.25 137.04,316.72 C148.007806,317.537235 158.988935,315.319559 168.78,310.31 C169.55,311.16 169.21,312.08 169.21,312.91 C169.21,322.77 169.21,332.63 169.27,342.48 C169.27,344.56 168.85,345.58 166.6,346.19 C146.6,351.51 126.8,352.32 107.6,343.45 C82.73,331.89 69.9,311.9 68.77,284.6 C67.86,262.65 75.31,243.97 92.24,229.6 C103.1,220.36 115.91,215.49 129.99,213.97 C142.303691,212.759746 154.735232,213.924142 166.61,217.4 C168.51,217.93 169.31,218.62 169.28,220.79 C169.16,231.5 169.23,242.25 169.23,253.5 Z" id="Path" fill="#059FD8"></path>
            <path d="M215,105.12 C215,133.786667 215,162.453333 215,191.12 C215,200.01 209.85,206.8 202,208.45 C191.7,210.61 182.4,203.33 181.85,192.66 C181.85,191.96 181.85,191.27 181.85,190.57 C181.85,133.33 181.85,76.0933333 181.85,18.86 C181.85,12.2 184.02,6.72 189.85,3.17 C194.897448,-0.156864506 201.409022,-0.28141345 206.58,2.85 C212.41,6.12 215.08,11.34 215.09,17.91 C215.123333,42.1966667 215.123333,66.4866667 215.09,90.78 C215.03,95.5933333 215,100.373333 215,105.12 Z" id="Path" fill="#079FD9"></path>
            <path d="M545.41,104.75 C545.41,75.8766667 545.41,47.0033333 545.41,18.13 C545.41,9.05 550.63,2.51 558.9,1.02 C563.617876,0.142051413 568.483842,1.36934546 572.22098,4.37981792 C575.958118,7.39029037 578.19331,11.8833732 578.34,16.68 C578.34,17.47 578.34,18.27 578.34,19.07 C578.34,76.2233333 578.34,133.376667 578.34,190.53 C578.516211,194.227031 577.62399,197.896594 575.77,201.1 C571.901157,207.306981 564.409612,210.228724 557.36,208.28 C550.167219,206.325064 545.22276,199.732452 545.36,192.28 C545.29,168.38 545.36,144.49 545.36,120.59 C545.393333,115.31 545.41,110.03 545.41,104.75 Z" id="Path" fill="#059FD8"></path>
            <path d="M248.45,281.65 C248.45,302.65 248.45,323.65 248.51,344.65 C248.51,347.19 247.78,347.77 245.35,347.73 C236.09,347.59 226.83,347.62 217.57,347.73 C215.66,347.73 215.06,347.27 215.06,345.27 C215.12,302.956667 215.12,260.643333 215.06,218.33 C215.06,216.25 215.61,215.64 217.71,215.66 C226.87,215.77 236.03,215.81 245.19,215.66 C247.79,215.66 248.53,216.24 248.52,218.92 C248.39,239.84 248.45,260.74 248.45,281.65 Z" id="Path" fill="#079FD9"></path>
            <path d="M669.21,119.5 C669.21,132.94 669.31,146.37 669.21,159.81 C669.12,168.24 663.01,174.65 654.39,175.81 C646.462712,176.757655 639.014624,171.827529 636.79,164.16 C636.304822,162.536911 636.049011,160.853946 636.03,159.16 C635.983333,132.686667 635.983333,106.21 636.03,79.73 C636.03,72.73 639.21,67.44 645.6,64.45 C651.74,61.58 657.66,62.45 663,66.51 C667.3,69.81 669.25,74.38 669.25,79.78 C669.25,93.02 669.25,106.256667 669.25,119.49 L669.21,119.5 Z" id="Path" fill="#079FD9"></path>
            <path d="M91,119.31 C91,106.07 90.93,92.83 91,79.59 C90.927027,72.2196085 95.7369905,65.6892478 102.797401,63.5729788 C109.857812,61.4567099 117.466811,64.2646435 121.46,70.46 C123.252745,73.2386695 124.188262,76.4834197 124.15,79.79 C124.15,106.17 124.21,132.56 124.15,158.94 C124.15,168.67 116.71,176.1 107.48,176 C98.25,175.9 91.04,168.53 91,158.74 C90.95,145.59 91,132.45 91,119.31 Z" id="Path" fill="#079FD9"></path>
            <path d="M272.67,119.44 C272.67,106.2 272.59,92.96 272.67,79.72 C272.73,72.72 275.9,67.45 282.29,64.47 C288.44,61.6 294.35,62.47 299.66,66.62 C303.620735,69.6449144 305.901496,74.3773069 305.8,79.36 C305.87,106.04 305.91,132.72 305.8,159.36 C305.837337,163.760279 304.115446,167.993174 301.01704,171.11787 C297.918633,174.242566 293.700437,176.000158 289.3,176 C280.05,176 272.76,168.63 272.69,158.87 C272.6,145.72 272.67,132.58 272.67,119.44 Z" id="Path" fill="#079FD9"></path>
            <path d="M487.48,119.62 C487.48,132.75 487.55,145.89 487.48,159.02 C487.43,165.71 484.48,170.96 478.48,174.08 C473.192107,177.0054 466.690759,176.615864 461.79,173.08 C456.35,169.45 454.39,164.08 454.4,157.66 C454.46,135.18 454.4,112.66 454.4,90.21 C454.4,86.43 454.26,82.64 454.51,78.87 C455.14,69.36 462.56,62.41 471.45,62.81 C480.62,63.22 487.4,70.36 487.45,79.9 C487.54,93.16 487.48,106.39 487.48,119.62 Z" id="Path" fill="#059FD8"></path>
            <path d="M0.16,142.18 C0.16,136.61 0.16,131.04 0.16,125.47 C0.25,115.73 7.39,108.35 16.71,108.31 C25.85,108.31 33.17,115.51 33.31,125.09 C33.47,136.423333 33.47,147.756667 33.31,159.09 C33.18,168.72 25.93,176 16.79,176 C7.65,176 0.28,168.61 0.17,158.9 C0.11,153.32 0.16,147.75 0.16,142.18 Z" id="Path" fill="#079FD9"></path>
            <path d="M396.6,142.22 C396.6,147.89 396.72,153.57 396.6,159.22 C396.36,168.22 390.49,174.7 381.72,175.82 C374.18,176.82 366.66,171.75 364.33,164.19 C363.789761,162.376405 363.523489,160.492277 363.54,158.6 C363.54,147.45 363.45,136.3 363.54,125.15 C363.63,117.03 368.87,110.43 376.23,108.75 C383.566454,107.002461 391.153047,110.458027 394.65,117.14 C396.001574,119.815478 396.671409,122.783363 396.6,125.78 C396.62,131.27 396.6,136.75 396.6,142.22 Z" id="Path" fill="#079FD9"></path>
            <path d="M760,142.3 C760,148.07 760.14,153.85 760,159.62 C759.74,168.45 753.56,174.93 744.75,175.89 C737.24,176.71 729.75,171.5 727.67,163.89 C727.20396,162.060249 726.975415,160.178113 726.99,158.29 C726.93,147.54 726.9,136.78 726.99,126.03 C727.06,116.65 732.55,109.91 740.94,108.63 C751,107 759.71,114.45 759.93,125 C760.05,130.75 760,136.53 760,142.3 Z" id="Path" fill="#059FD8"></path>
        </g>
    </g>
</svg>