<svg id="Art" xmlns="http://www.w3.org/2000/svg" viewBox="0 0 575.6 199.83"><defs><style>.cls-1{fill:#58595b;}.cls-2{fill:#e76e25;}.cls-3{fill:#e86d20;}</style></defs><title>GG_WT_Vert_RGB</title><path class="cls-1" d="M19.92,195H14l-1.37,4.63H10.3L16,181.92h1.9l5.71,17.67H21.32Zm-5.39-1.9h4.82l-2.41-8Z"/><path class="cls-1" d="M47.49,194l.23,2,.36-1.75,2.82-12.33h1.86l2.74,12.33.35,1.79.26-2,2.16-12.09h2.22L57,199.59H55L52,186.71l-.18-1-.18,1L48.6,199.59h-2l-3.5-17.67H45.3Z"/><path class="cls-1" d="M79.8,181.92v12.56a5.44,5.44,0,1,1-10.86,0V181.92h2.21v12.46a4.05,4.05,0,0,0,.75,2.67,3.86,3.86,0,0,0,4.91,0,4,4,0,0,0,.76-2.67V181.92Z"/><path class="cls-1" d="M101,199.59H98.74L91.67,186v13.62H89.43V181.92h2.24l7.1,13.68V181.92H101Z"/><path class="cls-1" d="M111,199.59V181.92h4.21a6.07,6.07,0,0,1,4.8,1.93,8,8,0,0,1,1.71,5.45v3a7.77,7.77,0,0,1-1.73,5.42,6.48,6.48,0,0,1-5,1.91Zm2.22-15.77v13.86H115a4.14,4.14,0,0,0,3.42-1.34,6.36,6.36,0,0,0,1.11-4v-3.13a6.38,6.38,0,0,0-1.08-4.1,4,4,0,0,0-3.24-1.31Z"/><path class="cls-1" d="M139.91,191.42h-6.25v6.26h7.28v1.91h-9.5V181.92h9.38v1.9h-7.16v5.7h6.25Z"/><path class="cls-1" d="M155.33,192.44h-3.11v7.15H150V181.92h4.95a5.29,5.29,0,0,1,3.93,1.35,5.41,5.41,0,0,1,1.34,4,5.5,5.5,0,0,1-.72,2.86,4.58,4.58,0,0,1-2.05,1.84l3.42,7.51v.15h-2.39Zm-3.11-1.91h2.7a2.86,2.86,0,0,0,2.22-.9,3.38,3.38,0,0,0,.84-2.4q0-3.4-3.09-3.41h-2.67Z"/><path class="cls-1" d="M172.26,181.92l4.61,14.42,4.61-14.42h2.87v17.67h-2.22v-6.88l.2-6.9-4.62,13.78H176l-4.6-13.73.21,6.85v6.88H169.4V181.92Z"/><path class="cls-1" d="M202.84,195h-6l-1.37,4.63h-2.28l5.69-17.67h1.91l5.7,17.67h-2.28Zm-5.39-1.9h4.82l-2.41-8Z"/><path class="cls-1" d="M226.68,199.59h-2.24L217.37,186v13.62h-2.23V181.92h2.23l7.1,13.68V181.92h2.21Z"/><path class="cls-1" d="M258.48,183.82h-4.64v15.77h-2.22V183.82H247v-1.9h11.5Z"/><path class="cls-1" d="M278.87,199.59h-2.23v-8.17h-7.11v8.17h-2.22V181.92h2.22v7.6h7.11v-7.6h2.23Z"/><path class="cls-1" d="M300.42,192.31a8.81,8.81,0,0,1-1.54,5.57,5.24,5.24,0,0,1-4.38,2,5.29,5.29,0,0,1-4.31-1.9,8.39,8.39,0,0,1-1.65-5.37v-3.32a8.86,8.86,0,0,1,1.57-5.56,5.21,5.21,0,0,1,4.37-2,5.29,5.29,0,0,1,4.35,1.92,8.63,8.63,0,0,1,1.59,5.49Zm-2.22-3.1a7.59,7.59,0,0,0-.91-4.17,3.53,3.53,0,0,0-5.58,0,7.31,7.31,0,0,0-1,4.08v3.17a7.52,7.52,0,0,0,.94,4.12,3.15,3.15,0,0,0,2.81,1.42,3.11,3.11,0,0,0,2.77-1.31,7.29,7.29,0,0,0,.93-4Z"/><path class="cls-1" d="M312.94,181.92l4.61,14.42,4.61-14.42H325v17.67H322.8v-6.88l.21-6.9-4.62,13.78h-1.7l-4.6-13.73.2,6.85v6.88h-2.22V181.92Z"/><path class="cls-1" d="M337.28,192.67v6.92h-2.22V181.92h5.63a5.11,5.11,0,0,1,3.87,1.47,5.46,5.46,0,0,1,1.41,3.93,5.38,5.38,0,0,1-1.34,3.92,5.16,5.16,0,0,1-3.78,1.43Zm0-1.9h3.41a2.87,2.87,0,0,0,2.27-.89,3.68,3.68,0,0,0,.79-2.54,3.85,3.85,0,0,0-.81-2.56,2.79,2.79,0,0,0-2.24-1h-3.42Z"/><path class="cls-1" d="M362.77,195.12a2.68,2.68,0,0,0-.72-2,7.44,7.44,0,0,0-2.58-1.38,11,11,0,0,1-2.86-1.4,4.93,4.93,0,0,1-1.48-1.67A5,5,0,0,1,356,183a5.06,5.06,0,0,1,3.67-1.35,5.53,5.53,0,0,1,2.77.69,4.68,4.68,0,0,1,1.86,1.93A5.67,5.67,0,0,1,365,187h-2.23a3.75,3.75,0,0,0-.79-2.54,2.86,2.86,0,0,0-2.27-.9,2.8,2.8,0,0,0-2.09.75,2.93,2.93,0,0,0-.74,2.12,2.48,2.48,0,0,0,.8,1.87,7.24,7.24,0,0,0,2.48,1.35,8.48,8.48,0,0,1,3.73,2.13,4.77,4.77,0,0,1,1.12,3.3,4.46,4.46,0,0,1-1.39,3.44,5.38,5.38,0,0,1-3.8,1.29,6.11,6.11,0,0,1-2.85-.67,5.08,5.08,0,0,1-2.05-1.9,5.2,5.2,0,0,1-.75-2.79h2.24a3.17,3.17,0,0,0,3.41,3.46,3,3,0,0,0,2.21-.76A2.8,2.8,0,0,0,362.77,195.12Z"/><path class="cls-1" d="M385.63,192.31a8.81,8.81,0,0,1-1.54,5.57,5.27,5.27,0,0,1-4.38,2,5.33,5.33,0,0,1-4.32-1.9,8.45,8.45,0,0,1-1.64-5.37v-3.32a8.86,8.86,0,0,1,1.56-5.56,5.83,5.83,0,0,1,8.72-.08,8.63,8.63,0,0,1,1.6,5.49Zm-2.22-3.1a7.58,7.58,0,0,0-.92-4.17,3.53,3.53,0,0,0-5.58,0,7.32,7.32,0,0,0-1,4.08v3.17a7.43,7.43,0,0,0,.94,4.12,3.54,3.54,0,0,0,5.58.11,7.38,7.38,0,0,0,.93-4Z"/><path class="cls-1" d="M406.82,199.59h-2.23L397.51,186v13.62h-2.23V181.92h2.23l7.1,13.68V181.92h2.21Z"/><path class="cls-1" d="M439.86,194a6.5,6.5,0,0,1-1.59,4.35,5.4,5.4,0,0,1-4.1,1.51,5,5,0,0,1-4.22-2,8.75,8.75,0,0,1-1.57-5.48v-3.2a8.47,8.47,0,0,1,1.61-5.45,5.31,5.31,0,0,1,4.39-2,5.12,5.12,0,0,1,4,1.52,6.67,6.67,0,0,1,1.52,4.39h-2.24a5.52,5.52,0,0,0-.91-3.09,2.87,2.87,0,0,0-2.33-.92A3.17,3.17,0,0,0,431.6,185a7.34,7.34,0,0,0-1,4.15v3.24a7.74,7.74,0,0,0,.9,4.11,2.94,2.94,0,0,0,2.64,1.44,3.17,3.17,0,0,0,2.5-.87,5.37,5.37,0,0,0,.95-3.09Z"/><path class="cls-1" d="M460.58,192.31a8.81,8.81,0,0,1-1.54,5.57,5.27,5.27,0,0,1-4.38,2,5.33,5.33,0,0,1-4.32-1.9,8.45,8.45,0,0,1-1.64-5.37v-3.32a8.86,8.86,0,0,1,1.56-5.56,5.22,5.22,0,0,1,4.37-2A5.29,5.29,0,0,1,459,183.6a8.63,8.63,0,0,1,1.6,5.49Zm-2.22-3.1a7.58,7.58,0,0,0-.92-4.17,3.53,3.53,0,0,0-5.58,0,7.32,7.32,0,0,0-.95,4.08v3.17a7.43,7.43,0,0,0,.94,4.12,3.14,3.14,0,0,0,2.81,1.42,3.09,3.09,0,0,0,2.76-1.31,7.37,7.37,0,0,0,.94-4Z"/><path class="cls-1" d="M473.09,181.92l4.61,14.42,4.61-14.42h2.87v17.67H483v-6.88l.2-6.9-4.62,13.78h-1.7l-4.6-13.73.21,6.85v6.88h-2.22V181.92Z"/><path class="cls-1" d="M497.44,192.67v6.92h-2.22V181.92h5.63a5.11,5.11,0,0,1,3.87,1.47,5.46,5.46,0,0,1,1.41,3.93,5.35,5.35,0,0,1-1.35,3.92,5.16,5.16,0,0,1-3.78,1.43Zm0-1.9h3.41a2.9,2.9,0,0,0,2.27-.89,3.73,3.73,0,0,0,.78-2.54,3.85,3.85,0,0,0-.81-2.56,2.76,2.76,0,0,0-2.23-1h-3.42Z"/><path class="cls-1" d="M521.77,195h-6l-1.37,4.63h-2.29l5.7-17.67h1.9l5.71,17.67h-2.29Zm-5.39-1.9h4.82l-2.42-8Z"/><path class="cls-1" d="M545.6,199.59h-2.23L536.3,186v13.62h-2.24V181.92h2.24l7.09,13.68V181.92h2.21Z"/><path class="cls-1" d="M559.92,190.79l3.62-8.87h2.51L561,193v6.59h-2.22V193l-5-11.08h2.53Z"/><g id="Gorilla"><polygon class="cls-2" points="490.03 87.22 502.79 87.22 496.4 72.18 490.03 87.22"/><path class="cls-2" d="M235,62.91c-1.05,0-2.07,0-3,.06a19.41,19.41,0,0,0-2.24.25V79.67c.62.07,1.26.13,1.93.16.86,0,1.69.07,2.52.07,3.74,0,6.45-.82,8.2-2.37A8.09,8.09,0,0,0,245,71.06a7.34,7.34,0,0,0-2.59-5.88C240.72,63.68,238.27,62.91,235,62.91Z"/><path class="cls-2" d="M172.34,67.93a14.55,14.55,0,0,0-5-3.76,15.22,15.22,0,0,0-6.42-1.35,15.55,15.55,0,0,0-6.47,1.35,14.44,14.44,0,0,0-5,3.76,18.11,18.11,0,0,0-3.27,5.74,22.44,22.44,0,0,0,0,14.42,17.63,17.63,0,0,0,3.27,5.71A15.1,15.1,0,0,0,160.9,99a15,15,0,0,0,11.44-5.15,17.82,17.82,0,0,0,3.27-5.71,22.44,22.44,0,0,0,0-14.42A18.3,18.3,0,0,0,172.34,67.93Z"/><path class="cls-3" d="M0,0V161.61H575.6V0ZM101,102l-.28.18a37.66,37.66,0,0,1-8.82,4.18,34.52,34.52,0,0,1-10.55,1.49h-.08a28.67,28.67,0,0,1-10.54-2,27.07,27.07,0,0,1-8.84-5.49,27.43,27.43,0,0,1-6-30.62,26.7,26.7,0,0,1,14.94-14,29.45,29.45,0,0,1,10.52-1.92,32.38,32.38,0,0,1,10.14,1.46,38.9,38.9,0,0,1,8.33,3.94l.46.29-4.55,8-.52-.33a27.08,27.08,0,0,0-6.53-3.08A22.67,22.67,0,0,0,81.81,63a19.24,19.24,0,0,0-7.56,1.39,15.66,15.66,0,0,0-5.49,3.81,16.87,16.87,0,0,0-3.42,5.67,20.53,20.53,0,0,0-1.18,7,19.11,19.11,0,0,0,1.35,7.29,16.84,16.84,0,0,0,3.75,5.7A17.65,17.65,0,0,0,81.74,99a23.41,23.41,0,0,0,5.59-.58,18,18,0,0,0,4.17-1.63V87.61h-12V78.76H101Zm84.24-10.4a25.69,25.69,0,0,1-5.63,8.58,26.06,26.06,0,0,1-8.48,5.64,26.77,26.77,0,0,1-10.47,2h-.09a26.46,26.46,0,0,1-10.45-2,25,25,0,0,1-8.33-5.65,25.56,25.56,0,0,1-5.46-8.56,28.69,28.69,0,0,1-2-10.72,28,28,0,0,1,2-10.8,25.56,25.56,0,0,1,14.13-14.22,27.14,27.14,0,0,1,10.53-2,26.55,26.55,0,0,1,10.49,2,25,25,0,0,1,8.29,5.65,25.57,25.57,0,0,1,5.47,8.57,29.09,29.09,0,0,1,2,10.8A27.92,27.92,0,0,1,185.28,91.61Zm63.31,16.17-.78-1.15L236.66,88.21a9,9,0,0,1-1,0h-1.4c-.85,0-1.7,0-2.56,0-.66,0-1.31,0-2-.06v19.63h-9.9v-53l.52-.06c2.06-.24,4.18-.44,6.33-.6s4.6-.24,7.22-.24a31.77,31.77,0,0,1,9.57,1.28,19.94,19.94,0,0,1,6.73,3.52,14,14,0,0,1,4,5.34,17,17,0,0,1,1.26,6.58,16.13,16.13,0,0,1-2.68,9.19,17,17,0,0,1-7,5.85l14.09,22.1Zm56.68,0h-9.9V53.92h9.9Zm72.64,0H345.52V53.92h9.89V98.65h22.5Zm66,0H411.52V54h9.91V98.66h22.48Zm67.94,0h-.4l-5.3-12.48H486.67l-5.29,12.48H471.07L495.55,54h2l24.4,53.8Z"/></g></svg>