<svg width="457px" height="149px" viewBox="0 0 457 149" version="1.1" xmlns="http://www.w3.org/2000/svg" xmlns:xlink="http://www.w3.org/1999/xlink">
    <g id="Page-1" stroke="none" stroke-width="1" fill="none" fill-rule="evenodd">
        <g id="logo_Google_FullColor_298x98px">
            <path d="M58.5765306,115.469388 C26.755102,115.469388 0,89.5561224 0,57.7346939 C0,25.9132653 26.755102,0 58.5765306,0 C76.1785714,0 88.7142857,6.90306122 98.1428571,15.9183673 L87.0153061,27.0459184 C80.25,20.7091837 71.0969388,15.7806122 58.5765306,15.7806122 C35.3418367,15.7806122 17.1734694,34.5153061 17.1734694,57.75 C17.1734694,80.9846939 35.3418367,99.7040816 58.5765306,99.7040816 C73.6377551,99.7040816 82.2397959,93.6428571 87.7193878,88.1632653 C92.2193878,83.6632653 95.1887755,77.1734694 96.3061224,68.3112245 L58.1632653,68.3112245 L58.1632653,52.5459184 L111.658163,52.5459184 C112.22449,55.3622449 112.5,58.744898 112.5,62.4030612 C112.5,74.2346939 109.255102,88.8826531 98.8469388,99.2908163 C88.7142857,109.836735 75.75,115.469388 58.5765306,115.469388 Z" id="Path" fill="#4285F4"></path>
            <path d="M192.627551,78.2908163 C192.627551,99.6887755 175.897959,115.469388 155.357143,115.469388 C134.816327,115.469388 118.086735,99.7040816 118.086735,78.2908163 C118.086735,56.7397959 134.816327,41.1122449 155.357143,41.1122449 C175.897959,41.1122449 192.627551,56.7397959 192.627551,78.2908163 Z M176.311224,78.2908163 C176.311224,64.9132653 166.607143,55.7602041 155.357143,55.7602041 C144.107143,55.7602041 134.403061,64.9132653 134.403061,78.2908163 C134.403061,91.5306122 144.107143,100.821429 155.357143,100.821429 C166.607143,100.821429 176.311224,91.5306122 176.311224,78.2908163 Z" id="Shape" fill="#E94235" fill-rule="nonzero"></path>
            <path d="M273.75,78.2908163 C273.75,99.6887755 257.020408,115.469388 236.479592,115.469388 C215.938776,115.469388 199.209184,99.7040816 199.209184,78.2908163 C199.209184,56.7397959 215.938776,41.1122449 236.479592,41.1122449 C257.020408,41.1122449 273.75,56.7397959 273.75,78.2908163 Z M257.433673,78.2908163 C257.433673,64.9132653 247.729592,55.7602041 236.479592,55.7602041 C225.229592,55.7602041 215.52551,64.9132653 215.52551,78.2908163 C215.52551,91.5306122 225.229592,100.821429 236.479592,100.821429 C247.729592,100.821429 257.433673,91.5306122 257.433673,78.2908163 Z" id="Shape" fill="#FABB05" fill-rule="nonzero"></path>
            <path d="M351.352041,43.377551 L351.352041,110.127551 C351.352041,137.586735 335.158163,148.852041 316.010204,148.852041 C297.979592,148.852041 287.142857,136.744898 283.056122,126.887755 L297.27551,120.979592 C299.816327,127.040816 306,134.219388 316.010204,134.219388 C328.255102,134.219388 335.862245,126.612245 335.862245,112.392857 L335.862245,107.035714 L335.295918,107.035714 C331.637755,111.535714 324.596939,115.484694 315.719388,115.484694 C297.137755,115.484694 280.086735,99.2908163 280.086735,78.4591837 C280.086735,57.4744898 297.122449,41.1428571 315.719388,41.1428571 C324.581633,41.1428571 331.637755,45.0918367 335.295918,49.4540816 L335.862245,49.4540816 L335.862245,43.3928571 L351.352041,43.3928571 L351.352041,43.377551 Z M336.994898,78.4285714 C336.994898,65.3265306 328.270408,55.7602041 317.142857,55.7602041 C305.877551,55.7602041 296.44898,65.3418367 296.44898,78.4285714 C296.44898,91.377551 305.877551,100.821429 317.142857,100.821429 C328.255102,100.821429 336.994898,91.3928571 336.994898,78.4285714 Z" id="Shape" fill="#4285F4" fill-rule="nonzero"></path>
            <polygon id="Path" fill="#34A853" points="379.438776 3.94897959 379.438776 113.219388 363.107143 113.219388 363.107143 3.94897959"></polygon>
            <path d="M442.744898,90.5357143 L455.418367,98.9846939 C451.331633,105.045918 441.47449,115.454082 424.438776,115.454082 C403.316327,115.454082 387.55102,99.122449 387.55102,78.2755102 C387.55102,56.1734694 403.469388,41.0969388 422.617347,41.0969388 C441.903061,41.0969388 451.346939,56.4489796 454.438776,64.7602041 L456.122449,68.9846939 L406.423469,89.5408163 C410.219388,97.0102041 416.142857,100.806122 424.454082,100.806122 C432.75,100.821429 438.520408,96.7346939 442.744898,90.5357143 Z M403.744898,77.1581633 L436.97449,63.3520408 C435.137755,58.6989796 429.658163,55.4693878 423.168367,55.4693878 C414.872449,55.4846939 403.316327,62.8010204 403.744898,77.1581633 Z" id="Shape" fill="#E94235" fill-rule="nonzero"></path>
        </g>
    </g>
</svg>