<svg width="212px" height="76px" viewBox="0 0 212 76" version="1.1" xmlns="http://www.w3.org/2000/svg" xmlns:xlink="http://www.w3.org/1999/xlink">
    <defs>
        <polygon id="path-1" points="0.06 0.165 47.4092525 0.165 47.4092525 59.254 0.06 59.254"></polygon>
    </defs>
    <g id="Page-1" stroke="none" stroke-width="1" fill="none" fill-rule="evenodd">
        <g id="Ivey-Main-Logo">
            <g id="Group-2">
                <g id="Group-4">
                    <mask id="mask-2" fill="white">
                        <use xlink:href="#path-1"></use>
                    </mask>
                    <g id="Clip-2"></g>
                    <path d="M47.408,24.612 L47.406,3.364 C41.908,1.422 33.275,0.165 23.543,0.165 C13.998,0.165 5.5,1.413 0.004,3.364 L0.001,24.919 C0.001,28.099 -0.143,33.723 2.746,40.456 C6.335,48.818 13.28,55.104 23.19,59.045 L23.703,59.254 L24.212,59.051 C34.132,55.104 41.075,48.818 44.664,40.456 C47.555,33.723 47.408,27.656 47.408,24.612" id="Fill-1" fill="#FFFFFE" mask="url(#mask-2)"></path>
                    <path d="M47.408,24.612 L47.406,3.364 C41.908,1.422 33.275,0.165 23.543,0.165 C13.998,0.165 5.5,1.416 0.004,3.364 L0.001,24.919 C0.001,28.1 -0.143,33.723 2.746,40.455 C6.335,48.818 13.28,55.104 23.19,59.045 L23.703,59.254 L24.212,59.051 C34.132,55.104 41.075,48.818 44.664,40.455 C47.555,33.723 47.408,27.656 47.408,24.612 Z M28.888,47.855 C28.782,47.893 28.654,47.937 28.552,47.986 C28.484,48.02 28.445,48.039 28.437,48.094 C28.432,48.131 28.474,48.187 28.496,48.213 C28.433,48.441 27.895,48.408 27.718,48.475 C27.565,48.525 27.389,48.691 27.29,48.801 C27.19,48.912 27.223,48.886 27.059,48.918 C26.771,48.977 26.833,49.242 26.922,49.453 C27.011,49.664 27.162,49.833 27.353,49.957 C27.419,50.004 27.729,50.122 27.895,50.122 C27.737,50.299 27.511,50.254 27.31,50.336 C27.196,50.381 27.095,50.449 26.972,50.477 C26.802,50.51 26.716,50.5 26.579,50.477 C26.359,50.436 26.187,50.446 26.008,50.462 C25.872,50.479 25.755,50.462 25.635,50.396 C25.583,50.367 25.479,50.29 25.427,50.282 C25.262,50.254 25.395,50.5 25.431,50.586 C25.205,50.8 24.692,50.503 24.487,50.377 C24.307,50.268 24.212,50.016 24.008,49.953 C23.993,50.168 24.005,50.387 24.014,50.602 C24.039,51.262 24.054,51.921 24.073,52.584 C24.084,52.971 24.096,53.358 24.107,53.744 L23.382,53.744 L23.468,49.924 C23.234,49.937 23.144,50.152 22.952,50.233 C22.837,50.287 22.716,50.26 22.606,50.331 C22.489,50.406 22.442,50.503 22.308,50.563 C22.194,50.613 22.055,50.635 21.932,50.629 C21.774,50.629 21.602,50.602 21.515,50.512 C21.591,50.375 21.515,50.228 21.419,50.178 C21.306,50.117 21.15,50.207 21.052,50.233 C20.546,50.357 19.952,50.045 19.494,49.873 C19.494,49.873 20.604,49.686 20.604,49.034 C20.604,48.854 20.521,48.71 20.383,48.593 C20.253,48.486 20.01,48.36 19.839,48.336 C19.563,48.295 19.372,48.367 19.203,48.302 C19.227,48.213 19.076,48.088 18.958,48.005 C18.85,47.926 18.714,47.889 18.593,47.826 C18.37,47.71 18.036,47.5 18.128,47.213 C18.308,47.301 18.48,47.324 18.643,47.238 C18.77,47.168 18.814,47.07 18.814,46.917 C18.813,46.711 18.586,46.576 18.508,46.421 C18.444,46.295 18.387,46.18 18.272,46.09 C18.167,46.008 17.991,45.982 17.987,45.824 C18.2,45.909 18.26,45.721 18.133,45.582 C17.991,45.424 17.807,45.346 17.699,45.151 C17.604,44.975 17.535,44.771 17.531,44.566 C17.531,44.506 17.542,44.336 17.627,44.316 C17.706,44.303 17.733,44.408 17.765,44.459 C17.898,44.654 18.094,44.751 18.292,44.849 C18.542,44.975 18.635,45.037 18.911,45.087 C19.449,45.182 19.791,45.105 20.1,44.818 C20.156,44.771 20.288,44.674 20.352,44.668 C20.457,44.822 20.745,45.115 21.02,45.197 C21.228,45.256 21.463,45.552 21.569,45.643 C21.937,45.968 22.169,45.781 22.167,45.469 C22.166,45.213 22.07,44.875 22.015,44.625 C21.924,44.224 21.843,44.025 21.791,43.606 C21.758,43.352 21.614,43.135 21.521,42.96 C21.426,42.779 21.291,42.319 21.627,42.479 C21.768,42.547 21.976,42.674 22.143,42.648 C22.539,42.595 22.587,42.164 22.662,41.842 C22.703,41.674 22.705,41.539 22.766,41.372 C22.799,41.275 22.847,41.218 22.897,41.217 C22.91,41.266 22.966,41.357 23.052,41.357 C23.206,41.357 23.336,41.095 23.373,40.939 C23.403,40.809 23.431,40.65 23.47,40.537 C23.538,40.338 23.556,40.098 23.661,39.876 C23.702,40.025 23.769,40.289 23.805,40.383 C23.898,40.619 23.978,40.855 24.118,41.055 C24.238,41.223 24.388,41.275 24.578,41.175 C24.673,41.399 24.673,42.132 24.862,42.477 C24.975,42.676 25.117,42.748 25.29,42.748 C25.445,42.748 25.553,42.703 25.665,42.637 C25.801,42.555 25.952,42.455 26.052,42.455 C26.097,42.455 26.124,42.478 26.124,42.521 C26.124,42.674 25.887,43.09 25.854,43.178 C25.782,43.379 25.665,43.602 25.605,43.807 C25.558,43.975 25.504,44.186 25.468,44.364 C25.429,44.561 25.395,44.79 25.38,45.102 C25.372,45.287 25.384,45.621 25.526,45.719 C25.729,45.855 25.984,45.582 26.147,45.456 C26.346,45.301 26.516,45.154 26.666,44.949 C26.776,44.798 26.995,44.408 27.206,44.424 C27.201,44.581 27.425,44.805 27.759,44.855 C27.965,44.889 28.131,44.845 28.252,44.758 C28.408,44.643 28.419,44.649 28.596,44.717 C28.975,44.86 29.605,44.364 29.83,44.186 C29.905,44.264 29.835,44.413 29.736,44.562 C29.557,44.832 29.354,44.92 29.349,45.121 C29.345,45.301 29.126,45.639 29.144,45.834 C29.078,45.951 28.867,46.074 28.772,46.154 C28.492,46.39 28.323,46.659 28.425,47.032 C28.511,47.354 28.778,47.505 29.025,47.505 C29.275,47.505 29.437,47.342 29.519,47.383 C29.568,47.414 29.445,47.562 29.397,47.605 C29.261,47.723 29.041,47.812 28.888,47.855 Z M43.04,17.782 L4.393,17.782 L1.923,15.188 L6.854,16.831 C6.448,15.602 5.32,15.177 4.594,14.128 C4.16,13.503 4.017,12.889 4.061,12.249 C4.194,12.476 4.435,12.788 4.805,13.047 C5.161,13.295 5.642,13.485 6.292,13.626 C7.457,13.878 8.057,14.246 8.569,14.718 L6.045,10.202 L10.393,13.008 C10.213,11.714 9.32,11.042 8.877,9.848 C8.613,9.14 8.621,8.501 8.827,7.894 C8.897,8.145 9.05,8.511 9.345,8.848 C9.631,9.176 10.046,9.481 10.644,9.78 C11.745,10.331 12.237,10.854 12.62,11.464 L11.279,6.399 L14.775,10.176 C14.917,8.906 14.227,8.029 14.096,6.77 C14.02,6.016 14.178,5.39 14.528,4.856 C14.534,5.119 14.593,5.51 14.796,5.912 C14.989,6.298 15.314,6.696 15.818,7.135 C16.784,7.972 17.117,8.616 17.335,9.331 L17.298,4.021 L19.732,8.521 C20.209,7.381 19.706,6.33 19.89,5.084 C20.001,4.333 20.33,3.763 20.802,3.332 C20.745,3.588 20.703,3.978 20.799,4.422 C20.891,4.841 21.108,5.31 21.487,5.86 C22.229,6.936 22.383,7.646 22.413,8.414 L22.421,8.41 L23.716,3.204 L24.958,8.2 C25.71,7.173 25.517,6.003 26.011,4.839 C26.308,4.137 26.762,3.722 27.329,3.421 C27.206,3.654 27.07,4.021 27.05,4.475 C27.031,4.907 27.126,5.415 27.356,6.04 C27.795,7.233 27.77,7.952 27.617,8.682 L30.136,4.021 L30.099,9.144 C31.077,8.375 31.146,7.157 31.911,6.155 C32.371,5.554 32.927,5.266 33.55,5.116 C33.374,5.31 33.148,5.635 33.018,6.066 C32.895,6.481 32.86,6.995 32.927,7.657 C33.057,8.956 32.846,9.654 32.504,10.335 L32.508,10.335 L36.151,6.399 L34.846,11.343 C35.94,10.816 36.338,9.771 37.32,8.995 C37.915,8.524 38.518,8.295 39.158,8.304 C38.937,8.452 38.644,8.706 38.409,9.095 C38.184,9.465 38.022,9.955 37.922,10.614 C37.727,11.896 37.358,12.521 36.861,13.094 L36.881,13.112 L41.386,10.202 L38.898,14.655 C40.111,14.483 40.699,13.512 41.836,13.009 C42.528,12.707 43.186,12.624 43.804,12.791 C43.557,12.878 43.206,13.051 42.883,13.371 C42.575,13.674 42.296,14.108 42.036,14.723 C41.528,15.908 41.019,16.419 40.394,16.853 L40.422,16.883 L45.511,15.188 L43.04,17.782 Z M23.004,28.72 C22.937,28.604 22.669,28.003 21.188,28.003 L16.861,28.003 L16.861,21.009 L17.181,21.009 L17.181,27.683 L21.136,27.683 C21.437,27.683 21.698,27.699 21.922,27.735 C22.72,27.861 23.052,28.182 23.209,28.403 L24.221,28.403 C24.372,28.177 24.692,27.861 25.484,27.735 C25.706,27.699 25.963,27.683 26.265,27.683 L30.232,27.683 L30.232,21.028 L30.55,21.028 L30.55,28.003 L26.213,28.003 C24.734,28.003 24.487,28.609 24.434,28.72 L23.004,28.72 Z M23.532,27.531 L23.532,27.872 C22.927,26.739 20.178,26.923 17.838,27.158 L17.838,20.675 C19.099,20.662 20.34,20.489 21.31,20.489 C22.54,20.489 23.387,20.677 23.532,21.39 L23.532,27.218 C22.785,26.329 20.543,26.413 18.206,26.639 L18.206,26.823 C20.521,26.602 22.966,26.525 23.532,27.531 Z M18.635,24.98 C18.912,24.972 19.205,24.964 19.435,24.964 C19.733,24.964 19.984,24.972 20.231,24.98 L20.231,24.846 L20.103,24.846 C19.713,24.846 19.68,24.806 19.68,24.546 L19.68,23.42 C19.68,23.11 19.729,23.09 19.988,23.09 L20.231,23.09 L20.231,22.959 C19.976,22.966 19.708,22.975 19.435,22.975 C19.183,22.975 18.905,22.966 18.635,22.959 L18.635,23.09 L18.878,23.09 C19.14,23.09 19.187,23.11 19.187,23.42 L19.187,24.546 C19.187,24.806 19.156,24.846 18.763,24.846 L18.635,24.846 L18.635,24.98 Z M21.422,23.603 C21.12,23.42 20.906,23.158 20.906,22.819 C20.906,22.528 21.12,22.006 21.806,22.006 C22.354,22.006 22.591,22.351 22.591,22.659 C22.591,22.979 22.476,23.171 22.019,23.382 C22.462,23.607 22.659,23.848 22.659,24.198 C22.659,24.681 22.281,25.031 21.705,25.031 C21.187,25.031 20.855,24.676 20.855,24.302 C20.855,23.891 21.176,23.686 21.422,23.603 Z M22.192,24.409 C22.192,24.156 22.075,23.991 21.544,23.67 C21.31,23.792 21.188,24.036 21.188,24.26 C21.188,24.676 21.479,24.872 21.714,24.872 C22.045,24.872 22.192,24.628 22.192,24.409 Z M21.917,23.322 C22.119,23.163 22.258,22.997 22.258,22.709 C22.258,22.378 22.035,22.167 21.779,22.167 C21.488,22.167 21.33,22.401 21.33,22.646 C21.33,22.906 21.51,23.084 21.917,23.322 Z M26.092,20.489 C27.064,20.489 28.289,20.673 29.576,20.675 L29.576,27.158 C27.234,26.923 24.487,26.739 23.88,27.872 L23.88,27.531 C24.429,26.509 26.889,26.598 29.218,26.823 L29.218,26.639 C26.867,26.412 24.62,26.316 23.88,27.218 L23.88,21.39 C24.027,20.677 24.871,20.489 26.092,20.489 Z M24.561,23.694 L24.691,23.694 L24.794,23.42 L26.01,23.42 L24.825,25.848 L25.046,25.909 L26.526,22.999 L26.493,22.959 L24.674,22.959 L24.561,23.694 Z M27.491,23.603 C27.188,23.42 26.975,23.158 26.975,22.819 C26.975,22.528 27.188,22.006 27.874,22.006 C28.422,22.006 28.659,22.351 28.659,22.659 C28.659,22.979 28.544,23.171 28.085,23.382 C28.531,23.607 28.731,23.848 28.731,24.198 C28.731,24.681 28.351,25.031 27.773,25.031 C27.253,25.031 26.924,24.676 26.924,24.302 C26.924,23.891 27.246,23.686 27.491,23.603 Z M28.265,24.409 C28.265,24.156 28.146,23.991 27.617,23.67 C27.38,23.792 27.258,24.036 27.258,24.26 C27.258,24.676 27.548,24.872 27.782,24.872 C28.112,24.872 28.265,24.628 28.265,24.409 Z M27.985,23.322 C28.189,23.163 28.323,22.997 28.323,22.709 C28.323,22.378 28.102,22.167 27.849,22.167 C27.559,22.167 27.398,22.401 27.398,22.646 C27.398,22.906 27.58,23.084 27.985,23.322 Z M38.168,47.367 L23.703,35.575 L9.243,47.367 C1.779,38.7 1.834,28.699 1.854,24.573 L1.854,17.786 L1.883,17.786 L23.703,35.575 L45.524,17.786 L45.553,17.786 L45.556,24.573 C45.578,28.699 45.632,38.7 38.168,47.367 Z M11.071,41.026 C14.151,41.031 16.652,38.521 16.656,35.42 C16.662,32.318 14.172,29.8 11.093,29.794 C8.014,29.791 5.514,32.299 5.506,35.399 C5.5,38.5 7.994,41.021 11.071,41.026 Z M14.686,33.094 C14.701,33.263 14.614,33.546 14.548,33.621 C14.489,33.639 14.331,33.657 14.213,33.664 C14.138,33.664 14.119,33.673 14.074,33.749 C13.934,33.986 13.808,34.206 13.664,34.488 C13.631,34.817 13.631,35.134 13.608,35.526 C13.597,35.663 13.617,35.844 13.524,36.003 C13.403,36.157 13.271,36.271 13.163,36.346 C13.141,36.359 13.109,36.398 13.202,36.37 C13.257,36.354 13.515,36.225 13.57,36.206 C13.753,36.147 13.962,35.922 14.252,36.205 C14.392,36.339 14.604,36.467 14.856,36.638 C14.952,36.7 15.001,36.689 15.127,36.799 C15.228,36.887 15.273,37.086 15.334,37.187 C15.489,37.454 15.507,37.616 15.501,37.68 C15.403,37.731 15.039,37.737 14.894,37.693 C14.841,37.602 14.844,37.463 14.817,37.395 C14.766,37.265 14.72,37.201 14.654,37.152 C14.541,37.073 14.458,36.983 14.341,36.92 C14.061,36.762 14.024,36.723 13.818,36.825 C13.627,36.917 13.334,37.185 13.023,37.347 C12.782,37.463 12.116,37.342 11.931,37.178 C11.994,37.357 12.368,37.564 12.647,37.694 C12.61,37.792 12.507,38.307 12.305,38.606 C12.29,38.531 12.247,38.479 12.183,38.479 C11.994,38.479 12.027,38.879 11.849,39.086 C11.836,39.023 11.792,38.957 11.717,38.957 C11.542,38.957 11.562,39.336 11.363,39.533 C11.343,39.449 11.295,39.393 11.213,39.393 C11.136,39.393 11.061,39.469 10.993,39.541 C10.756,39.797 10.642,39.943 10.416,40.182 C9.65,40.137 8.521,39.608 8.124,39.128 C8.846,38.35 9.496,37.574 9.814,37.351 C9.966,36.895 10.422,35.927 10.59,35.482 C10.57,35.437 10.548,35.396 10.523,35.352 C10.408,35.417 10.276,35.436 10.22,35.401 C10.266,35.275 10.27,35.08 10.216,34.925 C10.135,34.973 10.021,34.999 9.937,34.965 C9.989,34.817 9.999,34.639 9.948,34.497 C9.948,34.497 9.948,34.496 9.945,34.496 C9.844,34.541 9.748,34.556 9.671,34.53 C9.715,34.362 9.755,34.2 9.705,33.99 C9.698,33.973 9.693,33.96 9.687,33.945 C9.551,34.015 9.063,34.102 8.952,34.059 C8.881,34.002 9.298,33.578 9.649,33.228 C9.319,33.377 8.889,33.53 8.23,33.66 C7.854,33.735 7.066,33.875 6.51,33.773 C6.415,33.759 6.436,33.636 6.526,33.634 C6.819,33.632 7.216,33.616 7.506,33.546 C7.584,33.526 7.707,33.459 7.483,33.424 C7.246,33.378 6.811,33.31 6.593,33.237 C6.518,33.211 6.559,33.12 6.623,33.125 C6.89,33.145 7.207,33.198 7.435,33.211 C7.567,33.213 7.624,33.196 7.525,33.109 C7.465,33.057 7.277,32.939 7.087,32.825 C7.043,32.802 7.051,32.742 7.103,32.734 C7.252,32.707 7.845,33.078 8.244,33.191 C8.335,33.214 8.408,33.228 8.485,33.214 C8.563,33.203 8.577,33.153 8.572,33.121 C8.556,33.024 8.162,32.839 7.973,32.713 C7.892,32.661 7.977,32.601 8.057,32.624 C8.27,32.687 8.754,32.941 8.972,32.969 C9.149,32.99 9.213,32.941 9.206,32.894 C9.184,32.774 8.515,32.459 8.353,32.34 C8.313,32.315 8.369,32.258 8.414,32.267 C8.757,32.309 9.423,32.768 9.72,32.717 C9.75,32.713 9.793,32.688 9.785,32.644 C9.762,32.513 9.206,32.221 9.067,32.127 C8.999,32.083 9.08,32.037 9.174,32.057 C9.379,32.104 9.694,32.264 9.886,32.361 C9.978,32.406 10.051,32.422 10.142,32.408 C10.266,32.386 10.371,32.258 10.321,31.995 C10.271,31.724 10.022,31.62 9.847,31.572 C9.651,31.518 9.797,31.427 9.964,31.46 C10.283,31.519 10.52,31.67 10.572,31.952 C10.581,32 10.583,32.062 10.586,32.124 C10.592,32.283 10.703,32.227 10.797,32.096 C10.973,31.847 11.01,31.601 10.979,31.433 C10.929,31.145 10.516,31.025 10.516,30.956 C10.516,30.933 10.542,30.915 10.565,30.908 C10.723,30.881 11.154,31.068 11.216,31.416 C11.248,31.6 11.215,31.699 11.185,31.878 C11.176,31.915 11.203,31.945 11.26,31.887 C11.467,31.678 11.638,31.307 11.579,30.971 C11.515,30.613 11.147,30.487 11.136,30.426 C11.133,30.412 11.162,30.386 11.191,30.38 C11.343,30.357 11.751,30.595 11.828,30.992 C11.897,31.344 11.732,32.074 10.641,32.654 C11.099,32.555 11.227,32.568 11.273,32.624 C11.801,32.483 12.14,32.375 12.275,32.406 C12.423,32.632 12.109,32.723 12.107,32.894 C12.109,33.057 12.473,32.786 12.412,33.042 C12.302,33.246 12.16,33.259 11.995,33.32 C11.913,33.377 11.586,33.607 11.411,33.753 C11.937,34.12 12.478,34.678 12.514,34.703 C12.543,34.785 12.673,35.017 12.82,35.362 C12.825,35.369 12.828,35.375 12.831,35.382 C12.905,35.159 13.027,34.784 13.081,34.593 C13.127,34.426 13.11,34.374 13.165,34.275 C13.208,34.193 13.356,34.059 13.489,33.861 C13.606,33.689 13.797,33.419 13.863,33.314 C13.972,33.145 14.083,33.181 14.285,33.122 C14.362,33.104 14.595,33.086 14.686,33.094 Z M10.547,33.12 C10.57,33.094 10.613,33.055 10.652,33.034 C10.737,32.984 10.858,32.958 10.937,32.946 C10.972,33.002 10.956,33.1 10.891,33.173 C10.824,33.251 10.747,33.214 10.679,33.181 C10.628,33.161 10.59,33.162 10.57,33.161 C10.544,33.162 10.528,33.135 10.547,33.12 Z M30.729,35.413 C30.736,32.312 33.234,29.803 36.313,29.807 C39.392,29.812 41.882,32.331 41.876,35.433 C41.873,38.531 39.372,41.04 36.294,41.035 C33.214,41.031 30.724,38.449 30.729,35.413 Z M38.869,31.585 C38.901,31.627 38.923,31.679 38.927,31.74 C38.929,31.878 38.819,31.992 38.681,31.995 C38.543,31.999 38.43,31.888 38.424,31.752 C38.422,31.625 38.515,31.517 38.637,31.497 L38.349,31.053 L37.858,31.267 C37.911,31.31 37.943,31.376 37.948,31.447 C37.949,31.585 37.84,31.702 37.703,31.707 C37.562,31.707 37.448,31.6 37.445,31.46 C37.442,31.354 37.508,31.261 37.599,31.224 C37.453,31.068 37.136,30.831 36.834,30.729 C37.069,31.154 37.196,31.679 37.187,32.119 C37.502,32.098 38.365,32.364 38.693,32.608 C38.961,32.216 39.36,31.838 39.804,31.682 C39.591,31.613 39.174,31.543 38.869,31.585 Z M37.303,32.705 C37.267,32.704 37.228,32.698 37.192,32.693 C37.156,32.684 37.143,32.667 37.132,32.657 C37.122,32.644 37.09,32.605 37.004,32.601 C36.859,32.591 36.784,32.705 36.774,32.772 C36.769,32.823 36.781,32.877 36.812,32.916 C36.84,32.948 36.881,32.969 36.924,32.973 C36.952,32.976 36.984,32.97 37.018,32.958 L37.021,32.957 C37.08,32.92 37.114,32.867 37.134,32.816 C37.143,32.793 37.214,32.764 37.291,32.76 C37.305,32.76 37.32,32.752 37.32,32.737 C37.326,32.72 37.317,32.705 37.303,32.705 Z M35.796,32.786 C35.765,32.839 35.766,32.894 35.778,32.937 C35.778,32.941 35.797,32.964 35.798,32.97 C35.781,33.055 35.785,33.162 35.818,33.314 C35.835,33.4 35.915,33.431 36.064,33.435 C36.064,33.473 36.07,33.509 36.077,33.542 C36.079,33.546 36.079,33.551 36.08,33.555 C35.991,33.578 35.909,33.593 35.833,33.59 C35.6,33.575 35.455,33.446 35.485,33.211 C35.489,33.169 35.501,33.135 35.522,33.094 C35.534,33.075 35.522,33.057 35.504,33.049 C35.422,33.023 35.184,33.218 35.147,33.49 C35.117,33.749 35.259,33.893 35.474,33.905 C35.593,33.913 35.753,33.896 35.92,33.831 C36.207,33.715 36.536,33.679 36.737,33.879 C36.586,33.853 36.194,33.88 36.082,33.902 C35.914,33.934 35.833,34.28 36.018,34.291 C36.161,34.3 36.687,34.268 36.716,34.275 C36.663,34.502 36.322,34.792 35.993,34.862 C35.791,34.778 35.204,34.796 34.937,34.881 C34.603,34.499 34.357,33.797 34.329,33.566 C34.317,33.459 34.312,33.335 34.368,33.238 C34.474,33.046 34.687,33.063 34.792,32.898 C34.846,32.811 34.819,32.705 34.836,32.605 C34.843,32.565 34.929,32.417 34.819,32.37 C34.773,32.427 34.698,32.47 34.601,32.443 C34.537,32.421 34.467,32.4 34.399,32.427 C34.283,32.478 34.259,32.623 34.169,32.72 C34.119,32.77 34.058,32.748 34.07,32.666 C34.097,32.532 34.161,32.406 34.141,32.271 C34.118,32.132 34.018,32.026 33.877,31.95 C33.817,31.917 33.75,31.857 33.683,31.838 C33.615,31.823 33.561,31.847 33.557,31.878 C33.589,31.898 33.615,31.935 33.617,31.992 C33.623,32.112 33.486,32.183 33.484,32.297 C33.48,32.476 33.607,32.637 33.617,32.73 C33.628,32.803 33.567,32.804 33.523,32.78 C33.43,32.73 33.287,32.652 33.153,32.649 C33.044,32.644 32.97,32.734 32.875,32.773 C32.833,32.792 32.66,32.789 32.694,32.871 C32.791,32.89 32.86,32.953 32.893,33.042 C32.917,33.109 32.932,33.163 32.996,33.211 C33.102,33.288 33.327,33.266 33.434,33.287 C33.503,33.301 33.586,33.338 33.607,33.484 C33.623,33.585 33.586,33.699 33.537,33.779 C33.455,33.929 33.409,34.084 33.45,34.226 C33.489,34.17 33.53,34.15 33.575,34.15 C33.67,34.15 33.699,34.257 33.631,34.404 C33.569,34.538 33.528,34.687 33.589,34.859 C33.62,34.803 33.668,34.766 33.721,34.766 C33.805,34.766 33.853,34.857 33.791,35.022 C33.736,35.17 33.72,35.316 33.779,35.458 C33.805,35.396 33.854,35.352 33.917,35.352 C34.006,35.352 34.045,35.445 34.077,35.524 C34.182,35.782 34.352,35.913 34.769,35.913 C34.623,36.189 33.415,36.013 32.922,35.955 C32.817,35.942 32.757,35.913 32.726,35.827 C32.648,35.636 32.829,35.474 32.725,35.271 C32.673,35.17 32.594,35.146 32.506,35.089 C32.467,35.062 32.355,34.92 32.283,34.984 C32.312,35.06 32.307,35.125 32.221,35.202 C32.166,35.25 32.11,35.293 32.101,35.374 C32.084,35.513 32.197,35.644 32.233,35.759 C32.265,35.846 32.211,35.885 32.137,35.829 C32.02,35.741 31.85,35.532 31.671,35.532 C31.547,35.532 31.518,35.604 31.419,35.647 C31.377,35.671 31.188,35.687 31.206,35.782 C31.286,35.796 31.359,35.844 31.382,35.955 C31.399,36.028 31.414,36.102 31.481,36.15 C31.643,36.278 31.9,36.22 32.051,36.252 C32.11,36.263 32.12,36.315 32.064,36.349 C31.936,36.427 31.757,36.477 31.69,36.603 C31.641,36.707 31.671,36.825 31.67,36.928 C31.669,36.974 31.609,37.117 31.709,37.146 C31.758,37.079 31.829,37.027 31.946,37.045 C32.019,37.054 32.083,37.089 32.156,37.052 C32.283,36.988 32.294,36.871 32.36,36.762 C32.394,36.707 32.452,36.651 32.54,36.651 C32.595,36.651 32.646,36.666 32.69,36.706 C32.788,36.789 32.777,36.996 33.074,37.038 C33.057,37.01 33.049,36.969 33.049,36.934 C33.049,36.875 33.087,36.829 33.146,36.829 C33.214,36.829 33.262,36.859 33.322,36.964 C33.402,37.099 33.486,37.141 33.62,37.157 C33.601,37.122 33.589,37.079 33.589,37.042 C33.589,36.978 33.628,36.939 33.684,36.939 C33.718,36.939 33.782,36.953 33.836,37.048 C33.921,37.19 33.986,37.26 34.135,37.276 C34.091,37.191 34.124,37.075 34.238,37.075 C34.352,37.075 34.637,37.178 34.849,37.265 C34.841,37.807 35.193,38.392 35.719,38.749 C35.7,38.645 35.755,38.588 35.833,38.588 C36.046,38.588 36.154,39.09 36.631,39.318 C36.607,39.225 36.657,39.161 36.727,39.161 C36.784,39.161 36.861,39.195 36.901,39.217 C37.329,39.449 37.781,39.742 38.002,39.934 C38.444,39.797 39.171,39.363 39.646,38.877 C39.353,38.786 38.546,38.182 38.265,37.892 C37.76,37.372 37.623,36.825 37.623,36.424 C37.623,36.287 37.644,36.161 37.676,36.06 C37.824,36.147 38.035,36.132 38.162,36.015 C37.93,35.835 37.965,35.479 38.039,35.351 C38.17,35.455 38.402,35.423 38.521,35.317 C38.346,35.208 38.25,34.92 38.342,34.677 C38.438,34.778 38.67,34.785 38.808,34.67 C38.625,34.516 38.528,34.268 38.581,33.978 C38.666,34.095 38.83,34.109 38.948,34.065 C38.875,33.905 38.869,33.647 38.848,33.477 C38.818,33.238 38.75,32.973 38.673,32.829 C38.418,32.608 37.642,32.297 37.16,32.297 C37.096,32.297 37.033,32.309 36.979,32.321 C36.842,32.351 36.749,32.4 36.745,32.422 C36.672,32.532 36.493,32.561 36.333,32.601 C36.218,32.635 35.911,32.72 35.796,32.786 Z M36.534,36.559 L36.493,36.559 C36.461,36.886 36.279,37.388 36.163,37.569 L36.376,37.403 L36.513,37.569 L36.651,37.405 L36.848,37.569 C36.741,37.379 36.565,36.886 36.534,36.559 Z M40.254,38.151 C40.298,38.083 40.354,37.991 40.354,37.991 C40.147,37.676 39.991,37.333 40.02,36.936 C40.053,36.506 40.292,36.376 40.48,36.385 C40.651,36.392 40.767,36.523 40.776,36.711 C40.921,36.587 40.984,36.444 40.995,36.3 C41.002,36.189 40.946,36.018 40.756,35.969 C41.098,35.653 41.064,35.017 40.715,34.773 C40.766,35.23 40.423,35.543 40.119,35.837 C39.708,36.237 39.656,36.685 39.728,37.152 C39.484,36.681 39.372,36.239 39.402,35.797 C39.438,35.309 39.685,34.803 40.043,34.826 C40.159,34.836 40.279,34.894 40.327,34.999 C40.496,34.71 40.377,34.393 40.102,34.372 C40.384,33.695 39.926,33.013 39.55,32.867 C39.646,33.073 39.694,33.276 39.676,33.512 C39.632,34.161 39.062,34.68 39.004,35.646 C38.944,36.693 39.526,37.604 40.15,38.297 C40.15,38.297 40.201,38.229 40.254,38.151 Z M37.795,37.993 L37.756,37.993 C37.724,38.322 37.542,38.824 37.427,39.005 L37.638,38.84 L37.773,39.005 L37.913,38.84 L38.109,39.005 C38.002,38.816 37.827,38.322 37.795,37.993 Z M36.828,33.756 C36.861,33.69 36.878,33.603 36.878,33.551 C36.878,33.512 36.873,33.463 36.835,33.425 C36.794,33.381 36.695,33.363 36.59,33.363 C36.489,33.363 36.376,33.378 36.316,33.419 C36.308,33.446 36.295,33.484 36.279,33.526 C36.47,33.526 36.676,33.574 36.828,33.756 Z" id="Fill-3" fill="#44276C" mask="url(#mask-2)"></path>
                </g>
                <g id="Group" transform="translate(58.000000, 0.000000)" fill="#003C32">
                    <path d="M0.027,58.306 L23.876,58.306 L23.876,56.575 C20.545,56.575 17.873,55.852 17.344,50.638 C17.257,49.787 17.192,48.056 17.192,46.948 L17.192,11.822 C17.192,10.805 17.241,9.27 17.31,8.43 C17.656,4.282 19.313,2.347 23.692,2.347 L23.692,0.614 L0.211,0.614 L0.211,2.347 C4.629,2.347 6.257,4.273 6.591,8.43 C6.659,9.268 6.706,10.804 6.706,11.822 L6.706,46.948 C6.706,48.056 6.643,49.787 6.561,50.638 C6.054,55.89 3.436,56.575 0.027,56.575 L0.027,58.306" id="Fill-5"></path>
                    <path d="M69.838,58.306 L106,58.306 L107.135,45.715 L105.588,45.715 C104.043,51.844 101.121,54.845 95.621,55.174 C94.135,55.26 91.358,55.258 89.992,55.174 C86.724,54.969 85.777,53.362 85.777,50.48 L85.777,36.561 C89.423,35.93 92.735,35.066 95.694,35.066 C98.088,35.066 100.341,35.433 102.189,36.526 L102.888,35.543 C100.872,33.197 98.103,31.7 93.952,31.7 C91.686,31.7 89.366,32.1 85.777,32.77 L85.777,17.19 L93.403,17.19 C98.315,17.19 100.759,19.429 102.112,25.063 L103.588,25.063 L103.588,14.032 L70.567,14.032 L70.567,15.574 C75.044,15.822 75.859,17.771 75.859,21.509 L75.859,34.198 L75.374,34.198 C72.583,34.198 70.432,33.904 68.542,32.244 L67.752,33.085 C68.132,33.896 69.557,36.333 73.324,37.243 C74.001,37.405 74.982,37.535 75.374,37.535 L75.859,37.535 L75.859,50.096 C75.859,54.745 74.384,56.512 69.838,56.766 L69.838,58.306" id="Fill-6"></path>
                    <path d="M44.892,58.805 L47.733,58.805 L61.166,23.825 C63.088,18.87 64.755,16.229 68.363,15.565 L68.363,14.032 L53.919,14.032 L53.919,15.556 C57.124,15.695 58.245,17.365 58.245,19.593 C58.245,20.904 57.724,22.799 57.054,24.58 C57.054,24.58 51.673,39.213 49.992,43.823 L49.561,45.006 L40.228,22.701 C39.607,21.213 39.229,19.874 39.229,18.755 C39.229,16.791 40.662,15.556 43.528,15.556 L43.528,14.032 L22.091,14.032 L22.091,15.595 L22.211,15.605 C25.915,16.369 27.132,18.125 29.325,23.194 L44.892,58.805" id="Fill-7"></path>
                    <path d="M126.656,51.895 C127.895,54.924 128.828,57.291 128.828,60.361 C128.828,62.369 128.222,64.486 127.16,66.262 C125.722,68.674 123.558,70.281 119.408,70.281 C118.165,70.281 117.348,70.268 116.113,70.184 L114.292,75.84 C115.496,75.955 116.522,76 117.991,76 C125.017,76 128.482,72.559 131.911,63.924 C132.913,61.445 134.829,56.062 137.727,47.914 C139.808,42.066 142.471,34.792 145.595,26.145 C147.959,19.869 149.713,16.076 153.767,15.559 L153.767,14.032 L139.069,14.032 L139.069,15.556 C142.03,15.726 143.341,17.307 143.341,19.856 C143.341,21.525 142.768,23.478 142.1,25.395 C140.912,28.811 134.591,46.791 134.591,46.791 L134.317,45.779 C133.611,43.257 132.875,41.244 130.649,36.052 L125.144,23.292 C124.38,21.499 123.917,20.244 123.917,18.869 C123.917,16.627 125.617,15.558 128.204,15.558 L128.204,14.032 L106.752,14.032 L106.752,15.574 C110.976,16.368 112.018,19.072 113.81,22.868 C117.339,30.336 123.604,44.428 126.656,51.895" id="Fill-8"></path>
                </g>
            </g>
        </g>
    </g>
</svg>