<svg width="1157px" height="247px" viewBox="0 0 1157 247" version="1.1" xmlns="http://www.w3.org/2000/svg" xmlns:xlink="http://www.w3.org/1999/xlink">
    <g id="Page-1" stroke="none" stroke-width="1" fill="none" fill-rule="evenodd">
        <g id="Group" transform="translate(-3.000000, -3.000000)">
            <path d="M1109.39041,115.030822 L1072.20548,115.030822 L1072.20548,200.660959 L1046.93151,200.660959 L1046.93151,115.030822 L1029.18493,115.030822 L1029.18493,94.6027397 L1046.93151,94.6027397 L1046.93151,79.8493151 C1046.93151,68.7054795 1050.55822,59.5753425 1057.81507,52.4589041 C1065.07192,45.3390411 1074.37329,41.7808219 1085.7226,41.7808219 C1088.74658,41.7808219 1091.43151,41.9349315 1093.77055,42.2431507 C1096.10616,42.5547945 1098.17123,43.0205479 1099.9589,43.6369863 L1099.9589,65.1986301 C1099.13356,64.7191781 1097.68836,64.1335616 1095.62671,63.4452055 C1093.56164,62.760274 1091.18836,62.4143836 1088.51027,62.4143836 C1083.2774,62.4143836 1079.25685,64.0479452 1076.43493,67.3150685 C1073.61301,70.5821918 1072.20548,75.4143836 1072.20548,81.8082192 L1072.20548,94.6027397 L1109.39041,94.6027397 L1109.39041,70.7705479 L1134.46233,63.1369863 L1134.46233,94.6027397 L1159.73973,94.6027397 L1159.73973,115.030822 L1134.46233,115.030822 L1134.46233,164.65411 C1134.46233,171.191781 1135.64726,175.797945 1138.02055,178.479452 C1140.39384,181.160959 1144.12329,182.503425 1149.21575,182.503425 C1150.65753,182.503425 1152.39384,182.160959 1154.42466,181.472603 C1156.45205,180.784247 1158.2226,179.962329 1159.73973,178.996575 L1159.73973,199.630137 C1158.15411,200.523973 1155.52397,201.349315 1151.84589,202.106164 C1148.16781,202.863014 1144.53767,203.239726 1140.96233,203.239726 C1130.43836,203.239726 1122.54452,200.441781 1117.28425,194.832192 C1112.02055,189.226027 1109.39041,180.784247 1109.39041,169.503425 L1109.39041,115.030822 Z M943.613014,148.356164 C943.613014,159.428082 946.123288,167.886986 951.143836,173.736301 C956.164384,179.582192 963.35274,182.503425 972.705479,182.503425 C981.787671,182.503425 988.69863,179.582192 993.441781,173.736301 C998.188356,167.886986 1000.56164,159.222603 1000.56164,147.736301 C1000.56164,136.318493 998.10274,127.705479 993.184932,121.890411 C988.267123,116.078767 981.369863,113.174658 972.5,113.174658 C963.35274,113.174658 956.25,116.215753 951.195205,122.304795 C946.140411,128.390411 943.613014,137.075342 943.613014,148.356164 Z M917.613014,149.178082 C917.613014,131.640411 922.565068,117.75 932.469178,107.5 C942.373288,97.25 956.130137,92.1267123 973.736301,92.1267123 C990.315068,92.1267123 1003.26027,97.0616438 1012.58219,106.931507 C1021.90068,116.804795 1026.56164,130.130137 1026.56164,146.910959 C1026.56164,164.106164 1021.60616,177.794521 1011.70548,187.972603 C1001.80137,198.15411 988.318493,203.239726 971.260274,203.239726 C954.821918,203.239726 941.770548,198.410959 932.109589,188.746575 C922.445205,179.085616 917.613014,165.893836 917.613014,149.178082 Z M861.390411,122.458904 C861.390411,126.037671 862.523973,128.839041 864.794521,130.869863 C867.061644,132.89726 872.082192,135.458904 879.856164,138.55137 C889.828767,142.544521 896.828767,147.030822 900.85274,152.017123 C904.876712,157.003425 906.886986,163.041096 906.886986,170.123288 C906.886986,180.09589 903.05137,188.109589 895.383562,194.160959 C887.712329,200.215753 877.34589,203.239726 864.277397,203.239726 C859.876712,203.239726 855.010274,202.708904 849.678082,201.640411 C844.349315,200.575342 839.825342,199.219178 836.113014,197.565068 L836.113014,173.013699 C840.65411,176.178082 845.534247,178.684932 850.763699,180.541096 C855.989726,182.400685 860.732877,183.328767 865,183.328767 C870.640411,183.328767 874.80137,182.537671 877.482877,180.955479 C880.167808,179.376712 881.506849,176.726027 881.506849,173.013699 C881.506849,169.571918 880.116438,166.667808 877.328767,164.294521 C874.544521,161.921233 869.263699,159.184932 861.493151,156.092466 C852.277397,152.239726 845.743151,147.907534 841.890411,143.092466 C838.037671,138.277397 836.113014,132.157534 836.113014,124.729452 C836.113014,115.167808 839.910959,107.311644 847.513699,101.15411 C855.109589,95 864.965753,91.9212329 877.071918,91.9212329 C880.784247,91.9212329 884.94863,92.3321918 889.554795,93.1575342 C894.164384,93.9863014 898.013699,95.0513699 901.109589,96.3561644 L901.109589,120.085616 C897.808219,117.883562 893.955479,115.996575 889.554795,114.410959 C885.150685,112.828767 880.784247,112.037671 876.452055,112.037671 C871.705479,112.037671 868.010274,112.965753 865.363014,114.821918 C862.712329,116.681507 861.390411,119.226027 861.390411,122.458904 Z M741.30137,148.356164 C741.30137,159.428082 743.811644,167.886986 748.835616,173.736301 C753.85274,179.582192 761.041096,182.503425 770.393836,182.503425 C779.476027,182.503425 786.386986,179.582192 791.130137,173.736301 C795.876712,167.886986 798.25,159.222603 798.25,147.736301 C798.25,136.318493 795.791096,127.705479 790.873288,121.890411 C785.955479,116.078767 779.061644,113.174658 770.191781,113.174658 C761.041096,113.174658 753.941781,116.215753 748.883562,122.304795 C743.828767,128.390411 741.30137,137.075342 741.30137,148.356164 Z M715.30137,149.178082 C715.30137,131.640411 720.253425,117.75 730.157534,107.5 C740.065068,97.25 753.818493,92.1267123 771.428082,92.1267123 C788.003425,92.1267123 800.952055,97.0616438 810.270548,106.931507 C819.589041,116.804795 824.25,130.130137 824.25,146.910959 C824.25,164.106164 819.297945,177.794521 809.393836,187.972603 C799.489726,198.15411 786.010274,203.239726 768.952055,203.239726 C752.510274,203.239726 739.462329,198.410959 729.797945,188.746575 C720.133562,179.085616 715.30137,165.893836 715.30137,149.178082 Z M704.561644,92.8493151 C706.554795,92.8493151 708.34589,92.989726 709.928082,93.2636986 C711.510274,93.5376712 712.849315,93.880137 713.952055,94.2945205 L713.952055,119.568493 C712.643836,118.606164 710.736301,117.69863 708.226027,116.835616 C705.715753,115.976027 702.671233,115.547945 699.09589,115.547945 C692.972603,115.547945 687.797945,118.126712 683.568493,123.284247 C679.339041,128.441781 677.222603,136.386986 677.222603,147.116438 L677.222603,200.660959 L652.253425,200.660959 L652.253425,94.6027397 L677.222603,94.6027397 L677.222603,111.315068 L677.633562,111.315068 C679.90411,105.537671 683.342466,101.017123 687.952055,97.75 C692.561644,94.4863014 698.09589,92.8493151 704.561644,92.8493151 Z M608.821918,182.503425 C612.534247,182.503425 616.626712,181.64726 621.099315,179.924658 C625.568493,178.205479 629.695205,175.938356 633.479452,173.116438 L633.479452,196.328767 C629.489726,198.599315 624.969178,200.318493 619.910959,201.486301 C614.859589,202.657534 609.30137,203.239726 603.25,203.239726 C587.636986,203.239726 574.945205,198.308219 565.181507,188.434932 C555.414384,178.568493 550.530822,165.962329 550.530822,150.626712 C550.530822,133.568493 555.517123,119.520548 565.493151,108.479452 C575.462329,97.4383562 589.59589,91.9212329 607.893836,91.9212329 C612.571918,91.9212329 617.297945,92.5239726 622.082192,93.7260274 C626.859589,94.9315068 630.657534,96.3219178 633.479452,97.9041096 L633.479452,121.839041 C629.626712,119.020548 625.691781,116.835616 621.664384,115.287671 C617.643836,113.743151 613.530822,112.965753 609.339041,112.965753 C599.503425,112.965753 591.558219,116.164384 585.506849,122.561644 C579.452055,128.958904 576.424658,137.589041 576.424658,148.458904 C576.424658,159.184932 579.332192,167.544521 585.143836,173.527397 C590.955479,179.513699 598.849315,182.503425 608.821918,182.503425 Z M508.130137,200.660959 L533.09589,200.660959 L533.09589,94.6027397 L508.130137,94.6027397 L508.130137,200.660959 Z M505.547945,63.9623288 C505.547945,59.8356164 507.044521,56.380137 510.037671,53.5924658 C513.030822,50.8082192 516.589041,49.4143836 520.715753,49.4143836 C525.116438,49.4143836 528.763699,50.8424658 531.650685,53.6952055 C534.541096,56.5513699 535.986301,59.9726027 535.986301,63.9623288 C535.986301,68.0205479 534.506849,71.4246575 531.547945,74.1746575 C528.589041,76.9280822 524.979452,78.3013699 520.715753,78.3013699 C516.44863,78.3013699 512.856164,76.9109589 509.934932,74.1267123 C507.010274,71.3356164 505.547945,67.9520548 505.547945,63.9623288 Z M484.065068,52.7157534 L484.065068,200.660959 L458.376712,200.660959 L458.376712,84.6986301 L457.965753,84.6986301 L412.05137,200.660959 L395.030822,200.660959 L347.982877,84.6986301 L347.674658,84.6986301 L347.674658,200.660959 L323.945205,200.660959 L323.945205,52.7157534 L360.777397,52.7157534 L403.284247,162.386986 L403.900685,162.386986 L448.780822,52.7157534 L484.065068,52.7157534 Z" id="Fill-1" fill="#6D6E6D"></path>
            <polygon id="Fill-2" fill="#E15D29" points="3.4109589 120.59589 120.59589 120.59589 120.59589 3.4109589 3.4109589 3.4109589"></polygon>
            <polygon id="Fill-3" fill="#84BF41" points="132.791096 120.59589 249.976027 120.59589 249.976027 3.4109589 132.791096 3.4109589"></polygon>
            <polygon id="Fill-4" fill="#00A3DA" points="3.4109589 249.976027 120.59589 249.976027 120.59589 132.791096 3.4109589 132.791096"></polygon>
            <polygon id="Fill-5" fill="#F6BC25" points="132.791096 249.976027 249.976027 249.976027 249.976027 132.791096 132.791096 132.791096"></polygon>
        </g>
    </g>
</svg>