<svg width="84px" height="110px" viewBox="0 0 26 34" version="1.1" xmlns="http://www.w3.org/2000/svg" xmlns:xlink="http://www.w3.org/1999/xlink">
    <g id="Page-1" stroke="none" stroke-width="1" fill="none" fill-rule="evenodd">
        <g id="rbc">
            <path d="M25.7664,29.6817 C25.7664,30.7892 25.3123,31.4313 24.4261,31.7721 C20.9828,33.1002 16.9046,33.7848 13.0252,33.7848 C9.1463,33.7848 5.0682,33.1002 1.6239,31.7721 C0.7381,31.4313 0.284,30.7892 0.284,29.6817 L0.284,0.2877 L25.7664,0.2877 L25.7664,29.6817 Z" id="Path" fill="#0051A5"></path>
            <g id="Group" transform="translate(1.000000, 1.000000)">
                <g fill="#FEDF01">
                    <path d="M6.118,17.2003 C2.5907,14.9982 1.4247,14.0226 1.326,12.5782 C1.3094,12.2843 1.3758,11.7897 1.4989,11.4361 L1.1664,11.2154 C0.8998,11.6388 0.7313,12.1969 0.7313,12.7096 C0.7308,13.5441 0.9984,14.1759 1.326,14.6808 C1.8221,15.4444 2.3436,15.9234 3.6273,16.8863 C5.0121,17.9254 5.9559,19.1378 6.4998,20.4064 L6.6966,20.4064 L6.6966,18.9664 C8.5672,20.0279 10.2166,21.0275 11.0272,22.8121 L11.224,22.8121 C10.9061,20.962 9.8602,19.5362 6.118,17.2003 Z" id="Path"></path>
                    <path d="M22.369,22.8151 L22.1302,22.8151 C22.1302,21.4982 20.9232,21.1393 19.6585,21.1393 L15.7079,21.1393 C15.8348,21.7882 15.8944,22.548 15.7953,23.2657 L15.599,23.2657 C15.2328,20.3072 13.5609,18.8414 11.224,17.2731 L11.224,18.6192 L11.0272,18.6192 C10.4066,17.2301 9.0409,15.9259 7.7484,15.0011 L7.7489,15.0011 C7.4046,14.7555 7.0492,14.5011 6.6966,14.2501 L6.6966,15.7023 L6.4998,15.7023 C5.952,14.2618 4.9569,13.1871 3.5384,11.9078 C2.0067,10.5284 1.388,9.7032 1.0301,8.754 C0.8123,8.1793 0.7513,7.7145 0.743,7.0831 C0.7289,5.9542 1.2997,4.9347 2.0111,4.5528 L2.0111,5.0997 C1.6581,5.5675 1.4754,6.1583 1.4745,6.7589 C1.4735,7.3126 1.6053,7.9293 1.8822,8.4552 C2.7445,10.0978 5.6502,12.1139 7.4959,13.3512 C13.2342,17.1998 14.3797,17.8717 15.3329,19.9142 C15.4388,20.1417 15.5448,20.4479 15.6331,20.8024 C16.4623,20.6744 19.4691,20.2169 20.0238,20.129 C20.1297,20.1124 20.3519,20.0841 20.4666,20.0773 C20.9842,19.7496 21.389,19.3326 21.7445,18.8121 L19.5448,18.6412 C19.4315,18.8937 19.3187,19.1056 19.2196,19.2755 L19.0409,19.2755 C19.1009,19.0519 19.1532,18.8317 19.1976,18.6144 L18.6361,18.5729 L18.6361,18.4532 L19.245,18.378 C19.3607,17.7555 19.4164,17.1671 19.4281,16.6168 L16.6576,16.4601 C16.6424,16.7442 16.64,17.0118 16.6493,17.2599 L16.472,17.2599 C16.4129,16.9835 16.3665,16.7091 16.3309,16.441 L15.724,16.4064 L15.724,16.2213 L16.3006,16.1901 C16.2201,15.4571 16.2147,14.7726 16.2445,14.1852 L14.6248,14.1105 C14.701,14.253 14.7801,14.3976 14.8358,14.5543 C15.1854,15.5318 15.1024,16.6778 14.9867,17.2042 L14.7904,17.2042 C14.7621,16.5943 14.557,15.8473 14.3626,15.3912 C13.9144,14.3351 12.9085,13.402 11.224,12.319 L11.224,13.6686 L11.0272,13.6686 C10.4666,11.8951 9.0716,10.9088 6.9974,9.8434 C5.286,8.965 4.7538,7.9068 4.8504,6.2682 L5.4286,6.6105 C5.5765,8.1432 6.7542,9.027 7.9862,9.0177 C8.7113,9.0128 9.391,8.9166 10.0482,8.7848 C10.9964,8.5934 11.8739,8.4298 12.6068,8.6896 L12.6068,7.7843 L12.0311,7.7843 C11.8255,7.962 11.4081,8.1691 10.7938,8.1783 C10.1185,8.191 8.8407,7.8019 8.8407,6.3741 C8.8407,5.1344 9.8905,4.9366 10.745,4.9366 C11.2015,4.9366 11.9618,4.9195 12.2191,4.9049 C12.4105,4.8937 12.5536,4.8644 12.6463,4.7726 C12.7435,4.6774 12.7728,4.5792 12.7953,4.4527 C12.8221,4.2989 12.8221,4.1412 12.8221,3.8756 C12.8221,3.7779 12.8221,2.9703 12.8221,2.9703 L8.8626,2.9703 L8.8626,4.5382 L7.3646,3.9684 L7.3646,3.5934 L8.0819,3.5934 L8.0819,2.9703 L5.411,2.9703 L5.411,1.6681 L4.4998,1.6681 C4.0125,1.6681 3.452,2.0089 3.4129,2.67 C3.3748,3.3038 3.66,3.8375 4.3123,3.8375 L4.4295,3.8375 L4.4295,4.5963 L4.3123,4.5963 C3.1693,4.5963 2.3075,3.7374 2.3075,2.5978 C2.3075,1.4103 3.3192,0.506 4.5418,0.506 L6.4735,0.506 L6.4735,1.8082 L13.9837,1.8082 C13.9837,1.8082 13.9837,3.3649 13.9837,3.7325 C13.9837,4.0567 13.9662,4.4923 13.9344,4.7677 C13.9124,4.9674 13.8412,5.3282 13.4618,5.6178 C13.2332,5.7921 12.888,5.8624 12.3275,5.8649 C12.1449,5.8658 11.6122,5.8566 10.974,5.8175 C10.1185,5.7638 9.8758,6.0934 9.8412,6.4 C9.8333,6.465 9.8343,6.5279 9.8412,6.5885 C10.242,6.2779 10.8089,6.0592 11.453,6.2613 C12.5863,6.6178 12.9095,6.6495 13.4994,6.1857 L13.5594,6.3185 C13.4959,6.4171 13.3822,6.5582 13.2166,6.6837 L13.764,6.6837 L13.764,9.649 L15.4681,8.628 L20.2508,8.628 C20.2508,8.628 22.2728,9.6842 22.6053,9.8585 C22.8988,10.0128 23.0145,10.1993 23.0604,10.4733 C23.0985,10.7023 23.0394,10.9923 22.9266,11.1778 C22.8563,11.2936 22.307,12.194 22.0164,12.6749 C22.8294,13.5548 23.3783,14.7858 23.3783,16.1568 C23.3783,17.399 22.9188,19.0016 21.4261,20.1925 C22.0824,20.4073 22.5033,20.7648 22.8329,21.2359 L22.369,22.8151 Z M11.7044,6.8443 C11.0326,6.6969 10.6581,6.7799 10.2718,7.1481 C10.4608,7.2384 10.6976,7.2877 10.9593,7.2687 C11.3363,7.2423 11.5711,7.0162 11.7044,6.8443 Z M11.3163,11.1168 L13.2088,9.9825 C12.8377,9.7975 12.4266,9.6803 11.9388,9.6739 C11.287,9.6637 10.1859,9.964 9.6532,10.0455 C9.891,10.2081 10.7367,10.7486 11.3163,11.1168 Z M19.7679,11.2369 L20.0301,10.8692 L19.6239,10.3268 L19.6917,10.2071 L20.8343,10.8234 L20.5853,11.5787 C20.7689,11.6666 20.9388,11.7789 21.1649,11.9288 L21.9027,10.7154 L19.9915,9.7164 L15.7674,9.7164 L12.3397,11.7789 C12.9837,12.2262 13.576,12.7096 13.9969,13.1964 C14.9154,11.86 16.5296,11.0069 18.1273,11.0069 C18.6498,11.0069 19.2586,11.0626 19.7679,11.2369 Z M19.4237,16.0255 C19.4022,15.3946 19.3226,14.8238 19.2171,14.3204 L16.9793,14.2189 C16.825,14.9 16.7245,15.5651 16.6766,16.171 L19.4237,16.0255 Z M20.1776,14.3649 C20.2494,14.9425 20.2567,15.484 20.2201,15.984 L22.4373,15.8663 C22.3807,15.3629 22.2376,14.8859 22.0228,14.4498 L20.1776,14.3649 Z M19.0467,13.6388 C18.8158,12.8385 18.5394,12.2818 18.3939,12.0196 C18.3011,12.0143 18.2074,12.0118 18.1131,12.0118 C17.9574,12.0118 17.8006,12.0318 17.6493,12.0484 C17.4247,12.608 17.2425,13.1739 17.0936,13.7472 L19.0467,13.6388 Z M19.6624,12.2955 C19.8275,12.7389 19.952,13.1695 20.0433,13.5836 L21.3988,13.5089 C20.933,12.9733 20.3377,12.5524 19.6624,12.2955 Z M22.1561,18.0133 C22.3148,17.6285 22.4168,17.2579 22.4447,16.7892 L20.1405,16.6583 C20.0365,17.3033 19.8646,17.8649 19.6815,18.3248 L22.1561,18.0133 Z M16.4725,12.3844 C15.7005,12.7306 15.1688,13.1998 14.6942,13.8741 L16.2713,13.7916 C16.328,13.0914 16.4198,12.6266 16.4725,12.3844 Z" id="Shape" fill-rule="nonzero"></path>
                </g>
                <g transform="translate(1.000000, 23.000000)" fill="#FFFFFF">
                    <path d="M12.5457,3.2189 C13.1883,3.1144 13.8031,2.6144 13.8031,1.8585 C13.8031,1.1769 13.5135,0.4283 11.5072,0.4283 C10.0067,0.4283 8.1224,0.4283 8.1224,0.4283 L8.1224,0.483 C8.2249,0.5143 8.3866,0.5973 8.4925,0.7023 C8.7225,0.9269 8.7982,1.2628 8.8094,1.7081 L8.8094,6.7755 C8.8094,6.7755 10.6639,6.7755 11.6146,6.7755 C13.1576,6.7755 14.2743,6.1871 14.2743,4.839 C14.2743,3.7428 13.4212,3.276 12.5457,3.2189 Z M11.1024,1.0333 C11.8202,1.0333 12.307,1.1886 12.307,1.9552 C12.307,2.7721 11.6546,2.9972 10.9105,2.9972 C10.5497,2.9972 10.2694,2.9972 10.2694,2.9972 L10.2694,1.0333 C10.2694,1.0333 10.6707,1.0333 11.1024,1.0333 Z M11.1747,6.1754 C10.8709,6.1754 10.2694,6.1754 10.2694,6.1754 L10.2694,3.5841 C10.2694,3.5841 10.7616,3.5841 11.1331,3.5841 C12.3197,3.5841 12.7752,3.9376 12.7752,4.8273 C12.7752,5.7897 12.181,6.1754 11.1747,6.1754 Z" id="Shape" fill-rule="nonzero"></path>
                    <path d="M5.6244,6.7755 L7.452,6.7755 L5.117,3.7906 C6.0531,3.5401 6.7542,3.0284 6.7542,2.0983 C6.7542,1.006 6.1009,0.4283 4.3914,0.4283 C2.8758,0.4283 0.8607,0.4283 0.8607,0.4283 L0.8607,0.483 C0.9906,0.5294 1.1361,0.6134 1.2313,0.7071 C1.4784,0.9508 1.5521,1.3229 1.5521,1.8258 C1.5521,1.8273 1.5521,6.7755 1.5521,6.7755 L3.0184,6.7755 L3.0184,3.962 C3.0184,3.962 3.3368,3.962 3.5536,3.962 L5.6244,6.7755 Z M3.0184,1.0333 C3.0184,1.0333 3.5755,1.0333 4.0062,1.0333 C4.8285,1.0333 5.2577,1.2735 5.2577,2.1476 C5.2577,2.9269 4.6961,3.3883 3.7957,3.3883 C3.4349,3.3883 3.0184,3.3883 3.0184,3.3883 L3.0184,1.0333 Z" id="Shape" fill-rule="nonzero"></path>
                    <path d="M20.203,1.298 C20.5951,1.5206 20.7142,1.8111 20.7166,1.8136 C20.7357,1.8351 20.7777,1.8282 20.7777,1.8282 L21.097,0.7428 C21.097,0.7428 20.5238,0.3312 19.1605,0.3312 C17.097,0.3312 15.5521,1.3707 15.5521,3.6451 C15.5521,6.2081 17.3924,6.8736 19.0145,6.8736 C20.5238,6.8736 21.1165,6.3937 21.1165,6.3937 L21.1165,5.649 C21.1165,5.649 20.5833,6.1471 19.4403,6.1471 C18.4955,6.1471 17.1102,5.7159 17.0804,3.6085 C17.0526,1.6637 17.9007,1.0289 19.0374,1.0289 C19.6707,1.0289 19.9876,1.1769 20.203,1.298 Z" id="Path"></path>
                </g>
            </g>
        </g>
    </g>
</svg>