<svg width="500" height="579" viewBox="0 0 500 579" fill="none" xmlns="http://www.w3.org/2000/svg">
<path fill-rule="evenodd" clip-rule="evenodd" d="M456.522 497.204C410.288 546.328 344.67 577 271.888 577C195.759 577 127.467 543.442 81 490.311C82.8154 489.436 84.6953 488.722 86.6285 488.185C86.621 487.791 86.6173 487.396 86.6173 487C86.6173 459.662 104.38 437.5 126.291 437.5C134.606 437.5 142.323 440.692 148.7 446.146C158.581 428.747 174.847 417.391 193.24 417.391C194.872 417.391 196.487 417.48 198.082 417.655C201.801 400.567 214.321 388 229.194 388C241.425 388 252.064 396.499 257.527 409.022C259.993 408.423 262.541 408.109 265.148 408.109C273.888 408.109 281.969 411.636 288.525 417.611C293.869 404.622 304.712 395.734 317.219 395.734C335.022 395.734 349.454 413.741 349.454 435.953C349.454 441.225 348.641 446.26 347.163 450.874C352.664 447.272 358.927 445.234 365.571 445.234C378.442 445.234 389.881 452.881 397.129 464.731C403.115 460.211 410.135 457.609 417.643 457.609C436.835 457.609 452.844 474.612 456.522 497.204Z" fill="#F4F4F4"/>
<path fill-rule="evenodd" clip-rule="evenodd" d="M419.632 529.519C378.034 559.403 327.016 577 271.888 577C215.748 577 163.87 558.751 121.864 527.861C122.18 527.697 122.388 527.368 122.388 527C122.388 509.327 136.715 495 154.388 495C160.742 495 166.663 496.852 171.642 500.045C172.102 500.34 172.715 500.231 173.041 499.793C181.059 488.996 193.906 482 208.388 482C209.42 482 210.445 482.036 211.46 482.106C211.943 482.139 212.384 481.83 212.526 481.367C215.787 470.732 225.685 463 237.388 463C245.41 463 252.585 466.634 257.354 472.345C257.996 473.114 259.388 472.683 259.388 471.681V342C259.388 341.448 259.835 341 260.388 341H282.388C282.94 341 283.388 341.448 283.388 342V480.331C283.388 480.675 283.565 480.994 283.853 481.182C283.998 481.277 284.142 481.373 284.286 481.469C284.795 481.814 285.496 481.647 285.801 481.113C290.28 473.279 298.717 468 308.388 468C322.747 468 334.388 479.641 334.388 494C334.388 496.455 334.047 498.831 333.411 501.082C333.159 501.977 334.132 502.851 334.989 502.491C338.802 500.887 342.991 500 347.388 500C357.446 500 366.421 504.641 372.287 511.898C372.608 512.295 373.172 512.402 373.616 512.15C378.271 509.508 383.653 508 389.388 508C403.39 508 415.291 516.993 419.632 529.519Z" fill="#E9E9E9"/>
<path d="M419.632 529.519L420.799 531.143L422.01 530.273L421.521 528.864L419.632 529.519ZM121.864 527.861L120.943 526.086L118.087 527.567L120.679 529.473L121.864 527.861ZM171.642 500.045L172.722 498.362L172.722 498.362L171.642 500.045ZM173.041 499.793L171.435 498.6H171.435L173.041 499.793ZM211.46 482.106L211.597 480.11H211.597L211.46 482.106ZM212.526 481.367L214.438 481.953V481.953L212.526 481.367ZM257.354 472.345L255.819 473.627V473.627L257.354 472.345ZM283.853 481.182L282.76 482.857L282.76 482.857L283.853 481.182ZM284.286 481.469L285.406 479.812L285.406 479.812L284.286 481.469ZM285.801 481.113L287.537 482.106L285.801 481.113ZM333.411 501.082L335.336 501.626L335.336 501.626L333.411 501.082ZM334.989 502.491L334.213 500.647H334.213L334.989 502.491ZM372.287 511.898L370.732 513.155L372.287 511.898ZM373.616 512.15L372.629 510.411L372.629 510.411L373.616 512.15ZM271.888 579C327.448 579 378.872 561.263 420.799 531.143L418.465 527.894C377.196 557.542 326.584 575 271.888 575V579ZM120.679 529.473C163.017 560.606 215.307 579 271.888 579V575C216.188 575 164.723 556.896 123.048 526.25L120.679 529.473ZM122.784 529.637C123.75 529.136 124.388 528.13 124.388 527H120.388C120.388 526.606 120.61 526.259 120.943 526.086L122.784 529.637ZM124.388 527C124.388 510.431 137.819 497 154.388 497V493C135.61 493 120.388 508.222 120.388 527H124.388ZM154.388 497C160.348 497 165.896 498.736 170.562 501.729L172.722 498.362C167.43 494.968 161.136 493 154.388 493V497ZM170.562 501.729C171.898 502.586 173.688 502.276 174.646 500.985L171.435 498.6C171.742 498.186 172.305 498.095 172.722 498.362L170.562 501.729ZM174.646 500.985C182.303 490.675 194.566 484 208.388 484V480C193.247 480 179.814 487.317 171.435 498.6L174.646 500.985ZM208.388 484C209.374 484 210.353 484.034 211.322 484.101L211.597 480.11C210.537 480.037 209.466 480 208.388 480V484ZM211.322 484.101C212.75 484.199 214.029 483.288 214.438 481.953L210.614 480.78C210.74 480.371 211.135 480.078 211.597 480.11L211.322 484.101ZM214.438 481.953C217.449 472.135 226.588 465 237.388 465V461C224.781 461 214.126 469.329 210.614 480.78L214.438 481.953ZM237.388 465C244.793 465 251.413 468.351 255.819 473.627L258.889 471.063C253.756 464.916 246.028 461 237.388 461V465ZM255.819 473.627C256.763 474.758 258.18 474.915 259.221 474.582C260.275 474.245 261.388 473.247 261.388 471.681H257.388C257.388 471.442 257.479 471.21 257.621 471.039C257.75 470.883 257.893 470.807 258.002 470.772C258.187 470.713 258.587 470.702 258.889 471.063L255.819 473.627ZM261.388 471.681V342H257.388V471.681H261.388ZM261.388 342C261.388 342.552 260.94 343 260.388 343V339C258.731 339 257.388 340.343 257.388 342H261.388ZM260.388 343H282.388V339H260.388V343ZM282.388 343C281.835 343 281.388 342.552 281.388 342H285.388C285.388 340.343 284.045 339 282.388 339V343ZM281.388 342V480.331H285.388V342H281.388ZM281.388 480.331C281.388 481.37 281.922 482.31 282.76 482.857L284.946 479.507C285.208 479.678 285.388 479.981 285.388 480.331H281.388ZM282.76 482.857C282.896 482.946 283.031 483.036 283.166 483.126L285.406 479.812C285.253 479.71 285.1 479.608 284.946 479.507L282.76 482.857ZM283.166 483.126C284.649 484.129 286.66 483.639 287.537 482.106L284.065 480.121C284.331 479.654 284.941 479.498 285.406 479.812L283.166 483.126ZM287.537 482.106C291.675 474.87 299.464 470 308.388 470V466C297.971 466 288.885 471.689 284.065 480.121L287.537 482.106ZM308.388 470C321.643 470 332.388 480.745 332.388 494H336.388C336.388 478.536 323.852 466 308.388 466V470ZM332.388 494C332.388 496.27 332.073 498.462 331.487 500.539L335.336 501.626C336.022 499.199 336.388 496.641 336.388 494H332.388ZM331.487 500.539C331.114 501.858 331.676 503.055 332.451 503.747C333.226 504.441 334.488 504.871 335.764 504.334L334.213 500.647C334.634 500.47 334.98 500.643 335.118 500.766C335.254 500.889 335.456 501.201 335.336 501.626L331.487 500.539ZM335.764 504.334C339.336 502.832 343.262 502 347.388 502V498C342.72 498 338.268 498.942 334.213 500.647L335.764 504.334ZM347.388 502C356.817 502 365.229 506.348 370.732 513.155L373.843 510.641C367.613 502.934 358.076 498 347.388 498V502ZM370.732 513.155C371.668 514.314 373.308 514.625 374.603 513.889L372.629 510.411C373.036 510.18 373.548 510.277 373.843 510.641L370.732 513.155ZM374.603 513.89C378.965 511.414 384.008 510 389.388 510V506C383.298 506 377.577 507.603 372.629 510.411L374.603 513.89ZM389.388 510C402.512 510 413.672 518.428 417.742 530.173L421.521 528.864C416.911 515.558 404.268 506 389.388 506V510Z" fill="#4D4D4D"/>
<path d="M367 518.5C370.6 512.9 379 509 383 508.5" stroke="#4D4D4D" stroke-width="4" stroke-linecap="round"/>
<path d="M169 511.5C169 506.3 172 501 173.5 499" stroke="#4D4D4D" stroke-width="4" stroke-linecap="round"/>
<path d="M208 482C215.2 482 219 483.667 220 484.5" stroke="#4D4D4D" stroke-width="4" stroke-linecap="round"/>
<path d="M238 517C244.4 507.4 261 507 266 517M275 518H278.5" stroke="#4D4D4D" stroke-width="4" stroke-linecap="round"/>
<path d="M276 382.5V399M276 407.5V411.5" stroke="#4D4D4D" stroke-width="4" stroke-linecap="round"/>
<path d="M172 192C172 183.163 179.163 176 188 176C196.837 176 204 183.163 204 192V312H172V192Z" fill="#C4C4C4"/>
<path fill-rule="evenodd" clip-rule="evenodd" d="M184 176.504C177.099 178.28 172 184.545 172 192V312H184V176.504Z" fill="#A6A6A6"/>
<path fill-rule="evenodd" clip-rule="evenodd" d="M198 312.496H204V192.496C204 187.443 201.658 182.937 198 180.005V312.496Z" fill="#E9E9E9"/>
<path d="M172 192C172 183.163 179.163 176 188 176V176C196.837 176 204 183.163 204 192V312H172V192Z" stroke="#4D4D4D" stroke-width="4"/>
<rect x="176" y="312" width="24" height="40" fill="#C4C4C4" stroke="#4D4D4D" stroke-width="4"/>
<rect x="176" y="312" width="10" height="40" fill="#A6A6A6"/>
<rect x="176" y="312" width="24" height="40" stroke="#4D4D4D" stroke-width="4"/>
<path d="M177 334.341C171.578 335.057 168 336.286 168 337.682C168 339.892 176.954 341.682 188 341.682C199.046 341.682 208 339.892 208 337.682C208 336.374 204.858 335.212 200 334.482" stroke="#4D4D4D" stroke-width="4"/>
<path d="M177 321C171.578 321.715 168 322.945 168 324.341C168 326.55 176.954 328.341 188 328.341C199.046 328.341 208 326.55 208 324.341C208 323.033 204.858 321.871 200 321.141" stroke="#4D4D4D" stroke-width="4"/>
<path d="M188.571 378.287C188.229 378.515 187.774 378.51 187.439 378.273C176.577 370.632 171.494 365.448 164.871 355.976C164.458 355.385 164.795 354.565 165.503 354.433C183.033 351.157 193.386 351.217 210.571 354.446C211.259 354.575 211.602 355.359 211.226 355.949C204.952 365.802 199.633 370.908 188.571 378.287Z" fill="#FFEFB6" stroke="#4D4D4D" stroke-width="4"/>
<path fill-rule="evenodd" clip-rule="evenodd" d="M164.737 355.703C165.506 355.113 166.331 354.584 167.202 354.122C166.643 354.222 166.077 354.325 165.503 354.433C164.899 354.546 164.565 355.159 164.737 355.703ZM179.641 352.388C189.814 351.475 198.51 352.18 210.571 354.446C211.259 354.575 211.602 355.358 211.226 355.949C205.395 365.106 200.389 370.163 190.83 376.756C192.419 374.296 193.333 371.415 193.333 368.334C193.333 360.533 187.475 354.01 179.641 352.388Z" fill="#FFD081"/>
<path d="M188.571 378.287C188.229 378.515 187.774 378.51 187.439 378.273C176.577 370.632 171.494 365.448 164.871 355.976C164.458 355.385 164.795 354.565 165.503 354.433C183.033 351.157 193.386 351.217 210.571 354.446C211.259 354.575 211.602 355.359 211.226 355.949C204.952 365.802 199.633 370.908 188.571 378.287Z" stroke="#4D4D4D" stroke-width="4"/>
<path d="M332 192C332 183.163 339.163 176 348 176C356.836 176 364 183.163 364 192V312H332V192Z" fill="#C4C4C4"/>
<path fill-rule="evenodd" clip-rule="evenodd" d="M344 176.504C337.099 178.28 332 184.545 332 192V312H344V176.504Z" fill="#A6A6A6"/>
<path fill-rule="evenodd" clip-rule="evenodd" d="M358 312.496H364V192.496C364 187.443 361.658 182.937 358 180.005V312.496Z" fill="#E9E9E9"/>
<path d="M332 192C332 183.163 339.163 176 348 176V176C356.836 176 364 183.163 364 192V312H332V192Z" stroke="#4D4D4D" stroke-width="4"/>
<rect x="336" y="312" width="24" height="40" fill="#C4C4C4" stroke="#4D4D4D" stroke-width="4"/>
<rect x="336" y="312" width="10" height="40" fill="#A6A6A6"/>
<rect x="336" y="312" width="24" height="40" stroke="#4D4D4D" stroke-width="4"/>
<path d="M337 334.341C331.578 335.057 328 336.286 328 337.682C328 339.892 336.954 341.682 348 341.682C359.045 341.682 368 339.892 368 337.682C368 336.374 364.858 335.212 360 334.482" stroke="#4D4D4D" stroke-width="4"/>
<path d="M337 321C331.578 321.715 328 322.945 328 324.341C328 326.55 336.954 328.341 348 328.341C359.045 328.341 368 326.55 368 324.341C368 323.033 364.858 321.871 360 321.141" stroke="#4D4D4D" stroke-width="4"/>
<path d="M348.57 378.287C348.229 378.515 347.774 378.51 347.438 378.273C336.577 370.632 331.494 365.448 324.871 355.976C324.458 355.385 324.795 354.565 325.503 354.433C343.033 351.157 353.386 351.217 370.57 354.446C371.259 354.575 371.602 355.359 371.226 355.949C364.952 365.802 359.632 370.908 348.57 378.287Z" fill="#FFEFB6" stroke="#4D4D4D" stroke-width="4"/>
<path fill-rule="evenodd" clip-rule="evenodd" d="M324.736 355.703C325.506 355.113 326.331 354.584 327.202 354.122C326.643 354.222 326.077 354.325 325.503 354.433C324.899 354.546 324.565 355.159 324.736 355.703ZM339.641 352.388C349.814 351.475 358.51 352.18 370.57 354.446C371.259 354.575 371.602 355.358 371.226 355.949C365.395 365.106 360.388 370.163 350.83 376.756C352.419 374.296 353.333 371.415 353.333 368.334C353.333 360.533 347.475 354.01 339.641 352.388Z" fill="#FFD081"/>
<path d="M348.57 378.287C348.229 378.515 347.774 378.51 347.438 378.273C336.577 370.632 331.494 365.448 324.871 355.976C324.458 355.385 324.795 354.565 325.503 354.433C343.033 351.157 353.386 351.217 370.57 354.446C371.259 354.575 371.602 355.359 371.226 355.949C364.952 365.802 359.632 370.908 348.57 378.287Z" stroke="#4D4D4D" stroke-width="4"/>
<path fill-rule="evenodd" clip-rule="evenodd" d="M326.448 191.08C326.23 191.032 326 191.153 326 191.375V317.375C326 317.928 326.448 318.375 327 318.375H374.079C374.592 318.375 375.022 317.986 375.071 317.475C375.681 311.12 376 304.569 376 297.875C376 242.691 354.339 197.218 326.448 191.08Z" fill="#F4F4F4"/>
<path d="M375.071 317.475L377.062 317.666L375.071 317.475ZM328 317.375V191.375H324V317.375H328ZM327 316.375C327.552 316.375 328 316.823 328 317.375H324C324 319.032 325.343 320.375 327 320.375V316.375ZM374.079 316.375H327V320.375H374.079V316.375ZM374 297.875C374 304.506 373.684 310.993 373.081 317.284L377.062 317.666C377.678 311.247 378 304.633 378 297.875H374ZM326.018 193.034C339.065 195.905 351.074 208.123 359.871 226.933C368.629 245.658 374 270.525 374 297.875H378C378 270.041 372.54 244.579 363.495 225.238C354.488 205.981 341.721 192.394 326.878 189.127L326.018 193.034ZM374.079 320.375C375.617 320.375 376.914 319.209 377.062 317.666L373.081 317.284C373.131 316.763 373.568 316.375 374.079 316.375V320.375ZM328 191.375C328 192.043 327.622 192.566 327.187 192.832C326.797 193.071 326.374 193.112 326.018 193.034L326.878 189.127C326.304 189.001 325.657 189.078 325.098 189.421C324.494 189.791 324 190.485 324 191.375H328Z" fill="#4D4D4D"/>
<path fill-rule="evenodd" clip-rule="evenodd" d="M215.552 191.08C215.77 191.032 216 191.153 216 191.375V317.375C216 317.928 215.552 318.375 215 318.375H167.921C167.408 318.375 166.978 317.986 166.929 317.475C166.319 311.12 166 304.569 166 297.875C166 242.691 187.661 197.218 215.552 191.08Z" fill="#F4F4F4"/>
<path d="M166.929 317.475L164.938 317.666L166.929 317.475ZM214 317.375V191.375H218V317.375H214ZM215 316.375C214.448 316.375 214 316.823 214 317.375H218C218 319.032 216.657 320.375 215 320.375V316.375ZM167.921 316.375H215V320.375H167.921V316.375ZM168 297.875C168 304.506 168.316 310.993 168.919 317.284L164.938 317.666C164.322 311.247 164 304.633 164 297.875H168ZM215.982 193.034C202.935 195.905 190.926 208.123 182.129 226.933C173.371 245.658 168 270.525 168 297.875H164C164 270.041 169.46 244.579 178.505 225.238C187.512 205.981 200.279 192.394 215.122 189.127L215.982 193.034ZM167.921 320.375C166.383 320.375 165.086 319.209 164.938 317.666L168.919 317.284C168.869 316.763 168.432 316.375 167.921 316.375V320.375ZM214 191.375C214 192.043 214.378 192.566 214.813 192.832C215.203 193.071 215.626 193.112 215.982 193.034L215.122 189.127C215.696 189.001 216.343 189.078 216.902 189.421C217.506 189.791 218 190.485 218 191.375H214Z" fill="#4D4D4D"/>
<path d="M207 223.642C207 183.98 218.793 145.213 240.879 112.269L264.678 76.7725C266.262 74.4091 269.738 74.4092 271.322 76.7725L295.121 112.269C317.207 145.213 329 183.98 329 223.642V345.184C329 345.737 328.552 346.184 328 346.184H208C207.448 346.184 207 345.737 207 345.184V223.642Z" fill="#F2463A"/>
<path fill-rule="evenodd" clip-rule="evenodd" d="M300.76 346.184C302.886 325.254 304 303.627 304 281.5C304 203.655 290.21 132.002 267.072 75.078C268.577 74.7781 270.227 75.343 271.186 76.7725L294.984 112.269C317.071 145.213 328.863 183.98 328.863 223.642V345.184C328.863 345.737 328.416 346.184 327.863 346.184H300.76Z" fill="#F56F65"/>
<path d="M271.322 76.7725L269.661 77.8863L271.322 76.7725ZM240.879 112.269L239.218 111.156L240.879 112.269ZM327 223.642V345.184H331V223.642H327ZM328 344.184H208V348.184H328V344.184ZM209 345.184V223.642H205V345.184H209ZM242.541 113.383L266.339 77.8863L263.016 75.6588L239.218 111.156L242.541 113.383ZM269.661 77.8863L293.459 113.383L296.782 111.156L272.984 75.6588L269.661 77.8863ZM266.339 77.8863C267.131 76.7046 268.869 76.7046 269.661 77.8863L272.984 75.6588C270.607 72.1137 265.393 72.1137 263.016 75.6588L266.339 77.8863ZM208 344.184C208.552 344.184 209 344.632 209 345.184H205C205 346.841 206.343 348.184 208 348.184V344.184ZM327 345.184C327 344.632 327.448 344.184 328 344.184V348.184C329.657 348.184 331 346.841 331 345.184H327ZM331 223.642C331 183.583 319.089 144.429 296.782 111.156L293.459 113.383C315.325 145.997 327 184.376 327 223.642H331ZM209 223.642C209 184.376 220.675 145.997 242.541 113.383L239.218 111.156C216.911 144.429 205 183.583 205 223.642H209Z" fill="#4D4D4D"/>
<path d="M268 177.649V324M268 162.912V75" stroke="#4D4D4D" stroke-width="4" stroke-linecap="round"/>
<path d="M295.268 156.408C286.052 127.63 248.273 128.02 240.553 156.648C240.321 157.507 241.277 158.192 242.058 157.766C255.949 150.201 280.93 150.513 293.726 157.58C294.537 158.027 295.551 157.29 295.268 156.408Z" fill="#48DEE2" stroke="#4D4D4D" stroke-width="4" stroke-linecap="round"/>
<path d="M208 229H232" stroke="#4D4D4D" stroke-width="4" stroke-linecap="round"/>
<path d="M208 237H224" stroke="#4D4D4D" stroke-width="4" stroke-linecap="round"/>
<path d="M328 328H304" stroke="#4D4D4D" stroke-width="4" stroke-linecap="round"/>
<path d="M328 336H312" stroke="#4D4D4D" stroke-width="4" stroke-linecap="round"/>
<path d="M326.353 203.969C327.44 203.774 328.163 202.735 327.969 201.647C327.774 200.56 326.735 199.837 325.647 200.031L326.353 203.969ZM305.692 206.737C306.791 206.631 307.597 205.654 307.491 204.554C307.385 203.455 306.407 202.649 305.308 202.755L305.692 206.737ZM316.244 201.516C315.148 201.658 314.375 202.661 314.516 203.756C314.658 204.852 315.661 205.625 316.756 205.484L316.244 201.516ZM207.647 203.969C235.068 208.88 274.005 209.793 305.692 206.737L305.308 202.755C273.908 205.784 235.345 204.866 208.353 200.031L207.647 203.969ZM316.756 205.484C320.634 204.983 322.851 204.596 326.353 203.969L325.647 200.031C322.169 200.654 320.026 201.028 316.244 201.516L316.756 205.484Z" fill="#4D4D4D"/>
<path d="M327.353 278.969C328.44 278.774 329.163 277.735 328.969 276.647C328.774 275.56 327.735 274.837 326.647 275.031L327.353 278.969ZM304.192 282.491C305.291 282.385 306.097 281.407 305.991 280.308C305.885 279.209 304.907 278.403 303.808 278.509L304.192 282.491ZM318.744 276.516C317.648 276.658 316.875 277.661 317.016 278.756C317.158 279.852 318.161 280.625 319.256 280.484L318.744 276.516ZM208.647 278.969C236.037 283.874 272.47 285.55 304.192 282.491L303.808 278.509C272.443 281.534 236.377 279.871 209.353 275.031L208.647 278.969ZM319.256 280.484C321.234 280.228 322.417 279.999 323.551 279.754C324.669 279.511 325.654 279.273 327.353 278.969L326.647 275.031C324.856 275.352 323.756 275.616 322.704 275.844C321.668 276.069 320.597 276.277 318.744 276.516L319.256 280.484Z" fill="#4D4D4D"/>
<circle cx="268" cy="207" r="16" fill="#48DEE2" stroke="#4D4D4D" stroke-width="4"/>
<circle cx="268" cy="207" r="24" stroke="#4D4D4D" stroke-width="4"/>
<circle cx="268" cy="279" r="16" fill="#48DEE2" stroke="#4D4D4D" stroke-width="4"/>
<circle cx="268" cy="279" r="24" stroke="#4D4D4D" stroke-width="4"/>
<rect x="232" y="346.382" width="72" height="16" rx="1" fill="#C4C4C4" stroke="#4D4D4D" stroke-width="4"/>
<path d="M240.5 356V362" stroke="#4D4D4D" stroke-width="4" stroke-linecap="round"/>
<path d="M248.5 356V362" stroke="#4D4D4D" stroke-width="4" stroke-linecap="round"/>
<path d="M257 356V362" stroke="#4D4D4D" stroke-width="4" stroke-linecap="round"/>
<path d="M265 356V362" stroke="#4D4D4D" stroke-width="4" stroke-linecap="round"/>
<path d="M273 356V362" stroke="#4D4D4D" stroke-width="4" stroke-linecap="round"/>
<path d="M281 356V362" stroke="#4D4D4D" stroke-width="4" stroke-linecap="round"/>
<path d="M289 356V362" stroke="#4D4D4D" stroke-width="4" stroke-linecap="round"/>
<path d="M297 356V362" stroke="#4D4D4D" stroke-width="4" stroke-linecap="round"/>
<path d="M176 317V301" stroke="#4D4D4D" stroke-width="4" stroke-linecap="round"/>
<path d="M184 317V309" stroke="#4D4D4D" stroke-width="4" stroke-linecap="round"/>
<path d="M76 388.314C82.7342 386.519 84.9373 383.729 87.3137 377C88.2832 384.017 90.6992 386.54 98.6274 388.314C90.5769 389.957 88.0954 392.43 87.3137 399.627C85.1724 391.917 82.6374 389.527 76 388.314Z" fill="#F4F4F4" stroke="#4D4D4D" stroke-width="4"/>
<path d="M423 124.97C429.734 123.176 431.937 120.386 434.314 113.657C435.283 120.673 437.699 123.197 445.627 124.97C437.577 126.613 435.095 129.087 434.314 136.284C432.172 128.573 429.637 126.184 423 124.97Z" fill="#F4F4F4" stroke="#4D4D4D" stroke-width="4"/>
<path d="M134 49.3137C140.734 47.5189 142.937 44.7293 145.314 38C146.283 45.0167 148.699 47.5399 156.627 49.3137C148.577 50.9567 146.095 53.4305 145.314 60.6274C143.172 52.9166 140.637 50.5273 134 49.3137Z" fill="#F4F4F4" stroke="#4D4D4D" stroke-width="4"/>
<path d="M101 411.657C104.367 410.759 105.469 409.365 106.657 406C107.142 409.508 108.35 410.77 112.314 411.657C108.288 412.478 107.048 413.715 106.657 417.314C105.586 413.458 104.319 412.264 101 411.657Z" fill="#4D4D4D"/>
<path d="M397 254.657C400.367 253.759 401.469 252.365 402.657 249C403.142 252.508 404.35 253.77 408.314 254.657C404.288 255.478 403.048 256.715 402.657 260.314C401.586 256.458 400.319 255.264 397 254.657Z" fill="#4D4D4D"/>
<path d="M0 300.657C3.36712 299.759 4.46863 298.365 5.65685 295C6.1416 298.508 7.34962 299.77 11.3137 300.657C7.28845 301.478 6.0477 302.715 5.65685 306.314C4.58622 302.458 3.3187 301.264 0 300.657Z" fill="#4D4D4D"/>
<path d="M196 93.3137C199.367 92.4163 200.469 91.0215 201.657 87.6569C202.142 91.1652 203.35 92.4268 207.314 93.3137C203.288 94.1352 202.048 95.3721 201.657 98.9706C200.586 95.1152 199.319 93.9205 196 93.3137Z" fill="#4D4D4D"/>
<circle cx="428" cy="392" r="8" fill="#F89790" stroke="#4D4D4D" stroke-width="4"/>
<circle cx="340" cy="114" r="4" fill="#F89790"/>
<circle cx="348" cy="4" r="4" fill="#F89790"/>
<circle cx="50" cy="179" r="4" fill="#F89790"/>
<circle cx="130" cy="255" r="8" fill="#F89790" stroke="#4D4D4D" stroke-width="4"/>
<circle cx="70" cy="136" r="20" fill="#FFD081"/>
<path fill-rule="evenodd" clip-rule="evenodd" d="M73.5294 155.69C72.3837 155.894 71.2043 156 70 156C58.9543 156 50 147.046 50 136C50 124.954 58.9543 116 70 116C71.2043 116 72.3837 116.106 73.5294 116.31C66.9757 117.977 62 126.159 62 136C62 145.841 66.9757 154.023 73.5294 155.69Z" fill="#FFEFB6"/>
<circle cx="70" cy="136" r="20" stroke="#4D4D4D" stroke-width="4"/>
<path d="M49.9931 139.932C43.3693 143.123 39.3527 145.783 39.7848 146.97C40.5403 149.046 54.6157 145.829 71.223 139.784C87.8303 133.74 100.681 127.157 99.9251 125.081C99.4873 123.878 94.5775 124.452 87.2945 126.324" stroke="#4D4D4D" stroke-width="4"/>
<path d="M59.2322 133.988C58.5481 132.109 59.2304 128.136 60.7678 126.512" stroke="white" stroke-width="4" stroke-linecap="round"/>
<circle cx="471" cy="322" r="16" fill="#48DEE2"/>
<path fill-rule="evenodd" clip-rule="evenodd" d="M473.858 337.752C472.942 337.915 471.998 338 471.035 338C462.198 338 455.035 330.837 455.035 322C455.035 313.163 462.198 306 471.035 306C471.998 306 472.942 306.085 473.858 306.248C468.615 307.582 464.635 314.127 464.635 322C464.635 329.873 468.615 336.418 473.858 337.752Z" fill="#88FCFF"/>
<circle cx="471" cy="322" r="16" stroke="#4D4D4D" stroke-width="4"/>
<path d="M460.602 309.881C455.741 306.568 452.291 304.85 451.642 305.624C450.506 306.978 458.365 315.443 469.196 324.531C480.026 333.619 489.727 339.888 490.863 338.535C491.522 337.75 489.16 334.578 484.95 330.281" stroke="#4D4D4D" stroke-width="4"/>
<path d="M455.77 316.767C449.905 316.328 446.058 316.564 445.882 317.56C445.576 319.3 456.614 322.701 470.538 325.156C484.461 327.612 495.998 328.191 496.305 326.45C496.482 325.442 492.851 323.876 487.057 322.259" stroke="#4D4D4D" stroke-width="4"/>
<path d="M466 314.886C466.547 313.383 469.008 311.299 470.786 311.094" stroke="white" stroke-width="4" stroke-linecap="round"/>
</svg>
