<svg width="1373" height="1145" viewBox="0 0 1373 1145" fill="none" xmlns="http://www.w3.org/2000/svg">
<path fill-rule="evenodd" clip-rule="evenodd" d="M1116.5 39C1130.31 39 1141.5 50.1929 1141.5 64V102.25C1141.5 137.182 1113.18 165.5 1078.25 165.5H512C460.914 165.5 419.5 206.914 419.5 258C419.5 309.086 460.914 350.5 512 350.5H1152C1253.62 350.5 1336 432.88 1336 534.5V609V860V907C1336 1008.62 1253.62 1091 1152 1091H144V1123H1152C1271.29 1123 1368 1026.29 1368 907V860V609V534.5C1368 415.207 1271.29 318.5 1152 318.5H512C478.587 318.5 451.5 291.413 451.5 258C451.5 224.587 478.587 197.5 512 197.5H1078.25C1130.86 197.5 1173.5 154.855 1173.5 102.25V64C1173.5 32.5198 1147.98 7 1116.5 7V39Z" fill="#E9E9E9"/>
<path fill-rule="evenodd" clip-rule="evenodd" d="M1121.5 25C1143.32 25 1161 42.6848 1161 64.5V103.75C1161 147.242 1125.74 182.5 1082.25 182.5H516C473.474 182.5 439 216.974 439 259.5C439 302.026 473.474 336.5 516 336.5H1160.97C1265.51 336.5 1350.83 420.135 1352.93 524.654L1354.5 603V603.081V853.917V854L1353.14 918.061C1350.93 1022.49 1265.64 1106 1161.19 1106H149V1122H1161.19C1274.35 1122 1366.75 1031.53 1369.14 918.399L1370.5 854.169L1370.5 854.085V854V603V602.92L1370.5 602.84L1368.93 524.333C1366.66 411.105 1274.22 320.5 1160.97 320.5H516C482.311 320.5 455 293.189 455 259.5C455 225.811 482.311 198.5 516 198.5H1082.25C1134.58 198.5 1177 156.079 1177 103.75V64.5C1177 33.8482 1152.15 9 1121.5 9V25Z" fill="#D2D2D2"/>
<path d="M1119.5 39H1117.5V41H1119.5V39ZM147 1091V1089H145V1091H147ZM147 1123H145V1125H147V1123ZM1119.5 7V5H1117.5V7H1119.5ZM1146.5 64C1146.5 49.0883 1134.41 37 1119.5 37V41C1132.2 41 1142.5 51.2974 1142.5 64H1146.5ZM1146.5 102.25V64H1142.5V102.25H1146.5ZM1081.25 167.5C1117.29 167.5 1146.5 138.287 1146.5 102.25H1142.5C1142.5 136.077 1115.08 163.5 1081.25 163.5V167.5ZM515 167.5H1081.25V163.5H515V167.5ZM424.5 258C424.5 208.018 465.018 167.5 515 167.5V163.5C462.809 163.5 420.5 205.809 420.5 258H424.5ZM515 348.5C465.018 348.5 424.5 307.982 424.5 258H420.5C420.5 310.191 462.809 352.5 515 352.5V348.5ZM1155 348.5H515V352.5H1155V348.5ZM1341 534.5C1341 431.775 1257.72 348.5 1155 348.5V352.5C1255.52 352.5 1337 433.984 1337 534.5H1341ZM1341 609V534.5H1337V609H1341ZM1341 860V609H1337V860H1341ZM1341 907V860H1337V907H1341ZM1155 1093C1257.72 1093 1341 1009.72 1341 907H1337C1337 1007.52 1255.52 1089 1155 1089V1093ZM147 1093H1155V1089H147V1093ZM149 1123V1091H145V1123H149ZM1155 1121H147V1125H1155V1121ZM1369 907C1369 1025.19 1273.19 1121 1155 1121V1125C1275.4 1125 1373 1027.4 1373 907H1369ZM1369 860V907H1373V860H1369ZM1369 609V860H1373V609H1369ZM1369 534.5V609H1373V534.5H1369ZM1155 320.5C1273.19 320.5 1369 416.311 1369 534.5H1373C1373 414.102 1275.4 316.5 1155 316.5V320.5ZM515 320.5H1155V316.5H515V320.5ZM452.5 258C452.5 292.518 480.482 320.5 515 320.5V316.5C482.691 316.5 456.5 290.309 456.5 258H452.5ZM515 195.5C480.482 195.5 452.5 223.482 452.5 258H456.5C456.5 225.691 482.691 199.5 515 199.5V195.5ZM1081.25 195.5H515V199.5H1081.25V195.5ZM1174.5 102.25C1174.5 153.751 1132.75 195.5 1081.25 195.5V199.5C1134.96 199.5 1178.5 155.96 1178.5 102.25H1174.5ZM1174.5 64V102.25H1178.5V64H1174.5ZM1119.5 9C1149.88 9 1174.5 33.6243 1174.5 64H1178.5C1178.5 31.4152 1152.08 5 1119.5 5V9ZM1121.5 39V7H1117.5V39H1121.5Z" fill="#4D4D4D"/>
<path d="M528.5 175H568.5M580.5 175H588.5" stroke="white" stroke-width="4" stroke-linecap="round"/>
<path d="M1137.5 341H1177.5M1189.5 341H1197.5" stroke="white" stroke-width="4" stroke-linecap="round"/>
<path d="M1102.5 2H1114.5C1116.71 2 1118.5 3.79086 1118.5 6V38C1118.5 40.2091 1116.71 42 1114.5 42H1102.5V2Z" fill="#F4F4F4" stroke="#4D4D4D" stroke-width="4"/>
<path d="M146 1088H230C232.209 1088 234 1089.79 234 1092V1124C234 1126.21 232.209 1128 230 1128H146V1088Z" fill="#F9F9F9"/>
<path d="M146 1088H230C232.209 1088 234 1089.79 234 1092V1100C234 1102.21 232.209 1104 230 1104H146V1088Z" fill="#E9E9E9"/>
<path d="M146 1088H230C232.209 1088 234 1089.79 234 1092V1124C234 1126.21 232.209 1128 230 1128H146V1088Z" stroke="#4D4D4D" stroke-width="4"/>
<rect x="66" y="1071" width="80" height="72" rx="1" fill="#F9F9F9" stroke="#4D4D4D" stroke-width="4"/>
<rect x="66" y="1071" width="80" height="24" rx="1" fill="#E9E9E9"/>
<rect x="66" y="1122" width="80" height="12" rx="1" fill="white"/>
<rect x="66" y="1071" width="80" height="72" rx="1" stroke="#4D4D4D" stroke-width="4"/>
<path d="M90 1113L99.5756 1101.88C99.9745 1101.42 100.692 1101.42 101.091 1101.88L109.909 1112.12C110.308 1112.58 111.025 1112.58 111.424 1112.12L121 1101" stroke="#BCBCBC" stroke-width="6" stroke-linecap="round"/>
<rect x="2" y="1076" width="64" height="64" rx="1" fill="#E9E9E9"/>
<rect x="2" y="1076" width="64" height="24" rx="1" fill="#D2D2D2"/>
<rect x="4" y="1131" width="64" height="8" rx="1" fill="white"/>
<rect x="2" y="1076" width="64" height="64" rx="1" stroke="#4D4D4D" stroke-width="4"/>
<rect x="26" y="1088" width="16" height="12" rx="1" fill="#FFEFB6" stroke="#4D4D4D" stroke-width="4"/>
<rect x="26" y="1116" width="16" height="12" rx="1" fill="#FFEFB6" stroke="#4D4D4D" stroke-width="4"/>
<circle cx="59" cy="1100" r="2" fill="#4D4D4D"/>
<circle cx="59" cy="1108" r="2" fill="#4D4D4D"/>
<circle cx="59" cy="1116" r="2" fill="#4D4D4D"/>
</svg>
