<svg width="671" height="446" viewBox="0 0 671 446" fill="none" xmlns="http://www.w3.org/2000/svg">
<path d="M280.266 379.423L214.467 359.812C200.829 366.377 185.885 369.776 170.749 369.756C119.29 369.756 77.4258 331.427 77.4258 284.319C77.4258 237.21 119.29 198.882 170.749 198.882C222.209 198.882 264.073 237.204 264.073 284.319C264.073 308.097 253.157 330.921 234.091 347.062L280.266 379.423ZM214.362 358.393L214.611 358.465L272.879 375.842L231.942 347.141L232.599 346.589C251.77 330.672 262.765 307.965 262.765 284.306C262.765 237.92 221.492 200.183 170.756 200.183C120.019 200.183 78.7468 237.92 78.7468 284.306C78.7468 330.691 120.019 368.428 170.756 368.428C185.78 368.45 200.612 365.057 214.132 358.504L214.362 358.393Z" fill="white"/>
<path d="M451.646 233.661C451.646 233.661 445.488 215.108 435.216 214.366C435.216 214.366 439.409 232.623 451.442 238.479L451.646 233.661Z" fill="#F2463A"/>
<path d="M452.895 216.357C452.895 216.357 445.212 197.784 438.437 197.364C438.437 197.364 441.775 215.654 452.238 219.407L452.895 216.357Z" fill="#F2463A"/>
<path d="M450.923 232.603C450.923 232.603 461.741 216.317 471.862 218.309C471.862 218.309 463.029 234.818 449.878 237.315L450.923 232.603Z" fill="#F2463A"/>
<path d="M451.751 215.989C451.751 215.989 460.131 197.719 466.939 197.587C466.939 197.587 462.917 215.733 452.316 219.091L451.751 215.989Z" fill="#F2463A"/>
<path d="M383.054 380.12C383.054 380.12 374.976 374.79 366.972 378.582C366.972 378.582 369.436 383.327 379.57 382.874L383.054 380.12Z" fill="#F2463A"/>
<path d="M384.026 380.403C384.026 380.403 386.484 389.761 380.32 396.13C380.32 396.13 376.613 392.272 380.32 382.821L384.026 380.403Z" fill="#F2463A"/>
<path d="M394.114 371.419C394.114 371.419 393.523 363.46 375.548 366.095C375.548 366.095 375.463 371.234 381.772 373.666C388.081 376.098 390.973 374.047 394.114 371.419Z" fill="#F2463A"/>
<path d="M395.199 371.366C395.199 371.366 402.796 373.804 396.02 390.662C396.02 390.662 391.006 389.544 390.105 382.834C389.205 376.124 391.913 373.791 395.199 371.366Z" fill="#F2463A"/>
<path d="M405.399 360.075C405.399 360.075 406.424 346.971 388.061 348.318C388.061 348.318 386.747 360.147 402.158 363.223L405.399 360.075Z" fill="#F2463A"/>
<path d="M417.544 345.288C417.544 345.288 415.026 330.442 396.664 334.865C396.664 334.865 396.598 347.7 414.547 348.824L417.544 345.288Z" fill="#F2463A"/>
<path d="M426.403 330.001C426.403 330.001 422.19 315.543 403.999 319.867C403.999 319.867 408.33 332.873 425.2 332.67L426.403 330.001Z" fill="#F2463A"/>
<path d="M434.835 315.07C434.835 315.07 430.708 300.066 413.147 304.554C413.147 304.554 419.003 318.809 433.672 317.607L434.835 315.07Z" fill="#F2463A"/>
<path d="M440.263 300.887C440.263 300.887 437.096 282.538 420.718 286.599C420.718 286.599 425.476 303.292 439.061 303.562L440.263 300.887Z" fill="#F2463A"/>
<path d="M445.357 283.754C445.357 283.754 441.552 265.253 424.983 270.61C424.983 270.61 431.483 288.091 444.187 286.284L445.357 283.754Z" fill="#F2463A"/>
<path d="M448.511 267.803C448.511 267.803 442.472 249.309 429.663 249.809C429.663 249.809 435.834 269.348 447.407 271.497L448.511 267.803Z" fill="#F2463A"/>
<path d="M450.509 252.247C450.509 252.247 443.937 229.981 433.514 231.696C433.514 231.696 438.062 248.718 450.141 255.717L450.509 252.247Z" fill="#F2463A"/>
<path d="M453.749 200.242C453.749 200.242 449.024 180.073 442.229 178.397C442.229 178.397 443.162 194.899 453.066 201.754L453.749 200.242Z" fill="#F2463A"/>
<path d="M456.319 179.153C456.319 179.153 451.357 163.077 445.856 160.626C445.856 160.626 446.941 179.58 455.057 183.089L456.319 179.153Z" fill="#F2463A"/>
<path d="M458.429 165.305L459.428 136.953C459.428 136.953 449.162 158.352 457.673 170.306L458.429 165.305Z" fill="#F2463A"/>
<path d="M466.368 137.131C466.368 137.131 473.774 116.429 475.569 115.272C475.569 115.272 461.051 128.705 462.464 145.983L466.368 137.131Z" fill="#F2463A"/>
<path d="M405.898 359.99C405.898 359.99 418.924 358.281 418.536 376.696C418.536 376.696 406.766 378.608 402.921 363.387L405.898 359.99Z" fill="#F2463A"/>
<path d="M418.155 344.789C418.155 344.789 433.205 344.743 431.956 363.585C431.956 363.585 419.325 365.839 415.158 348.351L418.155 344.789Z" fill="#F2463A"/>
<path d="M426.554 331.217C426.554 331.217 440.217 324.809 448.958 341.351C448.958 341.351 436.34 346.688 425.345 333.892L426.554 331.217Z" fill="#F2463A"/>
<path d="M435.137 315.208C435.137 315.208 449.129 308.392 457.344 324.547C457.344 324.547 442.767 329.568 433.98 317.764L435.137 315.208Z" fill="#F2463A"/>
<path d="M440.086 301.288C440.086 301.288 453.552 288.42 464.298 301.433C464.298 301.433 450.542 312.02 439.468 304.153L440.086 301.288Z" fill="#F2463A"/>
<path d="M444.594 283.313C444.594 283.313 458.139 270.169 468.799 283.918C468.799 283.918 453.591 294.716 444.108 286.073L444.594 283.313Z" fill="#F2463A"/>
<path d="M447.118 267.278C447.118 267.278 457.555 250.847 469.844 254.521C469.844 254.521 459.014 271.917 447.236 271.142L447.118 267.278Z" fill="#F2463A"/>
<path d="M450.2 252.142C450.2 252.142 460.716 231.447 470.666 235.055C470.666 235.055 463.082 250.959 449.931 255.632L450.2 252.142Z" fill="#F2463A"/>
<path d="M453.414 199.848C453.414 199.848 462.727 181.334 469.719 181.302C469.719 181.302 464.955 197.127 453.723 201.471L453.414 199.848Z" fill="#F2463A"/>
<path d="M454.814 180.289C454.814 180.289 461.78 164.976 467.544 163.241C467.544 163.241 464.061 181.906 455.576 184.351L454.814 180.289Z" fill="#F2463A"/>
<path d="M459.257 164.799L474.826 141.08C474.826 141.08 470.837 164.477 456.983 169.34L459.257 164.799Z" fill="#F2463A"/>
<path d="M469.943 139.037C469.943 139.037 488.036 126.55 488.693 124.526C488.693 124.526 479.492 142.021 462.405 145.109L469.943 139.037Z" fill="#F2463A"/>
<path d="M471.027 133.418C471.027 133.418 491.808 113.452 497.105 113.471C497.105 113.471 479.972 114.253 470.528 132.359L471.027 133.418Z" fill="#F2463A"/>
<path d="M455.005 183.253L455.767 183.352C459.671 152.792 465.362 134.719 471.79 132.504L471.54 131.781C464.731 134.147 459.014 151.951 455.005 183.253Z" fill="#444053"/>
<path d="M449.274 256.315L450.417 256.414C450.66 253.562 450.844 250.644 450.969 247.732C452.06 222.443 453.749 199.217 455.971 181.808L455.313 180.986C453.085 198.428 450.923 222.357 449.832 247.686C449.701 250.578 449.517 253.483 449.274 256.315Z" fill="#444053"/>
<path d="M361.72 394.664C361.917 394.579 382.048 385.588 402.94 364.143C415.182 351.588 425.353 337.169 433.073 321.425C442.734 301.755 448.623 277.582 450.595 254.1L449.405 254.659C444.969 307.367 420.974 343.382 401.895 363C381.207 384.247 361.3 393.146 361.103 393.231L361.72 394.664Z" fill="#444053"/>
<path d="M368.7 141.876V390.156C368.7 397.543 361.576 403.543 352.782 403.543H15.9176C7.12413 403.543 0 397.543 0 390.156V141.876C0 134.476 7.12413 126.938 15.9176 126.938H352.782C361.576 126.938 368.7 134.476 368.7 141.876Z" fill="#1F244D"/>
<path d="M368.7 142.855V181.887H0.0065918V142.855C0.00833197 138.635 1.68501 134.588 4.66834 131.604C7.65166 128.619 11.6977 126.941 15.9176 126.938H352.782C357.002 126.939 361.049 128.616 364.034 131.599C367.018 134.583 368.697 138.629 368.7 142.848V142.855Z" fill="#4B518C"/>
<path d="M20.2222 165.055C26.0986 165.055 30.8624 160.292 30.8624 154.415C30.8624 148.539 26.0986 143.775 20.2222 143.775C14.3458 143.775 9.58203 148.539 9.58203 154.415C9.58203 160.292 14.3458 165.055 20.2222 165.055Z" fill="white"/>
<path d="M51.1834 165.055C57.0598 165.055 61.8236 160.292 61.8236 154.415C61.8236 148.539 57.0598 143.775 51.1834 143.775C45.307 143.775 40.5432 148.539 40.5432 154.415C40.5432 160.292 45.307 165.055 51.1834 165.055Z" fill="white"/>
<path d="M82.1509 165.055C88.0274 165.055 92.7911 160.292 92.7911 154.415C92.7911 148.539 88.0274 143.775 82.1509 143.775C76.2745 143.775 71.5107 148.539 71.5107 154.415C71.5107 160.292 76.2745 165.055 82.1509 165.055Z" fill="white"/>
<path d="M440.546 78.5997V143.111C440.546 146.516 437.26 149.282 433.205 149.282H277.834C273.779 149.282 270.493 146.516 270.493 143.111V78.5997C270.493 75.1888 273.779 71.7122 277.834 71.7122H433.205C437.26 71.7122 440.546 75.1888 440.546 78.5997Z" fill="#1F244D"/>
<path d="M440.546 79.0532V97.0541H270.493V79.0532C270.493 77.1073 271.266 75.2411 272.641 73.8646C274.016 72.4881 275.882 71.7139 277.828 71.7122H433.205C435.15 71.7139 437.015 72.487 438.391 73.8619C439.768 75.2368 440.542 77.1013 440.546 79.0466V79.0532Z" fill="#3D4273"/>
<path d="M279.819 89.2924C282.531 89.2924 284.729 87.0945 284.729 84.3831C284.729 81.6717 282.531 79.4738 279.819 79.4738C277.108 79.4738 274.91 81.6717 274.91 84.3831C274.91 87.0945 277.108 89.2924 279.819 89.2924Z" fill="white"/>
<path d="M298.637 86.2621C299.674 83.7571 298.485 80.8853 295.98 79.8477C293.475 78.8101 290.603 79.9997 289.565 82.5047C288.528 85.0096 289.717 87.8814 292.222 88.919C294.727 89.9566 297.599 88.7671 298.637 86.2621Z" fill="white"/>
<path d="M308.382 89.2924C311.093 89.2924 313.291 87.0945 313.291 84.3831C313.291 81.6717 311.093 79.4738 308.382 79.4738C305.67 79.4738 303.472 81.6717 303.472 84.3831C303.472 87.0945 305.67 89.2924 308.382 89.2924Z" fill="white"/>
<path d="M407.048 141.955C417.647 141.955 426.239 133.363 426.239 122.764C426.239 112.165 417.647 103.574 407.048 103.574C396.45 103.574 387.858 112.165 387.858 122.764C387.858 133.363 396.45 141.955 407.048 141.955Z" fill="#5C63AB"/>
<path d="M366.111 109.85H285.182V112.709H366.111V109.85Z" fill="#5C63AB"/>
<path d="M366.111 116.816H285.182V119.675H366.111V116.816Z" fill="#E9E9E9"/>
<path d="M366.111 123.776H285.182V126.635H366.111V123.776Z" fill="#E9E9E9"/>
<path d="M366.111 130.736H285.182V133.595H366.111V130.736Z" fill="#E9E9E9"/>
<path d="M378.486 240.148C378.486 240.148 372.781 238.834 369.048 242.678C369.048 242.678 371.454 244.847 377.093 242.448L378.486 240.148Z" fill="#F2463A"/>
<path d="M379.104 240.095C379.104 240.095 382.475 244.88 380.339 249.789C380.339 249.789 377.421 248.389 377.507 242.258L379.104 240.095Z" fill="#F2463A"/>
<path d="M382.909 232.879C382.909 232.879 380.891 228.496 371.27 233.793C371.27 233.793 372.308 236.717 376.396 236.763C380.484 236.809 381.687 235.035 382.909 232.879Z" fill="#F2463A"/>
<path d="M383.527 232.616C383.527 232.616 388.344 232.386 388.075 243.368C388.075 243.368 384.999 243.795 383.08 240.187C381.161 236.579 382.173 234.693 383.527 232.616Z" fill="#F2463A"/>
<path d="M386.898 224.066C386.898 224.066 384.71 216.429 374.595 221.076C374.595 221.076 376.363 228.068 385.728 226.537L386.898 224.066Z" fill="#F2463A"/>
<path d="M390.644 213.123C390.644 213.123 386.044 205.237 376.613 211.638C376.613 211.638 379.294 218.92 389.698 215.759L390.644 213.123Z" fill="#F2463A"/>
<path d="M392.432 202.589C392.432 202.589 386.977 195.274 377.599 201.596C377.599 201.596 382.804 208.043 392.314 204.356L392.432 202.589Z" fill="#F2463A"/>
<path d="M394.049 192.356C394.049 192.356 388.535 184.726 379.544 190.995C379.544 190.995 385.879 197.83 393.93 194.045L394.049 192.356Z" fill="#F2463A"/>
<path d="M394.121 183.201C394.121 183.201 388.443 173.474 380.03 179.258C380.03 179.258 386.254 187.703 394.003 184.982L394.121 183.201Z" fill="#F2463A"/>
<path d="M393.378 172.39C393.378 172.39 387.312 162.722 379.077 169.268C379.077 169.268 386.451 177.812 393.267 174.086L393.378 172.39Z" fill="#F2463A"/>
<path d="M391.788 162.696C391.788 162.696 384.46 153.495 377.329 156.492C377.329 156.492 384.959 166.245 391.991 165.036L391.788 162.696Z" fill="#F2463A"/>
<path d="M389.632 153.456C389.632 153.456 381.2 142.237 375.66 145.418C375.66 145.418 381.838 154.093 390.158 155.5L389.632 153.456Z" fill="#F2463A"/>
<path d="M386.346 142.691C386.346 142.691 378.933 133.49 372.946 135.244C372.946 135.244 379.182 144.695 387.233 145.471L386.346 142.691Z" fill="#F2463A"/>
<path d="M383.369 132.629C383.369 132.629 375.088 123.737 371.145 124.939C371.145 124.939 376.908 134.587 383.632 134.502L383.369 132.629Z" fill="#F2463A"/>
<path d="M380.464 123.323C380.464 123.323 373.511 112.88 369.318 113.386C369.318 113.386 373.333 122.534 380.392 124.322L380.464 123.323Z" fill="#F2463A"/>
<path d="M377.454 110.842C377.454 110.842 371.237 102.785 367.596 102.562C367.596 102.562 372.196 113.077 377.559 113.34L377.454 110.842Z" fill="#F2463A"/>
<path d="M375.719 102.548L370.29 86.2759C370.29 86.2759 368.976 100.57 376.35 105.539L375.719 102.548Z" fill="#F2463A"/>
<path d="M374.253 84.9089C374.253 84.9089 374.069 71.6202 374.832 70.5884C374.832 70.5884 369.449 81.268 373.905 90.7515L374.253 84.9089Z" fill="#F2463A"/>
<path d="M387.161 223.908C387.161 223.908 394.18 220.182 397.854 230.691C397.854 230.691 391.59 234.266 386.195 226.458L387.161 223.908Z" fill="#F2463A"/>
<path d="M390.887 212.716C390.887 212.716 399.431 209.502 402.717 220.432C402.717 220.432 396.04 224.375 389.974 215.358L390.887 212.716Z" fill="#F2463A"/>
<path d="M392.774 203.252C392.774 203.252 399.155 196.733 407.607 204.245C407.607 204.245 401.587 209.943 392.655 205.02L392.774 203.252Z" fill="#F2463A"/>
<path d="M394.246 192.402C394.246 192.402 400.726 185.58 408.796 192.993C408.796 192.993 401.606 198.908 394.134 194.091L394.246 192.402Z" fill="#F2463A"/>
<path d="M394.101 183.437C394.101 183.437 399.01 173.303 407.85 178.397C407.85 178.397 402.296 187.302 394.357 185.186L394.101 183.437Z" fill="#F2463A"/>
<path d="M392.852 172.304C392.852 172.304 397.742 161.986 406.693 167.527C406.693 167.527 400.364 176.859 393.161 173.967L392.852 172.304Z" fill="#F2463A"/>
<path d="M390.894 162.69C390.894 162.69 393.332 151.182 401.067 150.656C401.067 150.656 398.616 162.795 391.781 164.852L390.894 162.69Z" fill="#F2463A"/>
<path d="M389.435 153.462C389.435 153.462 391.019 139.516 397.407 139.451C397.407 139.451 396.474 150.058 390.02 155.493L389.435 153.462Z" fill="#F2463A"/>
<path d="M385.708 142.244C385.708 142.244 388.39 130.736 394.541 129.717C394.541 129.717 393.036 140.943 386.116 145.135L385.708 142.244Z" fill="#F2463A"/>
<path d="M382.666 132.662C382.666 132.662 383.54 120.543 387.365 119.011C387.365 119.011 388.929 130.138 383.632 134.285L382.666 132.662Z" fill="#F2463A"/>
<path d="M380.188 123.165C380.188 123.165 381.548 110.717 385.498 109.212C385.498 109.212 386.155 119.182 380.707 124.026L380.188 123.165Z" fill="#F2463A"/>
<path d="M376.843 111.795C376.843 111.795 377.546 101.648 380.444 99.4465C380.444 99.4465 382.416 110.757 378.137 113.938L376.843 111.795Z" fill="#F2463A"/>
<path d="M376.074 102.069L379.873 85.3428C379.873 85.3428 382.567 99.4333 375.745 105.105L376.074 102.069Z" fill="#F2463A"/>
<path d="M376.685 85.2309C376.685 85.2309 384.289 74.3344 384.23 73.0529C384.23 73.0529 382.705 84.8826 373.715 90.2717L376.685 85.2309Z" fill="#F2463A"/>
<path d="M376.14 81.8266C376.14 81.8266 383.678 66.1193 386.655 65.0087C386.655 65.0087 377.119 69.0768 375.601 81.3271L376.14 81.8266Z" fill="#F2463A"/>
<path d="M377.586 113.432L378.032 113.326C373.78 95.2007 373.182 83.7521 376.35 81.1233L376.054 80.7618C372.696 83.5681 373.228 94.8589 377.586 113.432Z" fill="#444053"/>
<path d="M389.796 156.025L390.454 155.841C389.987 154.172 389.474 152.476 388.929 150.807C384.197 136.25 380.241 122.744 377.815 112.413L377.263 112.091C379.695 122.436 383.533 136.447 388.272 151.017C388.817 152.687 389.33 154.369 389.796 156.025Z" fill="#444053"/>
<path d="M369.482 252.898C369.574 252.806 379.071 243.454 386.366 226.892C390.642 217.198 393.355 206.888 394.403 196.345C395.718 183.168 393.93 168.23 390.079 154.514L389.52 155.086C398.163 185.869 392.195 211.356 385.538 226.491C378.308 242.921 368.93 252.122 368.838 252.241L369.482 252.898Z" fill="#444053"/>
<path d="M106.494 361.363C150.413 361.363 186.016 327.82 186.016 286.442C186.016 245.064 150.413 211.52 106.494 211.52C62.5752 211.52 26.9719 245.064 26.9719 286.442C26.9719 327.82 62.5752 361.363 106.494 361.363Z" fill="#E9E9E9"/>
<path d="M86.449 295.314C90.4416 295.314 93.6783 292.077 93.6783 288.085C93.6783 284.092 90.4416 280.855 86.449 280.855C82.4564 280.855 79.2197 284.092 79.2197 288.085C79.2197 292.077 82.4564 295.314 86.449 295.314Z" fill="#5C63AB"/>
<path d="M107.48 295.314C111.472 295.314 114.709 292.077 114.709 288.085C114.709 284.092 111.472 280.855 107.48 280.855C103.487 280.855 100.25 284.092 100.25 288.085C100.25 292.077 103.487 295.314 107.48 295.314Z" fill="#5C63AB"/>
<path d="M128.51 295.314C132.503 295.314 135.74 292.077 135.74 288.085C135.74 284.092 132.503 280.855 128.51 280.855C124.518 280.855 121.281 284.092 121.281 288.085C121.281 292.077 124.518 295.314 128.51 295.314Z" fill="#5C63AB"/>
<path opacity="0.1" d="M250.054 115.561C250.45 115.561 250.771 115.24 250.771 114.845C250.771 114.449 250.45 114.128 250.054 114.128C249.659 114.128 249.338 114.449 249.338 114.845C249.338 115.24 249.659 115.561 250.054 115.561Z" fill="black"/>
<path fill-rule="evenodd" clip-rule="evenodd" d="M576.993 200.4C572.826 207.478 565.321 224.263 567.418 227.76L585.162 232.524C585.162 232.491 585.162 232.459 585.162 232.432C588.493 232.954 591.9 232.225 594.726 230.386C597.552 228.546 599.597 225.726 600.469 222.469L603.827 209.943C604.762 206.446 604.271 202.721 602.46 199.587C600.65 196.453 597.669 194.166 594.172 193.23L592.95 192.901C589.833 192.061 586.519 192.354 583.598 193.727C580.676 195.1 578.336 197.464 576.993 200.4Z" fill="#191847"/>
<path fill-rule="evenodd" clip-rule="evenodd" d="M594.166 218.302C597.873 215.772 600.863 212.256 601.75 207.655C604.313 194.406 585.287 192.375 579.977 197.981C574.667 203.587 570.625 220.326 574.903 222.758C576.612 223.718 580.818 223.619 585.418 222.311L578.248 239.109L592.963 243.053L594.166 218.302Z" fill="#A6A6A6"/>
<path fill-rule="evenodd" clip-rule="evenodd" d="M590.775 215.036C588.146 222.075 586.227 230.389 587.725 232.886L605.47 237.651C611.03 220.859 599.686 224.894 603.991 208.839C603.551 208.096 603.137 207.373 602.71 206.736L602.861 206.262C601.454 199.2 598.387 195.037 593.66 193.776C586.562 191.876 583.44 194.544 580.792 196.818C580.917 202.076 586.26 204.251 590.367 208.596C590.968 208.32 591.634 208.221 592.289 208.308C592.943 208.396 593.56 208.667 594.067 209.091C594.574 209.515 594.95 210.073 595.153 210.702C595.355 211.331 595.375 212.004 595.211 212.644C595.091 213.085 594.885 213.497 594.605 213.858C594.325 214.219 593.977 214.522 593.58 214.748C593.184 214.975 592.746 215.121 592.293 215.178C591.84 215.235 591.38 215.203 590.939 215.082L590.775 215.036Z" fill="#191847"/>
<path fill-rule="evenodd" clip-rule="evenodd" d="M609.012 356.303C593.791 360.548 580.647 362.669 569.58 362.665C558.512 362.66 548.253 359.394 538.803 352.866C553.699 348.515 565.967 346.339 575.606 346.339C585.245 346.339 596.381 349.661 609.012 356.303Z" fill="#3D4273"/>
<path fill-rule="evenodd" clip-rule="evenodd" d="M556.436 368.783C556.584 368.556 556.708 368.314 556.804 368.06C558.841 362.704 591.439 304.87 594.685 294.295H557.993C555.522 302.333 544.409 352.787 542.877 362.849C537.942 378.727 527.762 430.147 526.487 433.709C525.12 437.461 532.796 441.365 534.846 436.758C538.1 429.424 545.855 409.155 549.305 396.754C552.492 385.148 555.121 374.698 556.436 368.783Z" fill="#A6A6A6"/>
<path fill-rule="evenodd" clip-rule="evenodd" d="M586.47 375.842C601.369 379.594 655.878 386.357 659.624 387.441C663.37 388.526 666.853 380.633 662.088 378.898C654.517 376.17 633.664 369.881 621.019 367.311C610.852 365.247 601.573 363.565 595.342 362.573C595.868 345.143 598.28 303.306 596.696 294.269H564.23C565.742 302.931 578.564 366.161 580.943 372.477C581.705 374.77 583.959 375.763 586.47 375.842Z" fill="#A6A6A6"/>
<path fill-rule="evenodd" clip-rule="evenodd" d="M661.793 376.762C663.223 376.423 664.699 376.319 666.163 376.453C667.811 376.801 669.428 377.28 671 377.885C670.772 379.2 668.7 390.951 664.783 413.138C661.598 413.519 660.064 412.702 660.182 410.687C660.294 408.669 660.36 406.993 660.399 405.652L655.983 387.98C655.948 387.818 655.976 387.648 656.062 387.505C656.147 387.362 656.283 387.257 656.443 387.211L659.183 386.607C660.158 385.357 660.86 383.918 661.247 382.381C661.369 381.017 661.218 379.643 660.8 378.339C660.716 378.013 660.764 377.667 660.934 377.377C661.104 377.086 661.382 376.874 661.707 376.788L661.793 376.762Z" fill="#E9E9E9"/>
<path fill-rule="evenodd" clip-rule="evenodd" d="M537.14 436.226C537.722 437.579 538.081 439.017 538.205 440.485C538.147 442.166 537.956 443.841 537.633 445.493H501.841C500.908 442.426 501.445 440.765 503.452 440.511C505.458 440.257 507.123 440.038 508.446 439.854L525.08 432.44C525.234 432.376 525.407 432.373 525.563 432.432C525.719 432.491 525.847 432.606 525.921 432.756L526.993 435.352C528.393 436.099 529.932 436.546 531.514 436.666C532.878 436.549 534.205 436.163 535.418 435.529C535.572 435.461 535.737 435.423 535.905 435.419C536.073 435.415 536.24 435.445 536.397 435.506C536.553 435.567 536.696 435.659 536.817 435.776C536.938 435.892 537.034 436.032 537.101 436.187C537.115 436.199 537.128 436.212 537.14 436.226Z" fill="#E9E9E9"/>
<path fill-rule="evenodd" clip-rule="evenodd" d="M596.591 294.269C582.286 290.19 568.747 290.19 555.976 294.269C551.533 314.458 540.742 322.47 538.842 353.418C560.418 364.097 587.075 345.801 609.288 356.217C615.637 341.68 606.745 306.598 596.591 294.269Z" fill="#4B518C"/>
<path fill-rule="evenodd" clip-rule="evenodd" d="M562.738 252.477L543.134 236.829C540.714 232.498 537.713 228.518 534.216 224.999C533.23 224.342 531.403 223.764 532.605 227.168C533.808 230.572 534.925 234.194 533.867 234.989C532.809 235.784 530.818 234.062 529.477 235.455C528.601 236.38 532.106 238.715 539.992 242.461L553.229 259.601L562.738 252.477ZM527.006 256.466L518.39 249.579C517.952 244.282 516.804 241.454 514.946 241.094C513.632 240.181 514.992 247.009 512.383 245.984C509.774 244.959 504.023 238.893 502.716 239.688C500.744 240.858 501.473 245.636 502.847 248.192C505.417 252.97 507.908 254.889 514.342 257.958C517.711 259.566 521.192 262.21 524.785 265.891L527.006 256.466Z" fill="#A6A6A6"/>
<path fill-rule="evenodd" clip-rule="evenodd" d="M573.766 251.708C563.654 249.847 554.277 245.152 546.729 238.17L540.814 246.845C546.972 255.52 556.39 263.42 565.604 264.78C572.866 265.858 578.123 257.807 573.766 251.708Z" fill="#1F244D"/>
<path fill-rule="evenodd" clip-rule="evenodd" d="M560.872 265.017C552.455 265.595 539.344 260.848 521.538 250.775C515.119 259.643 511.723 266.171 511.351 270.36C526.145 281.703 539.44 287.94 550.902 290.214C549.338 296.944 549.029 303.549 550.777 309.93C554.378 323.075 589.953 317.758 600.856 321.964C611.963 300.355 599.923 288.65 602.493 274.021C605.299 258.004 596.722 231.072 594.823 230.737L577.466 227.694C574.364 239.76 567.174 252.392 560.872 265.017Z" fill="#32386B"/>
<path d="M339.323 246.503H212.705V251.097H339.323V246.503Z" fill="#E9E9E9"/>
<path d="M339.323 261.343H212.705V265.937H339.323V261.343Z" fill="#5C63AB"/>
<path d="M339.323 276.182H212.705V280.776H339.323V276.182Z" fill="#E9E9E9"/>
<path d="M330.043 317.836H315.525V333.885H330.043V317.836Z" fill="#5C63AB"/>
<path d="M306.66 317.836H292.142V333.885H306.66V317.836Z" fill="#E9E9E9"/>
<path d="M283.276 317.836H268.758V333.885H283.276V317.836Z" fill="#5C63AB"/>
<path d="M259.886 317.836H245.368V333.885H259.886V317.836Z" fill="#5C63AB"/>
<path d="M236.503 317.836H221.985V333.885H236.503V317.836Z" fill="#5C63AB"/>
<path d="M339.323 291.016H212.705V295.61H339.323V291.016Z" fill="#E9E9E9"/>
<path fill-rule="evenodd" clip-rule="evenodd" d="M200.271 83.4368L213.987 65.7448C218.397 62.9123 223.595 57.9175 226.23 55.0849C226.776 54.2042 227.262 52.6401 224.18 53.9677C221.098 55.2952 216.109 58.7258 215.334 57.9109C214.558 57.096 216.083 55.2821 214.749 54.3357C213.873 53.6872 211.846 56.8024 208.67 63.6812L193.357 76.2601L200.271 83.4368Z" fill="#A6A6A6"/>
<path fill-rule="evenodd" clip-rule="evenodd" d="M138.75 24.4522C136.036 21.2648 134.195 17.361 134.504 12.984C135.385 0.372168 152.945 3.12587 156.356 9.51393C159.767 15.902 159.366 32.0233 154.957 33.1734C153.195 33.6269 149.443 32.5162 145.631 30.216L148.023 47.1588H133.88L138.75 24.4522Z" fill="#A6A6A6"/>
<path fill-rule="evenodd" clip-rule="evenodd" d="M137.665 27.2916C135.884 19.4051 130.83 14.0094 131.599 10.4802C131.769 9.42041 132.252 8.43571 132.986 7.65318C133.721 6.87064 134.673 6.32618 135.72 6.09005C136.872 1.42387 140.596 -0.560898 146.892 0.135742C156.323 1.1807 162.074 5.09766 159.59 13.7137C157.303 13.7137 154.549 12.8921 150.737 14.3051C149.521 14.752 148.66 16.1453 148.108 18.485H146.386C144.717 15.7116 143.068 14.6929 141.438 15.429C139.808 16.165 139.44 17.9505 140.334 20.7852L139.486 27.2916H137.665Z" fill="#191847"/>
<path fill-rule="evenodd" clip-rule="evenodd" d="M230.036 190.949C218.416 176.758 210.554 166.243 206.449 159.403C199.423 147.679 193.672 137.242 191.852 133.26C187.528 123.75 201.822 119.3 205.055 123.737C209.954 130.444 220.41 151.561 236.424 187.085L230.036 190.949Z" fill="#A6A6A6"/>
<path fill-rule="evenodd" clip-rule="evenodd" d="M206.225 186.822L184.603 132.392C180.003 122.468 202.315 115.962 205.713 120.563C213.428 131.045 231.771 172.403 234.071 175.531L206.225 186.822Z" fill="#5C63AB"/>
<path fill-rule="evenodd" clip-rule="evenodd" d="M148.634 175.906C152.847 169.761 168.166 149.092 176.513 140.535C178.912 138.084 181.251 135.724 183.466 133.523C190.038 126.99 203.143 137.972 196.577 143.926C180.226 158.746 156.363 178.758 154.372 180.539C151.578 183.037 145.986 179.77 148.634 175.906Z" fill="#A6A6A6"/>
<path fill-rule="evenodd" clip-rule="evenodd" d="M149.62 173.133C148.524 173.948 147.567 174.935 146.787 176.057C146.051 177.437 145.426 178.875 144.921 180.355L173.72 197.002C175.91 194.961 176.25 193.375 174.738 192.244C173.227 191.114 171.991 190.163 171.032 189.392L161.095 175.702C161.002 175.576 160.863 175.492 160.708 175.467C160.553 175.443 160.394 175.48 160.267 175.571L158.203 177.161C156.732 177.107 155.288 176.747 153.964 176.103C152.913 175.38 152.019 174.453 151.335 173.376C151.246 173.249 151.133 173.141 151.002 173.058C150.871 172.976 150.725 172.919 150.572 172.893C150.42 172.867 150.263 172.871 150.112 172.905C149.961 172.94 149.819 173.003 149.692 173.093L149.62 173.133Z" fill="#E9E9E9"/>
<path fill-rule="evenodd" clip-rule="evenodd" d="M225.041 188.827C224.499 190.079 224.163 191.41 224.049 192.77C224.103 194.33 224.281 195.884 224.581 197.416H257.842C258.719 194.564 258.219 193.031 256.344 192.816C254.469 192.601 252.922 192.395 251.704 192.198L236.26 185.311C236.117 185.246 235.954 185.241 235.807 185.297C235.661 185.352 235.542 185.463 235.477 185.606L234.485 188.012C233.184 188.701 231.754 189.113 230.286 189.221C229.017 189.113 227.783 188.751 226.658 188.156C226.373 188.027 226.048 188.016 225.755 188.126C225.462 188.235 225.224 188.457 225.094 188.741C225.094 188.741 225.048 188.8 225.041 188.827Z" fill="#E9E9E9"/>
<path fill-rule="evenodd" clip-rule="evenodd" d="M176.822 135.106C158.858 132.18 146.809 130.18 140.675 129.106C123.279 126.037 118.205 116.672 121.202 96.2457H153.261C157.506 97.4681 175.234 105.044 206.442 118.972C212.055 121.765 211.01 129.98 209.984 132.688C209.945 132.797 200.479 149.019 181.587 181.354L155.364 164.648L176.841 137.078C177.44 135.934 177.42 135.277 176.822 135.106Z" fill="#8991DC"/>
<path fill-rule="evenodd" clip-rule="evenodd" d="M98.6535 85.5924L110.871 87.1434C100.321 110.579 94.6555 123.005 93.8756 124.42C92.1077 127.608 94.3423 133.069 95.2295 135.967C91.0234 137.282 92.2589 130.71 86.9421 132.425C82.0853 133.996 78.1158 137.44 73.2065 133.509C72.6084 133.023 72.0761 131.419 73.9491 130.453C78.6153 128.028 85.4568 123.625 86.5018 122.028C87.9345 119.872 91.9851 107.727 98.6535 85.5924Z" fill="#A6A6A6"/>
<path fill-rule="evenodd" clip-rule="evenodd" d="M141.95 37.301L147.05 36.4269C158.472 46.285 160.451 67.1842 174.975 75.9382C182.526 80.4861 195.716 69.537 206.271 64.4765L211.082 72.4156C209.018 84.1927 169.678 102.542 162.284 95.201C147.366 80.4072 141.411 55.4662 141.95 37.301Z" fill="#D23B30"/>
<path fill-rule="evenodd" clip-rule="evenodd" d="M119.737 101.372H164.828C166.885 101.372 166.497 98.3949 166.201 96.8898C162.764 79.5659 149.344 60.888 149.344 36.223L136.338 34.1857C125.579 51.4899 121.859 72.79 119.737 101.372Z" fill="#D2D2D2"/>
<path fill-rule="evenodd" clip-rule="evenodd" d="M120.098 51.1941C119.132 50.8975 118.236 50.4079 117.464 49.7549C116.693 49.102 116.062 48.2993 115.609 47.3955C110.858 38.8124 112.573 34.0936 117.653 32.5426C122.734 30.9916 127.262 34.1856 135.358 34.1856C135.763 34.182 136.168 34.2106 136.568 34.2711L140.642 34.5011C152.319 74.0913 155.539 100.507 150.303 113.747L112.981 106.032C110.877 110.934 98.522 117.763 96.5898 121.108L86.7974 119.084C85.8905 89.6539 105.193 71.7187 120.098 51.1941Z" fill="#F2463A"/>
</svg>
