<svg width="623" height="493" viewBox="0 0 623 493" fill="none" xmlns="http://www.w3.org/2000/svg">
<rect x="475" y="68" width="106" height="146" rx="12" fill="#F56F65" stroke="#4D4D4D" stroke-width="4"/>
<rect x="473" y="66" width="110" height="139" rx="14" fill="#F89790"/>
<path d="M578 138.5C578 171.361 549.346 198 514 198C499.771 198 486.627 193.683 476 186.381V90.6186C486.627 83.3168 499.771 79 514 79C549.346 79 578 105.639 578 138.5Z" fill="#F56F65"/>
<rect x="475" y="68" width="106" height="146" rx="12" stroke="#4D4D4D" stroke-width="4"/>
<rect x="588" y="62" width="33" height="158" rx="10" fill="#F56F65" stroke="#4D4D4D" stroke-width="4"/>
<rect x="586" y="60" width="37" height="149" rx="12" fill="#F89790"/>
<rect x="588" y="62" width="33" height="158" rx="10" stroke="#4D4D4D" stroke-width="4"/>
<rect x="-2" y="2" width="106" height="146" rx="12" transform="matrix(-1 0 0 1 146 276)" fill="#F56F65" stroke="#4D4D4D" stroke-width="4"/>
<rect width="110" height="139" rx="14" transform="matrix(-1 0 0 1 150 276)" fill="#F89790"/>
<path d="M45 348.5C45 381.361 73.6538 408 109 408C123.229 408 136.373 403.683 147 396.381V300.619C136.373 293.317 123.229 289 109 289C73.6538 289 45 315.639 45 348.5Z" fill="#F56F65"/>
<rect x="-2" y="2" width="106" height="146" rx="12" transform="matrix(-1 0 0 1 146 276)" stroke="#4D4D4D" stroke-width="4"/>
<rect x="-2" y="2" width="33" height="158" rx="10" transform="matrix(-1 0 0 1 33 270)" fill="#F56F65" stroke="#4D4D4D" stroke-width="4"/>
<rect width="37" height="149" rx="12" transform="matrix(-1 0 0 1 37 270)" fill="#F89790"/>
<rect x="-2" y="2" width="33" height="158" rx="10" transform="matrix(-1 0 0 1 33 270)" stroke="#4D4D4D" stroke-width="4"/>
<rect x="93" y="283" width="114" height="42" fill="#A6A6A6" stroke="#4D4D4D" stroke-width="4"/>
<rect x="91" y="316" width="118" height="11" fill="#797979"/>
<rect x="93" y="283" width="114" height="42" stroke="#4D4D4D" stroke-width="4"/>
<rect x="93" y="377" width="114" height="42" fill="#A6A6A6" stroke="#4D4D4D" stroke-width="4"/>
<rect x="91" y="410" width="118" height="11" fill="#797979"/>
<rect x="93" y="377" width="114" height="42" stroke="#4D4D4D" stroke-width="4"/>
<rect x="400.932" y="71.9593" width="136" height="32" transform="rotate(12.229 400.932 71.9593)" fill="#797979" stroke="#4D4D4D" stroke-width="4"/>
<path d="M394.648 91.5117L457.5 85C459.508 100.448 461.012 104.34 470.5 107.952L531.472 121.166L528.599 134.419L391.776 104.764L394.648 91.5117Z" fill="#4D4D4D"/>
<rect x="400.932" y="71.9593" width="136" height="32" transform="rotate(12.229 400.932 71.9593)" stroke="#4D4D4D" stroke-width="4"/>
<rect x="392.318" y="163.558" width="136" height="32" transform="rotate(-6.97037 392.318 163.558)" fill="#797979" stroke="#4D4D4D" stroke-width="4"/>
<path d="M392.814 184.09L458 157C458 170 464.5 174.671 469.854 174.671L531.779 167.1L533.425 180.559L394.46 197.549L392.814 184.09Z" fill="#4D4D4D"/>
<rect x="392.318" y="163.558" width="136" height="32" transform="rotate(-6.97037 392.318 163.558)" stroke="#4D4D4D" stroke-width="4"/>
<rect x="455.498" y="2" width="488.266" height="274.497" rx="21" transform="rotate(90 455.498 2)" fill="#F56F65" stroke="#4D4D4D" stroke-width="4" stroke-linecap="round" stroke-linejoin="round"/>
<rect x="455" y="103" width="286" height="273" transform="rotate(90 455 103)" fill="white"/>
<rect x="455.498" y="2" width="488.266" height="274.497" rx="21" transform="rotate(90 455.498 2)" stroke="#4D4D4D" stroke-width="4" stroke-linecap="round" stroke-linejoin="round"/>
<path fill-rule="evenodd" clip-rule="evenodd" d="M383.584 267.649C382.968 267.342 382.839 266.518 383.333 266.037L402.317 247.572C402.961 246.946 402.518 245.855 401.62 245.855L272.295 245.855C272.295 245.855 272.295 245.855 272.295 245.855C272.295 245.855 272.295 245.855 272.295 245.855L401.62 245.855C402.518 245.855 402.961 244.764 402.317 244.138L383.333 225.673C382.839 225.193 382.968 224.369 383.584 224.061L390.429 220.649C391.413 220.159 390.999 218.669 389.902 218.758L319.701 224.433C318.724 224.511 318.228 223.284 318.986 222.662L359.562 189.401C360.438 188.683 359.634 187.291 358.575 187.692L350.439 190.768C349.734 191.035 348.999 190.456 349.093 189.709L352.991 158.616C353.066 158.019 352.601 157.492 351.999 157.492L323.806 157.492C322.984 157.492 322.513 156.556 323.002 155.896L330.842 145.322L281.252 202.125C281.063 202.342 280.788 202.467 280.499 202.467L264.44 202.467C263.887 202.467 263.44 202.915 263.44 203.467L263.44 241.209C263.44 241.761 262.992 242.209 262.44 242.209L234.227 242.209C233.675 242.209 233.227 242.657 233.227 243.209L233.227 248.502C233.227 249.054 233.675 249.502 234.227 249.502L262.44 249.502C262.992 249.502 263.44 249.949 263.44 250.502L263.44 288.244C263.44 288.796 263.887 289.244 264.44 289.244L280.499 289.244C280.788 289.244 281.063 289.368 281.252 289.586L330.842 346.389L323.002 335.815C322.513 335.155 322.984 334.219 323.806 334.219L351.999 334.219C352.601 334.219 353.066 333.692 352.992 333.095L349.093 302.002C348.999 301.255 349.735 300.676 350.439 300.942L358.575 304.019C359.634 304.419 360.438 303.028 359.562 302.31L318.986 269.048C318.228 268.427 318.724 267.199 319.701 267.278L389.902 272.953C390.999 273.042 391.413 271.552 390.429 271.061L383.584 267.649Z" fill="#F56F65"/>
<path d="M330.842 145.322L332.85 146.811C333.649 145.733 333.455 144.216 332.41 143.374C331.364 142.533 329.841 142.667 328.959 143.678L330.842 145.322ZM330.842 346.389L328.959 348.033C329.841 349.044 331.364 349.178 332.41 348.336C333.455 347.495 333.649 345.978 332.85 344.9L330.842 346.389ZM389.902 272.953L389.7 275.445L389.902 272.953ZM390.429 271.061L391.544 268.824L390.429 271.061ZM318.986 269.048L320.571 267.115L318.986 269.048ZM319.701 267.278L319.499 269.77L319.701 267.278ZM358.575 304.019L359.459 301.68L358.575 304.019ZM359.562 302.31L357.977 304.243L359.562 302.31ZM323.002 335.815L325.011 334.326L323.002 335.815ZM281.252 289.586L283.136 287.942L281.252 289.586ZM263.44 241.209L260.94 241.209L263.44 241.209ZM281.252 202.125L283.136 203.769L281.252 202.125ZM352.991 158.616L350.511 158.305L352.991 158.616ZM350.439 190.768L349.555 188.43L350.439 190.768ZM358.575 187.692L359.459 190.03L358.575 187.692ZM319.701 224.433L319.499 221.941L319.701 224.433ZM318.986 222.662L320.571 224.596L318.986 222.662ZM390.429 220.649L389.313 218.412L390.429 220.649ZM383.333 225.673L381.59 227.465L383.333 225.673ZM383.584 224.061L382.469 221.824L383.584 224.061ZM402.317 244.138L400.574 245.93L402.317 244.138ZM349.093 302.002L351.574 301.691L349.093 302.002ZM350.439 300.942L351.323 298.604L350.439 300.942ZM383.333 266.037L381.59 264.245L383.333 266.037ZM383.584 267.649L382.469 269.887L383.584 267.649ZM352.992 333.095L350.511 333.406L352.992 333.095ZM402.317 247.572L400.574 245.78L402.317 247.572ZM400.574 245.78L381.59 264.245L385.076 267.83L404.06 249.364L400.574 245.78ZM272.295 248.355L401.62 248.355L401.62 243.355L272.295 243.355L272.295 248.355ZM272.295 248.355L401.62 248.355L401.62 243.355L272.295 243.355L272.295 248.355ZM404.06 242.346L385.076 223.881L381.59 227.465L400.574 245.93L404.06 242.346ZM384.699 226.299L391.544 222.887L389.313 218.412L382.469 221.824L384.699 226.299ZM389.7 216.266L319.499 221.941L319.902 226.924L390.103 221.25L389.7 216.266ZM320.571 224.596L361.147 191.334L357.977 187.467L317.401 220.729L320.571 224.596ZM357.69 185.353L349.555 188.43L351.323 193.107L359.459 190.03L357.69 185.353ZM351.574 190.02L355.472 158.927L350.511 158.305L346.613 189.398L351.574 190.02ZM351.999 154.992L323.806 154.992L323.806 159.992L351.999 159.992L351.999 154.992ZM325.011 157.385L332.85 146.811L328.834 143.833L320.994 154.407L325.011 157.385ZM328.959 143.678L279.369 200.481L283.136 203.769L332.725 146.966L328.959 143.678ZM280.499 199.967L264.44 199.967L264.44 204.967L280.499 204.967L280.499 199.967ZM260.94 203.467L260.94 241.209L265.94 241.209L265.94 203.467L260.94 203.467ZM234.227 244.709L262.44 244.709L262.44 239.709L234.227 239.709L234.227 244.709ZM235.727 248.502L235.727 243.209L230.727 243.209L230.727 248.502L235.727 248.502ZM262.44 247.002L234.227 247.002L234.227 252.002L262.44 252.002L262.44 247.002ZM265.94 288.244L265.94 250.502L260.94 250.502L260.94 288.244L265.94 288.244ZM280.499 286.744L264.44 286.744L264.44 291.744L280.499 291.744L280.499 286.744ZM332.725 344.745L283.136 287.942L279.369 291.23L328.959 348.033L332.725 344.745ZM320.994 337.303L328.834 347.878L332.85 344.9L325.011 334.326L320.994 337.303ZM351.999 331.719L323.806 331.719L323.806 336.719L351.999 336.719L351.999 331.719ZM346.613 302.313L350.511 333.406L355.472 332.784L351.574 301.691L346.613 302.313ZM359.459 301.68L351.323 298.604L349.555 303.281L357.69 306.357L359.459 301.68ZM317.401 270.982L357.977 304.243L361.147 300.377L320.571 267.115L317.401 270.982ZM390.103 270.461L319.902 264.786L319.499 269.77L389.7 275.445L390.103 270.461ZM382.469 269.887L389.313 273.299L391.544 268.824L384.699 265.412L382.469 269.887ZM389.7 275.445C393.539 275.755 394.991 270.542 391.544 268.824L389.313 273.299C387.836 272.562 388.458 270.328 390.103 270.461L389.7 275.445ZM320.571 267.115C321.708 268.047 320.965 269.888 319.499 269.77L319.902 264.786C316.483 264.51 314.748 268.807 317.401 270.982L320.571 267.115ZM357.69 306.357C361.398 307.759 364.213 302.889 361.147 300.377L357.977 304.243C356.664 303.167 357.87 301.08 359.459 301.68L357.69 306.357ZM325.011 334.326C325.745 335.316 325.038 336.719 323.806 336.719L323.806 331.719C320.931 331.719 319.282 334.994 320.994 337.303L325.011 334.326ZM280.499 291.744C280.066 291.744 279.654 291.556 279.369 291.23L283.136 287.942C282.471 287.18 281.51 286.744 280.499 286.744L280.499 291.744ZM260.94 288.244C260.94 290.177 262.507 291.744 264.44 291.744L264.44 286.744C265.268 286.744 265.94 287.415 265.94 288.244L260.94 288.244ZM262.44 252.002C261.611 252.002 260.94 251.33 260.94 250.502L265.94 250.502C265.94 248.569 264.373 247.002 262.44 247.002L262.44 252.002ZM230.727 248.502C230.727 250.435 232.294 252.002 234.227 252.002L234.227 247.002C235.056 247.002 235.727 247.673 235.727 248.502L230.727 248.502ZM234.227 239.709C232.294 239.709 230.727 241.276 230.727 243.209L235.727 243.209C235.727 244.037 235.056 244.709 234.227 244.709L234.227 239.709ZM260.94 241.209C260.94 240.381 261.611 239.709 262.44 239.709L262.44 244.709C264.373 244.709 265.94 243.142 265.94 241.209L260.94 241.209ZM264.44 199.967C262.507 199.967 260.94 201.534 260.94 203.467L265.94 203.467C265.94 204.295 265.268 204.967 264.44 204.967L264.44 199.967ZM279.369 200.481C279.654 200.154 280.066 199.967 280.499 199.967L280.499 204.967C281.51 204.967 282.471 204.53 283.136 203.769L279.369 200.481ZM323.806 154.992C325.038 154.992 325.745 156.395 325.011 157.385L320.994 154.407C319.282 156.717 320.931 159.992 323.806 159.992L323.806 154.992ZM355.472 158.927C355.734 156.838 354.105 154.992 351.999 154.992L351.999 159.992C351.097 159.992 350.399 159.2 350.511 158.305L355.472 158.927ZM349.555 188.43C350.612 188.03 351.714 188.898 351.574 190.02L346.613 189.398C346.285 192.014 348.857 194.039 351.323 193.107L349.555 188.43ZM361.147 191.334C364.213 188.821 361.398 183.951 357.69 185.353L359.459 190.03C357.87 190.631 356.664 188.544 357.977 187.467L361.147 191.334ZM319.499 221.941C320.965 221.822 321.708 223.664 320.571 224.596L317.401 220.729C314.748 222.904 316.483 227.201 319.902 226.924L319.499 221.941ZM391.544 222.887C394.991 221.169 393.539 215.956 389.7 216.266L390.103 221.25C388.458 221.383 387.836 219.148 389.313 218.412L391.544 222.887ZM385.076 223.881C385.817 224.602 385.624 225.838 384.699 226.299L382.469 221.824C380.311 222.9 379.861 225.784 381.59 227.465L385.076 223.881ZM401.62 248.355C404.762 248.355 406.312 244.537 404.06 242.346L400.574 245.93C399.609 244.992 400.273 243.355 401.62 243.355L401.62 248.355ZM274.795 245.855C274.795 247.236 273.675 248.355 272.295 248.355L272.295 243.355C270.914 243.355 269.795 244.475 269.795 245.855L274.795 245.855ZM272.295 243.355C273.675 243.355 274.795 244.475 274.795 245.855L269.795 245.855C269.795 247.236 270.914 248.355 272.295 248.355L272.295 243.355ZM351.574 301.691C351.714 302.812 350.612 303.68 349.555 303.281L351.323 298.604C348.857 297.671 346.285 299.697 346.613 302.313L351.574 301.691ZM381.59 264.245C379.861 265.927 380.311 268.811 382.469 269.887L384.699 265.412C385.624 265.873 385.817 267.109 385.076 267.83L381.59 264.245ZM351.999 336.719C354.105 336.719 355.734 334.873 355.472 332.784L350.511 333.406C350.399 332.51 351.097 331.719 351.999 331.719L351.999 336.719ZM404.06 249.364C406.312 247.174 404.762 243.355 401.62 243.355L401.62 248.355C400.274 248.355 399.609 246.719 400.574 245.78L404.06 249.364Z" fill="#F56F65"/>
<path d="M343 56C343 60.9808 345.328 64.6256 349.248 67.1148C353.255 69.6596 358.966 71 365.5 71C368.905 71 372.032 70.9984 374.856 70.7425C377.681 70.4866 380.051 69.9863 381.96 69.0715C383.821 68.1795 385.277 66.879 386.299 64.9074C387.344 62.8932 388 60.0523 388 56C388 51.9477 387.344 49.1068 386.299 47.0926C385.277 45.121 383.821 43.8205 381.96 42.9285C380.051 42.0137 377.681 41.5134 374.856 41.2575C372.032 41.0016 368.905 41 365.5 41C358.966 41 353.255 42.3404 349.248 44.8852C345.328 47.3744 343 51.0192 343 56Z" fill="#E9E9E9" stroke="#4D4D4D" stroke-width="4"/>
<path d="M343 56.0002C339.812 43.1483 343.5 73.0001 365.5 73.0001C387.5 73.0001 390 56.0001 390 56.0001C393.407 65.7193 346.188 68.8521 343 56.0002Z" fill="#A6A6A6"/>
<path d="M343 56C343 60.9808 345.328 64.6256 349.248 67.1148C353.255 69.6596 358.966 71 365.5 71C368.905 71 372.032 70.9984 374.856 70.7425C377.681 70.4866 380.051 69.9863 381.96 69.0715C383.821 68.1795 385.277 66.879 386.299 64.9074C387.344 62.8932 388 60.0523 388 56C388 51.9477 387.344 49.1068 386.299 47.0926C385.277 45.121 383.821 43.8205 381.96 42.9285C380.051 42.0137 377.681 41.5134 374.856 41.2575C372.032 41.0016 368.905 41 365.5 41C358.966 41 353.255 42.3404 349.248 44.8852C345.328 47.3744 343 51.0192 343 56Z" stroke="#4D4D4D" stroke-width="4"/>
<path d="M359.657 46.0088C369.611 41.2161 377.662 40.2291 381.205 40.0413C382.394 39.9783 383.431 40.7271 383.854 41.8393L386.688 49.2777C386.987 50.0623 386.943 50.9363 386.568 51.6873L379.945 64.9329C379.371 66.0807 377.771 66.1803 377.059 65.1126C376.803 64.7275 376.717 64.2532 376.823 63.8027L377.566 60.6443C378.072 58.4954 376.162 56.5547 374.005 57.0265L363.271 59.3746C362.866 59.4631 362.445 59.4679 362.04 59.3806C352.396 57.301 346.437 52.3741 359.657 46.0088Z" fill="white" stroke="#4D4D4D" stroke-width="4"/>
<path d="M353.657 49.0085C357.724 41.2039 353.504 48.0656 353.891 53.8135C359.217 57.8732 383.318 50.4332 387.157 48.5086L379.845 64.8535C379.329 66.0069 377.744 66.1397 377.043 65.0885C376.797 64.7186 376.715 64.263 376.816 63.8302L377.566 60.644C378.072 58.4951 376.161 56.5545 374.005 57.0262L362.657 59.5085C356.075 60.4081 354.127 57.3178 353.891 53.8135C352.672 52.8835 352.437 51.35 353.657 49.0085Z" fill="#D2D2D2"/>
<path d="M359.657 46.0088C369.611 41.2161 377.662 40.2291 381.205 40.0413C382.394 39.9783 383.431 40.7271 383.854 41.8393L386.688 49.2777C386.987 50.0623 386.943 50.9363 386.568 51.6873L379.945 64.9329C379.371 66.0807 377.771 66.1803 377.059 65.1126C376.803 64.7275 376.717 64.2532 376.823 63.8027L377.566 60.6443C378.072 58.4954 376.162 56.5547 374.005 57.0265L363.271 59.3746C362.866 59.4631 362.445 59.4679 362.04 59.3806C352.396 57.301 346.437 52.3741 359.657 46.0088Z" stroke="#4D4D4D" stroke-width="4"/>
<path d="M407.461 200.738C414.525 209.232 421.439 213.474 424.584 215.117C425.639 215.668 426.893 215.417 427.74 214.582L433.408 208.992C434.006 208.403 434.329 207.589 434.299 206.75L433.776 191.95C433.731 190.668 432.317 189.913 431.226 190.589C430.833 190.832 430.558 191.228 430.467 191.682L429.831 194.864C429.399 197.028 426.855 198 425.089 196.675L416.3 190.081C415.968 189.832 415.588 189.653 415.183 189.564C405.547 187.45 398.079 189.457 407.461 200.738Z" fill="white" stroke="#4D4D4D" stroke-width="4"/>
<path d="M403 190C403 203.5 426.346 215.957 426.346 215.957L435 209.5C422.917 210.237 415.38 203.89 403 190Z" fill="#D2D2D2"/>
<path d="M407.461 200.738C414.525 209.232 421.439 213.474 424.584 215.117C425.639 215.668 426.893 215.417 427.74 214.582L433.408 208.992C434.006 208.403 434.329 207.589 434.299 206.75L433.776 191.95C433.731 190.668 432.317 189.913 431.226 190.589C430.833 190.832 430.558 191.228 430.467 191.682L429.831 194.864C429.399 197.028 426.855 198 425.089 196.675L416.3 190.081C415.968 189.832 415.588 189.653 415.183 189.564C405.547 187.45 398.079 189.457 407.461 200.738Z" stroke="#4D4D4D" stroke-width="4"/>
<path d="M428.998 216.356C582.402 262.535 578.233 161.29 575.347 137.896C575.041 135.413 572.492 134.074 570.171 135.008L536.142 148.703C534.627 149.312 533.631 150.747 533.534 152.377C532.638 167.455 523.783 240.114 436.27 203.678C434.663 203.009 432.722 203.389 431.576 204.699L427.023 209.903C425.124 212.072 426.237 215.525 428.998 216.356Z" fill="#90F8F2" stroke="#4D4D4D" stroke-width="4"/>
<path d="M428.325 216.152C582.186 262.761 578.249 161.624 575.36 138.001C575.052 135.483 572.447 134.145 570.115 135.141L549.76 143.829C545.847 145.499 545.221 156.764 547.234 160.511C560.549 185.29 541.943 245.988 429.867 210.931C429.036 210.671 428.084 210.802 427.38 211.314C425.564 212.635 426.176 215.502 428.325 216.152Z" fill="#48DEE2"/>
<path d="M428.998 216.356C582.402 262.535 578.233 161.29 575.347 137.896C575.041 135.413 572.492 134.074 570.171 135.008L536.142 148.703C534.627 149.312 533.631 150.747 533.534 152.377C532.638 167.455 523.783 240.114 436.27 203.678C434.663 203.009 432.722 203.389 431.576 204.699L427.023 209.903C425.124 212.072 426.237 215.525 428.998 216.356Z" stroke="#4D4D4D" stroke-width="4"/>
<path d="M385.959 38.9273C578.572 -12.4734 577.642 103.891 575.234 129.4C574.995 131.93 572.419 133.32 570.062 132.371L535.964 118.649C534.54 118.076 533.567 116.761 533.362 115.239C531.247 99.5288 514.021 15.48 390.123 53.6956C387.933 54.3712 385.504 53.1399 384.913 50.9251L383.023 43.8349C382.457 41.7121 383.836 39.4938 385.959 38.9273Z" fill="#90F8F2" stroke="#4D4D4D" stroke-width="4"/>
<path d="M387.447 48.213C529.782 10.8118 551.329 94.6082 566.161 123.764C568.008 127.396 566.172 129.578 562.344 128.182L536.081 118.604C534.594 118.061 533.562 116.701 533.348 115.133C531.164 99.1135 513.655 15.1333 389.164 53.9932C387.497 54.5136 385.64 53.5616 385.217 51.8673C384.819 50.2745 385.859 48.6303 387.447 48.213Z" fill="#48DEE2"/>
<path d="M385.959 38.9273C578.572 -12.4734 577.642 103.891 575.234 129.4C574.995 131.93 572.419 133.32 570.062 132.371L535.964 118.649C534.54 118.076 533.567 116.761 533.362 115.239C531.247 99.5288 514.021 15.48 390.123 53.6956C387.933 54.3712 385.504 53.1399 384.913 50.9251L383.023 43.8349C382.457 41.7121 383.836 39.4938 385.959 38.9273Z" stroke="#4D4D4D" stroke-width="4"/>
<path d="M585 136.631C585 163.141 563.51 184.631 537 184.631C513.611 184.631 494.125 167.901 489.865 145.754C489.703 144.909 489.26 144.217 488.817 143.689C488.366 143.151 487.814 142.663 487.255 142.228C486.258 141.451 485.026 140.681 483.897 139.974C483.777 139.899 483.658 139.825 483.541 139.752C482.256 138.946 481.144 138.226 480.35 137.54C479.759 137.03 479.578 136.733 479.523 136.631C479.578 136.53 479.759 136.233 480.35 135.723C481.144 135.037 482.256 134.317 483.541 133.511C483.658 133.438 483.777 133.364 483.897 133.289C485.026 132.582 486.258 131.812 487.255 131.035C487.814 130.6 488.366 130.112 488.817 129.574C489.26 129.046 489.703 128.354 489.865 127.509C494.125 105.362 513.611 88.6315 537 88.6315C563.51 88.6315 585 110.122 585 136.631Z" fill="white" stroke="#4D4D4D" stroke-width="4"/>
<path d="M587 136.631C587 164.246 564.614 186.631 537 186.631C512.634 186.631 492.339 169.203 487.901 146.131C487.31 143.056 477.5 139.88 477.5 136.631C477.5 133.569 491.189 138.026 492.507 140.79C512.592 182.907 582.107 216.627 587 136.631Z" fill="#D2D2D2"/>
<path d="M585 136.631C585 163.141 563.51 184.631 537 184.631C513.611 184.631 494.125 167.901 489.865 145.754C489.703 144.909 489.26 144.217 488.817 143.689C488.366 143.151 487.814 142.663 487.255 142.228C486.258 141.451 485.026 140.681 483.897 139.974C483.777 139.899 483.658 139.825 483.541 139.752C482.256 138.946 481.144 138.226 480.35 137.54C479.759 137.03 479.578 136.733 479.523 136.631C479.578 136.53 479.759 136.233 480.35 135.723C481.144 135.037 482.256 134.317 483.541 133.511C483.658 133.438 483.777 133.364 483.897 133.289C485.026 132.582 486.258 131.812 487.255 131.035C487.814 130.6 488.366 130.112 488.817 129.574C489.26 129.046 489.703 128.354 489.865 127.509C494.125 105.362 513.611 88.6315 537 88.6315C563.51 88.6315 585 110.122 585 136.631Z" stroke="#4D4D4D" stroke-width="4"/>
<path d="M600 136.631C600 151.01 594.113 165.048 584.859 175.489C575.601 185.933 563.113 192.631 550 192.631C532.353 192.631 521.258 185.869 514.476 175.705C507.604 165.406 505 151.367 505 136.631C505 128.689 506.013 115.397 508.072 102.868C509.101 96.6071 510.383 90.5841 511.915 85.5408C513.466 80.4313 515.203 76.57 517.024 74.4263C517.815 73.4957 518.236 73.2972 518.343 73.2635C518.377 73.275 518.461 73.3107 518.604 73.4114C519.009 73.6957 519.505 74.2116 520.272 75.084C520.386 75.2137 520.504 75.3494 520.627 75.4902C521.276 76.2329 522.05 77.1195 522.949 78.0191C525.126 80.1987 528.11 82.5413 532.552 83.9778C536.981 85.4097 542.714 85.8947 550.334 84.603C563.111 82.4373 575.473 88.08 584.743 98.0768C594.015 108.075 600 122.25 600 136.631Z" fill="#A6A6A6" stroke="#4D4D4D" stroke-width="4"/>
<path d="M602 136.631C602 166.455 577.614 194.632 550 194.632C513.5 194.632 503 166.455 503 136.631C495.437 132.845 548.533 229.326 602 136.631Z" fill="#797979"/>
<path d="M600 136.631C600 151.01 594.113 165.048 584.859 175.489C575.601 185.933 563.113 192.631 550 192.631C532.353 192.631 521.258 185.869 514.476 175.705C507.604 165.406 505 151.367 505 136.631C505 128.689 506.013 115.397 508.072 102.868C509.101 96.6071 510.383 90.5841 511.915 85.5408C513.466 80.4313 515.203 76.57 517.024 74.4263C517.815 73.4957 518.236 73.2972 518.343 73.2635C518.377 73.275 518.461 73.3107 518.604 73.4114C519.009 73.6957 519.505 74.2116 520.272 75.084C520.386 75.2137 520.504 75.3494 520.627 75.4902C521.276 76.2329 522.05 77.1195 522.949 78.0191C525.126 80.1987 528.11 82.5413 532.552 83.9778C536.981 85.4097 542.714 85.8947 550.334 84.603C563.111 82.4373 575.473 88.08 584.743 98.0768C594.015 108.075 600 122.25 600 136.631Z" stroke="#4D4D4D" stroke-width="4"/>
<rect x="2.82843" y="-1.19209e-07" width="79.8859" height="63.1087" rx="4" transform="matrix(0.707107 0.707107 0.707107 -0.707107 340.316 380.453)" fill="#FFEFB6" stroke="#4D4D4D" stroke-width="4"/>
<rect x="2.82843" y="-1.19209e-07" width="69.8196" height="54.7201" rx="4" transform="matrix(0.707107 0.707107 0.707107 -0.707107 343.875 384.012)" fill="white" stroke="#4D4D4D" stroke-width="4"/>
<rect x="-2.82843" y="1.19209e-07" width="79.8859" height="63.1087" rx="4" transform="matrix(-0.707107 -0.707107 -0.707107 0.707107 396.941 436.804)" fill="#FFEFB6" stroke="#4D4D4D" stroke-width="4"/>
<rect x="-2.82843" y="1.19209e-07" width="69.8196" height="54.7201" rx="4" transform="matrix(-0.707107 -0.707107 -0.707107 0.707107 393.382 433.245)" fill="white" stroke="#4D4D4D" stroke-width="4"/>
<line x1="346.605" y1="392.674" x2="353.268" y2="386.012" stroke="#4D4D4D" stroke-width="4" stroke-linecap="round" stroke-linejoin="round"/>
<line x1="352.537" y1="398.606" x2="359.199" y2="391.944" stroke="#4D4D4D" stroke-width="4" stroke-linecap="round" stroke-linejoin="round"/>
<line x1="358.469" y1="404.537" x2="365.131" y2="397.875" stroke="#4D4D4D" stroke-width="4" stroke-linecap="round" stroke-linejoin="round"/>
<line x1="364.4" y1="410.469" x2="371.062" y2="403.807" stroke="#4D4D4D" stroke-width="4" stroke-linecap="round" stroke-linejoin="round"/>
<line x1="370.332" y1="416.401" x2="376.994" y2="409.739" stroke="#4D4D4D" stroke-width="4" stroke-linecap="round" stroke-linejoin="round"/>
<line x1="376.263" y1="422.332" x2="382.926" y2="415.67" stroke="#4D4D4D" stroke-width="4" stroke-linecap="round" stroke-linejoin="round"/>
<line x1="382.195" y1="428.264" x2="388.857" y2="421.602" stroke="#4D4D4D" stroke-width="4" stroke-linecap="round" stroke-linejoin="round"/>
<line x1="388.127" y1="434.195" x2="394.789" y2="427.533" stroke="#4D4D4D" stroke-width="4" stroke-linecap="round" stroke-linejoin="round"/>
<rect x="-2" y="2" width="71.2923" height="118.141" rx="4" transform="matrix(-1 -8.74228e-08 -8.74228e-08 1 275.292 286.549)" fill="#E9E9E9" stroke="#4D4D4D" stroke-width="4" stroke-linejoin="round"/>
<path d="M325.814 281.625C325.814 279.035 323.39 277.128 320.873 277.737L281.005 287.382C279.21 287.817 277.946 289.423 277.946 291.27L277.946 403.968C277.946 405.815 279.21 407.422 281.005 407.856L320.873 417.501C323.39 418.11 325.814 416.203 325.814 413.614L325.814 281.625Z" fill="#E9E9E9" stroke="#4D4D4D" stroke-width="4" stroke-linejoin="round"/>
<path d="M314.102 293.047C314.102 290.347 311.481 288.422 308.904 289.231L286.604 296.231C284.937 296.754 283.802 298.299 283.802 300.047L283.802 396.028C283.802 397.775 284.937 399.321 286.604 399.844L308.904 406.844C311.481 407.652 314.102 405.728 314.102 403.027L314.102 293.047Z" fill="#797979" stroke="#4D4D4D" stroke-width="4" stroke-linejoin="round"/>
<path d="M314.009 312.06L299.009 315.569L283.554 319.19" stroke="#E9E9E9" stroke-width="25"/>
<path d="M313.895 333.92L298.267 336.694L282.638 339.468" stroke="#E9E9E9" stroke-width="8"/>
<path d="M314.102 293.047C314.102 290.347 311.481 288.422 308.904 289.231L286.604 296.231C284.937 296.754 283.802 298.299 283.802 300.047L283.802 396.028C283.802 397.775 284.937 399.321 286.604 399.844L308.904 406.844C311.481 407.652 314.102 405.728 314.102 403.027L314.102 293.047Z" stroke="#4D4D4D" stroke-width="4" stroke-linejoin="round"/>
<line x1="2" y1="-2" x2="132.689" y2="-2" transform="matrix(-4.41345e-08 1 1 4.41345e-08 323.631 280.693)" stroke="white" stroke-width="4" stroke-linecap="round" stroke-linejoin="round"/>
<rect x="-2" y="2" width="36.1559" height="90.5336" rx="3" transform="matrix(-1 -8.74228e-08 -8.74228e-08 1 261.907 299.934)" fill="#A6A6A6" stroke="#4D4D4D" stroke-width="4"/>
<rect x="-2" y="2" width="10.2219" height="17.7511" rx="2" transform="matrix(-1 -8.74228e-08 -8.74228e-08 1 219.241 337.58)" fill="#A6A6A6" stroke="#4D4D4D" stroke-width="4"/>
<path d="M323.102 91.6989C323.102 89.4897 324.893 87.6989 327.102 87.6989H391.295C393.505 87.6989 395.295 89.4897 395.295 91.6989V203.301C395.295 205.51 393.505 207.301 391.295 207.301H327.102C324.893 207.301 323.102 205.51 323.102 203.301V91.6989Z" fill="#E9E9E9" stroke="#4D4D4D" stroke-width="4" stroke-linejoin="round"/>
<path d="M274 80.6247C274 78.035 276.423 76.1279 278.941 76.7369L319.429 86.5325C321.224 86.9668 322.489 88.5735 322.489 90.4204V204.58C322.489 206.426 321.224 208.033 319.429 208.467L278.941 218.263C276.423 218.872 274 216.965 274 214.375V80.6247Z" fill="#E9E9E9" stroke="#4D4D4D" stroke-width="4" stroke-linejoin="round"/>
<path d="M285.852 92.1776C285.852 89.4769 288.473 87.5524 291.05 88.3612L313.76 95.4896C315.428 96.013 316.563 97.5584 316.563 99.306V196.541C316.563 198.288 315.428 199.834 313.76 200.357L291.05 207.485C288.473 208.294 285.852 206.37 285.852 203.669V92.1776Z" fill="#797979" stroke="#4D4D4D" stroke-width="4" stroke-linejoin="round"/>
<path d="M285.97 111.516L301.15 115.067L316.79 118.73" stroke="#E9E9E9" stroke-width="25"/>
<path d="M286.085 133.637L301.901 136.444L317.717 139.252" stroke="#E9E9E9" stroke-width="8"/>
<path d="M285.852 92.1776C285.852 89.4769 288.473 87.5524 291.05 88.3612L313.76 95.4896C315.428 96.013 316.563 97.5584 316.563 99.306V196.541C316.563 198.288 315.428 199.834 313.76 200.357L291.05 207.485C288.473 208.294 285.852 206.37 285.852 203.669V92.1776Z" stroke="#4D4D4D" stroke-width="4" stroke-linejoin="round"/>
<line x1="278.233" y1="81.7727" x2="278.233" y2="214.074" stroke="white" stroke-width="4" stroke-linecap="round" stroke-linejoin="round"/>
<rect x="336.648" y="101.244" width="36.6364" height="91.6648" rx="3" fill="#A6A6A6" stroke="#4D4D4D" stroke-width="4"/>
<rect x="379.824" y="139.341" width="10.392" height="18.0114" rx="2" fill="#A6A6A6" stroke="#4D4D4D" stroke-width="4"/>
<path d="M77.5251 418.834C84.5752 432.781 88.5893 440.156 111.397 441.064" stroke="#4D4D4D" stroke-width="4"/>
<rect width="58.9505" height="32.8113" rx="16.4056" transform="matrix(0.98403 0.178002 0.178002 -0.98403 95.7872 453.48)" fill="#D2D2D2"/>
<path fill-rule="evenodd" clip-rule="evenodd" d="M150.132 431.572C148.215 430.196 145.969 429.214 143.493 428.766L117.771 424.113C109.902 422.69 102.33 427.134 99.5513 434.327C99.755 441.071 104.641 446.987 111.546 448.236L134.432 452.376C142.366 453.811 149.96 448.543 151.395 440.61C151.973 437.416 151.464 434.276 150.132 431.572Z" fill="white"/>
<rect x="2.32407" y="-1.61206" width="54.9505" height="28.8113" rx="14.4056" transform="matrix(0.98403 0.178002 0.178002 -0.98403 96.1113 449.868)" stroke="#4D4D4D" stroke-width="4"/>
<rect x="0.108186" y="-2.82636" width="73.591" height="39.1864" rx="19.5932" transform="matrix(0.733636 -0.679543 -0.679543 -0.733636 180.185 452.504)" fill="#D2D2D2" stroke="#4D4D4D" stroke-width="4"/>
<path fill-rule="evenodd" clip-rule="evenodd" d="M225.7 390.399C225.274 389.837 224.816 389.291 224.326 388.762C216.222 380.013 202.56 379.49 193.811 387.594L168.571 410.974C162.909 416.218 160.692 423.79 162.029 430.852C162.456 431.414 162.914 431.96 163.403 432.489C171.507 441.238 185.169 441.761 193.918 433.657L219.158 410.277C224.82 405.033 227.037 397.461 225.7 390.399Z" fill="white"/>
<rect x="0.108186" y="-2.82636" width="73.591" height="39.1864" rx="19.5932" transform="matrix(0.733636 -0.679543 -0.679543 -0.733636 180.185 452.504)" stroke="#4D4D4D" stroke-width="4"/>
<path d="M155.577 447.429L166.328 440.306" stroke="#4D4D4D" stroke-width="4"/>
<path d="M236.537 388.905C237.479 386.907 239.859 386.099 242 386.644C249.789 388.623 257.266 385.496 264.687 381.491C265.316 380.915 266.523 381.568 266.166 382.325C260.815 393.685 247.217 398.598 235.428 393.608C234.919 393.393 234.705 392.795 234.94 392.295L236.537 388.905Z" fill="#88FCFF" stroke="#4D4D4D" stroke-width="4"/>
<path d="M231.522 380.613C233.73 380.541 235.415 378.676 235.764 376.495C237.037 368.56 242.873 362.936 249.493 357.712C250.271 357.364 250.15 355.997 249.314 356.024C236.764 356.43 226.86 366.965 226.764 379.765C226.76 380.318 227.224 380.752 227.776 380.734L231.522 380.613Z" fill="#88FCFF" stroke="#4D4D4D" stroke-width="4"/>
<path d="M235.889 387.387L231.4 382.017" stroke="#4D4D4D" stroke-width="4"/>
<path d="M186.016 429.016L197.5 440.5L221.5 417L210.985 406.122C208.755 403.816 205.106 403.671 202.701 405.793L186.289 420.274C183.694 422.564 183.569 426.569 186.016 429.016Z" stroke="#4D4D4D" stroke-width="4"/>
<path d="M188.354 418.646L203 435M195 413.5L209.646 429.854M200.854 407.146L215.5 423.5" stroke="#4D4D4D" stroke-width="4"/>
<path d="M77.5251 287.031C84.5752 273.084 88.5893 265.709 111.397 264.801" stroke="#4D4D4D" stroke-width="4"/>
<rect x="95.7872" y="252.385" width="58.9505" height="32.8113" rx="16.4056" transform="rotate(-10.2534 95.7872 252.385)" fill="#D2D2D2"/>
<path fill-rule="evenodd" clip-rule="evenodd" d="M149.206 247.005C149.608 248.038 149.917 249.125 150.122 250.257C151.846 259.788 145.517 268.912 135.986 270.636L116.078 274.237C109.071 275.504 102.284 272.419 98.496 266.91C97.8248 258.601 103.556 250.979 111.931 249.464L137.653 244.812C141.807 244.06 145.879 244.944 149.206 247.005Z" fill="white"/>
<rect x="98.1113" y="253.997" width="54.9505" height="28.8113" rx="14.4056" transform="rotate(-10.2534 98.1113 253.997)" stroke="#4D4D4D" stroke-width="4"/>
<rect x="182.076" y="248.535" width="77.591" height="43.1864" rx="21.5932" transform="rotate(42.8079 182.076 248.535)" fill="#D2D2D2"/>
<path fill-rule="evenodd" clip-rule="evenodd" d="M223.765 287.172C228.502 293.848 228.087 303.149 222.304 309.393C215.671 316.553 204.491 316.981 197.331 310.348L169.965 285C165.077 280.473 163.326 273.826 164.817 267.786C165.551 266.589 166.412 265.446 167.403 264.376C175.507 255.627 189.169 255.104 197.918 263.208L223.158 286.588C223.365 286.779 223.568 286.974 223.765 287.172Z" fill="white"/>
<rect x="182.185" y="251.361" width="73.591" height="39.1864" rx="19.5932" transform="rotate(42.8079 182.185 251.361)" stroke="#4D4D4D" stroke-width="4"/>
<path d="M155.577 258.436L166.328 265.559" stroke="#4D4D4D" stroke-width="4"/>
<circle cx="215" cy="297" r="5" fill="#F2463A" stroke="#4D4D4D" stroke-width="4"/>
<path d="M217 295.5C217 296.881 215.881 298 214.5 298C213.119 298 212 296.881 212 295.5C212 294.119 213.119 293 214.5 293C215.881 293 217 294.119 217 295.5Z" fill="#F89790"/>
<circle cx="215" cy="297" r="5" stroke="#4D4D4D" stroke-width="4"/>
<circle cx="203.5" cy="286.5" r="2.5" fill="#F2463A" stroke="#4D4D4D" stroke-width="4"/>
<path d="M236.223 318.963C237.918 320.38 240.417 320.111 242.13 318.716C248.363 313.643 256.462 313.333 264.879 313.843C265.691 314.101 266.512 313.001 265.87 312.464C256.235 304.411 241.832 305.677 233.238 315.163C232.867 315.573 232.924 316.206 233.348 316.56L236.223 318.963Z" fill="#88FCFF" stroke="#4D4D4D" stroke-width="4"/>
<path d="M231.092 325.101C232.787 326.518 232.965 329.025 231.897 330.959C228.01 337.992 229.141 346.018 231.136 354.211C231.534 354.965 230.597 355.967 229.955 355.431C220.32 347.378 219.011 332.978 226.823 322.837C227.16 322.4 227.793 322.344 228.217 322.698L231.092 325.101Z" fill="#88FCFF" stroke="#4D4D4D" stroke-width="4"/>
<path d="M235.889 318.478L231.4 323.848" stroke="#4D4D4D" stroke-width="4"/>
<rect x="24" y="281.178" width="101" height="140" rx="20" fill="#48DEE2"/>
<rect x="24" y="281" width="101" height="128" rx="20" fill="#88FCFF"/>
<rect x="26" y="283.178" width="97" height="136" rx="18" stroke="#4D4D4D" stroke-width="4"/>
<rect x="123" y="309.178" width="13" height="36" rx="4" fill="#FFD081" stroke="#4D4D4D" stroke-width="4" stroke-linecap="round" stroke-linejoin="round"/>
<rect x="121" y="307" width="17" height="31" rx="6" fill="#FFEFB6"/>
<rect x="123" y="309.178" width="13" height="36" rx="4" stroke="#4D4D4D" stroke-width="4" stroke-linecap="round" stroke-linejoin="round"/>
<rect x="123" y="358.178" width="13" height="36" rx="4" fill="#FFD081" stroke="#4D4D4D" stroke-width="4" stroke-linecap="round" stroke-linejoin="round"/>
<rect x="121" y="356" width="17" height="31" rx="6" fill="#FFEFB6"/>
<rect x="123" y="358.178" width="13" height="36" rx="4" stroke="#4D4D4D" stroke-width="4" stroke-linecap="round" stroke-linejoin="round"/>
<path d="M73.081 253.815C73.6433 251.9 76.3567 251.9 76.919 253.815L84.5663 279.865C84.9423 281.145 83.9821 282.428 82.6473 282.428H67.3527C66.0179 282.428 65.0577 281.145 65.4337 279.865L73.081 253.815Z" fill="#A6A6A6" stroke="#4D4D4D" stroke-width="4"/>
<path d="M81 270.5C81 264.5 85 282 85 282C85 282 70.4487 281.195 65.0147 280.981C64.8029 281.071 64.5693 281.113 64.3119 281.091C62.1419 280.904 62.8647 280.896 65.0147 280.981C66.6783 280.267 67 276.5 67 276.5C71.4673 283.951 81 276.5 81 270.5Z" fill="#797979"/>
<path d="M73.081 253.815C73.6433 251.9 76.3567 251.9 76.919 253.815L84.5663 279.865C84.9423 281.145 83.9821 282.428 82.6473 282.428H67.3527C66.0179 282.428 65.0577 281.145 65.4337 279.865L73.081 253.815Z" stroke="#4D4D4D" stroke-width="4"/>
<circle cx="74.5" cy="240.678" r="10.5" fill="#FFD081" stroke="#4D4D4D" stroke-width="4"/>
<circle cx="72.5" cy="237.5" r="7.5" fill="#FFEFB6"/>
<circle cx="74.5" cy="240.678" r="10.5" stroke="#4D4D4D" stroke-width="4"/>
<circle r="10.5" transform="matrix(1 0 0 -1 74.5 461.678)" fill="#FFD081" stroke="#4D4D4D" stroke-width="4"/>
<circle r="7.5" transform="matrix(1 0 0 -1 72.5 459.5)" fill="#FFEFB6"/>
<circle r="10.5" transform="matrix(1 0 0 -1 74.5 461.678)" stroke="#4D4D4D" stroke-width="4"/>
<path d="M73.081 448.541C73.6433 450.456 76.3567 450.456 76.919 448.541L84.5663 422.491C84.9423 421.211 83.9821 419.928 82.6473 419.928H67.3527C66.0179 419.928 65.0577 421.211 65.4337 422.491L73.081 448.541Z" fill="#A6A6A6" stroke="#4D4D4D" stroke-width="4"/>
<path d="M75.6872 452C75.6872 452 86.5447 416.413 83.4426 421.497C82.8893 422.404 82.2014 419.819 81.5 421.497C78.2692 429.227 73.751 446.478 70 440.703L75.6872 452Z" fill="#797979"/>
<path d="M73.081 448.541C73.6433 450.456 76.3567 450.456 76.919 448.541L84.5663 422.491C84.9423 421.211 83.9821 419.928 82.6473 419.928H67.3527C66.0179 419.928 65.0577 421.211 65.4337 422.491L73.081 448.541Z" stroke="#4D4D4D" stroke-width="4"/>
<path d="M408.822 387.9C410.755 387.934 412.294 389.528 412.26 391.461C412.226 393.394 410.631 394.933 408.699 394.899L381.829 394.426C380.812 394.408 379.854 393.949 379.202 393.168C378.09 391.834 378.124 389.886 379.283 388.592C379.961 387.835 380.935 387.409 381.952 387.427L408.822 387.9Z" fill="#4D4D4D"/>
<line x1="413.76" y1="391.487" x2="410.76" y2="391.435" stroke="#4D4D4D" stroke-width="3" stroke-linecap="round"/>
<line x1="381.764" y1="390.924" x2="376.765" y2="390.837" stroke="#4D4D4D" stroke-linecap="round"/>
<path d="M409.216 393.908L409.146 397.907L398.148 397.714" stroke="#4D4D4D" stroke-width="2" stroke-linecap="round" stroke-linejoin="round"/>
</svg>
