<svg width="839" height="242" viewBox="0 0 839 242" fill="none" xmlns="http://www.w3.org/2000/svg">
<path d="M64.5 102.683C66 96.1832 64 85.6832 46 74.6832C41.6667 72.5165 34 64.598 34 55.1831C34 43.6831 51 33.1832 61 38.6832C71 44.1832 81.0769 7.23191 116 0.683687C140 -3.81641 145.5 15.1831 159 20.1831C172.917 25.3376 183.5 22.6832 193 20.1832C202.5 17.6832 216 23.6832 218.5 32.1832C221 40.6832 221.5 51.6831 211.5 57.6831C201.5 63.6831 188 80.1831 195.5 92.6831C203 105.183 210 113.683 206.5 127.183C203 140.683 180.5 134.183 172.5 140.683C164.5 147.183 173 160.683 172.5 168.683C172 176.683 157.485 182.27 142.5 178.183C131.5 175.183 130.5 165.183 118 159.183C105.5 153.183 95.7194 165.505 82.5 164.183C67.5 162.683 59 155.183 54 135.683C49 116.183 63 109.183 64.5 102.683Z" fill="#E9E9E9"/>
<mask id="path-2-inside-1" fill="white">
<path fill-rule="evenodd" clip-rule="evenodd" d="M143.425 15.1264C139.127 17.1403 132.283 18.443 124.574 18.443C116.313 18.443 109.045 16.9471 104.84 14.6831C99.27 18.0645 95.7794 22.9173 95.7794 28.3087C95.7794 38.526 108.315 46.8087 123.779 46.8087C139.243 46.8087 151.779 38.526 151.779 28.3087C151.779 23.1486 148.582 18.4819 143.425 15.1264Z"/>
</mask>
<path fill-rule="evenodd" clip-rule="evenodd" d="M143.425 15.1264C139.127 17.1403 132.283 18.443 124.574 18.443C116.313 18.443 109.045 16.9471 104.84 14.6831C99.27 18.0645 95.7794 22.9173 95.7794 28.3087C95.7794 38.526 108.315 46.8087 123.779 46.8087C139.243 46.8087 151.779 38.526 151.779 28.3087C151.779 23.1486 148.582 18.4819 143.425 15.1264Z" fill="#161616"/>
<path d="M143.425 15.1264L145.606 11.7736L143.742 10.5605L141.727 11.5043L143.425 15.1264ZM104.84 14.6831L106.735 11.161L104.72 10.0761L102.764 11.2639L104.84 14.6831ZM141.727 11.5043C138.146 13.1826 131.942 14.443 124.574 14.443V22.443C132.623 22.443 140.108 21.098 145.122 18.7485L141.727 11.5043ZM124.574 14.443C116.642 14.443 110.123 12.9843 106.735 11.161L102.944 18.2052C107.968 20.9099 115.984 22.443 124.574 22.443V14.443ZM99.7794 28.3087C99.7794 24.7903 102.069 21.0449 106.915 18.1023L102.764 11.2639C96.4715 15.084 91.7794 21.0442 91.7794 28.3087H99.7794ZM123.779 42.8087C116.72 42.8087 110.511 40.9108 106.185 38.0529C101.829 35.1742 99.7794 31.647 99.7794 28.3087H91.7794C91.7794 35.1877 95.9982 40.9105 101.775 44.7275C107.584 48.5653 115.375 50.8087 123.779 50.8087V42.8087ZM147.779 28.3087C147.779 31.647 145.73 35.1742 141.373 38.0529C137.048 40.9108 130.839 42.8087 123.779 42.8087V50.8087C132.184 50.8087 139.975 48.5653 145.783 44.7275C151.561 40.9105 155.779 35.1877 155.779 28.3087H147.779ZM141.243 18.4792C145.688 21.3709 147.779 24.9377 147.779 28.3087H155.779C155.779 21.3595 151.476 15.5929 145.606 11.7736L141.243 18.4792Z" fill="#4D4D4D" mask="url(#path-2-inside-1)"/>
<path fill-rule="evenodd" clip-rule="evenodd" d="M117.224 39.0667C119.516 41.0069 121.598 42.7692 122.913 44.4803C123.453 45.1832 124.766 45.1979 125.207 44.429C128.373 38.9138 132.011 36.3953 135.244 34.1574C140.107 30.791 144.053 28.0594 144.094 16.7183C144.095 16.6087 144.04 16.5042 143.947 16.4462C143.786 16.3458 143.744 16.1231 143.897 16.011C144.199 15.7901 144.593 15.7107 144.958 15.8648L171.488 27.0522C171.49 27.053 171.491 27.0548 171.491 27.0568C171.491 27.0581 171.492 27.0593 171.493 27.0602C207.496 66.3003 222.939 87.8925 240.585 125.078C240.751 125.428 240.702 125.848 240.455 126.147L233.148 134.992C232.82 135.389 232.251 135.477 231.827 135.185C206.635 117.85 180.911 82.9616 173.563 72.5936C172.976 71.7648 171.632 72.2162 171.682 73.2308C172.26 84.8493 173.82 121.987 171.574 147.012C171.528 147.526 171.097 147.908 170.581 147.908H74.6126C74.1236 147.908 73.7048 147.545 73.6256 147.063C69.0662 119.293 69.2639 102.934 72.8845 76.2961C73.0378 75.1684 71.4368 74.6575 70.9075 75.6651C56.632 102.84 42.9049 116.19 13.3461 135.693C12.9632 135.946 12.4495 135.91 12.1119 135.6L2.32102 126.592C1.99886 126.296 1.90948 125.819 2.0971 125.423C19.2121 89.3423 33.8687 66.3133 67.6547 29.0985C69.6508 26.8999 72.1903 25.2587 75.0085 24.3228L101.411 15.5546C101.593 15.4941 101.793 15.4874 101.978 15.5394C102.87 15.7904 103.689 16.1248 104.446 16.5297C104.808 16.723 104.988 17.1345 104.934 17.5408C103.603 27.5364 111.152 33.9261 117.224 39.0667Z" fill="#202020"/>
<path fill-rule="evenodd" clip-rule="evenodd" d="M122.913 44.4803C121.598 42.7692 119.516 41.0069 117.224 39.0667C111.152 33.9261 103.603 27.5364 104.934 17.5408C104.988 17.1345 104.808 16.723 104.446 16.5297C103.689 16.1248 102.87 15.7904 101.978 15.5394C101.793 15.4874 101.593 15.4941 101.411 15.5546L75.0085 24.3228C72.1903 25.2587 69.6508 26.8999 67.6547 29.0985C63.348 33.8423 59.3521 38.3556 55.6223 42.6948C60.1516 42.0282 64.7855 41.683 69.5 41.683C121.691 41.683 164 83.9921 164 136.183C164 140.153 163.755 144.066 163.28 147.908H170.581C171.097 147.908 171.528 147.526 171.574 147.012C173.82 121.987 172.26 84.8493 171.682 73.2308C171.632 72.2162 172.976 71.7648 173.563 72.5936C180.911 82.9616 206.635 117.85 231.827 135.185C232.251 135.477 232.82 135.389 233.148 134.992L240.455 126.147C240.702 125.848 240.751 125.428 240.585 125.078C222.939 87.8925 207.496 66.3003 171.493 27.0602C171.492 27.0593 171.491 27.0581 171.491 27.0568C171.491 27.0548 171.49 27.053 171.488 27.0522L144.958 15.8648C144.593 15.7107 144.199 15.7901 143.897 16.011C143.744 16.1231 143.786 16.3458 143.947 16.4462C144.04 16.5042 144.095 16.6087 144.094 16.7183C144.053 28.0594 140.107 30.791 135.244 34.1574C132.011 36.3953 128.373 38.9138 125.207 44.429C124.766 45.1979 123.453 45.1832 122.913 44.4803Z" fill="black" fill-opacity="0.8"/>
<path d="M117.224 39.0667L115.932 40.5932L117.224 39.0667ZM135.244 34.1574L134.106 32.5129L135.244 34.1574ZM144.958 15.8648L144.181 17.7077L144.181 17.7077L144.958 15.8648ZM240.585 125.078L242.392 124.22L242.392 124.22L240.585 125.078ZM240.455 126.147L241.997 127.421L241.997 127.421L240.455 126.147ZM233.148 134.992L234.69 136.266L234.69 136.266L233.148 134.992ZM231.827 135.185L230.693 136.833L230.693 136.833L231.827 135.185ZM173.563 72.5936L171.932 73.7501L171.932 73.7501L173.563 72.5936ZM171.682 73.2308L173.68 73.1314V73.1314L171.682 73.2308ZM171.574 147.012L173.566 147.191V147.191L171.574 147.012ZM73.6256 147.063L75.5992 146.739L73.6256 147.063ZM13.3461 135.693L14.4476 137.363L14.4476 137.363L13.3461 135.693ZM12.1119 135.6L10.7578 137.071H10.7578L12.1119 135.6ZM2.32102 126.592L3.67514 125.12H3.67513L2.32102 126.592ZM2.0971 125.423L3.9041 126.28L3.90411 126.28L2.0971 125.423ZM67.6547 29.0985L69.1355 30.4429V30.4429L67.6547 29.0985ZM75.0085 24.3228L74.3781 22.4247V22.4247L75.0085 24.3228ZM101.411 15.5546L100.781 13.6565L100.781 13.6565L101.411 15.5546ZM101.978 15.5394L102.52 13.6141L102.52 13.6141L101.978 15.5394ZM104.446 16.5297L103.503 18.2934L104.446 16.5297ZM104.934 17.5408L106.916 17.8046L104.934 17.5408ZM72.8845 76.2961L74.8663 76.5655L72.8845 76.2961ZM70.9075 75.6651L69.1369 74.735L70.9075 75.6651ZM171.493 27.0602L172.966 25.7081L171.493 27.0602ZM171.488 27.0522L172.265 25.2094L171.488 27.0522ZM143.897 16.011L145.077 17.6254L143.897 16.011ZM144.094 16.7183L142.094 16.7111L144.094 16.7183ZM122.913 44.4803L124.499 43.2616L122.913 44.4803ZM125.207 44.429L126.942 45.4246L125.207 44.429ZM124.499 43.2616C123.024 41.343 120.749 39.43 118.516 37.5402L115.932 40.5932C118.284 42.5838 120.172 44.1954 121.327 45.6989L124.499 43.2616ZM134.106 32.5129C130.827 34.7829 126.872 37.5112 123.473 43.4334L126.942 45.4246C129.874 40.3165 133.196 38.0078 136.382 35.8018L134.106 32.5129ZM142.094 16.7111C142.075 22.1602 141.116 25.2638 139.789 27.357C138.438 29.4852 136.58 30.8 134.106 32.5129L136.382 35.8018C138.771 34.1484 141.317 32.4142 143.166 29.4998C145.037 26.5503 146.073 22.6175 146.094 16.7256L142.094 16.7111ZM145.077 17.6254C144.909 17.7488 144.566 17.8699 144.181 17.7077L145.735 14.022C144.619 13.5515 143.489 13.8314 142.716 14.3966L145.077 17.6254ZM144.181 17.7077L170.711 28.8951L172.265 25.2094L145.735 14.022L144.181 17.7077ZM170.019 28.4123C205.932 67.5532 221.242 88.9813 238.778 125.935L242.392 124.22C224.636 86.8037 209.061 65.0474 172.966 25.7081L170.019 28.4123ZM238.778 125.935C238.616 125.595 238.657 125.183 238.913 124.874L241.997 127.421C242.746 126.514 242.885 125.261 242.392 124.22L238.778 125.935ZM238.913 124.874L231.606 133.718L234.69 136.266L241.997 127.421L238.913 124.874ZM231.606 133.718C231.918 133.341 232.504 133.224 232.961 133.538L230.693 136.833C231.998 137.731 233.723 137.437 234.69 136.266L231.606 133.718ZM232.961 133.538C208.101 116.432 182.563 81.8335 175.195 71.4372L171.932 73.7501C179.259 84.0897 205.168 119.268 230.693 136.833L232.961 133.538ZM175.195 71.4372C173.493 69.0353 169.531 70.2447 169.685 73.3303L173.68 73.1314C173.706 73.6547 173.331 74.0121 173.023 74.1159C172.72 74.2182 172.224 74.1633 171.932 73.7501L175.195 71.4372ZM169.685 73.3302C170.264 84.9648 171.813 121.968 169.582 146.833L173.566 147.191C175.826 122.007 174.257 84.7338 173.68 73.1314L169.685 73.3302ZM169.582 146.833C169.631 146.283 170.095 145.908 170.581 145.908V149.908C172.099 149.908 173.424 148.769 173.566 147.191L169.582 146.833ZM170.581 145.908H74.6126V149.908H170.581V145.908ZM74.6126 145.908C75.1216 145.908 75.5227 146.273 75.5992 146.739L71.652 147.387C71.8869 148.818 73.1256 149.908 74.6126 149.908V145.908ZM75.5992 146.739C71.0752 119.185 71.2696 103.027 74.8663 76.5655L70.9027 76.0268C67.2581 102.841 67.0572 119.401 71.652 147.387L75.5992 146.739ZM69.1369 74.735C62.065 88.1971 55.1699 98.1595 46.4235 107.162C37.6605 116.182 26.9777 124.303 12.2446 134.024L14.4476 137.363C29.2734 127.58 40.2335 119.274 49.2925 109.949C58.3683 100.608 65.4745 90.3078 72.678 76.5952L69.1369 74.735ZM12.2447 134.024C12.6109 133.782 13.1122 133.802 13.466 134.128L10.7578 137.071C11.7868 138.018 13.3155 138.11 14.4476 137.363L12.2447 134.024ZM13.466 134.128L3.67514 125.12L0.966909 128.064L10.7578 137.071L13.466 134.128ZM3.67513 125.12C4.00751 125.426 4.0864 125.896 3.9041 126.28L0.290092 124.566C-0.267432 125.741 -0.00978827 127.165 0.966913 128.064L3.67513 125.12ZM3.90411 126.28C20.9329 90.3811 35.4784 67.5156 69.1355 30.4429L66.174 27.7541C32.2589 65.111 17.4913 88.3034 0.29009 124.566L3.90411 126.28ZM69.1355 30.4429C70.8972 28.5024 73.1424 27.0499 75.6388 26.2209L74.3781 22.4247C71.2382 23.4675 68.4044 25.2974 66.174 27.7541L69.1355 30.4429ZM75.6388 26.2209L102.041 17.4527L100.781 13.6565L74.3781 22.4247L75.6388 26.2209ZM102.041 17.4527C101.859 17.5133 101.651 17.5249 101.436 17.4646L102.52 13.6141C101.936 13.4499 101.328 13.4749 100.781 13.6565L102.041 17.4527ZM101.436 17.4646C102.188 17.6761 102.873 17.9562 103.503 18.2934L105.389 14.766C104.506 14.2934 103.552 13.9046 102.52 13.6141L101.436 17.4646ZM118.516 37.5402C112.259 32.2429 105.752 26.5511 106.916 17.8046L102.951 17.2769C101.455 28.5218 110.045 35.6094 115.932 40.5932L118.516 37.5402ZM103.503 18.2934C103.031 18.0408 102.911 17.5803 102.951 17.2769L106.916 17.8046C107.065 16.6886 106.585 15.4052 105.389 14.766L103.503 18.2934ZM74.8663 76.5655C75.1003 74.8437 73.9306 73.6481 72.76 73.2745C71.5897 72.901 69.9445 73.1976 69.1369 74.735L72.678 76.5952C72.5693 76.8022 72.3634 76.985 72.11 77.0719C71.8853 77.1489 71.6873 77.131 71.5439 77.0852C71.4004 77.0394 71.2283 76.9392 71.0895 76.7457C70.9329 76.5274 70.8712 76.2587 70.9027 76.0268L74.8663 76.5655ZM169.491 27.0568C169.491 27.5715 169.688 28.052 170.019 28.4123L172.966 25.7081C173.295 26.0666 173.491 26.5446 173.491 27.0568H169.491ZM170.711 28.8951C169.972 28.5833 169.491 27.8591 169.491 27.0568H173.491C173.491 26.2505 173.008 25.5227 172.265 25.2094L170.711 28.8951ZM145.005 14.7491C145.411 15.0024 145.711 15.4331 145.785 15.9551C145.865 16.5265 145.656 17.2026 145.077 17.6254L142.716 14.3966C141.985 14.9315 141.72 15.775 141.823 16.5109C141.92 17.1973 142.321 17.7896 142.889 18.1433L145.005 14.7491ZM146.094 16.7256C146.097 15.9608 145.717 15.1933 145.005 14.7491L142.889 18.1433C142.362 17.8151 142.092 17.2566 142.094 16.7111L146.094 16.7256ZM121.327 45.6989C122.063 46.6567 123.188 47.0159 124.117 47.0065C125.047 46.9971 126.267 46.6004 126.942 45.4246L123.473 43.4334C123.706 43.0265 124.049 43.007 124.077 43.0067C124.116 43.0063 124.164 43.0125 124.225 43.0385C124.287 43.065 124.396 43.128 124.499 43.2616L121.327 45.6989Z" fill="#4D4D4D"/>
<path d="M72 132.683C76 134.283 80 134.016 81.5 133.683" stroke="#4D4D4D" stroke-width="4" stroke-linecap="round"/>
<path d="M104.793 16.8086C101.779 32.8086 121.293 39.8086 123.793 46.8086M123.793 46.8086C125.793 52.4086 125.113 60.3086 125.279 65.8086M123.793 46.8086C131.793 30.3086 143.793 36.8086 143.793 16.8086" stroke="#4F4F4F" stroke-width="4" stroke-linecap="round"/>
<path d="M104.779 16.8086C95.9985 17.3976 89.8328 28.4894 87.3708 33.5602C87.0728 34.1739 87.4801 34.8891 88.1486 35.0253C93.1368 36.041 97.3164 39.3832 100.455 43.183M104.779 49.8086C104.512 49.2774 104.22 48.7337 103.905 48.183" stroke="#4F4F4F" stroke-width="4" stroke-linecap="round"/>
<path d="M145.779 16.8086C154.56 17.3976 160.726 28.4894 163.188 33.5602C163.486 34.1739 163.078 34.8892 162.41 35.0253C154.566 36.6227 148.722 43.9727 145.779 49.8086" stroke="#4F4F4F" stroke-width="4" stroke-linecap="round"/>
<path d="M32 76.6831C33.5 82.6831 35 84.1831 37.5 86.1831" stroke="#4D4D4D" stroke-width="4" stroke-linecap="round"/>
<mask id="path-12-inside-2" fill="white">
<path fill-rule="evenodd" clip-rule="evenodd" d="M222.15 55.3157C218.069 57.7838 210.471 59.4429 201.771 59.4429C192.488 59.4429 184.459 57.5538 180.62 54.8086C175.882 57.154 172.977 60.3208 172.977 63.8058C172.977 71.0343 185.478 76.8941 200.899 76.8941C216.319 76.8941 228.82 71.0343 228.82 63.8058C228.82 60.5661 226.309 57.6013 222.15 55.3157Z"/>
</mask>
<path fill-rule="evenodd" clip-rule="evenodd" d="M222.15 55.3157C218.069 57.7838 210.471 59.4429 201.771 59.4429C192.488 59.4429 184.459 57.5538 180.62 54.8086C175.882 57.154 172.977 60.3208 172.977 63.8058C172.977 71.0343 185.478 76.8941 200.899 76.8941C216.319 76.8941 228.82 71.0343 228.82 63.8058C228.82 60.5661 226.309 57.6013 222.15 55.3157Z" fill="#A93020"/>
<path d="M222.15 55.3157L224.076 51.81L222.054 50.699L220.079 51.8931L222.15 55.3157ZM180.62 54.8086L182.947 51.5549L180.995 50.1595L178.845 51.2238L180.62 54.8086ZM220.079 51.8931C216.906 53.8124 210.163 55.4429 201.771 55.4429V63.4429C210.778 63.4429 219.232 61.7551 224.22 58.7384L220.079 51.8931ZM201.771 55.4429C197.387 55.4429 193.355 54.9956 190.027 54.2515C186.624 53.4909 184.246 52.484 182.947 51.5549L178.293 58.0623C180.833 59.8784 184.389 61.1887 188.281 62.0588C192.248 62.9457 196.872 63.4429 201.771 63.4429V55.4429ZM176.977 63.8058C176.977 62.7073 178.016 60.5611 182.395 58.3934L178.845 51.2238C173.749 53.7469 168.977 57.9344 168.977 63.8058H176.977ZM200.899 72.8941C193.64 72.8941 187.264 71.5068 182.853 69.4388C178.122 67.2214 176.977 64.9523 176.977 63.8058H168.977C168.977 69.8878 174.082 74.1629 179.457 76.6825C185.151 79.3515 192.736 80.8941 200.899 80.8941V72.8941ZM224.82 63.8058C224.82 64.9523 223.675 67.2214 218.945 69.4388C214.533 71.5068 208.157 72.8941 200.899 72.8941V80.8941C209.061 80.8941 216.646 79.3515 222.34 76.6825C227.715 74.1629 232.82 69.8878 232.82 63.8058H224.82ZM220.223 58.8214C223.962 60.8755 224.82 62.7947 224.82 63.8058H232.82C232.82 58.3374 228.657 54.3271 224.076 51.81L220.223 58.8214Z" fill="#630C00" mask="url(#path-12-inside-2)"/>
<path fill-rule="evenodd" clip-rule="evenodd" d="M201.771 72.1241C213.337 72.1241 222.713 65.8736 222.713 58.1632C222.713 57.8378 222.696 57.5149 222.663 57.1951C222.575 56.3404 223.433 55.5581 224.228 55.8843L250.56 66.6896C250.609 66.71 250.657 66.7343 250.703 66.7624L280.417 84.9935C280.849 85.2584 281.014 85.804 280.802 86.264L268.856 112.216C268.661 112.641 268.196 112.873 267.738 112.775L251.407 109.276C250.785 109.143 250.198 109.617 250.198 110.254L250.198 186.301C250.198 186.854 249.75 187.301 249.198 187.301H153.472C152.92 187.301 152.472 186.854 152.472 186.301V110.008C152.472 109.372 151.885 108.897 151.262 109.031L134.931 112.53C134.474 112.628 134.009 112.396 133.813 111.97L121.871 86.0271C121.658 85.5636 121.828 85.0137 122.265 84.7513L151.597 67.1681C151.642 67.1407 151.69 67.1169 151.74 67.0972L179.318 56.0765C180.1 55.7638 180.936 56.5164 180.864 57.356C180.841 57.6232 180.83 57.8923 180.83 58.1632C180.83 65.8736 190.206 72.1241 201.771 72.1241Z" fill="#AC2310"/>
<path fill-rule="evenodd" clip-rule="evenodd" d="M222.713 57.5705C222.713 65.2808 213.337 71.5313 201.771 71.5313C190.206 71.5313 180.83 65.2808 180.83 57.5705C180.83 57.2995 180.841 57.0304 180.864 56.7633C180.936 55.9237 180.1 55.1711 179.318 55.4838L151.74 66.5044C151.69 66.5242 151.642 66.5479 151.597 66.5753L122.265 84.1585C121.828 84.4209 121.658 84.9708 121.871 85.4344L122.546 86.8994C132.528 82.9681 143.401 80.8087 154.779 80.8087C203.38 80.8087 242.779 120.208 242.779 168.809C242.779 174.942 242.152 180.929 240.958 186.709H249.198C249.75 186.709 250.198 186.261 250.198 185.709L250.198 109.661C250.198 109.024 250.785 108.55 251.407 108.683L267.738 112.183C268.196 112.281 268.661 112.048 268.856 111.623L280.802 85.6713C281.014 85.2113 280.849 84.6656 280.417 84.4008L250.703 66.1696C250.657 66.1415 250.609 66.1172 250.56 66.0968L224.228 55.2915C223.433 54.9653 222.575 55.7476 222.663 56.6023C222.696 56.9222 222.713 57.245 222.713 57.5705Z" fill="black" fill-opacity="0.1"/>
<path d="M180.864 56.7633L178.872 56.5929L180.864 56.7633ZM151.597 66.5753L150.568 64.8599L151.597 66.5753ZM151.74 66.5044L150.998 64.6472L151.74 66.5044ZM121.871 85.4344L123.688 84.5981L121.871 85.4344ZM122.265 84.1585L121.237 82.4431L122.265 84.1585ZM134.931 111.937L135.35 113.893L134.931 111.937ZM133.813 111.378L131.997 112.214L133.813 111.378ZM151.262 108.438L150.843 106.482L151.262 108.438ZM250.198 185.709H248.198H250.198ZM251.407 108.683L251.826 106.728L251.407 108.683ZM250.198 109.661H252.198H250.198ZM268.856 111.623L267.04 110.787L268.856 111.623ZM267.738 112.183L267.319 114.138L267.738 112.183ZM280.417 84.4008L281.463 82.6961L280.417 84.4008ZM280.802 85.6713L282.619 86.5076L280.802 85.6713ZM250.56 66.0968L251.319 64.2465L250.56 66.0968ZM250.703 66.1696L251.749 64.4649L250.703 66.1696ZM222.663 56.6023L224.652 56.3979L222.663 56.6023ZM224.228 55.2915L223.469 57.1418L224.228 55.2915ZM220.713 57.5705C220.713 60.5489 218.902 63.4901 215.47 65.7782C212.051 68.0569 207.214 69.5313 201.771 69.5313V73.5313C207.894 73.5313 213.527 71.8805 217.688 69.1064C221.836 66.3416 224.713 62.3024 224.713 57.5705H220.713ZM220.673 56.8067C220.699 57.0589 220.713 57.3135 220.713 57.5705H224.713C224.713 57.1765 224.692 56.7854 224.652 56.3979L220.673 56.8067ZM223.469 57.1418L249.8 67.9471L251.319 64.2465L224.987 53.4412L223.469 57.1418ZM281.463 82.6961L251.749 64.4649L249.657 67.8743L279.371 86.1055L281.463 82.6961ZM270.673 112.459L282.619 86.5076L278.986 84.835L267.04 110.787L270.673 112.459ZM250.988 110.639L267.319 114.138L268.158 110.227L251.826 106.728L250.988 110.639ZM252.198 185.709L252.198 109.661L248.198 109.661L248.198 185.709H252.198ZM153.472 188.709H249.198V184.709H153.472V188.709ZM150.472 109.416V185.709H154.472V109.416H150.472ZM135.35 113.893L151.681 110.393L150.843 106.482L134.512 109.982L135.35 113.893ZM120.054 86.2706L131.997 112.214L135.63 110.541L123.688 84.5981L120.054 86.2706ZM150.568 64.8599L121.237 82.4431L123.294 85.8739L152.625 68.2907L150.568 64.8599ZM178.576 53.6266L150.998 64.6472L152.482 68.3616L180.06 57.341L178.576 53.6266ZM182.83 57.5705C182.83 57.3566 182.839 57.1443 182.857 56.9337L178.872 56.5929C178.844 56.9165 178.83 57.2425 178.83 57.5705H182.83ZM201.771 69.5313C196.328 69.5313 191.491 68.0569 188.073 65.7782C184.641 63.4901 182.83 60.5489 182.83 57.5705H178.83C178.83 62.3024 181.707 66.3416 185.854 69.1064C190.015 71.8805 195.649 73.5313 201.771 73.5313V69.5313ZM180.06 57.341C179.634 57.5112 179.268 57.3447 179.114 57.2131C178.974 57.0945 178.847 56.884 178.872 56.5929L182.857 56.9337C182.954 55.8029 182.444 54.7963 181.709 54.1697C180.959 53.5301 179.784 53.1437 178.576 53.6266L180.06 57.341ZM152.625 68.2907C152.579 68.3181 152.531 68.3418 152.482 68.3616L150.998 64.6472C150.849 64.7065 150.705 64.7777 150.568 64.8599L152.625 68.2907ZM123.688 84.5981C123.901 85.0616 123.731 85.6115 123.294 85.8739L121.237 82.4431C119.924 83.2303 119.414 84.8799 120.054 86.2706L123.688 84.5981ZM134.512 109.982C134.97 109.884 135.434 110.116 135.63 110.541L131.997 112.214C132.584 113.49 133.977 114.187 135.35 113.893L134.512 109.982ZM154.472 109.416C154.472 107.506 152.711 106.082 150.843 106.482L151.681 110.393C151.059 110.527 150.472 110.052 150.472 109.416H154.472ZM153.472 184.709C154.024 184.709 154.472 185.156 154.472 185.709H150.472C150.472 187.365 151.815 188.709 153.472 188.709V184.709ZM248.198 185.709C248.198 185.156 248.646 184.709 249.198 184.709V188.709C250.855 188.709 252.198 187.365 252.198 185.709H248.198ZM251.826 106.728C249.959 106.327 248.198 107.751 248.198 109.661L252.198 109.661C252.198 110.298 251.611 110.772 250.988 110.639L251.826 106.728ZM267.04 110.787C267.235 110.361 267.7 110.129 268.158 110.227L267.319 114.138C268.693 114.432 270.086 113.735 270.673 112.459L267.04 110.787ZM279.371 86.1055C278.939 85.8407 278.774 85.295 278.986 84.835L282.619 86.5076C283.254 85.1276 282.758 83.4905 281.463 82.6961L279.371 86.1055ZM249.8 67.9471C249.751 67.9267 249.703 67.9024 249.657 67.8743L251.749 64.4649C251.612 64.3807 251.468 64.3077 251.319 64.2465L249.8 67.9471ZM224.652 56.3979C224.683 56.6954 224.553 56.9042 224.422 57.0176C224.276 57.144 223.905 57.3209 223.469 57.1418L224.987 53.4412C223.756 52.9359 222.559 53.3409 221.807 53.9906C221.07 54.6272 220.555 55.6544 220.673 56.8067L224.652 56.3979Z" fill="#7A0F00"/>
<path d="M150.279 108.809L156.279 106.809" stroke="#7A0F00" stroke-width="4" stroke-linecap="round"/>
<path d="M251.779 108.809L247.779 107.309" stroke="#7A0F00" stroke-width="4" stroke-linecap="round"/>
<path d="M152.779 166.809C157.148 167.832 162.029 169.18 167.279 168.809M172.557 168.751C173.33 168.773 174.072 168.792 174.779 168.809" stroke="#7A0F00" stroke-width="4" stroke-linecap="round"/>
<path d="M152.779 175.809C155.279 176.809 159.779 177.309 161.279 177.309" stroke="#7A0F00" stroke-width="4" stroke-linecap="round"/>
<path d="M249.779 132.309C244.579 133.109 241.279 132.642 240.279 132.309" stroke="#7A0F00" stroke-width="4" stroke-linecap="round"/>
<path d="M226.779 65.8736C212.326 84.645 190.979 80.2591 179.679 70.3087M173.779 62.9653C174.285 63.9501 174.891 64.9231 175.587 65.8736" stroke="#7A0F00" stroke-width="4" stroke-linecap="round"/>
<path d="M76.152 219.523C76.152 216.979 76.8 214.955 78.096 213.451C79.408 211.947 81.176 211.195 83.4 211.195C85.672 211.195 87.448 211.947 88.728 213.451C90.024 214.939 90.672 216.963 90.672 219.523C90.672 222.067 90.016 224.099 88.704 225.619C87.408 227.123 85.648 227.875 83.424 227.875C81.232 227.875 79.472 227.115 78.144 225.595C76.816 224.075 76.152 222.051 76.152 219.523ZM78.192 219.523C78.192 221.523 78.664 223.107 79.608 224.275C80.568 225.443 81.84 226.027 83.424 226.027C85.072 226.027 86.344 225.451 87.24 224.299C88.152 223.147 88.608 221.555 88.608 219.523C88.608 217.491 88.152 215.899 87.24 214.747C86.328 213.595 85.048 213.019 83.4 213.019C81.768 213.019 80.488 213.603 79.56 214.771C78.648 215.923 78.192 217.507 78.192 219.523ZM95.4287 215.515V217.651C96.0687 216.147 97.1727 215.395 98.7407 215.395C99.0287 215.395 99.2527 215.411 99.4127 215.443V217.315C99.0767 217.203 98.7327 217.147 98.3807 217.147C97.5327 217.147 96.8287 217.539 96.2687 218.323C95.7087 219.107 95.4287 220.011 95.4287 221.035V227.683H93.5327L93.5567 215.515H95.4287ZM105.945 225.691C106.825 225.691 107.601 225.355 108.273 224.683C108.961 223.995 109.305 222.979 109.305 221.635C109.305 220.083 108.977 218.931 108.321 218.179C107.665 217.427 106.905 217.051 106.041 217.051C105.001 217.051 104.177 217.467 103.569 218.299C102.961 219.115 102.657 220.187 102.657 221.515C102.657 222.875 102.993 223.915 103.665 224.635C104.337 225.339 105.097 225.691 105.945 225.691ZM109.305 215.515H111.201V226.699C111.201 228.555 110.689 229.947 109.665 230.875C108.641 231.819 107.321 232.291 105.705 232.291C104.233 232.291 102.977 232.043 101.937 231.547V229.651C102.961 230.243 104.161 230.539 105.537 230.539C106.705 230.539 107.625 230.227 108.297 229.603C108.969 228.979 109.305 228.003 109.305 226.675V225.307C108.505 226.683 107.313 227.371 105.729 227.371C104.337 227.371 103.145 226.859 102.153 225.835C101.177 224.811 100.689 223.387 100.689 221.563C100.689 219.755 101.145 218.267 102.057 217.099C102.969 215.931 104.161 215.347 105.633 215.347C107.297 215.347 108.521 216.075 109.305 217.531V215.515ZM121.109 222.067H118.997C117.973 222.067 117.205 222.267 116.693 222.667C116.181 223.067 115.925 223.571 115.925 224.179C115.925 224.787 116.125 225.283 116.525 225.667C116.925 226.035 117.509 226.219 118.277 226.219C119.141 226.219 119.829 225.979 120.341 225.499C120.853 225.003 121.109 224.379 121.109 223.627V222.067ZM114.821 218.059V216.163C115.733 215.603 116.933 215.323 118.421 215.323C121.477 215.323 123.005 216.875 123.005 219.979V227.683H121.133V226.243C120.509 227.283 119.373 227.803 117.725 227.803C116.589 227.803 115.669 227.467 114.965 226.795C114.277 226.123 113.933 225.275 113.933 224.251C113.933 223.083 114.373 222.179 115.253 221.539C116.149 220.883 117.365 220.555 118.901 220.555H121.109V219.931C121.109 218.971 120.893 218.251 120.461 217.771C120.029 217.275 119.301 217.027 118.277 217.027C116.981 217.027 115.829 217.371 114.821 218.059ZM128.241 215.515V217.627C128.961 216.107 130.241 215.347 132.081 215.347C133.265 215.347 134.209 215.707 134.913 216.427C135.617 217.147 135.969 218.107 135.969 219.307V227.683H134.073V219.811C134.073 218.915 133.841 218.235 133.377 217.771C132.929 217.291 132.337 217.051 131.601 217.051C130.689 217.051 129.897 217.403 129.225 218.107C128.569 218.811 128.241 219.787 128.241 221.035V227.683H126.369V215.515H128.241ZM139.426 227.683V215.515H141.322V227.683H139.426ZM139.474 212.587C139.25 212.347 139.138 212.051 139.138 211.699C139.138 211.347 139.25 211.051 139.474 210.811C139.714 210.571 140.01 210.451 140.362 210.451C140.714 210.451 141.01 210.571 141.25 210.811C141.49 211.051 141.61 211.347 141.61 211.699C141.61 212.051 141.49 212.347 141.25 212.587C141.01 212.811 140.714 212.923 140.362 212.923C140.01 212.923 139.714 212.811 139.474 212.587ZM152.66 215.515V216.907L146.42 225.979H152.996V227.683H144.236V226.195L150.404 217.195H144.476V215.515H152.66ZM163.559 220.819V220.339C163.559 219.331 163.287 218.531 162.743 217.939C162.199 217.331 161.447 217.027 160.487 217.027C159.575 217.027 158.799 217.355 158.159 218.011C157.519 218.667 157.143 219.603 157.031 220.819H163.559ZM164.687 225.283V227.059C163.743 227.555 162.591 227.803 161.231 227.803C159.391 227.803 157.903 227.243 156.767 226.123C155.647 224.987 155.087 223.491 155.087 221.635C155.087 219.699 155.591 218.171 156.599 217.051C157.607 215.931 158.903 215.371 160.487 215.371C162.007 215.371 163.215 215.859 164.111 216.835C165.007 217.811 165.455 219.195 165.455 220.987C165.455 221.499 165.415 221.971 165.335 222.403H157.031C157.175 223.603 157.631 224.523 158.399 225.163C159.167 225.803 160.175 226.123 161.423 226.123C162.783 226.123 163.871 225.843 164.687 225.283ZM170.218 215.515V217.651C170.858 216.147 171.962 215.395 173.53 215.395C173.818 215.395 174.042 215.411 174.202 215.443V217.315C173.866 217.203 173.522 217.147 173.17 217.147C172.322 217.147 171.618 217.539 171.058 218.323C170.498 219.107 170.218 220.011 170.218 221.035V227.683H168.322L168.346 215.515H170.218ZM182.798 215.923V217.723C182.062 217.275 181.054 217.051 179.774 217.051C179.134 217.051 178.622 217.203 178.238 217.507C177.87 217.795 177.686 218.171 177.686 218.635C177.686 218.923 177.742 219.179 177.854 219.403C177.966 219.611 178.182 219.819 178.502 220.027C178.838 220.235 179.078 220.379 179.222 220.459C179.382 220.523 179.718 220.667 180.23 220.891C181.254 221.307 182.054 221.779 182.63 222.307C183.206 222.835 183.494 223.547 183.494 224.443C183.494 225.483 183.126 226.307 182.39 226.915C181.67 227.523 180.678 227.827 179.414 227.827C177.942 227.827 176.75 227.579 175.838 227.083V225.235C176.91 225.875 178.062 226.195 179.294 226.195C180.03 226.195 180.59 226.051 180.974 225.763C181.358 225.475 181.55 225.083 181.55 224.587C181.55 224.011 181.334 223.563 180.902 223.243C180.486 222.923 179.782 222.563 178.79 222.163C177.878 221.811 177.142 221.371 176.582 220.843C176.038 220.315 175.766 219.603 175.766 218.707C175.766 217.699 176.142 216.899 176.894 216.307C177.662 215.699 178.614 215.395 179.75 215.395C181.014 215.395 182.03 215.571 182.798 215.923Z" fill="#4D4D4D"/>
<path d="M390.996 113.684C392.496 107.674 393.996 94.8978 375.998 84.7283C371.666 82.7253 364 75.4046 364 66.7005C364 56.0688 380.998 46.3615 390.996 51.4463C400.995 56.531 411.07 22.3695 445.988 16.3157C469.985 12.1553 475.484 29.7204 488.982 34.343C502.897 39.1083 500.001 40.4949 509.5 38.1836C518.999 35.8723 532.497 41.4193 534.996 49.2776C537.496 57.1359 537.996 67.3054 527.997 72.8524C517.999 78.3994 517.978 89.813 525.477 101.369C532.976 112.926 539.975 120.784 536.476 133.265C532.976 145.745 515.499 138.674 507.5 144.684C499.501 150.693 498 155.453 497.5 162.849C497 170.245 482.487 175.41 467.504 171.631C456.506 168.858 460.486 168.396 447.988 162.849C435.49 157.302 425.711 168.693 412.493 167.471C397.495 166.084 388.996 159.151 383.997 141.123C378.998 123.095 389.496 119.693 390.996 113.684Z" fill="#E9E9E9"/>
<path fill-rule="evenodd" clip-rule="evenodd" d="M478.166 24.4744C477.858 24.2949 477.478 24.3054 477.165 24.4779C472.983 26.7863 465.642 28.3174 457.285 28.3174C448.384 28.3174 440.637 26.5807 436.629 24.0178C436.318 23.8189 435.926 23.7842 435.599 23.9555C431.179 26.271 428.491 29.3285 428.491 32.6803C428.491 39.9088 440.992 45.7686 456.413 45.7686C471.833 45.7686 484.334 39.9088 484.334 32.6803C484.334 29.5732 482.025 26.7191 478.166 24.4744Z" fill="#FFDDE5"/>
<path d="M477.165 24.4779L476.199 22.7269L477.165 24.4779ZM478.166 24.4744L477.161 26.2032L478.166 24.4744ZM476.199 22.7269C472.435 24.8042 465.48 26.3174 457.285 26.3174V30.3174C465.805 30.3174 473.531 28.7685 478.132 26.2289L476.199 22.7269ZM457.285 26.3174C448.531 26.3174 441.239 24.5921 437.707 22.3329L435.552 25.7026C440.034 28.5692 448.238 30.3174 457.285 30.3174V26.3174ZM430.491 32.6803C430.491 30.4792 432.304 27.9395 436.527 25.7272L434.671 22.1839C430.054 24.6025 426.491 28.1778 426.491 32.6803H430.491ZM456.413 43.7686C448.928 43.7686 442.25 42.3424 437.518 40.1242C432.626 37.8312 430.491 35.0606 430.491 32.6803H426.491C426.491 37.5284 430.606 41.302 435.82 43.746C441.194 46.2648 448.476 47.7686 456.413 47.7686V43.7686ZM482.334 32.6803C482.334 35.0606 480.199 37.8312 475.307 40.1242C470.575 42.3424 463.897 43.7686 456.413 43.7686V47.7686C464.349 47.7686 471.632 46.2648 477.005 43.746C482.219 41.302 486.334 37.5284 486.334 32.6803H482.334ZM477.161 26.2032C480.794 28.3168 482.334 30.6439 482.334 32.6803H486.334C486.334 28.5026 483.256 25.1214 479.172 22.7457L477.161 26.2032ZM437.707 22.3329C436.857 21.7893 435.7 21.6449 434.671 22.1839L436.527 25.7272C436.152 25.9235 435.78 25.8484 435.552 25.7026L437.707 22.3329ZM478.132 26.2289C477.887 26.3638 477.516 26.4097 477.161 26.2032L479.172 22.7457C478.2 22.1802 477.068 22.247 476.199 22.7269L478.132 26.2289Z" fill="#C78998"/>
<path d="M456.849 34.1538C467.404 34.1538 476.136 30.2489 477.58 25.1707C477.776 24.4826 478.519 23.9907 479.179 24.2686L505.709 35.456C505.711 35.4568 505.712 35.4586 505.712 35.4606C505.712 35.4619 505.712 35.4631 505.713 35.464C541.717 74.7042 557.16 96.2963 574.805 133.481C574.972 133.832 574.922 134.252 574.675 134.551L567.369 143.396C567.041 143.793 566.458 143.871 566.031 143.583C538.198 124.771 522.941 112.418 508.375 83.5126C507.866 82.5015 506.248 82.9607 506.362 84.0872C509.124 111.404 508.371 127.995 505.798 155.397C505.75 155.911 505.318 156.311 504.802 156.311H408.833C408.344 156.311 407.925 155.95 407.846 155.467C403.366 128.231 403.003 111.695 406.772 86.1665C406.943 85.0059 405.188 84.4734 404.666 85.5245C391.508 112.065 376.641 124.929 347.566 144.098C347.183 144.35 346.67 144.314 346.333 144.003L336.542 134.996C336.219 134.699 336.13 134.222 336.318 133.827C353.911 96.7376 368.907 73.4399 404.754 34.3477C404.869 34.2223 405.017 34.1256 405.178 34.072L434.642 24.2872C435.275 24.0767 435.937 24.5407 436.121 25.1826C437.575 30.255 446.301 34.1538 456.849 34.1538Z" fill="#FFBBCB"/>
<path fill-rule="evenodd" clip-rule="evenodd" d="M477.58 25.1708C476.136 30.249 467.404 34.1539 456.849 34.1539C446.301 34.1539 437.575 30.2551 436.121 25.1827C435.937 24.5408 435.275 24.0768 434.642 24.2873L405.178 34.0721C405.017 34.1257 404.869 34.2224 404.754 34.3478C400.514 38.9712 396.566 43.3735 392.871 47.604C396.992 46.9974 401.209 46.6832 405.5 46.6832C452.72 46.6832 491 84.739 491 131.683C491 140.248 489.726 148.516 487.356 156.312H504.802C505.318 156.312 505.75 155.911 505.798 155.397C508.371 127.996 509.124 111.404 506.362 84.0873C506.248 82.9608 507.866 82.5016 508.375 83.5127C522.941 112.418 538.198 124.772 566.031 143.583C566.457 143.871 567.041 143.793 567.369 143.396L574.675 134.551C574.922 134.252 574.972 133.832 574.805 133.482C557.16 96.2964 541.717 74.7043 505.713 35.4641C505.712 35.4632 505.712 35.462 505.712 35.4608C505.712 35.4587 505.711 35.4569 505.709 35.4562L479.179 24.2687C478.519 23.9908 477.776 24.4827 477.58 25.1708Z" fill="#202020" fill-opacity="0.1"/>
<path d="M456.849 34.1538C467.404 34.1538 476.136 30.2489 477.58 25.1707C477.776 24.4826 478.519 23.9907 479.179 24.2686L505.709 35.456C505.711 35.4568 505.712 35.4586 505.712 35.4606V35.4606C505.712 35.4619 505.712 35.4631 505.713 35.464C541.717 74.7042 557.16 96.2963 574.805 133.481C574.972 133.832 574.922 134.252 574.675 134.551L567.369 143.396C567.041 143.793 566.458 143.871 566.031 143.583C538.198 124.771 522.941 112.418 508.375 83.5126C507.866 82.5015 506.248 82.9607 506.362 84.0872C509.124 111.404 508.371 127.995 505.798 155.397C505.75 155.911 505.318 156.311 504.802 156.311H408.833C408.344 156.311 407.925 155.95 407.846 155.467C403.366 128.231 403.003 111.695 406.772 86.1665C406.943 85.0059 405.188 84.4734 404.666 85.5245C391.508 112.065 376.641 124.929 347.566 144.098C347.183 144.35 346.67 144.314 346.333 144.003L336.542 134.996C336.219 134.699 336.13 134.222 336.318 133.827C353.911 96.7376 368.907 73.4399 404.754 34.3477C404.869 34.2223 405.017 34.1256 405.178 34.072L434.642 24.2872C435.275 24.0767 435.937 24.5407 436.121 25.1826C437.575 30.255 446.301 34.1538 456.849 34.1538Z" stroke="#C78998" stroke-width="4"/>
<path d="M406 142.683C408.5 143.683 413 144.183 414.5 144.183" stroke="#C78998" stroke-width="4" stroke-linecap="round"/>
<path d="M506.5 108.683C501.3 109.483 498 109.016 497 108.683" stroke="#C78998" stroke-width="4" stroke-linecap="round"/>
<path d="M482.766 32.7667C469.083 48.8082 447.586 46.2726 435.9 38.6992M429.713 32.9905C430.258 33.77 430.902 34.5351 431.635 35.2773" stroke="#C78998" stroke-width="4" stroke-linecap="round"/>
<path d="M357 95.6831C358.5 101.683 360 103.183 362.5 105.183" stroke="#C78998" stroke-width="4" stroke-linecap="round"/>
<path d="M414.424 211.507L408.784 227.683H406.336L400.864 211.507H402.952L405.064 217.915L407.584 225.931C408.208 223.915 409.072 221.243 410.176 217.915L412.336 211.507H414.424ZM421.977 227.899C420.233 227.899 418.849 227.315 417.825 226.147C416.817 224.963 416.313 223.475 416.313 221.683C416.313 219.875 416.833 218.371 417.873 217.171C418.929 215.955 420.297 215.347 421.977 215.347C423.817 215.347 425.233 215.939 426.225 217.123C427.233 218.307 427.737 219.811 427.737 221.635C427.737 223.443 427.225 224.939 426.201 226.123C425.177 227.307 423.769 227.899 421.977 227.899ZM421.977 217.027C420.825 217.027 419.921 217.475 419.265 218.371C418.609 219.267 418.281 220.363 418.281 221.659C418.281 222.923 418.617 224.003 419.289 224.899C419.961 225.779 420.857 226.219 421.977 226.219C423.193 226.219 424.129 225.787 424.785 224.923C425.441 224.043 425.769 222.955 425.769 221.659C425.769 220.315 425.457 219.211 424.833 218.347C424.209 217.467 423.257 217.027 421.977 217.027ZM430.606 227.683V210.715H432.502V227.683H430.606ZM443.671 215.515H445.567V227.683H443.671V225.571C443.031 227.075 441.759 227.827 439.855 227.827C438.655 227.827 437.703 227.475 436.999 226.771C436.311 226.051 435.967 225.091 435.967 223.891V215.515H437.863V223.411C437.863 224.291 438.087 224.963 438.535 225.427C438.983 225.891 439.591 226.123 440.359 226.123C441.367 226.123 442.167 225.771 442.759 225.067C443.367 224.363 443.671 223.411 443.671 222.211V215.515ZM450.944 215.515V217.627C451.664 216.107 452.944 215.347 454.784 215.347C455.968 215.347 456.912 215.707 457.616 216.427C458.32 217.147 458.672 218.107 458.672 219.307V227.683H456.776V219.811C456.776 218.915 456.544 218.235 456.08 217.771C455.632 217.291 455.04 217.051 454.304 217.051C453.392 217.051 452.6 217.403 451.928 218.107C451.272 218.811 450.944 219.787 450.944 221.035V227.683H449.072V215.515H450.944ZM464.649 217.051V224.179C464.649 225.475 465.257 226.123 466.473 226.123C467.097 226.123 467.649 225.939 468.129 225.571V227.371C467.601 227.659 467.009 227.803 466.353 227.803C463.953 227.803 462.753 226.579 462.753 224.131V217.051H460.809V215.515H462.753V212.491H464.649V215.515H468.009V217.051H464.649ZM478.645 220.819V220.339C478.645 219.331 478.373 218.531 477.829 217.939C477.285 217.331 476.533 217.027 475.573 217.027C474.661 217.027 473.885 217.355 473.245 218.011C472.605 218.667 472.229 219.603 472.117 220.819H478.645ZM479.773 225.283V227.059C478.829 227.555 477.677 227.803 476.317 227.803C474.477 227.803 472.989 227.243 471.853 226.123C470.733 224.987 470.173 223.491 470.173 221.635C470.173 219.699 470.677 218.171 471.685 217.051C472.693 215.931 473.989 215.371 475.573 215.371C477.093 215.371 478.301 215.859 479.197 216.835C480.093 217.811 480.541 219.195 480.541 220.987C480.541 221.499 480.501 221.971 480.421 222.403H472.117C472.261 223.603 472.717 224.523 473.485 225.163C474.253 225.803 475.261 226.123 476.509 226.123C477.869 226.123 478.957 225.843 479.773 225.283ZM491.184 220.819V220.339C491.184 219.331 490.912 218.531 490.368 217.939C489.824 217.331 489.072 217.027 488.112 217.027C487.2 217.027 486.424 217.355 485.784 218.011C485.144 218.667 484.768 219.603 484.656 220.819H491.184ZM492.312 225.283V227.059C491.368 227.555 490.216 227.803 488.856 227.803C487.016 227.803 485.528 227.243 484.392 226.123C483.272 224.987 482.712 223.491 482.712 221.635C482.712 219.699 483.216 218.171 484.224 217.051C485.232 215.931 486.528 215.371 488.112 215.371C489.632 215.371 490.84 215.859 491.736 216.835C492.632 217.811 493.08 219.195 493.08 220.987C493.08 221.499 493.04 221.971 492.96 222.403H484.656C484.8 223.603 485.256 224.523 486.024 225.163C486.792 225.803 487.8 226.123 489.048 226.123C490.408 226.123 491.496 225.843 492.312 225.283ZM497.843 215.515V217.651C498.483 216.147 499.587 215.395 501.155 215.395C501.443 215.395 501.667 215.411 501.827 215.443V217.315C501.491 217.203 501.147 217.147 500.795 217.147C499.947 217.147 499.243 217.539 498.683 218.323C498.123 219.107 497.843 220.011 497.843 221.035V227.683H495.947L495.971 215.515H497.843ZM510.423 215.923V217.723C509.687 217.275 508.679 217.051 507.399 217.051C506.759 217.051 506.247 217.203 505.863 217.507C505.495 217.795 505.311 218.171 505.311 218.635C505.311 218.923 505.367 219.179 505.479 219.403C505.591 219.611 505.807 219.819 506.127 220.027C506.463 220.235 506.703 220.379 506.847 220.459C507.007 220.523 507.343 220.667 507.855 220.891C508.879 221.307 509.679 221.779 510.255 222.307C510.831 222.835 511.119 223.547 511.119 224.443C511.119 225.483 510.751 226.307 510.015 226.915C509.295 227.523 508.303 227.827 507.039 227.827C505.567 227.827 504.375 227.579 503.463 227.083V225.235C504.535 225.875 505.687 226.195 506.919 226.195C507.655 226.195 508.215 226.051 508.599 225.763C508.983 225.475 509.175 225.083 509.175 224.587C509.175 224.011 508.959 223.563 508.527 223.243C508.111 222.923 507.407 222.563 506.415 222.163C505.503 221.811 504.767 221.371 504.207 220.843C503.663 220.315 503.391 219.603 503.391 218.707C503.391 217.699 503.767 216.899 504.519 216.307C505.287 215.699 506.239 215.395 507.375 215.395C508.639 215.395 509.655 215.571 510.423 215.923Z" fill="#4D4D4D"/>
<path d="M681.457 68.991C681.279 75.182 679.273 87.8888 659.198 92.8205C654.485 93.5791 645.127 98.5578 642.777 106.939C639.906 117.175 653.65 131.112 664.651 128.916C675.651 126.72 676.127 162.333 708.113 177.592C730.095 188.078 740.133 172.65 754.378 171.844C769.063 171.014 766.649 168.897 775.17 173.687C783.692 178.477 798.187 176.782 802.716 169.89C807.244 162.999 810.472 153.342 802.343 145.301C794.213 137.26 797.276 126.265 807.617 117.163C817.958 108.061 826.819 102.385 826.82 89.4229C826.821 76.4608 808.083 78.5495 802.004 70.6035C795.925 62.6575 795.765 57.6691 797.281 50.4129C798.797 43.1566 786.218 34.2643 770.771 33.8563C759.433 33.5567 763.141 35.0767 749.609 37.0426C736.077 39.0085 729.737 25.3994 716.681 23.0068C701.865 20.2919 691.81 24.673 682.128 40.681C672.446 56.689 681.636 62.8 681.457 68.991Z" fill="#E9E9E9"/>
<mask id="path-36-inside-3" fill="white">
<path fill-rule="evenodd" clip-rule="evenodd" d="M766.37 35.1902C762.29 37.6583 754.691 39.3174 745.992 39.3174C736.709 39.3174 728.68 37.4283 724.841 34.6831C720.103 37.0285 717.197 40.1954 717.197 43.6803C717.197 50.9088 729.698 56.7686 745.119 56.7686C760.54 56.7686 773.041 50.9088 773.041 43.6803C773.041 40.4406 770.53 37.4758 766.37 35.1902Z"/>
</mask>
<path fill-rule="evenodd" clip-rule="evenodd" d="M766.37 35.1902C762.29 37.6583 754.691 39.3174 745.992 39.3174C736.709 39.3174 728.68 37.4283 724.841 34.6831C720.103 37.0285 717.197 40.1954 717.197 43.6803C717.197 50.9088 729.698 56.7686 745.119 56.7686C760.54 56.7686 773.041 50.9088 773.041 43.6803C773.041 40.4406 770.53 37.4758 766.37 35.1902Z" fill="#858585"/>
<path d="M766.37 35.1902L768.296 31.6846L766.274 30.5735L764.3 31.7676L766.37 35.1902ZM724.841 34.6831L727.167 31.4294L725.216 30.034L723.066 31.0983L724.841 34.6831ZM764.3 31.7676C761.127 33.6869 754.384 35.3174 745.992 35.3174V43.3174C754.999 43.3174 763.452 41.6296 768.44 38.6129L764.3 31.7676ZM745.992 35.3174C741.608 35.3174 737.575 34.8701 734.247 34.1261C730.845 33.3654 728.467 32.3585 727.167 31.4294L722.514 37.9368C725.054 39.7529 728.61 41.0632 732.502 41.9333C736.469 42.8202 741.092 43.3174 745.992 43.3174V35.3174ZM721.197 43.6803C721.197 42.5818 722.237 40.4356 726.615 38.2679L723.066 31.0983C717.969 33.6215 713.197 37.8089 713.197 43.6803H721.197ZM745.119 52.7686C737.861 52.7686 731.485 51.3813 727.073 49.3133C722.343 47.0959 721.197 44.8268 721.197 43.6803H713.197C713.197 49.7623 718.303 54.0374 723.678 56.557C729.372 59.2261 736.957 60.7686 745.119 60.7686V52.7686ZM769.041 43.6803C769.041 44.8268 767.896 47.0959 763.165 49.3133C758.753 51.3813 752.377 52.7686 745.119 52.7686V60.7686C753.281 60.7686 760.866 59.2261 766.56 56.557C771.936 54.0374 777.041 49.7623 777.041 43.6803H769.041ZM764.444 38.6959C768.182 40.75 769.041 42.6692 769.041 43.6803H777.041C777.041 38.2119 772.877 34.2016 768.296 31.6846L764.444 38.6959Z" fill="#8D8D8D" mask="url(#path-36-inside-3)"/>
<path fill-rule="evenodd" clip-rule="evenodd" d="M745.992 51.9986C757.557 51.9986 766.933 45.7481 766.933 38.0377C766.933 37.7123 766.916 37.3894 766.883 37.0696C766.796 36.2149 767.654 35.4326 768.448 35.7588L794.78 46.5641C794.83 46.5845 794.878 46.6088 794.923 46.6369L824.637 64.8681C825.069 65.1329 825.235 65.6786 825.023 66.1386L813.077 92.0903C812.881 92.5155 812.417 92.748 811.959 92.6499L795.628 89.1504C795.005 89.017 794.418 89.4916 794.418 90.1282L794.418 166.176C794.418 166.728 793.971 167.176 793.418 167.176H697.692C697.14 167.176 696.692 166.728 696.692 166.176V89.8829C696.692 89.2463 696.105 88.7717 695.483 88.9051L679.152 92.4046C678.694 92.5027 678.23 92.2701 678.034 91.845L666.092 65.9016C665.878 65.4381 666.048 64.8882 666.486 64.6258L695.817 47.0426C695.863 47.0152 695.911 46.9915 695.96 46.9717L723.538 35.9511C724.321 35.6384 725.157 36.3909 725.085 37.2305C725.062 37.4977 725.05 37.7668 725.05 38.0377C725.05 45.7481 734.426 51.9986 745.992 51.9986Z" fill="#BCBCBC"/>
<path fill-rule="evenodd" clip-rule="evenodd" d="M766.933 37.445C766.933 45.1554 757.557 51.4058 745.992 51.4058C734.426 51.4058 725.05 45.1554 725.05 37.445C725.05 37.174 725.062 36.9049 725.085 36.6378C725.157 35.7982 724.321 35.0456 723.538 35.3583L695.96 46.3789C695.911 46.3987 695.863 46.4224 695.817 46.4498L666.486 64.033C666.048 64.2954 665.878 64.8453 666.092 65.3089L666.766 66.7739C676.748 62.8426 687.622 60.6832 699 60.6832C747.601 60.6832 787 100.082 787 148.683C787 154.817 786.372 160.803 785.178 166.583H793.418C793.971 166.583 794.418 166.135 794.418 165.583L794.418 89.5354C794.418 88.8988 795.005 88.4242 795.628 88.5576L811.959 92.0571C812.417 92.1552 812.881 91.9227 813.077 91.4975L825.023 65.5458C825.235 65.0858 825.069 64.5401 824.637 64.2753L794.923 46.0441C794.878 46.016 794.83 45.9917 794.78 45.9713L768.448 35.166C767.654 34.8398 766.796 35.6221 766.883 36.4768C766.916 36.7967 766.933 37.1195 766.933 37.445Z" fill="black" fill-opacity="0.1"/>
<path d="M725.085 36.6378L723.092 36.4674L725.085 36.6378ZM695.817 46.4498L694.789 44.7344L695.817 46.4498ZM695.96 46.3789L695.218 44.5217L695.96 46.3789ZM666.092 65.3089L667.908 64.4726L666.092 65.3089ZM666.486 64.033L665.458 62.3176L666.486 64.033ZM679.152 91.8118L679.571 93.7674L679.152 91.8118ZM678.034 91.2522L676.217 92.0885L678.034 91.2522ZM695.483 88.3123L695.064 86.3567L695.483 88.3123ZM794.418 165.583H792.418H794.418ZM795.628 88.5576L796.047 86.602L795.628 88.5576ZM794.418 89.5354H796.418H794.418ZM813.077 91.4975L811.26 90.6612L813.077 91.4975ZM811.959 92.0571L811.54 94.0128L811.959 92.0571ZM824.637 64.2753L825.683 62.5706L824.637 64.2753ZM825.023 65.5458L826.84 66.3821L825.023 65.5458ZM794.78 45.9713L795.539 44.121L794.78 45.9713ZM794.923 46.0441L795.969 44.3394L794.923 46.0441ZM766.883 36.4768L768.873 36.2724L766.883 36.4768ZM768.448 35.166L767.689 37.0163L768.448 35.166ZM764.933 37.445C764.933 40.4234 763.122 43.3647 759.69 45.6527C756.272 47.9314 751.435 49.4058 745.992 49.4058V53.4058C752.114 53.4058 757.748 51.755 761.909 48.9809C766.056 46.2161 768.933 42.1769 768.933 37.445H764.933ZM764.894 36.6812C764.92 36.9334 764.933 37.1881 764.933 37.445H768.933C768.933 37.051 768.913 36.6599 768.873 36.2724L764.894 36.6812ZM767.689 37.0163L794.021 47.8216L795.539 44.121L769.208 33.3157L767.689 37.0163ZM825.683 62.5706L795.969 44.3394L793.877 47.7488L823.592 65.98L825.683 62.5706ZM814.894 92.3338L826.84 66.3821L823.206 64.7095L811.26 90.6612L814.894 92.3338ZM795.209 90.5132L811.54 94.0128L812.378 90.1015L796.047 86.602L795.209 90.5132ZM796.418 165.583L796.418 89.5354L792.418 89.5354L792.418 165.583H796.418ZM697.692 168.583H793.418V164.583H697.692V168.583ZM694.692 89.2901V165.583H698.692V89.2901H694.692ZM679.571 93.7674L695.902 90.2679L695.064 86.3567L678.733 89.8562L679.571 93.7674ZM664.275 66.1452L676.217 92.0885L679.851 90.4159L667.908 64.4726L664.275 66.1452ZM694.789 44.7344L665.458 62.3176L667.514 65.7484L696.845 48.1652L694.789 44.7344ZM722.796 33.5011L695.218 44.5217L696.702 48.2361L724.28 37.2155L722.796 33.5011ZM727.05 37.445C727.05 37.2311 727.06 37.0188 727.078 36.8082L723.092 36.4674C723.064 36.791 723.05 37.117 723.05 37.445H727.05ZM745.992 49.4058C740.549 49.4058 735.711 47.9314 732.293 45.6527C728.861 43.3647 727.05 40.4234 727.05 37.445H723.05C723.05 42.1769 725.927 46.2161 730.075 48.9809C734.236 51.755 739.869 53.4058 745.992 53.4058V49.4058ZM724.28 37.2155C723.854 37.3857 723.488 37.2192 723.334 37.0876C723.195 36.969 723.067 36.7586 723.092 36.4674L727.078 36.8082C727.174 35.6774 726.664 34.6709 725.93 34.0443C725.18 33.4046 724.005 33.0182 722.796 33.5011L724.28 37.2155ZM696.845 48.1652C696.8 48.1926 696.752 48.2163 696.702 48.2361L695.218 44.5217C695.069 44.5811 694.926 44.6522 694.789 44.7344L696.845 48.1652ZM667.908 64.4726C668.122 64.9361 667.952 65.486 667.514 65.7484L665.458 62.3176C664.144 63.1048 663.635 64.7544 664.275 66.1452L667.908 64.4726ZM678.733 89.8562C679.19 89.7582 679.655 89.9907 679.851 90.4159L676.217 92.0885C676.804 93.3641 678.198 94.0617 679.571 93.7674L678.733 89.8562ZM698.692 89.2901C698.692 87.3802 696.931 85.9565 695.064 86.3567L695.902 90.2679C695.279 90.4013 694.692 89.9268 694.692 89.2901H698.692ZM697.692 164.583C698.245 164.583 698.692 165.031 698.692 165.583H694.692C694.692 167.24 696.035 168.583 697.692 168.583V164.583ZM792.418 165.583C792.418 165.031 792.866 164.583 793.418 164.583V168.583C795.075 168.583 796.418 167.24 796.418 165.583H792.418ZM796.047 86.602C794.179 86.2018 792.418 87.6255 792.418 89.5354L796.418 89.5354C796.418 90.1721 795.831 90.6466 795.209 90.5132L796.047 86.602ZM811.26 90.6612C811.456 90.236 811.92 90.0035 812.378 90.1015L811.54 94.0128C812.913 94.307 814.306 93.6094 814.894 92.3338L811.26 90.6612ZM823.592 65.98C823.16 65.7152 822.994 65.1695 823.206 64.7095L826.84 66.3821C827.475 65.0021 826.978 63.3651 825.683 62.5706L823.592 65.98ZM794.021 47.8216C793.971 47.8012 793.923 47.7769 793.877 47.7488L795.969 44.3394C795.832 44.2552 795.688 44.1822 795.539 44.121L794.021 47.8216ZM768.873 36.2724C768.904 36.5699 768.774 36.7787 768.642 36.8921C768.496 37.0185 768.126 37.1955 767.689 37.0163L769.208 33.3157C767.976 32.8104 766.78 33.2154 766.028 33.8651C765.291 34.5017 764.776 35.529 764.894 36.6812L768.873 36.2724Z" fill="#8D8D8D"/>
<path d="M694.5 88.6831L700.5 86.6831" stroke="#8D8D8D" stroke-width="4" stroke-linecap="round"/>
<path d="M796 88.6831L792 87.1831" stroke="#8D8D8D" stroke-width="4" stroke-linecap="round"/>
<path d="M697 146.683C701.368 147.707 706.25 149.054 711.5 148.683M716.778 148.625C717.55 148.648 718.292 148.667 719 148.683" stroke="#8D8D8D" stroke-width="4" stroke-linecap="round"/>
<path d="M697 155.683C699.5 156.683 704 157.183 705.5 157.183" stroke="#8D8D8D" stroke-width="4" stroke-linecap="round"/>
<path d="M794 112.183C788.8 112.983 785.5 112.516 784.5 112.183" stroke="#8D8D8D" stroke-width="4" stroke-linecap="round"/>
<path d="M771 45.7481C756.547 64.5196 735.2 60.1336 723.899 50.1832M718 42.8398C718.505 43.8246 719.111 44.7976 719.807 45.7481" stroke="#8D8D8D" stroke-width="4" stroke-linecap="round"/>
<path d="M716.64 211.507H718.584V227.683H716.64V220.363H708.792V227.683H706.848V211.507H708.792V218.611H716.64V211.507ZM728.726 222.067H726.614C725.59 222.067 724.822 222.267 724.31 222.667C723.798 223.067 723.542 223.571 723.542 224.179C723.542 224.787 723.742 225.283 724.142 225.667C724.542 226.035 725.126 226.219 725.894 226.219C726.758 226.219 727.446 225.979 727.958 225.499C728.47 225.003 728.726 224.379 728.726 223.627V222.067ZM722.438 218.059V216.163C723.35 215.603 724.55 215.323 726.038 215.323C729.094 215.323 730.622 216.875 730.622 219.979V227.683H728.75V226.243C728.126 227.283 726.99 227.803 725.342 227.803C724.206 227.803 723.286 227.467 722.582 226.795C721.894 226.123 721.55 225.275 721.55 224.251C721.55 223.083 721.99 222.179 722.87 221.539C723.766 220.883 724.982 220.555 726.518 220.555H728.726V219.931C728.726 218.971 728.51 218.251 728.078 217.771C727.646 217.275 726.918 217.027 725.894 217.027C724.598 217.027 723.446 217.371 722.438 218.059ZM735.234 221.659C735.25 222.971 735.65 224.067 736.434 224.947C737.218 225.811 738.33 226.243 739.77 226.243C740.698 226.243 741.562 225.979 742.362 225.451V227.251C741.594 227.715 740.65 227.947 739.53 227.947C737.61 227.947 736.082 227.339 734.946 226.123C733.826 224.891 733.266 223.395 733.266 221.635C733.266 219.907 733.826 218.419 734.946 217.171C736.082 215.923 737.626 215.299 739.578 215.299C740.618 215.299 741.546 215.523 742.362 215.971V217.771C741.626 217.275 740.762 217.027 739.77 217.027C738.394 217.027 737.29 217.475 736.458 218.371C735.642 219.251 735.234 220.347 735.234 221.659ZM745.283 227.683V210.811H747.155V227.683H745.283ZM749.627 221.299L754.571 227.683H752.291L747.395 221.299L752.171 215.515H754.427L749.627 221.299ZM764.566 220.819V220.339C764.566 219.331 764.294 218.531 763.75 217.939C763.206 217.331 762.454 217.027 761.494 217.027C760.582 217.027 759.806 217.355 759.166 218.011C758.526 218.667 758.15 219.603 758.038 220.819H764.566ZM765.694 225.283V227.059C764.75 227.555 763.598 227.803 762.238 227.803C760.398 227.803 758.91 227.243 757.774 226.123C756.654 224.987 756.094 223.491 756.094 221.635C756.094 219.699 756.598 218.171 757.606 217.051C758.614 215.931 759.91 215.371 761.494 215.371C763.014 215.371 764.222 215.859 765.118 216.835C766.014 217.811 766.462 219.195 766.462 220.987C766.462 221.499 766.422 221.971 766.342 222.403H758.038C758.182 223.603 758.638 224.523 759.406 225.163C760.174 225.803 761.182 226.123 762.43 226.123C763.79 226.123 764.878 225.843 765.694 225.283ZM771.225 215.515V217.651C771.865 216.147 772.969 215.395 774.537 215.395C774.825 215.395 775.049 215.411 775.209 215.443V217.315C774.873 217.203 774.529 217.147 774.177 217.147C773.329 217.147 772.625 217.539 772.065 218.323C771.505 219.107 771.225 220.011 771.225 221.035V227.683H769.329L769.353 215.515H771.225ZM783.806 215.923V217.723C783.07 217.275 782.062 217.051 780.782 217.051C780.142 217.051 779.63 217.203 779.246 217.507C778.878 217.795 778.694 218.171 778.694 218.635C778.694 218.923 778.75 219.179 778.862 219.403C778.974 219.611 779.19 219.819 779.51 220.027C779.846 220.235 780.086 220.379 780.23 220.459C780.39 220.523 780.726 220.667 781.238 220.891C782.262 221.307 783.062 221.779 783.638 222.307C784.214 222.835 784.502 223.547 784.502 224.443C784.502 225.483 784.134 226.307 783.398 226.915C782.678 227.523 781.686 227.827 780.422 227.827C778.95 227.827 777.758 227.579 776.846 227.083V225.235C777.918 225.875 779.07 226.195 780.302 226.195C781.038 226.195 781.598 226.051 781.982 225.763C782.366 225.475 782.558 225.083 782.558 224.587C782.558 224.011 782.342 223.563 781.91 223.243C781.494 222.923 780.79 222.563 779.798 222.163C778.886 221.811 778.15 221.371 777.59 220.843C777.046 220.315 776.774 219.603 776.774 218.707C776.774 217.699 777.15 216.899 777.902 216.307C778.67 215.699 779.622 215.395 780.758 215.395C782.022 215.395 783.038 215.571 783.806 215.923Z" fill="#4D4D4D"/>
</svg>
