<svg width="1440" height="1548" viewBox="0 0 1440 1548" fill="none" xmlns="http://www.w3.org/2000/svg">
<path fill-rule="evenodd" clip-rule="evenodd" d="M490.4 578.616L490.398 578.618C418.967 650.008 297.376 771.53 42.2044 831H0V840.012C-3.34694 840.664 -6.71513 841.305 -10.1047 841.935C-11.3059 842.158 -11.2997 844 -10.078 844H0V1548H1495V831H1450.49V183.877C1450.49 158.913 1430.25 138.676 1405.29 138.676C1390.67 138.676 1376.96 131.606 1368.47 119.699L1352.55 97.3425C1325.67 59.603 1276.11 45.715 1233.54 63.9895L1193.49 81.1762L1058.25 151.815C1043.95 159.278 1028.07 163.176 1011.95 163.176H943.191C898.668 163.176 855.418 178.032 820.293 205.391L817.068 207.903C789.499 229.377 768.037 257.699 754.821 290.049L746.587 310.204C743.205 318.481 738.729 326.268 733.277 333.355L680.192 402.366C668.005 418.209 651.351 430.036 632.377 436.321L620.419 440.283C594.792 448.773 574.235 468.166 564.268 493.256C555.736 514.733 539.245 532.291 522.116 547.804C512.665 556.364 502.219 566.804 490.4 578.616Z" fill="#F4F4F4"/>
<rect x="1270" y="2" width="16" height="88" rx="1" stroke="#E9E9E9" stroke-width="4"/>
<rect x="1246" y="43" width="16" height="64" rx="1" transform="rotate(-90 1246 43)" stroke="#E9E9E9" stroke-width="4"/>
<path d="M1181 155L1196.29 139.707C1196.68 139.317 1197.32 139.317 1197.71 139.707L1213 155" stroke="#E9E9E9" stroke-width="4" stroke-linecap="round"/>
<path d="M1181 166.835L1196.29 151.542C1196.68 151.152 1197.32 151.152 1197.71 151.542L1213 166.835" stroke="#E9E9E9" stroke-width="4" stroke-linecap="round"/>
<path d="M1181 178.67L1196.29 163.377C1196.68 162.987 1197.32 162.987 1197.71 163.377L1213 178.67" stroke="#E9E9E9" stroke-width="4" stroke-linecap="round"/>
<path d="M1138 195L1153.29 179.707C1153.68 179.317 1154.32 179.317 1154.71 179.707L1170 195" stroke="#E9E9E9" stroke-width="4" stroke-linecap="round"/>
<path d="M1138 206.835L1153.29 191.542C1153.68 191.152 1154.32 191.152 1154.71 191.542L1170 206.835" stroke="#E9E9E9" stroke-width="4" stroke-linecap="round"/>
<path d="M1138 218.67L1153.29 203.377C1153.68 202.987 1154.32 202.987 1154.71 203.377L1170 218.67" stroke="#E9E9E9" stroke-width="4" stroke-linecap="round"/>
<path d="M1008 385.5C1039.5 273.5 1128.5 273 1182 261.5C1233.33 250.467 1278.5 166 1278.5 118" stroke="#E9E9E9" stroke-width="4" stroke-linecap="round"/>
<path d="M1027.5 407C1059 295 1148 291 1201.5 283C1253.42 275.236 1301.5 166.5 1301.5 118.5" stroke="#E9E9E9" stroke-width="4" stroke-linecap="round"/>
</svg>
