<svg width="1051" height="399" viewBox="0 0 1051 399" fill="none" xmlns="http://www.w3.org/2000/svg">
<path d="M267.001 268.812H387.001V396C387.001 396.552 386.553 397 386.001 397H268.001C267.449 397 267.001 396.552 267.001 396V268.812Z" fill="white" stroke="#F4F4F4" stroke-width="4"/>
<path d="M326.35 93.5577C326.725 93.2368 327.277 93.2368 327.652 93.5577L386.652 144.123C386.873 144.313 387.001 144.591 387.001 144.883V269.259H267.001L267.001 144.883C267.001 144.591 267.128 144.313 267.35 144.123L326.35 93.5577Z" fill="white" stroke="#F4F4F4" stroke-width="4"/>
<path fill-rule="evenodd" clip-rule="evenodd" d="M348.401 174.762C348.929 174.762 349.368 174.351 349.38 173.823C349.384 173.645 349.386 173.466 349.386 173.286C349.386 160.335 338.816 149.836 325.778 149.836C312.739 149.836 302.169 160.335 302.169 173.286C302.169 173.466 302.171 173.645 302.175 173.823C302.187 174.351 302.627 174.762 303.155 174.762H348.401Z" fill="white"/>
<path fill-rule="evenodd" clip-rule="evenodd" d="M349.186 173.64C349.713 173.64 350.152 173.231 350.164 172.704C350.167 172.543 350.169 172.381 350.169 172.219C350.169 159.749 339.424 149.64 326.169 149.64C312.914 149.64 302.169 159.749 302.169 172.219C302.169 172.381 302.171 172.543 302.175 172.704C302.186 173.231 302.625 173.64 303.152 173.64H349.186Z" fill="white"/>
<path d="M350.164 172.704L348.164 172.66L350.164 172.704ZM348.169 172.219C348.169 172.366 348.167 172.513 348.164 172.66L352.163 172.749C352.167 172.573 352.169 172.396 352.169 172.219H348.169ZM326.169 151.64C338.436 151.64 348.169 160.966 348.169 172.219H352.169C352.169 158.531 340.412 147.64 326.169 147.64V151.64ZM304.169 172.219C304.169 160.966 313.902 151.64 326.169 151.64V147.64C311.926 147.64 300.169 158.531 300.169 172.219H304.169ZM304.174 172.66C304.171 172.513 304.169 172.366 304.169 172.219H300.169C300.169 172.396 300.171 172.573 300.175 172.749L304.174 172.66ZM303.152 175.64H349.186V171.64H303.152V175.64ZM300.175 172.749C300.212 174.418 301.595 175.64 303.152 175.64V171.64C303.656 171.64 304.16 172.043 304.174 172.66L300.175 172.749ZM348.164 172.66C348.178 172.043 348.683 171.64 349.186 171.64V175.64C350.743 175.64 352.126 174.418 352.163 172.749L348.164 172.66Z" fill="#F4F4F4"/>
<rect x="278.561" y="189" width="16" height="48" rx="1" fill="white" stroke="#F4F4F4" stroke-width="4"/>
<rect x="358.561" y="189" width="16" height="48" rx="1" fill="white" stroke="#F4F4F4" stroke-width="4"/>
<rect x="302.169" y="189" width="48" height="80" rx="1" fill="white" stroke="#F4F4F4" stroke-width="4"/>
<path d="M284.463 148.37H306.168" stroke="#F4F4F4" stroke-width="4" stroke-linecap="round"/>
<path d="M290.794 138.697H312.498" stroke="#F4F4F4" stroke-width="4" stroke-linecap="round"/>
<path d="M298.933 147.491V140.456" stroke="#F4F4F4" stroke-width="4"/>
<path d="M305.263 137.817V130.782" stroke="#F4F4F4" stroke-width="4" stroke-linecap="round"/>
<path d="M325.778 258.828V394.828" stroke="#F4F4F4" stroke-width="4" stroke-linecap="round"/>
<path d="M307.334 270.149C301.432 276.012 292.578 278.857 292.579 297.996C292.579 319.981 333.893 329.508 351.6 347.096C369.306 364.684 368.568 376.409 367.093 391.798" stroke="#F4F4F4" stroke-width="4" stroke-linecap="round"/>
<path d="M314.711 272.348H338.32M314.711 272.348H338.32" stroke="#F4F4F4" stroke-width="4" stroke-linecap="round"/>
<path d="M305.12 284.073H328.729M305.12 284.073H328.729" stroke="#F4F4F4" stroke-width="4" stroke-linecap="round"/>
<path d="M300.694 295.798H324.302M300.694 295.798H324.302" stroke="#F4F4F4" stroke-width="4" stroke-linecap="round"/>
<path d="M303.645 307.523H327.253M303.645 307.523H327.253" stroke="#F4F4F4" stroke-width="4" stroke-linecap="round"/>
<path d="M334.631 391.065H358.239M334.631 391.065H358.239" stroke="#F4F4F4" stroke-width="4" stroke-linecap="round"/>
<path d="M337.582 379.34H361.191M337.582 379.34H361.191" stroke="#F4F4F4" stroke-width="4" stroke-linecap="round"/>
<path d="M339.057 367.615H356.764M339.057 367.615H356.764" stroke="#F4F4F4" stroke-width="4" stroke-linecap="round"/>
<path d="M334.631 357.355H352.337M334.631 357.355H352.337" stroke="#F4F4F4" stroke-width="4" stroke-linecap="round"/>
<path d="M331.68 347.096H343.484M331.68 347.096H343.484" stroke="#F4F4F4" stroke-width="4" stroke-linecap="round"/>
<path d="M312.498 317.783H324.302M312.498 317.783H324.302" stroke="#F4F4F4" stroke-width="4" stroke-linecap="round"/>
<path d="M147 269H267V395.997C267 396.55 266.552 396.997 266 396.997H148C147.448 396.997 147 396.55 147 395.997V269Z" fill="white" stroke="#F4F4F4" stroke-width="4"/>
<path d="M207.33 61.6403C207.718 61.2807 208.319 61.2858 208.701 61.6519L266.692 117.228C266.889 117.417 267 117.677 267 117.95V269H147L147 117.96C147 117.682 147.116 117.416 147.32 117.226L207.33 61.6403Z" fill="white" stroke="#F4F4F4" stroke-width="4"/>
<path d="M206.317 81.4705C206.676 81.1932 207.178 81.1932 207.538 81.4705L235.741 103.208C236.497 103.791 236.085 105 235.131 105H178.724C177.769 105 177.357 103.791 178.113 103.208L206.317 81.4705Z" fill="white" stroke="#F4F4F4" stroke-width="4"/>
<path fill-rule="evenodd" clip-rule="evenodd" d="M188.264 156.634C188.264 156.634 188.264 156.634 188.264 156.634C188.264 150.158 182.986 144.909 176.474 144.909C169.963 144.909 164.684 150.158 164.684 156.634C164.684 156.639 164.684 156.644 164.684 156.649V214.26C164.684 214.812 165.132 215.26 165.684 215.26H187.264C187.816 215.26 188.264 214.812 188.264 214.26V156.634Z" fill="white"/>
<path fill-rule="evenodd" clip-rule="evenodd" d="M252.123 165.437C252.651 165.437 253.091 165.027 253.102 164.499C253.106 164.32 253.109 164.142 253.109 163.962C253.109 151.011 242.552 140.512 229.529 140.512C216.506 140.512 205.949 151.011 205.949 163.962C205.949 164.142 205.951 164.32 205.955 164.499C205.967 165.027 206.406 165.437 206.935 165.437H252.123Z" fill="white"/>
<path fill-rule="evenodd" clip-rule="evenodd" d="M252.963 154.964C248.914 159.525 243.01 162.399 236.435 162.399C225.774 162.399 216.876 154.843 214.791 144.789C218.966 141.059 224.487 138.791 230.541 138.791C241.009 138.791 249.884 145.575 252.963 154.964Z" fill="white"/>
<path fill-rule="evenodd" clip-rule="evenodd" d="M186.79 157.864V157.864V211.091H182.053C176.53 211.091 172.053 206.614 172.053 201.091V146.508C172.732 146.334 173.435 146.219 174.155 146.168H175.846C181.963 146.599 186.79 151.671 186.79 157.864Z" fill="white"/>
<path fill-rule="evenodd" clip-rule="evenodd" d="M188.655 156.909V215.909C188.655 216.461 188.207 216.909 187.655 216.909H165.684C165.132 216.909 164.684 216.461 164.684 215.909V156.909C164.684 150.281 170.05 144.909 176.67 144.909C183.289 144.909 188.655 150.281 188.655 156.909Z" fill="white"/>
<path d="M186.655 156.909V215.909H190.655V156.909H186.655ZM187.655 214.909H165.684V218.909H187.655V214.909ZM166.684 215.909V156.909H162.684V215.909H166.684ZM166.684 156.909C166.684 151.384 171.157 146.909 176.67 146.909V142.909C168.944 142.909 162.684 149.179 162.684 156.909H166.684ZM176.67 146.909C182.182 146.909 186.655 151.384 186.655 156.909H190.655C190.655 149.179 184.396 142.909 176.67 142.909V146.909ZM165.684 214.909C166.237 214.909 166.684 215.356 166.684 215.909H162.684C162.684 217.565 164.028 218.909 165.684 218.909V214.909ZM186.655 215.909C186.655 215.356 187.103 214.909 187.655 214.909V218.909C189.312 218.909 190.655 217.565 190.655 215.909H186.655Z" fill="#F4F4F4"/>
<path fill-rule="evenodd" clip-rule="evenodd" d="M252.908 164.512C253.435 164.512 253.874 164.103 253.885 163.577C253.889 163.415 253.891 163.253 253.891 163.091C253.891 150.621 243.159 140.512 229.92 140.512C216.681 140.512 205.949 150.621 205.949 163.091C205.949 163.253 205.951 163.415 205.955 163.577C205.966 164.103 206.405 164.512 206.932 164.512H252.908Z" fill="white"/>
<path d="M253.885 163.577L255.885 163.621L253.885 163.577ZM251.891 163.091C251.891 163.238 251.889 163.385 251.886 163.532L255.885 163.621C255.889 163.445 255.891 163.268 255.891 163.091H251.891ZM229.92 142.512C242.168 142.512 251.891 151.836 251.891 163.091H255.891C255.891 149.405 244.149 138.512 229.92 138.512V142.512ZM207.949 163.091C207.949 151.836 217.671 142.512 229.92 142.512V138.512C215.691 138.512 203.949 149.405 203.949 163.091H207.949ZM207.954 163.532C207.951 163.385 207.949 163.238 207.949 163.091H203.949C203.949 163.268 203.951 163.445 203.955 163.621L207.954 163.532ZM206.932 166.512H252.908V162.512H206.932V166.512ZM203.955 163.621C203.992 165.291 205.375 166.512 206.932 166.512V162.512C207.436 162.512 207.94 162.916 207.954 163.532L203.955 163.621ZM251.886 163.532C251.9 162.916 252.404 162.512 252.908 162.512V166.512C254.465 166.512 255.847 165.291 255.885 163.621L251.886 163.532Z" fill="#F4F4F4"/>
<path d="M166.158 246.038H187.836" stroke="#F4F4F4" stroke-width="4" stroke-linecap="round"/>
<path d="M172.481 236.365H194.159" stroke="#F4F4F4" stroke-width="4" stroke-linecap="round"/>
<path d="M180.61 245.159V238.124" stroke="#F4F4F4" stroke-width="4"/>
<path d="M186.932 235.486V228.451" stroke="#F4F4F4" stroke-width="4" stroke-linecap="round"/>
<path d="M154.892 129.061C196.17 107.328 241.34 120.006 258.766 129.061" stroke="#F4F4F4" stroke-width="4" stroke-linecap="round"/>
<rect x="225" y="317" width="24" height="24" rx="1" fill="white" stroke="#F4F4F4" stroke-width="4"/>
<rect x="161" y="280" width="88" height="24" rx="1" fill="white" stroke="#F4F4F4" stroke-width="4"/>
<path d="M225.107 370.619H246.786" stroke="#F4F4F4" stroke-width="4" stroke-linecap="round"/>
<path d="M231.43 360.945H253.108" stroke="#F4F4F4" stroke-width="4" stroke-linecap="round"/>
<path d="M239.559 369.739V362.704" stroke="#F4F4F4" stroke-width="4"/>
<path d="M245.882 360.066V353.031" stroke="#F4F4F4" stroke-width="4" stroke-linecap="round"/>
<rect x="205.949" y="175.687" width="47.9416" height="80" rx="1" fill="white" stroke="#F4F4F4" stroke-width="4"/>
<rect x="217.934" y="187.116" width="23.9708" height="24" rx="1" fill="white" stroke="#F4F4F4" stroke-width="4"/>
<path d="M160 318C160 317.448 160.448 317 161 317H207C207.552 317 208 317.448 208 318V397H160V318Z" fill="white" stroke="#F4F4F4" stroke-width="4"/>
<path d="M172 332.593H196" stroke="#F4F4F4" stroke-width="4" stroke-linecap="round"/>
<path d="M387.001 269H507.001V395.997C507.001 396.55 506.553 396.997 506.001 396.997H388.001C387.449 396.997 387.001 396.55 387.001 395.997V269Z" fill="white" stroke="#F4F4F4" stroke-width="4"/>
<path d="M447.33 61.6403C447.719 61.2807 448.32 61.2858 448.702 61.6519L506.693 117.228C506.89 117.417 507.001 117.677 507.001 117.95V269H387.001L387.001 117.96C387.001 117.682 387.117 117.416 387.321 117.226L447.33 61.6403Z" fill="white" stroke="#F4F4F4" stroke-width="4"/>
<path d="M446.317 81.4705C446.677 81.1932 447.179 81.1932 447.538 81.4705L475.742 103.208C476.498 103.791 476.086 105 475.131 105H418.724C417.77 105 417.358 103.791 418.114 103.208L446.317 81.4705Z" fill="white" stroke="#F4F4F4" stroke-width="4"/>
<path fill-rule="evenodd" clip-rule="evenodd" d="M428.265 156.634C428.265 156.634 428.265 156.634 428.265 156.634C428.265 150.158 422.987 144.909 416.475 144.909C409.964 144.909 404.685 150.158 404.685 156.634C404.685 156.639 404.685 156.644 404.685 156.649V214.26C404.685 214.812 405.133 215.26 405.685 215.26H427.265C427.817 215.26 428.265 214.812 428.265 214.26V156.634Z" fill="white"/>
<path fill-rule="evenodd" clip-rule="evenodd" d="M492.124 165.437C492.652 165.437 493.091 165.027 493.103 164.499C493.107 164.32 493.109 164.142 493.109 163.962C493.109 151.011 482.552 140.512 469.53 140.512C456.507 140.512 445.95 151.011 445.95 163.962C445.95 164.142 445.952 164.32 445.956 164.499C445.968 165.027 446.407 165.437 446.935 165.437H492.124Z" fill="white"/>
<path fill-rule="evenodd" clip-rule="evenodd" d="M492.964 154.964C488.915 159.525 483.011 162.399 476.436 162.399C465.775 162.399 456.877 154.843 454.792 144.789C458.967 141.059 464.488 138.791 470.542 138.791C481.01 138.791 489.885 145.575 492.964 154.964Z" fill="white"/>
<path fill-rule="evenodd" clip-rule="evenodd" d="M426.791 157.864V157.864V211.091H422.054C416.531 211.091 412.054 206.614 412.054 201.091V146.508C412.733 146.334 413.436 146.219 414.156 146.168H415.847C421.963 146.599 426.791 151.671 426.791 157.864Z" fill="white"/>
<path fill-rule="evenodd" clip-rule="evenodd" d="M428.656 156.909V215.909C428.656 216.461 428.208 216.909 427.656 216.909H405.685C405.133 216.909 404.685 216.461 404.685 215.909V156.909C404.685 150.281 410.051 144.909 416.671 144.909C423.29 144.909 428.656 150.281 428.656 156.909Z" fill="white"/>
<path d="M426.656 156.909V215.909H430.656V156.909H426.656ZM427.656 214.909H405.685V218.909H427.656V214.909ZM406.685 215.909V156.909H402.685V215.909H406.685ZM406.685 156.909C406.685 151.384 411.158 146.909 416.671 146.909V142.909C408.944 142.909 402.685 149.179 402.685 156.909H406.685ZM416.671 146.909C422.183 146.909 426.656 151.384 426.656 156.909H430.656C430.656 149.179 424.397 142.909 416.671 142.909V146.909ZM405.685 214.909C406.238 214.909 406.685 215.356 406.685 215.909H402.685C402.685 217.565 404.028 218.909 405.685 218.909V214.909ZM426.656 215.909C426.656 215.356 427.104 214.909 427.656 214.909V218.909C429.313 218.909 430.656 217.565 430.656 215.909H426.656Z" fill="#F4F4F4"/>
<path fill-rule="evenodd" clip-rule="evenodd" d="M492.909 164.512C493.435 164.512 493.874 164.103 493.886 163.577C493.89 163.415 493.892 163.253 493.892 163.091C493.892 150.621 483.159 140.512 469.921 140.512C456.682 140.512 445.95 150.621 445.95 163.091C445.95 163.253 445.952 163.415 445.955 163.577C445.967 164.103 446.406 164.512 446.933 164.512H492.909Z" fill="white"/>
<path d="M493.886 163.577L495.886 163.621L493.886 163.577ZM491.892 163.091C491.892 163.238 491.89 163.385 491.887 163.532L495.886 163.621C495.89 163.445 495.892 163.268 495.892 163.091H491.892ZM469.921 142.512C482.169 142.512 491.892 151.836 491.892 163.091H495.892C495.892 149.405 484.15 138.512 469.921 138.512V142.512ZM447.95 163.091C447.95 151.836 457.672 142.512 469.921 142.512V138.512C455.692 138.512 443.95 149.405 443.95 163.091H447.95ZM447.955 163.532C447.952 163.385 447.95 163.238 447.95 163.091H443.95C443.95 163.268 443.952 163.445 443.956 163.621L447.955 163.532ZM446.933 166.512H492.909V162.512H446.933V166.512ZM443.956 163.621C443.993 165.291 445.376 166.512 446.933 166.512V162.512C447.437 162.512 447.941 162.916 447.955 163.532L443.956 163.621ZM491.887 163.532C491.9 162.916 492.405 162.512 492.909 162.512V166.512C494.466 166.512 495.848 165.291 495.886 163.621L491.887 163.532Z" fill="#F4F4F4"/>
<path d="M406.159 246.038H427.837" stroke="#F4F4F4" stroke-width="4" stroke-linecap="round"/>
<path d="M412.482 236.365H434.16" stroke="#F4F4F4" stroke-width="4" stroke-linecap="round"/>
<path d="M420.611 245.159V238.124" stroke="#F4F4F4" stroke-width="4"/>
<path d="M426.933 235.486V228.451" stroke="#F4F4F4" stroke-width="4" stroke-linecap="round"/>
<path d="M394.893 129.061C436.171 107.328 481.341 120.006 498.767 129.061" stroke="#F4F4F4" stroke-width="4" stroke-linecap="round"/>
<rect x="465.001" y="317" width="24" height="24" rx="1" fill="white" stroke="#F4F4F4" stroke-width="4"/>
<rect x="401.001" y="280" width="88" height="24" rx="1" fill="white" stroke="#F4F4F4" stroke-width="4"/>
<path d="M465.108 370.619H486.786" stroke="#F4F4F4" stroke-width="4" stroke-linecap="round"/>
<path d="M471.431 360.945H493.109" stroke="#F4F4F4" stroke-width="4" stroke-linecap="round"/>
<path d="M479.56 369.739V362.704" stroke="#F4F4F4" stroke-width="4"/>
<path d="M485.883 360.066V353.031" stroke="#F4F4F4" stroke-width="4" stroke-linecap="round"/>
<rect x="445.95" y="175.687" width="47.9416" height="80" rx="1" fill="white" stroke="#F4F4F4" stroke-width="4"/>
<rect x="457.935" y="187.116" width="23.9708" height="24" rx="1" fill="white" stroke="#F4F4F4" stroke-width="4"/>
<path d="M400.001 318C400.001 317.448 400.449 317 401.001 317H447.001C447.553 317 448.001 317.448 448.001 318V397H400.001V318Z" fill="white" stroke="#F4F4F4" stroke-width="4"/>
<path d="M412.001 332.593H436.001" stroke="#F4F4F4" stroke-width="4" stroke-linecap="round"/>
<path d="M43.0007 268.997H147.001V395.997C147.001 396.549 146.553 396.997 146.001 396.997H44.0007C43.4484 396.997 43.0007 396.549 43.0007 395.997V268.997Z" fill="white" stroke="#F4F4F4" stroke-width="4"/>
<path fill-rule="evenodd" clip-rule="evenodd" d="M146.265 140.235C146.08 140.235 145.901 140.165 145.765 140.038L95.4748 93.2677C95.091 92.9108 94.4967 92.9108 94.1128 93.2677L43.704 140.149C43.6444 140.204 43.5661 140.235 43.4847 140.235H43.4533C43.2928 140.235 43.1627 140.365 43.1627 140.526V140.595C43.1627 140.631 43.1474 140.666 43.1206 140.691L43.0261 140.779C42.972 140.83 43.0076 140.92 43.0814 140.92C43.1263 140.92 43.1627 140.956 43.1627 141.001V267.997C43.1627 268.549 43.6104 268.997 44.1627 268.997H146.001C146.553 268.997 147.001 268.549 147.001 267.997V140.97C147.001 140.564 146.672 140.235 146.265 140.235Z" fill="white"/>
<path d="M43.0261 140.779L41.664 139.315L43.0261 140.779ZM43.1206 140.691L41.7585 139.227L43.1206 140.691ZM43.704 140.149L45.066 141.613L43.704 140.149ZM145.765 140.038L144.403 141.503L145.765 140.038ZM95.4748 93.2677L96.8369 91.8032L95.4748 93.2677ZM94.1128 93.2677L92.7508 91.8032L94.1128 93.2677ZM94.1128 94.7323L144.403 141.503L147.127 138.574L96.8369 91.8032L94.1128 94.7323ZM45.066 141.613L95.4748 94.7323L92.7508 91.8032L42.3419 138.684L45.066 141.613ZM43.4533 142.235H43.4847V138.235H43.4533V142.235ZM45.1627 140.595V140.526H41.1627V140.595H45.1627ZM44.3881 142.244L44.4826 142.156L41.7585 139.227L41.664 139.315L44.3881 142.244ZM45.1627 267.997V141.001H41.1627V267.997H45.1627ZM146.001 266.997H44.1627V270.997H146.001V266.997ZM145.001 140.97V267.997H149.001V140.97H145.001ZM149.001 140.97C149.001 139.46 147.776 138.235 146.265 138.235V142.235C145.567 142.235 145.001 141.669 145.001 140.97H149.001ZM146.001 270.997C147.658 270.997 149.001 269.654 149.001 267.997H145.001C145.001 267.445 145.449 266.997 146.001 266.997V270.997ZM41.1627 267.997C41.1627 269.654 42.5058 270.997 44.1627 270.997V266.997C44.715 266.997 45.1627 267.445 45.1627 267.997H41.1627ZM43.0814 142.92C42.0217 142.92 41.1627 142.061 41.1627 141.001H45.1627C45.1627 139.852 44.2309 138.92 43.0814 138.92V142.92ZM41.664 139.315C40.2795 140.602 41.1906 142.92 43.0814 142.92V138.92C44.8246 138.92 45.6646 141.057 44.3881 142.244L41.664 139.315ZM41.1627 140.595C41.1627 140.076 41.3786 139.58 41.7585 139.227L44.4826 142.156C44.9163 141.753 45.1627 141.187 45.1627 140.595H41.1627ZM43.4533 138.235C42.1882 138.235 41.1627 139.261 41.1627 140.526H45.1627C45.1627 141.47 44.3974 142.235 43.4533 142.235V138.235ZM42.3419 138.684C42.6524 138.396 43.0607 138.235 43.4847 138.235V142.235C44.0714 142.235 44.6364 142.013 45.066 141.613L42.3419 138.684ZM144.403 141.503C144.909 141.973 145.574 142.235 146.265 142.235V138.235C146.585 138.235 146.893 138.356 147.127 138.574L144.403 141.503ZM96.8369 91.8032C95.6854 90.7323 93.9023 90.7323 92.7508 91.8032L95.4748 94.7323C95.091 95.0892 94.4966 95.0892 94.1128 94.7323L96.8369 91.8032Z" fill="#F4F4F4"/>
<path fill-rule="evenodd" clip-rule="evenodd" d="M118.018 141.796C118.544 141.796 118.983 141.388 118.995 140.861C118.999 140.7 119.001 140.538 119.001 140.376C119.001 127.905 108.255 117.796 95.0006 117.796C81.7458 117.796 71.0006 127.905 71.0006 140.376C71.0006 140.538 71.0025 140.7 71.0061 140.861C71.0179 141.388 71.4568 141.796 71.9836 141.796H118.018Z" fill="white"/>
<path d="M118.995 140.861L116.996 140.816L118.995 140.861ZM117.001 140.376C117.001 140.523 116.999 140.67 116.996 140.816L120.995 140.906C120.999 140.73 121.001 140.553 121.001 140.376H117.001ZM95.0006 119.796C107.268 119.796 117.001 129.123 117.001 140.376H121.001C121.001 126.688 109.243 115.796 95.0006 115.796V119.796ZM73.0006 140.376C73.0006 129.123 82.7337 119.796 95.0006 119.796V115.796C80.758 115.796 69.0006 126.688 69.0006 140.376H73.0006ZM73.0056 140.816C73.0023 140.67 73.0006 140.523 73.0006 140.376H69.0006C69.0006 140.553 69.0026 140.73 69.0066 140.906L73.0056 140.816ZM71.9836 143.796H118.018V139.796H71.9836V143.796ZM69.0066 140.906C69.044 142.575 70.4265 143.796 71.9836 143.796V139.796C72.4872 139.796 72.9918 140.2 73.0056 140.816L69.0066 140.906ZM116.996 140.816C117.01 140.2 117.514 139.796 118.018 139.796V143.796C119.575 143.796 120.957 142.575 120.995 140.906L116.996 140.816Z" fill="#F4F4F4"/>
<path d="M46.7784 162.296C84.9274 140.563 126.674 153.241 142.778 162.296" stroke="#F4F4F4" stroke-width="4" stroke-linecap="round"/>
<path d="M105.112 185.501H123.692" stroke="#F4F4F4" stroke-width="4" stroke-linecap="round"/>
<path d="M110.531 176.701H129.112" stroke="#F4F4F4" stroke-width="4" stroke-linecap="round"/>
<path d="M117.499 184.701V178.301" stroke="#F4F4F4" stroke-width="4"/>
<path d="M122.918 175.901V169.501" stroke="#F4F4F4" stroke-width="4" stroke-linecap="round"/>
<line x1="79.5562" y1="276.774" x2="115.556" y2="276.774" stroke="#F4F4F4" stroke-width="4" stroke-linecap="round"/>
<line x1="79.5562" y1="288.592" x2="115.556" y2="288.592" stroke="#F4F4F4" stroke-width="4" stroke-linecap="round"/>
<line x1="79.5562" y1="300.41" x2="115.556" y2="300.41" stroke="#F4F4F4" stroke-width="4" stroke-linecap="round"/>
<line x1="79.5562" y1="312.229" x2="115.556" y2="312.229" stroke="#F4F4F4" stroke-width="4" stroke-linecap="round"/>
<line x1="79.5562" y1="324.047" x2="115.556" y2="324.047" stroke="#F4F4F4" stroke-width="4" stroke-linecap="round"/>
<line x1="79.5562" y1="335.865" x2="115.556" y2="335.865" stroke="#F4F4F4" stroke-width="4" stroke-linecap="round"/>
<line x1="79.5562" y1="347.683" x2="115.556" y2="347.683" stroke="#F4F4F4" stroke-width="4" stroke-linecap="round"/>
<line x1="79.5562" y1="359.502" x2="115.556" y2="359.502" stroke="#F4F4F4" stroke-width="4" stroke-linecap="round"/>
<line x1="79.5562" y1="371.32" x2="115.556" y2="371.32" stroke="#F4F4F4" stroke-width="4" stroke-linecap="round"/>
<line x1="79.5562" y1="383.138" x2="115.556" y2="383.138" stroke="#F4F4F4" stroke-width="4" stroke-linecap="round"/>
<line x1="79.5562" y1="394.956" x2="115.556" y2="394.956" stroke="#F4F4F4" stroke-width="4" stroke-linecap="round"/>
<path d="M77.1118 267.956V395.956" stroke="#F4F4F4" stroke-width="4" stroke-linecap="round"/>
<path d="M117.112 267.956V395.956" stroke="#F4F4F4" stroke-width="4" stroke-linecap="round"/>
<rect x="73.334" y="196.047" width="48" height="72" rx="1" fill="white" stroke="#F4F4F4" stroke-width="4"/>
<rect x="85.334" y="206.547" width="24" height="12" rx="1" fill="white" stroke="#F4F4F4" stroke-width="4"/>
<path d="M507.002 268.997H611.002V395.997C611.002 396.549 610.554 396.997 610.002 396.997H508.002C507.449 396.997 507.002 396.549 507.002 395.997V268.997Z" fill="white" stroke="#F4F4F4" stroke-width="4"/>
<path fill-rule="evenodd" clip-rule="evenodd" d="M610.266 140.235C610.081 140.235 609.902 140.165 609.766 140.038L559.476 93.2677C559.092 92.9108 558.498 92.9108 558.114 93.2677L507.705 140.149C507.645 140.204 507.567 140.235 507.486 140.235H507.454C507.294 140.235 507.164 140.365 507.164 140.526V140.595C507.164 140.631 507.148 140.666 507.121 140.691L507.027 140.779C506.973 140.83 507.009 140.92 507.082 140.92C507.127 140.92 507.164 140.956 507.164 141.001V267.997C507.164 268.549 507.611 268.997 508.164 268.997H610.002C610.554 268.997 611.002 268.549 611.002 267.997V140.97C611.002 140.564 610.673 140.235 610.266 140.235Z" fill="white"/>
<path d="M507.027 140.779L505.665 139.315L507.027 140.779ZM507.121 140.691L505.759 139.227L507.121 140.691ZM507.705 140.149L509.067 141.613L507.705 140.149ZM609.766 140.038L608.404 141.503L609.766 140.038ZM559.476 93.2677L560.838 91.8032L559.476 93.2677ZM558.114 93.2677L556.752 91.8032L558.114 93.2677ZM558.114 94.7323L608.404 141.503L611.128 138.574L560.838 91.8032L558.114 94.7323ZM509.067 141.613L559.476 94.7323L556.752 91.8032L506.343 138.684L509.067 141.613ZM507.454 142.235H507.486V138.235H507.454V142.235ZM509.164 140.595V140.526H505.164V140.595H509.164ZM508.389 142.244L508.484 142.156L505.759 139.227L505.665 139.315L508.389 142.244ZM509.164 267.997V141.001H505.164V267.997H509.164ZM610.002 266.997H508.164V270.997H610.002V266.997ZM609.002 140.97V267.997H613.002V140.97H609.002ZM613.002 140.97C613.002 139.46 611.777 138.235 610.266 138.235V142.235C609.568 142.235 609.002 141.669 609.002 140.97H613.002ZM610.002 270.997C611.659 270.997 613.002 269.654 613.002 267.997H609.002C609.002 267.445 609.45 266.997 610.002 266.997V270.997ZM505.164 267.997C505.164 269.654 506.507 270.997 508.164 270.997V266.997C508.716 266.997 509.164 267.445 509.164 267.997H505.164ZM507.082 142.92C506.023 142.92 505.164 142.061 505.164 141.001H509.164C509.164 139.852 508.232 138.92 507.082 138.92V142.92ZM505.665 139.315C504.28 140.602 505.192 142.92 507.082 142.92V138.92C508.825 138.92 509.665 141.057 508.389 142.244L505.665 139.315ZM505.164 140.595C505.164 140.076 505.379 139.58 505.759 139.227L508.484 142.156C508.917 141.753 509.164 141.187 509.164 140.595H505.164ZM507.454 138.235C506.189 138.235 505.164 139.261 505.164 140.526H509.164C509.164 141.47 508.398 142.235 507.454 142.235V138.235ZM506.343 138.684C506.653 138.396 507.062 138.235 507.486 138.235V142.235C508.072 142.235 508.637 142.013 509.067 141.613L506.343 138.684ZM608.404 141.503C608.91 141.973 609.575 142.235 610.266 142.235V138.235C610.586 138.235 610.894 138.356 611.128 138.574L608.404 141.503ZM560.838 91.8032C559.686 90.7323 557.903 90.7323 556.752 91.8032L559.476 94.7323C559.092 95.0892 558.498 95.0892 558.114 94.7323L560.838 91.8032Z" fill="#F4F4F4"/>
<path fill-rule="evenodd" clip-rule="evenodd" d="M582.019 141.796C582.545 141.796 582.984 141.388 582.996 140.861C583 140.7 583.002 140.538 583.002 140.376C583.002 127.905 572.256 117.796 559.002 117.796C545.747 117.796 535.002 127.905 535.002 140.376C535.002 140.538 535.003 140.7 535.007 140.861C535.019 141.388 535.458 141.796 535.984 141.796H582.019Z" fill="white"/>
<path d="M582.996 140.861L580.997 140.816L582.996 140.861ZM581.002 140.376C581.002 140.523 581 140.67 580.997 140.816L584.996 140.906C585 140.73 585.002 140.553 585.002 140.376H581.002ZM559.002 119.796C571.269 119.796 581.002 129.123 581.002 140.376H585.002C585.002 126.688 573.244 115.796 559.002 115.796V119.796ZM537.002 140.376C537.002 129.123 546.735 119.796 559.002 119.796V115.796C544.759 115.796 533.002 126.688 533.002 140.376H537.002ZM537.006 140.816C537.003 140.67 537.002 140.523 537.002 140.376H533.002C533.002 140.553 533.004 140.73 533.007 140.906L537.006 140.816ZM535.984 143.796H582.019V139.796H535.984V143.796ZM533.007 140.906C533.045 142.575 534.427 143.796 535.984 143.796V139.796C536.488 139.796 536.993 140.2 537.006 140.816L533.007 140.906ZM580.997 140.816C581.01 140.2 581.515 139.796 582.019 139.796V143.796C583.576 143.796 584.958 142.575 584.996 140.906L580.997 140.816Z" fill="#F4F4F4"/>
<path d="M510.779 162.296C548.928 140.563 590.675 153.241 606.779 162.296" stroke="#F4F4F4" stroke-width="4" stroke-linecap="round"/>
<path d="M569.113 185.501H587.693" stroke="#F4F4F4" stroke-width="4" stroke-linecap="round"/>
<path d="M574.532 176.701H593.113" stroke="#F4F4F4" stroke-width="4" stroke-linecap="round"/>
<path d="M581.5 184.701V178.301" stroke="#F4F4F4" stroke-width="4"/>
<path d="M586.919 175.901V169.501" stroke="#F4F4F4" stroke-width="4" stroke-linecap="round"/>
<line x1="543.557" y1="276.774" x2="579.557" y2="276.774" stroke="#F4F4F4" stroke-width="4" stroke-linecap="round"/>
<line x1="543.557" y1="288.592" x2="579.557" y2="288.592" stroke="#F4F4F4" stroke-width="4" stroke-linecap="round"/>
<line x1="543.557" y1="300.41" x2="579.557" y2="300.41" stroke="#F4F4F4" stroke-width="4" stroke-linecap="round"/>
<line x1="543.557" y1="312.229" x2="579.557" y2="312.229" stroke="#F4F4F4" stroke-width="4" stroke-linecap="round"/>
<line x1="543.557" y1="324.047" x2="579.557" y2="324.047" stroke="#F4F4F4" stroke-width="4" stroke-linecap="round"/>
<line x1="543.557" y1="335.865" x2="579.557" y2="335.865" stroke="#F4F4F4" stroke-width="4" stroke-linecap="round"/>
<line x1="543.557" y1="347.683" x2="579.557" y2="347.683" stroke="#F4F4F4" stroke-width="4" stroke-linecap="round"/>
<line x1="543.557" y1="359.502" x2="579.557" y2="359.502" stroke="#F4F4F4" stroke-width="4" stroke-linecap="round"/>
<line x1="543.557" y1="371.32" x2="579.557" y2="371.32" stroke="#F4F4F4" stroke-width="4" stroke-linecap="round"/>
<line x1="543.557" y1="383.138" x2="579.557" y2="383.138" stroke="#F4F4F4" stroke-width="4" stroke-linecap="round"/>
<line x1="543.557" y1="394.956" x2="579.557" y2="394.956" stroke="#F4F4F4" stroke-width="4" stroke-linecap="round"/>
<path d="M541.113 267.956V395.956" stroke="#F4F4F4" stroke-width="4" stroke-linecap="round"/>
<path d="M581.113 267.956V395.956" stroke="#F4F4F4" stroke-width="4" stroke-linecap="round"/>
<rect x="537.335" y="196.047" width="48" height="72" rx="1" fill="white" stroke="#F4F4F4" stroke-width="4"/>
<rect x="549.335" y="206.547" width="24" height="12" rx="1" fill="white" stroke="#F4F4F4" stroke-width="4"/>
<path d="M731.002 268.812H851.002V396C851.002 396.552 850.554 397 850.002 397H732.002C731.45 397 731.002 396.552 731.002 396V268.812Z" fill="white" stroke="#F4F4F4" stroke-width="4"/>
<path d="M790.351 93.5577C790.726 93.2368 791.278 93.2368 791.653 93.5577L850.653 144.123C850.874 144.313 851.002 144.591 851.002 144.883V269.259H731.002L731.002 144.883C731.002 144.591 731.129 144.313 731.351 144.123L790.351 93.5577Z" fill="white" stroke="#F4F4F4" stroke-width="4"/>
<path fill-rule="evenodd" clip-rule="evenodd" d="M812.402 174.762C812.93 174.762 813.369 174.351 813.381 173.823C813.385 173.645 813.387 173.466 813.387 173.286C813.387 160.335 802.817 149.836 789.779 149.836C776.74 149.836 766.17 160.335 766.17 173.286C766.17 173.466 766.172 173.645 766.176 173.823C766.188 174.351 766.628 174.762 767.156 174.762H812.402Z" fill="white"/>
<path fill-rule="evenodd" clip-rule="evenodd" d="M813.187 173.64C813.714 173.64 814.153 173.231 814.165 172.704C814.168 172.543 814.17 172.381 814.17 172.219C814.17 159.749 803.425 149.64 790.17 149.64C776.915 149.64 766.17 159.749 766.17 172.219C766.17 172.381 766.172 172.543 766.176 172.704C766.187 173.231 766.626 173.64 767.153 173.64H813.187Z" fill="white"/>
<path d="M814.165 172.704L812.165 172.66L814.165 172.704ZM812.17 172.219C812.17 172.366 812.168 172.513 812.165 172.66L816.164 172.749C816.168 172.573 816.17 172.396 816.17 172.219H812.17ZM790.17 151.64C802.437 151.64 812.17 160.966 812.17 172.219H816.17C816.17 158.531 804.413 147.64 790.17 147.64V151.64ZM768.17 172.219C768.17 160.966 777.903 151.64 790.17 151.64V147.64C775.927 147.64 764.17 158.531 764.17 172.219H768.17ZM768.175 172.66C768.172 172.513 768.17 172.366 768.17 172.219H764.17C764.17 172.396 764.172 172.573 764.176 172.749L768.175 172.66ZM767.153 175.64H813.187V171.64H767.153V175.64ZM764.176 172.749C764.213 174.418 765.596 175.64 767.153 175.64V171.64C767.657 171.64 768.161 172.043 768.175 172.66L764.176 172.749ZM812.165 172.66C812.179 172.043 812.684 171.64 813.187 171.64V175.64C814.744 175.64 816.127 174.418 816.164 172.749L812.165 172.66Z" fill="#F4F4F4"/>
<rect x="742.562" y="189" width="16" height="48" rx="1" fill="white" stroke="#F4F4F4" stroke-width="4"/>
<rect x="822.562" y="189" width="16" height="48" rx="1" fill="white" stroke="#F4F4F4" stroke-width="4"/>
<rect x="766.17" y="189" width="48" height="80" rx="1" fill="white" stroke="#F4F4F4" stroke-width="4"/>
<path d="M748.464 148.37H770.169" stroke="#F4F4F4" stroke-width="4" stroke-linecap="round"/>
<path d="M754.795 138.697H776.499" stroke="#F4F4F4" stroke-width="4" stroke-linecap="round"/>
<path d="M762.934 147.491V140.456" stroke="#F4F4F4" stroke-width="4"/>
<path d="M769.264 137.817V130.782" stroke="#F4F4F4" stroke-width="4" stroke-linecap="round"/>
<path d="M789.779 258.828V394.828" stroke="#F4F4F4" stroke-width="4" stroke-linecap="round"/>
<path d="M771.335 270.149C765.433 276.012 756.579 278.857 756.579 297.996C756.58 319.981 797.894 329.508 815.601 347.096C833.307 364.684 832.569 376.409 831.094 391.798" stroke="#F4F4F4" stroke-width="4" stroke-linecap="round"/>
<path d="M778.712 272.348H802.32M778.712 272.348H802.32" stroke="#F4F4F4" stroke-width="4" stroke-linecap="round"/>
<path d="M769.121 284.073H792.73M769.121 284.073H792.73" stroke="#F4F4F4" stroke-width="4" stroke-linecap="round"/>
<path d="M764.695 295.798H788.303M764.695 295.798H788.303" stroke="#F4F4F4" stroke-width="4" stroke-linecap="round"/>
<path d="M767.646 307.523H791.254M767.646 307.523H791.254" stroke="#F4F4F4" stroke-width="4" stroke-linecap="round"/>
<path d="M798.632 391.065H822.24M798.632 391.065H822.24" stroke="#F4F4F4" stroke-width="4" stroke-linecap="round"/>
<path d="M801.583 379.34H825.191M801.583 379.34H825.191" stroke="#F4F4F4" stroke-width="4" stroke-linecap="round"/>
<path d="M803.058 367.615H820.765M803.058 367.615H820.765" stroke="#F4F4F4" stroke-width="4" stroke-linecap="round"/>
<path d="M798.632 357.355H816.338M798.632 357.355H816.338" stroke="#F4F4F4" stroke-width="4" stroke-linecap="round"/>
<path d="M795.681 347.096H807.485M795.681 347.096H807.485" stroke="#F4F4F4" stroke-width="4" stroke-linecap="round"/>
<path d="M776.499 317.783H788.303M776.499 317.783H788.303" stroke="#F4F4F4" stroke-width="4" stroke-linecap="round"/>
<path d="M611.002 269H731.002V395.997C731.002 396.55 730.554 396.997 730.002 396.997H612.002C611.449 396.997 611.002 396.55 611.002 395.997V269Z" fill="white" stroke="#F4F4F4" stroke-width="4"/>
<path d="M671.331 61.6403C671.72 61.2807 672.321 61.2858 672.703 61.6519L730.694 117.228C730.891 117.417 731.002 117.677 731.002 117.95V269H611.002L611.002 117.96C611.002 117.682 611.118 117.416 611.322 117.226L671.331 61.6403Z" fill="white" stroke="#F4F4F4" stroke-width="4"/>
<path d="M670.318 81.4705C670.678 81.1932 671.18 81.1932 671.539 81.4705L699.743 103.208C700.499 103.791 700.087 105 699.132 105H642.725C641.771 105 641.359 103.791 642.115 103.208L670.318 81.4705Z" fill="white" stroke="#F4F4F4" stroke-width="4"/>
<path fill-rule="evenodd" clip-rule="evenodd" d="M652.266 156.634C652.266 156.634 652.266 156.634 652.266 156.634C652.266 150.158 646.987 144.909 640.476 144.909C633.965 144.909 628.686 150.158 628.686 156.634C628.686 156.639 628.686 156.644 628.686 156.649V214.26C628.686 214.812 629.134 215.26 629.686 215.26H651.266C651.818 215.26 652.266 214.812 652.266 214.26V156.634Z" fill="white"/>
<path fill-rule="evenodd" clip-rule="evenodd" d="M716.125 165.437C716.653 165.437 717.092 165.027 717.104 164.499C717.108 164.32 717.11 164.142 717.11 163.962C717.11 151.011 706.553 140.512 693.531 140.512C680.508 140.512 669.951 151.011 669.951 163.962C669.951 164.142 669.953 164.32 669.957 164.499C669.969 165.027 670.408 165.437 670.936 165.437H716.125Z" fill="white"/>
<path fill-rule="evenodd" clip-rule="evenodd" d="M716.965 154.964C712.916 159.525 707.011 162.399 700.437 162.399C689.776 162.399 680.878 154.843 678.793 144.789C682.968 141.059 688.489 138.791 694.543 138.791C705.011 138.791 713.886 145.575 716.965 154.964Z" fill="white"/>
<path fill-rule="evenodd" clip-rule="evenodd" d="M650.792 157.864V157.864V211.091H646.055C640.532 211.091 636.055 206.614 636.055 201.091V146.508C636.734 146.334 637.437 146.219 638.157 146.168H639.847C645.964 146.599 650.792 151.671 650.792 157.864Z" fill="white"/>
<path fill-rule="evenodd" clip-rule="evenodd" d="M652.657 156.909V215.909C652.657 216.461 652.209 216.909 651.657 216.909H629.686C629.134 216.909 628.686 216.461 628.686 215.909V156.909C628.686 150.281 634.052 144.909 640.672 144.909C647.291 144.909 652.657 150.281 652.657 156.909Z" fill="white"/>
<path d="M650.657 156.909V215.909H654.657V156.909H650.657ZM651.657 214.909H629.686V218.909H651.657V214.909ZM630.686 215.909V156.909H626.686V215.909H630.686ZM630.686 156.909C630.686 151.384 635.159 146.909 640.672 146.909V142.909C632.945 142.909 626.686 149.179 626.686 156.909H630.686ZM640.672 146.909C646.184 146.909 650.657 151.384 650.657 156.909H654.657C654.657 149.179 648.398 142.909 640.672 142.909V146.909ZM629.686 214.909C630.238 214.909 630.686 215.356 630.686 215.909H626.686C626.686 217.565 628.029 218.909 629.686 218.909V214.909ZM650.657 215.909C650.657 215.356 651.105 214.909 651.657 214.909V218.909C653.314 218.909 654.657 217.565 654.657 215.909H650.657Z" fill="#F4F4F4"/>
<path fill-rule="evenodd" clip-rule="evenodd" d="M716.91 164.512C717.436 164.512 717.875 164.103 717.887 163.577C717.891 163.415 717.893 163.253 717.893 163.091C717.893 150.621 707.16 140.512 693.922 140.512C680.683 140.512 669.951 150.621 669.951 163.091C669.951 163.253 669.953 163.415 669.956 163.577C669.968 164.103 670.407 164.512 670.934 164.512H716.91Z" fill="white"/>
<path d="M717.887 163.577L719.887 163.621L717.887 163.577ZM715.893 163.091C715.893 163.238 715.891 163.385 715.888 163.532L719.887 163.621C719.891 163.445 719.893 163.268 719.893 163.091H715.893ZM693.922 142.512C706.17 142.512 715.893 151.836 715.893 163.091H719.893C719.893 149.405 708.151 138.512 693.922 138.512V142.512ZM671.951 163.091C671.951 151.836 681.673 142.512 693.922 142.512V138.512C679.693 138.512 667.951 149.405 667.951 163.091H671.951ZM671.956 163.532C671.953 163.385 671.951 163.238 671.951 163.091H667.951C667.951 163.268 667.953 163.445 667.957 163.621L671.956 163.532ZM670.934 166.512H716.91V162.512H670.934V166.512ZM667.957 163.621C667.994 165.291 669.377 166.512 670.934 166.512V162.512C671.437 162.512 671.942 162.916 671.956 163.532L667.957 163.621ZM715.888 163.532C715.901 162.916 716.406 162.512 716.91 162.512V166.512C718.467 166.512 719.849 165.291 719.887 163.621L715.888 163.532Z" fill="#F4F4F4"/>
<path d="M630.16 246.038H651.838" stroke="#F4F4F4" stroke-width="4" stroke-linecap="round"/>
<path d="M636.483 236.365H658.161" stroke="#F4F4F4" stroke-width="4" stroke-linecap="round"/>
<path d="M644.612 245.159V238.124" stroke="#F4F4F4" stroke-width="4"/>
<path d="M650.934 235.486V228.451" stroke="#F4F4F4" stroke-width="4" stroke-linecap="round"/>
<path d="M618.894 129.061C660.172 107.328 705.342 120.006 722.767 129.061" stroke="#F4F4F4" stroke-width="4" stroke-linecap="round"/>
<rect x="689.002" y="317" width="24" height="24" rx="1" fill="white" stroke="#F4F4F4" stroke-width="4"/>
<rect x="625.002" y="280" width="88" height="24" rx="1" fill="white" stroke="#F4F4F4" stroke-width="4"/>
<path d="M689.109 370.619H710.787" stroke="#F4F4F4" stroke-width="4" stroke-linecap="round"/>
<path d="M695.432 360.945H717.11" stroke="#F4F4F4" stroke-width="4" stroke-linecap="round"/>
<path d="M703.561 369.739V362.704" stroke="#F4F4F4" stroke-width="4"/>
<path d="M709.884 360.066V353.031" stroke="#F4F4F4" stroke-width="4" stroke-linecap="round"/>
<rect x="669.951" y="175.687" width="47.9416" height="80" rx="1" fill="white" stroke="#F4F4F4" stroke-width="4"/>
<rect x="681.936" y="187.116" width="23.9708" height="24" rx="1" fill="white" stroke="#F4F4F4" stroke-width="4"/>
<path d="M624.002 318C624.002 317.448 624.449 317 625.002 317H671.002C671.554 317 672.002 317.448 672.002 318V397H624.002V318Z" fill="white" stroke="#F4F4F4" stroke-width="4"/>
<path d="M636.002 332.593H660.002" stroke="#F4F4F4" stroke-width="4" stroke-linecap="round"/>
<path d="M851.002 269H971.002V395.997C971.002 396.55 970.554 396.997 970.002 396.997H852.002C851.45 396.997 851.002 396.55 851.002 395.997V269Z" fill="white" stroke="#F4F4F4" stroke-width="4"/>
<path d="M911.331 61.6403C911.72 61.2807 912.321 61.2858 912.703 61.6519L970.694 117.228C970.891 117.417 971.002 117.677 971.002 117.95V269H851.002L851.002 117.96C851.002 117.682 851.118 117.416 851.322 117.226L911.331 61.6403Z" fill="white" stroke="#F4F4F4" stroke-width="4"/>
<path d="M910.318 81.4705C910.678 81.1932 911.18 81.1932 911.539 81.4705L939.743 103.208C940.499 103.791 940.087 105 939.132 105H882.725C881.771 105 881.359 103.791 882.115 103.208L910.318 81.4705Z" fill="white" stroke="#F4F4F4" stroke-width="4"/>
<path fill-rule="evenodd" clip-rule="evenodd" d="M892.266 156.634C892.266 156.634 892.266 156.634 892.266 156.634C892.266 150.158 886.987 144.909 880.476 144.909C873.965 144.909 868.686 150.158 868.686 156.634C868.686 156.639 868.686 156.644 868.686 156.649V214.26C868.686 214.812 869.134 215.26 869.686 215.26H891.266C891.818 215.26 892.266 214.812 892.266 214.26V156.634Z" fill="white"/>
<path fill-rule="evenodd" clip-rule="evenodd" d="M956.125 165.437C956.653 165.437 957.092 165.027 957.104 164.499C957.108 164.32 957.11 164.142 957.11 163.962C957.11 151.011 946.553 140.512 933.531 140.512C920.508 140.512 909.951 151.011 909.951 163.962C909.951 164.142 909.953 164.32 909.957 164.499C909.969 165.027 910.408 165.437 910.936 165.437H956.125Z" fill="white"/>
<path fill-rule="evenodd" clip-rule="evenodd" d="M956.965 154.964C952.916 159.525 947.012 162.399 940.437 162.399C929.776 162.399 920.878 154.843 918.793 144.789C922.968 141.059 928.489 138.791 934.543 138.791C945.011 138.791 953.886 145.575 956.965 154.964Z" fill="white"/>
<path fill-rule="evenodd" clip-rule="evenodd" d="M890.792 157.864V157.864V211.091H886.055C880.532 211.091 876.055 206.614 876.055 201.091V146.508C876.734 146.334 877.437 146.219 878.157 146.168H879.848C885.964 146.599 890.792 151.671 890.792 157.864Z" fill="white"/>
<path fill-rule="evenodd" clip-rule="evenodd" d="M892.657 156.909V215.909C892.657 216.461 892.209 216.909 891.657 216.909H869.686C869.134 216.909 868.686 216.461 868.686 215.909V156.909C868.686 150.281 874.052 144.909 880.672 144.909C887.291 144.909 892.657 150.281 892.657 156.909Z" fill="white"/>
<path d="M890.657 156.909V215.909H894.657V156.909H890.657ZM891.657 214.909H869.686V218.909H891.657V214.909ZM870.686 215.909V156.909H866.686V215.909H870.686ZM870.686 156.909C870.686 151.384 875.159 146.909 880.672 146.909V142.909C872.945 142.909 866.686 149.179 866.686 156.909H870.686ZM880.672 146.909C886.184 146.909 890.657 151.384 890.657 156.909H894.657C894.657 149.179 888.398 142.909 880.672 142.909V146.909ZM869.686 214.909C870.239 214.909 870.686 215.356 870.686 215.909H866.686C866.686 217.565 868.029 218.909 869.686 218.909V214.909ZM890.657 215.909C890.657 215.356 891.105 214.909 891.657 214.909V218.909C893.314 218.909 894.657 217.565 894.657 215.909H890.657Z" fill="#F4F4F4"/>
<path fill-rule="evenodd" clip-rule="evenodd" d="M956.91 164.512C957.436 164.512 957.875 164.103 957.887 163.577C957.891 163.415 957.893 163.253 957.893 163.091C957.893 150.621 947.16 140.512 933.922 140.512C920.683 140.512 909.951 150.621 909.951 163.091C909.951 163.253 909.953 163.415 909.956 163.577C909.968 164.103 910.407 164.512 910.934 164.512H956.91Z" fill="white"/>
<path d="M957.887 163.577L959.887 163.621L957.887 163.577ZM955.893 163.091C955.893 163.238 955.891 163.385 955.888 163.532L959.887 163.621C959.891 163.445 959.893 163.268 959.893 163.091H955.893ZM933.922 142.512C946.17 142.512 955.893 151.836 955.893 163.091H959.893C959.893 149.405 948.151 138.512 933.922 138.512V142.512ZM911.951 163.091C911.951 151.836 921.673 142.512 933.922 142.512V138.512C919.693 138.512 907.951 149.405 907.951 163.091H911.951ZM911.956 163.532C911.953 163.385 911.951 163.238 911.951 163.091H907.951C907.951 163.268 907.953 163.445 907.957 163.621L911.956 163.532ZM910.934 166.512H956.91V162.512H910.934V166.512ZM907.957 163.621C907.994 165.291 909.377 166.512 910.934 166.512V162.512C911.438 162.512 911.942 162.916 911.956 163.532L907.957 163.621ZM955.888 163.532C955.901 162.916 956.406 162.512 956.91 162.512V166.512C958.467 166.512 959.849 165.291 959.887 163.621L955.888 163.532Z" fill="#F4F4F4"/>
<path d="M870.16 246.038H891.838" stroke="#F4F4F4" stroke-width="4" stroke-linecap="round"/>
<path d="M876.483 236.365H898.161" stroke="#F4F4F4" stroke-width="4" stroke-linecap="round"/>
<path d="M884.612 245.159V238.124" stroke="#F4F4F4" stroke-width="4"/>
<path d="M890.934 235.486V228.451" stroke="#F4F4F4" stroke-width="4" stroke-linecap="round"/>
<path d="M858.894 129.061C900.172 107.328 945.342 120.006 962.768 129.061" stroke="#F4F4F4" stroke-width="4" stroke-linecap="round"/>
<rect x="929.002" y="317" width="24" height="24" rx="1" fill="white" stroke="#F4F4F4" stroke-width="4"/>
<rect x="865.002" y="280" width="88" height="24" rx="1" fill="white" stroke="#F4F4F4" stroke-width="4"/>
<path d="M929.109 370.619H950.787" stroke="#F4F4F4" stroke-width="4" stroke-linecap="round"/>
<path d="M935.432 360.945H957.11" stroke="#F4F4F4" stroke-width="4" stroke-linecap="round"/>
<path d="M943.561 369.739V362.704" stroke="#F4F4F4" stroke-width="4"/>
<path d="M949.884 360.066V353.031" stroke="#F4F4F4" stroke-width="4" stroke-linecap="round"/>
<rect x="909.951" y="175.687" width="47.9416" height="80" rx="1" fill="white" stroke="#F4F4F4" stroke-width="4"/>
<rect x="921.936" y="187.116" width="23.9708" height="24" rx="1" fill="white" stroke="#F4F4F4" stroke-width="4"/>
<path d="M864.002 318C864.002 317.448 864.45 317 865.002 317H911.002C911.554 317 912.002 317.448 912.002 318V397H864.002V318Z" fill="white" stroke="#F4F4F4" stroke-width="4"/>
<path d="M876.002 332.593H900.002" stroke="#F4F4F4" stroke-width="4" stroke-linecap="round"/>
<path d="M971.003 268.997H1075V395.997C1075 396.549 1074.55 396.997 1074 396.997H972.003C971.45 396.997 971.003 396.549 971.003 395.997V268.997Z" fill="white" stroke="#F4F4F4" stroke-width="4"/>
<path fill-rule="evenodd" clip-rule="evenodd" d="M1074.27 140.235C1074.08 140.235 1073.9 140.165 1073.77 140.038L1023.48 93.2677C1023.09 92.9108 1022.5 92.9108 1022.11 93.2677L971.706 140.149C971.646 140.204 971.568 140.235 971.487 140.235H971.455C971.295 140.235 971.165 140.365 971.165 140.526V140.595C971.165 140.631 971.149 140.666 971.122 140.691L971.028 140.779C970.974 140.83 971.009 140.92 971.083 140.92C971.128 140.92 971.165 140.956 971.165 141.001V267.997C971.165 268.549 971.612 268.997 972.165 268.997H1074C1074.56 268.997 1075 268.549 1075 267.997V140.97C1075 140.564 1074.67 140.235 1074.27 140.235Z" fill="white"/>
<path d="M971.028 140.779L969.666 139.315L971.028 140.779ZM971.122 140.691L969.76 139.227L971.122 140.691ZM971.706 140.149L973.068 141.613L971.706 140.149ZM1073.77 140.038L1072.4 141.503L1073.77 140.038ZM1023.48 93.2677L1024.84 91.8032L1023.48 93.2677ZM1022.11 93.2677L1020.75 91.8032L1022.11 93.2677ZM1022.11 94.7323L1072.4 141.503L1075.13 138.574L1024.84 91.8032L1022.11 94.7323ZM973.068 141.613L1023.48 94.7323L1020.75 91.8032L970.344 138.684L973.068 141.613ZM971.455 142.235H971.487V138.235H971.455V142.235ZM973.165 140.595V140.526H969.165V140.595H973.165ZM972.39 142.244L972.484 142.156L969.76 139.227L969.666 139.315L972.39 142.244ZM973.165 267.997V141.001H969.165V267.997H973.165ZM1074 266.997H972.165V270.997H1074V266.997ZM1073 140.97V267.997H1077V140.97H1073ZM1077 140.97C1077 139.46 1075.78 138.235 1074.27 138.235V142.235C1073.57 142.235 1073 141.669 1073 140.97H1077ZM1074 270.997C1075.66 270.997 1077 269.654 1077 267.997H1073C1073 267.445 1073.45 266.997 1074 266.997V270.997ZM969.165 267.997C969.165 269.654 970.508 270.997 972.165 270.997V266.997C972.717 266.997 973.165 267.445 973.165 267.997H969.165ZM971.083 142.92C970.024 142.92 969.165 142.061 969.165 141.001H973.165C973.165 139.852 972.233 138.92 971.083 138.92V142.92ZM969.666 139.315C968.281 140.602 969.192 142.92 971.083 142.92V138.92C972.826 138.92 973.666 141.057 972.39 142.244L969.666 139.315ZM969.165 140.595C969.165 140.076 969.38 139.58 969.76 139.227L972.484 142.156C972.918 141.753 973.165 141.187 973.165 140.595H969.165ZM971.455 138.235C970.19 138.235 969.165 139.261 969.165 140.526H973.165C973.165 141.47 972.399 142.235 971.455 142.235V138.235ZM970.344 138.684C970.654 138.396 971.063 138.235 971.487 138.235V142.235C972.073 142.235 972.638 142.013 973.068 141.613L970.344 138.684ZM1072.4 141.503C1072.91 141.973 1073.58 142.235 1074.27 142.235V138.235C1074.59 138.235 1074.89 138.356 1075.13 138.574L1072.4 141.503ZM1024.84 91.8032C1023.69 90.7323 1021.9 90.7323 1020.75 91.8032L1023.48 94.7323C1023.09 95.0892 1022.5 95.0892 1022.11 94.7323L1024.84 91.8032Z" fill="#F4F4F4"/>
<path fill-rule="evenodd" clip-rule="evenodd" d="M1046.02 141.796C1046.55 141.796 1046.99 141.388 1047 140.861C1047 140.7 1047 140.538 1047 140.376C1047 127.905 1036.26 117.796 1023 117.796C1009.75 117.796 999.003 127.905 999.003 140.376C999.003 140.538 999.004 140.7 999.008 140.861C999.02 141.388 999.459 141.796 999.985 141.796H1046.02Z" fill="white"/>
<path d="M1047 140.861L1045 140.816L1047 140.861ZM1045 140.376C1045 140.523 1045 140.67 1045 140.816L1049 140.906C1049 140.73 1049 140.553 1049 140.376H1045ZM1023 119.796C1035.27 119.796 1045 129.123 1045 140.376H1049C1049 126.688 1037.25 115.796 1023 115.796V119.796ZM1001 140.376C1001 129.123 1010.74 119.796 1023 119.796V115.796C1008.76 115.796 997.003 126.688 997.003 140.376H1001ZM1001.01 140.816C1001 140.67 1001 140.523 1001 140.376H997.003C997.003 140.553 997.004 140.73 997.008 140.906L1001.01 140.816ZM999.985 143.796H1046.02V139.796H999.985V143.796ZM997.008 140.906C997.046 142.575 998.428 143.796 999.985 143.796V139.796C1000.49 139.796 1000.99 140.2 1001.01 140.816L997.008 140.906ZM1045 140.816C1045.01 140.2 1045.52 139.796 1046.02 139.796V143.796C1047.58 143.796 1048.96 142.575 1049 140.906L1045 140.816Z" fill="#F4F4F4"/>
<path d="M974.78 162.296C1012.93 140.563 1054.68 153.241 1070.78 162.296" stroke="#F4F4F4" stroke-width="4" stroke-linecap="round"/>
<path d="M1033.11 185.501H1051.69" stroke="#F4F4F4" stroke-width="4" stroke-linecap="round"/>
<path d="M1038.53 176.701H1057.11" stroke="#F4F4F4" stroke-width="4" stroke-linecap="round"/>
<path d="M1045.5 184.701V178.301" stroke="#F4F4F4" stroke-width="4"/>
<path d="M1050.92 175.901V169.501" stroke="#F4F4F4" stroke-width="4" stroke-linecap="round"/>
<line x1="1007.56" y1="276.774" x2="1043.56" y2="276.774" stroke="#F4F4F4" stroke-width="4" stroke-linecap="round"/>
<line x1="1007.56" y1="288.592" x2="1043.56" y2="288.592" stroke="#F4F4F4" stroke-width="4" stroke-linecap="round"/>
<line x1="1007.56" y1="300.41" x2="1043.56" y2="300.41" stroke="#F4F4F4" stroke-width="4" stroke-linecap="round"/>
<line x1="1007.56" y1="312.229" x2="1043.56" y2="312.229" stroke="#F4F4F4" stroke-width="4" stroke-linecap="round"/>
<line x1="1007.56" y1="324.047" x2="1043.56" y2="324.047" stroke="#F4F4F4" stroke-width="4" stroke-linecap="round"/>
<line x1="1007.56" y1="335.865" x2="1043.56" y2="335.865" stroke="#F4F4F4" stroke-width="4" stroke-linecap="round"/>
<line x1="1007.56" y1="347.683" x2="1043.56" y2="347.683" stroke="#F4F4F4" stroke-width="4" stroke-linecap="round"/>
<line x1="1007.56" y1="359.502" x2="1043.56" y2="359.502" stroke="#F4F4F4" stroke-width="4" stroke-linecap="round"/>
<line x1="1007.56" y1="371.32" x2="1043.56" y2="371.32" stroke="#F4F4F4" stroke-width="4" stroke-linecap="round"/>
<line x1="1007.56" y1="383.138" x2="1043.56" y2="383.138" stroke="#F4F4F4" stroke-width="4" stroke-linecap="round"/>
<line x1="1007.56" y1="394.956" x2="1043.56" y2="394.956" stroke="#F4F4F4" stroke-width="4" stroke-linecap="round"/>
<path d="M1005.11 267.956V395.956" stroke="#F4F4F4" stroke-width="4" stroke-linecap="round"/>
<path d="M1045.11 267.956V395.956" stroke="#F4F4F4" stroke-width="4" stroke-linecap="round"/>
<rect x="1001.34" y="196.047" width="48" height="72" rx="1" fill="white" stroke="#F4F4F4" stroke-width="4"/>
<rect x="1013.34" y="206.547" width="24" height="12" rx="1" fill="white" stroke="#F4F4F4" stroke-width="4"/>
<path d="M58.5 396.5L1070 396.5M2 396.5H46" stroke="#4D4D4D" stroke-width="4" stroke-linecap="round"/>
<path d="M338.857 28H293.143L252 100V396H380V100L338.857 28Z" fill="#F4F4F4"/>
<path fill-rule="evenodd" clip-rule="evenodd" d="M285 395.5V43.2701L253 99.8889V395.5H285Z" fill="#D2D2D2"/>
<path d="M339.145 28.5039C338.967 28.1923 338.636 28 338.277 28H293.723C293.364 28 293.033 28.1923 292.855 28.5039L252.132 99.7694C252.045 99.9205 252 100.092 252 100.266V395C252 395.552 252.448 396 253 396H379C379.552 396 380 395.552 380 395V100.266C380 100.092 379.955 99.9205 379.868 99.7694L339.145 28.5039Z" stroke="#4D4D4D" stroke-width="4"/>
<rect x="260" y="102" width="16" height="16" rx="1" fill="#48DEE2" stroke="#4D4D4D" stroke-width="4"/>
<path fill-rule="evenodd" clip-rule="evenodd" d="M263.808 102H275C275.552 102 276 102.448 276 103V114.192C275.056 114.5 274.047 114.667 273 114.667C267.661 114.667 263.333 110.339 263.333 105C263.333 103.953 263.5 102.944 263.808 102Z" fill="#88FCFF"/>
<rect x="260" y="102" width="16" height="16" rx="1" stroke="#4D4D4D" stroke-width="4"/>
<rect x="356" y="102" width="16" height="16" rx="1" fill="#48DEE2" stroke="#4D4D4D" stroke-width="4"/>
<path fill-rule="evenodd" clip-rule="evenodd" d="M359.808 102H371C371.552 102 372 102.448 372 103V114.192C371.056 114.5 370.047 114.667 369 114.667C363.661 114.667 359.333 110.339 359.333 105C359.333 103.953 359.5 102.944 359.808 102Z" fill="#88FCFF"/>
<rect x="356" y="102" width="16" height="16" rx="1" stroke="#4D4D4D" stroke-width="4"/>
<rect x="333" y="126" width="16" height="16" rx="1" fill="#48DEE2" stroke="#4D4D4D" stroke-width="4"/>
<path fill-rule="evenodd" clip-rule="evenodd" d="M336.808 126H348C348.552 126 349 126.448 349 127V138.192C348.056 138.5 347.047 138.667 346 138.667C340.661 138.667 336.333 134.339 336.333 129C336.333 127.953 336.5 126.944 336.808 126Z" fill="#88FCFF"/>
<rect x="333" y="126" width="16" height="16" rx="1" stroke="#4D4D4D" stroke-width="4"/>
<rect x="285" y="126" width="16" height="16" rx="1" fill="#48DEE2" stroke="#4D4D4D" stroke-width="4"/>
<path fill-rule="evenodd" clip-rule="evenodd" d="M288.808 126H300C300.552 126 301 126.448 301 127V138.192C300.056 138.5 299.047 138.667 298 138.667C292.661 138.667 288.333 134.339 288.333 129C288.333 127.953 288.5 126.944 288.808 126Z" fill="#88FCFF"/>
<rect x="285" y="126" width="16" height="16" rx="1" stroke="#4D4D4D" stroke-width="4"/>
<rect x="309" y="150" width="16" height="16" rx="1" fill="#48DEE2" stroke="#4D4D4D" stroke-width="4"/>
<path fill-rule="evenodd" clip-rule="evenodd" d="M312.808 150H324C324.552 150 325 150.448 325 151V162.192C324.056 162.5 323.047 162.667 322 162.667C316.661 162.667 312.333 158.339 312.333 153C312.333 151.953 312.5 150.944 312.808 150Z" fill="#88FCFF"/>
<rect x="309" y="150" width="16" height="16" rx="1" stroke="#4D4D4D" stroke-width="4"/>
<path d="M265 131V138C265 138.552 265.448 139 266 139H273" stroke="#4D4D4D" stroke-width="4" stroke-linecap="round"/>
<path d="M265 155V162C265 162.552 265.448 163 266 163H273" stroke="#4D4D4D" stroke-width="4" stroke-linecap="round"/>
<path d="M289 155V162C289 162.552 289.448 163 290 163H297" stroke="#4D4D4D" stroke-width="4" stroke-linecap="round"/>
<path d="M360 131V138C360 138.552 360.448 139 361 139H368" stroke="#4D4D4D" stroke-width="4" stroke-linecap="round"/>
<path d="M336 155V162C336 162.552 336.448 163 337 163H344" stroke="#4D4D4D" stroke-width="4" stroke-linecap="round"/>
<path d="M360 155V162C360 162.552 360.448 163 361 163H368" stroke="#4D4D4D" stroke-width="4" stroke-linecap="round"/>
<path d="M265 179V186C265 186.552 265.448 187 266 187H273" stroke="#4D4D4D" stroke-width="4" stroke-linecap="round"/>
<path d="M289 179V186C289 186.552 289.448 187 290 187H297" stroke="#4D4D4D" stroke-width="4" stroke-linecap="round"/>
<path d="M265 203V210C265 210.552 265.448 211 266 211H273" stroke="#4D4D4D" stroke-width="4" stroke-linecap="round"/>
<path d="M289 203V210C289 210.552 289.448 211 290 211H297" stroke="#4D4D4D" stroke-width="4" stroke-linecap="round"/>
<path d="M265 227V234C265 234.552 265.448 235 266 235H273" stroke="#4D4D4D" stroke-width="4" stroke-linecap="round"/>
<path d="M289 227V234C289 234.552 289.448 235 290 235H297" stroke="#4D4D4D" stroke-width="4" stroke-linecap="round"/>
<path d="M265 251V258C265 258.552 265.448 259 266 259H273" stroke="#4D4D4D" stroke-width="4" stroke-linecap="round"/>
<path d="M289 251V258C289 258.552 289.448 259 290 259H297" stroke="#4D4D4D" stroke-width="4" stroke-linecap="round"/>
<path d="M265 275V282C265 282.552 265.448 283 266 283H273" stroke="#4D4D4D" stroke-width="4" stroke-linecap="round"/>
<path d="M289 275V282C289 282.552 289.448 283 290 283H297" stroke="#4D4D4D" stroke-width="4" stroke-linecap="round"/>
<path d="M265 299V306C265 306.552 265.448 307 266 307H273" stroke="#4D4D4D" stroke-width="4" stroke-linecap="round"/>
<path d="M289 299V306C289 306.552 289.448 307 290 307H297" stroke="#4D4D4D" stroke-width="4" stroke-linecap="round"/>
<path d="M265 323V330C265 330.552 265.448 331 266 331H273" stroke="#4D4D4D" stroke-width="4" stroke-linecap="round"/>
<path d="M289 323V330C289 330.552 289.448 331 290 331H297" stroke="#4D4D4D" stroke-width="4" stroke-linecap="round"/>
<path d="M265 347V354C265 354.552 265.448 355 266 355H273" stroke="#4D4D4D" stroke-width="4" stroke-linecap="round"/>
<path d="M289 347V354C289 354.552 289.448 355 290 355H297" stroke="#4D4D4D" stroke-width="4" stroke-linecap="round"/>
<path d="M336 179V186C336 186.552 336.448 187 337 187H344" stroke="#4D4D4D" stroke-width="4" stroke-linecap="round"/>
<path d="M360 179V186C360 186.552 360.448 187 361 187H368" stroke="#4D4D4D" stroke-width="4" stroke-linecap="round"/>
<path d="M336 203V210C336 210.552 336.448 211 337 211H344" stroke="#4D4D4D" stroke-width="4" stroke-linecap="round"/>
<path d="M360 203V210C360 210.552 360.448 211 361 211H368" stroke="#4D4D4D" stroke-width="4" stroke-linecap="round"/>
<path d="M336 227V234C336 234.552 336.448 235 337 235H344" stroke="#4D4D4D" stroke-width="4" stroke-linecap="round"/>
<path d="M360 227V234C360 234.552 360.448 235 361 235H368" stroke="#4D4D4D" stroke-width="4" stroke-linecap="round"/>
<path d="M336 251V258C336 258.552 336.448 259 337 259H344" stroke="#4D4D4D" stroke-width="4" stroke-linecap="round"/>
<path d="M360 251V258C360 258.552 360.448 259 361 259H368" stroke="#4D4D4D" stroke-width="4" stroke-linecap="round"/>
<path d="M336 275V282C336 282.552 336.448 283 337 283H344" stroke="#4D4D4D" stroke-width="4" stroke-linecap="round"/>
<path d="M360 275V282C360 282.552 360.448 283 361 283H368" stroke="#4D4D4D" stroke-width="4" stroke-linecap="round"/>
<path d="M336 299V306C336 306.552 336.448 307 337 307H344" stroke="#4D4D4D" stroke-width="4" stroke-linecap="round"/>
<path d="M360 299V306C360 306.552 360.448 307 361 307H368" stroke="#4D4D4D" stroke-width="4" stroke-linecap="round"/>
<path d="M336 323V330C336 330.552 336.448 331 337 331H344" stroke="#4D4D4D" stroke-width="4" stroke-linecap="round"/>
<path d="M360 323V330C360 330.552 360.448 331 361 331H368" stroke="#4D4D4D" stroke-width="4" stroke-linecap="round"/>
<path d="M336 347V354C336 354.552 336.448 355 337 355H344" stroke="#4D4D4D" stroke-width="4" stroke-linecap="round"/>
<path d="M360 347V354C360 354.552 360.448 355 361 355H368" stroke="#4D4D4D" stroke-width="4" stroke-linecap="round"/>
<path d="M265 371V378C265 378.552 265.448 379 266 379H273" stroke="#4D4D4D" stroke-width="4" stroke-linecap="round"/>
<path d="M289 371V378C289 378.552 289.448 379 290 379H297" stroke="#4D4D4D" stroke-width="4" stroke-linecap="round"/>
<path d="M336 371V378C336 378.552 336.448 379 337 379H344" stroke="#4D4D4D" stroke-width="4" stroke-linecap="round"/>
<path d="M360 371V378C360 378.552 360.448 379 361 379H368" stroke="#4D4D4D" stroke-width="4" stroke-linecap="round"/>
<path d="M312 38V142" stroke="#4D4D4D" stroke-width="4" stroke-linecap="round"/>
<path d="M320 38V142" stroke="#4D4D4D" stroke-width="4" stroke-linecap="round"/>
<path d="M312 174V374" stroke="#4D4D4D" stroke-width="4" stroke-linecap="round"/>
<path d="M320 174V374" stroke="#4D4D4D" stroke-width="4" stroke-linecap="round"/>
<rect x="442" y="172" width="184" height="88" fill="#F4F4F4" stroke="#4D4D4D" stroke-width="4"/>
<path fill-rule="evenodd" clip-rule="evenodd" d="M546 230H522V259H528.052C527.37 256.958 527 254.772 527 252.5C527 241.683 535.378 232.822 546 232.054V230Z" fill="#D2D2D2"/>
<path d="M522 244H546V260H522V244Z" stroke="#4D4D4D" stroke-width="4"/>
<path d="M522 228H546V244H522V228Z" stroke="#4D4D4D" stroke-width="4"/>
<path d="M518 221C518 220.448 518.448 220 519 220H549C549.552 220 550 220.448 550 221V227C550 227.552 549.552 228 549 228H519C518.448 228 518 227.552 518 227V221Z" fill="#F4F4F4" stroke="#4D4D4D" stroke-width="4"/>
<path d="M534 228V260" stroke="#4D4D4D" stroke-width="4"/>
<path fill-rule="evenodd" clip-rule="evenodd" d="M602 230H578V259H584.052C583.37 256.958 583 254.772 583 252.5C583 241.683 591.378 232.822 602 232.054V230Z" fill="#D2D2D2"/>
<path d="M578 244H602V260H578V244Z" stroke="#4D4D4D" stroke-width="4"/>
<path d="M578 228H602V244H578V228Z" stroke="#4D4D4D" stroke-width="4"/>
<path d="M574 221C574 220.448 574.448 220 575 220H605C605.552 220 606 220.448 606 221V227C606 227.552 605.552 228 605 228H575C574.448 228 574 227.552 574 227V221Z" fill="#F4F4F4" stroke="#4D4D4D" stroke-width="4"/>
<path d="M590 228V260" stroke="#4D4D4D" stroke-width="4"/>
<path fill-rule="evenodd" clip-rule="evenodd" d="M490 230H466V259H472.052C471.37 256.958 471 254.772 471 252.5C471 241.683 479.378 232.822 490 232.054V230Z" fill="#D2D2D2"/>
<path d="M466 244H490V260H466V244Z" stroke="#4D4D4D" stroke-width="4"/>
<path d="M466 228H490V244H466V228Z" stroke="#4D4D4D" stroke-width="4"/>
<path d="M462 221C462 220.448 462.448 220 463 220H493C493.552 220 494 220.448 494 221V227C494 227.552 493.552 228 493 228H463C462.448 228 462 227.552 462 227V221Z" fill="#F4F4F4" stroke="#4D4D4D" stroke-width="4"/>
<path d="M478 228V260" stroke="#4D4D4D" stroke-width="4"/>
<rect x="442" y="292" width="184" height="104" fill="#F4F4F4"/>
<path fill-rule="evenodd" clip-rule="evenodd" d="M626 292H442V387.313C466.249 338.283 521.821 304 586.5 304C600.141 304 613.377 305.525 626 308.392V292Z" fill="#D2D2D2"/>
<rect x="442" y="292" width="184" height="104" stroke="#4D4D4D" stroke-width="4"/>
<path d="M346.439 173.316C346.223 172.669 346.705 172 347.387 172H442V396H355C354.448 396 354 395.552 354 395V196L346.439 173.316Z" fill="#F4F4F4" stroke="#4D4D4D" stroke-width="4"/>
<path d="M721.561 173.316C721.777 172.669 721.295 172 720.613 172H626V396H713C713.552 396 714 395.552 714 395V196L721.561 173.316Z" fill="#F4F4F4" stroke="#4D4D4D" stroke-width="4"/>
<rect x="482" y="293" width="16" height="64" rx="1" fill="#F4F4F4"/>
<rect x="482" y="293" width="8" height="64" rx="1" fill="#D2D2D2"/>
<rect x="482" y="293" width="16" height="64" rx="1" stroke="#4D4D4D" stroke-width="4"/>
<rect x="570" y="293" width="16" height="64" rx="1" fill="#F4F4F4"/>
<rect x="570" y="293" width="8" height="64" rx="1" fill="#D2D2D2"/>
<rect x="570" y="293" width="16" height="64" rx="1" stroke="#4D4D4D" stroke-width="4"/>
<rect x="422" y="364" width="40" height="32" rx="1" fill="#F4F4F4" stroke="#4D4D4D" stroke-width="4"/>
<path fill-rule="evenodd" clip-rule="evenodd" d="M423 364C422.448 364 422 364.448 422 365V395C422 395.552 422.448 396 423 396H427.87C431.255 381.667 444.132 371 459.5 371C460.341 371 461.175 371.032 462 371.095V365C462 364.448 461.552 364 461 364H423Z" fill="#D2D2D2"/>
<rect x="422" y="364" width="40" height="32" rx="1" stroke="#4D4D4D" stroke-width="4"/>
<rect x="420" y="358" width="44" height="8" rx="1" fill="#F4F4F4" stroke="#4D4D4D" stroke-width="4"/>
<rect x="606" y="364" width="40" height="32" rx="1" fill="#F4F4F4" stroke="#4D4D4D" stroke-width="4"/>
<path fill-rule="evenodd" clip-rule="evenodd" d="M607 364C606.448 364 606 364.448 606 365V395C606 395.552 606.448 396 607 396H611.87C615.255 381.667 628.132 371 643.5 371C644.341 371 645.175 371.032 646 371.095V365C646 364.448 645.552 364 645 364H607Z" fill="#D2D2D2"/>
<rect x="606" y="364" width="40" height="32" rx="1" stroke="#4D4D4D" stroke-width="4"/>
<rect x="604" y="358" width="44" height="8" rx="1" fill="#F4F4F4" stroke="#4D4D4D" stroke-width="4"/>
<path d="M463.5 358H603.5" stroke="#4D4D4D" stroke-width="4"/>
<path d="M471.5 367H595.5" stroke="#4D4D4D" stroke-width="4" stroke-linecap="round"/>
<path d="M471.5 377H595.5" stroke="#4D4D4D" stroke-width="4" stroke-linecap="round"/>
<path d="M471.5 387H595.5" stroke="#4D4D4D" stroke-width="4" stroke-linecap="round"/>
<rect x="518" y="310" width="32" height="48" rx="1" fill="#F2463A" stroke="#4D4D4D" stroke-width="4"/>
<circle cx="442" cy="309" r="9" fill="#FFD081"/>
<circle cx="445" cy="306" r="4" fill="#FFEFB6"/>
<circle cx="442" cy="309" r="9" stroke="#4D4D4D" stroke-width="4"/>
<rect x="438" y="318" width="8" height="32" fill="#F4F4F4"/>
<rect x="438" y="319" width="4" height="32" fill="#D2D2D2"/>
<rect x="438" y="318" width="8" height="32" stroke="#4D4D4D" stroke-width="4"/>
<path d="M436 354C436 351.791 437.791 350 440 350H444C446.209 350 448 351.791 448 354V357C448 357.552 447.552 358 447 358H437C436.448 358 436 357.552 436 357V354Z" fill="#F4F4F4" stroke="#4D4D4D" stroke-width="4"/>
<circle cx="626" cy="309" r="9" fill="#FFD081"/>
<circle cx="629" cy="306" r="4" fill="#FFEFB6"/>
<circle cx="626" cy="309" r="9" stroke="#4D4D4D" stroke-width="4"/>
<rect x="622" y="318" width="8" height="32" fill="#F4F4F4"/>
<rect x="622" y="319" width="4" height="32" fill="#D2D2D2"/>
<rect x="622" y="318" width="8" height="32" stroke="#4D4D4D" stroke-width="4"/>
<path d="M620 354C620 351.791 621.791 350 624 350H628C630.209 350 632 351.791 632 354V357C632 357.552 631.552 358 631 358H621C620.448 358 620 357.552 620 357V354Z" fill="#F4F4F4" stroke="#4D4D4D" stroke-width="4"/>
<path fill-rule="evenodd" clip-rule="evenodd" d="M408 310H384V339H390.052C389.37 336.958 389 334.772 389 332.5C389 321.683 397.378 312.822 408 312.054V310Z" fill="#D2D2D2"/>
<path d="M384 324H408V339C408 339.552 407.552 340 407 340H385C384.448 340 384 339.552 384 339V324Z" stroke="#4D4D4D" stroke-width="4"/>
<path d="M384 308H408V324H384V308Z" stroke="#4D4D4D" stroke-width="4"/>
<path d="M380 301C380 300.448 380.448 300 381 300H411C411.552 300 412 300.448 412 301V307C412 307.552 411.552 308 411 308H381C380.448 308 380 307.552 380 307V301Z" fill="#F4F4F4" stroke="#4D4D4D" stroke-width="4"/>
<path fill-rule="evenodd" clip-rule="evenodd" d="M680 310H656V339H662.052C661.37 336.958 661 334.772 661 332.5C661 321.683 669.378 312.822 680 312.054V310Z" fill="#D2D2D2"/>
<path d="M656 324H680V339C680 339.552 679.552 340 679 340H657C656.448 340 656 339.552 656 339V324Z" stroke="#4D4D4D" stroke-width="4"/>
<path d="M656 308H680V324H656V308Z" stroke="#4D4D4D" stroke-width="4"/>
<path d="M652 301C652 300.448 652.448 300 653 300H683C683.552 300 684 300.448 684 301V307C684 307.552 683.552 308 683 308H653C652.448 308 652 307.552 652 307V301Z" fill="#F4F4F4" stroke="#4D4D4D" stroke-width="4"/>
<rect x="522" y="180" width="24" height="24" rx="1" fill="#48DEE2" stroke="#4D4D4D" stroke-width="4"/>
<path fill-rule="evenodd" clip-rule="evenodd" d="M527.712 180H545C545.552 180 546 180.448 546 181V198.288C544.583 198.75 543.071 199 541.5 199C533.492 199 527 192.508 527 184.5C527 182.929 527.25 181.417 527.712 180Z" fill="#88FCFF"/>
<rect x="522" y="180" width="24" height="24" rx="1" stroke="#4D4D4D" stroke-width="4"/>
<rect x="578" y="180" width="24" height="24" rx="1" fill="#48DEE2" stroke="#4D4D4D" stroke-width="4"/>
<path fill-rule="evenodd" clip-rule="evenodd" d="M583.712 180H601C601.552 180 602 180.448 602 181V198.288C600.583 198.75 599.071 199 597.5 199C589.492 199 583 192.508 583 184.5C583 182.929 583.25 181.417 583.712 180Z" fill="#88FCFF"/>
<rect x="578" y="180" width="24" height="24" rx="1" stroke="#4D4D4D" stroke-width="4"/>
<rect x="656" y="180" width="24" height="24" rx="1" fill="#48DEE2" stroke="#4D4D4D" stroke-width="4"/>
<path fill-rule="evenodd" clip-rule="evenodd" d="M661.712 180H679C679.552 180 680 180.448 680 181V198.288C678.583 198.75 677.071 199 675.5 199C667.492 199 661 192.508 661 184.5C661 182.929 661.25 181.417 661.712 180Z" fill="#88FCFF"/>
<rect x="656" y="180" width="24" height="24" rx="1" stroke="#4D4D4D" stroke-width="4"/>
<rect x="466" y="180" width="24" height="24" rx="1" fill="#48DEE2" stroke="#4D4D4D" stroke-width="4"/>
<path fill-rule="evenodd" clip-rule="evenodd" d="M471.712 180H489C489.552 180 490 180.448 490 181V198.288C488.583 198.75 487.071 199 485.5 199C477.492 199 471 192.508 471 184.5C471 182.929 471.25 181.417 471.712 180Z" fill="#88FCFF"/>
<rect x="466" y="180" width="24" height="24" rx="1" stroke="#4D4D4D" stroke-width="4"/>
<rect x="384" y="180" width="24" height="24" rx="1" fill="#48DEE2" stroke="#4D4D4D" stroke-width="4"/>
<path fill-rule="evenodd" clip-rule="evenodd" d="M389.712 180H407C407.552 180 408 180.448 408 181V198.288C406.583 198.75 405.071 199 403.5 199C395.492 199 389 192.508 389 184.5C389 182.929 389.25 181.417 389.712 180Z" fill="#88FCFF"/>
<rect x="384" y="180" width="24" height="24" rx="1" stroke="#4D4D4D" stroke-width="4"/>
<path d="M355 278H714" stroke="#4D4D4D" stroke-width="4"/>
<rect x="434" y="260" width="200" height="32" rx="1" fill="#F4F4F4" stroke="#4D4D4D" stroke-width="4"/>
<path fill-rule="evenodd" clip-rule="evenodd" d="M680 230H656V259H662.052C661.37 256.958 661 254.772 661 252.5C661 241.683 669.378 232.822 680 232.054V230Z" fill="#D2D2D2"/>
<path d="M656 244H680V259C680 259.552 679.552 260 679 260H657C656.448 260 656 259.552 656 259V244Z" stroke="#4D4D4D" stroke-width="4"/>
<path d="M656 228H680V244H656V228Z" stroke="#4D4D4D" stroke-width="4"/>
<path d="M652 221C652 220.448 652.448 220 653 220H683C683.552 220 684 220.448 684 221V227C684 227.552 683.552 228 683 228H653C652.448 228 652 227.552 652 227V221Z" fill="#F4F4F4" stroke="#4D4D4D" stroke-width="4"/>
<path d="M668 228V260" stroke="#4D4D4D" stroke-width="4"/>
<path fill-rule="evenodd" clip-rule="evenodd" d="M408 230H384V259H390.052C389.37 256.958 389 254.772 389 252.5C389 241.683 397.378 232.822 408 232.054V230Z" fill="#D2D2D2"/>
<path d="M384 244H408V259C408 259.552 407.552 260 407 260H385C384.448 260 384 259.552 384 259V244Z" stroke="#4D4D4D" stroke-width="4"/>
<path d="M384 228H408V244H384V228Z" stroke="#4D4D4D" stroke-width="4"/>
<path d="M380 221C380 220.448 380.448 220 381 220H411C411.552 220 412 220.448 412 221V227C412 227.552 411.552 228 411 228H381C380.448 228 380 227.552 380 227V221Z" fill="#F4F4F4" stroke="#4D4D4D" stroke-width="4"/>
<path d="M396 228V260" stroke="#4D4D4D" stroke-width="4"/>
<path d="M586 275H594M610 275H603M603 275V284M603 275H594M603 284H610M603 284H595M594 275V266" stroke="#4D4D4D" stroke-width="4" stroke-linecap="round"/>
<path d="M677 373H685M701 373H694M694 373V382M694 373H685M694 382H701M694 382H686M685 373V364" stroke="#4D4D4D" stroke-width="4" stroke-linecap="round"/>
<path d="M410 213H418M434 213H427M427 213V222M427 213H418M427 222H434M427 222H419M418 213V204" stroke="#4D4D4D" stroke-width="4" stroke-linecap="round"/>
<path fill-rule="evenodd" clip-rule="evenodd" d="M578 120V165.38C578 165.932 577.552 166.38 577 166.38H491C490.448 166.38 490 165.932 490 165.38V120V118.395C490 118.386 490.007 118.38 490.015 118.38C490.023 118.38 490.03 118.373 490.03 118.365C490.89 94.8222 510.247 76 534 76C557.753 76 577.11 94.8222 577.97 118.365C577.97 118.373 577.977 118.38 577.985 118.38C577.993 118.38 578 118.386 578 118.395V120Z" fill="#F4F4F4"/>
<path fill-rule="evenodd" clip-rule="evenodd" d="M534 76C510.247 76 490.89 94.8222 490.03 118.365C490.03 118.373 490.023 118.38 490.015 118.38C490.007 118.38 490 118.386 490 118.395V120V165.38C490 165.932 490.448 166.38 491 166.38H534V76Z" fill="#E9E9E9"/>
<path fill-rule="evenodd" clip-rule="evenodd" d="M503 88.7752C495.331 96.389 490.452 106.808 490.03 118.366C490.03 118.374 490.023 118.38 490.015 118.38C490.007 118.38 490 118.387 490 118.395V120V165.38C490 165.932 490.448 166.38 491 166.38H503V88.7752Z" fill="#D2D2D2"/>
<path d="M490.03 118.365L492.028 118.438L490.03 118.365ZM577.97 118.365L579.969 118.292L577.97 118.365ZM576 120V165.38H580V120H576ZM577 164.38H491V168.38H577V164.38ZM492 165.38V120H488V165.38H492ZM492 120V118.395H488V120H492ZM492.028 118.438C492.849 95.9666 511.327 78 534 78V74C509.167 74 488.93 93.6777 488.031 118.292L492.028 118.438ZM534 78C556.673 78 575.151 95.9666 575.972 118.438L579.969 118.292C579.07 93.6777 558.833 74 534 74V78ZM576 118.395V120H580V118.395H576ZM577.985 120.38C576.889 120.38 576 119.491 576 118.395H580C580 117.282 579.098 116.38 577.985 116.38V120.38ZM490.015 120.38C491.112 120.38 491.989 119.508 492.028 118.438L488.031 118.292C488.07 117.238 488.933 116.38 490.015 116.38V120.38ZM492 118.395C492 119.491 491.111 120.38 490.015 120.38V116.38C488.902 116.38 488 117.282 488 118.395H492ZM575.972 118.438C576.011 119.508 576.887 120.38 577.985 120.38V116.38C579.067 116.38 579.93 117.239 579.969 118.292L575.972 118.438ZM491 164.38C491.552 164.38 492 164.828 492 165.38H488C488 167.037 489.343 168.38 491 168.38V164.38ZM576 165.38C576 164.828 576.448 164.38 577 164.38V168.38C578.657 168.38 580 167.037 580 165.38H576Z" fill="#4D4D4D"/>
<rect x="526" y="94" width="16" height="24" rx="1" fill="#F4F4F4"/>
<path d="M504 95C504 94.4477 504.448 94 505 94H519C519.552 94 520 94.4477 520 95V116.382C520 117.125 519.218 117.609 518.553 117.276L504.553 110.276C504.214 110.107 504 109.761 504 109.382V95Z" fill="#F4F4F4"/>
<path d="M564 95C564 94.4477 563.552 94 563 94H549C548.448 94 548 94.4477 548 95V116.382C548 117.125 548.782 117.609 549.447 117.276L563.447 110.276C563.786 110.107 564 109.761 564 109.382V95Z" fill="#F4F4F4"/>
<path fill-rule="evenodd" clip-rule="evenodd" d="M527 94C526.448 94 526 94.4477 526 95V117C526 117.552 526.448 118 527 118H530.099C530.033 117.342 530 116.675 530 116C530 107.799 534.936 100.75 542 97.6642V95C542 94.4477 541.552 94 541 94H527Z" fill="#D2D2D2"/>
<path d="M564 95C564 94.4477 563.552 94 563 94H549C548.448 94 548 94.4477 548 95V116.382C548 117.125 548.782 117.609 549.447 117.276L563.447 110.276C563.786 110.107 564 109.761 564 109.382V95Z" fill="#F4F4F4"/>
<path fill-rule="evenodd" clip-rule="evenodd" d="M505 94C504.448 94 504 94.4477 504 95V109.382C504 109.761 504.214 110.107 504.553 110.276L507.267 111.633C507.092 110.783 507 109.902 507 109C507 101.82 512.82 96 520 96V95C520 94.4477 519.552 94 519 94H505Z" fill="#C4C4C4"/>
<path fill-rule="evenodd" clip-rule="evenodd" d="M548 96C547.448 96 547 96.4477 547 97V111.382C547 111.761 547.214 112.107 547.553 112.276L550.267 113.633C550.092 112.783 550 111.902 550 111C550 103.82 555.82 98 563 98V97C563 96.4477 562.552 96 562 96H548Z" fill="#C4C4C4"/>
<rect x="526" y="94" width="16" height="24" rx="1" stroke="#4D4D4D" stroke-width="4"/>
<path d="M504 95C504 94.4477 504.448 94 505 94H519C519.552 94 520 94.4477 520 95V116.382C520 117.125 519.218 117.609 518.553 117.276L504.553 110.276C504.214 110.107 504 109.761 504 109.382V95Z" stroke="#4D4D4D" stroke-width="4"/>
<path d="M564 95C564 94.4477 563.552 94 563 94H549C548.448 94 548 94.4477 548 95V116.382C548 117.125 548.782 117.609 549.447 117.276L563.447 110.276C563.786 110.107 564 109.761 564 109.382V95Z" stroke="#4D4D4D" stroke-width="4"/>
<path d="M534 74V2" stroke="#4D4D4D" stroke-width="4"/>
<path d="M534 3C534 2.44772 533.552 2 533 2H502.333C500.492 2 499 3.49238 499 5.33333C499 7.17428 497.508 8.66667 495.667 8.66667H479C478.448 8.66667 478 9.11438 478 9.66667V41C478 41.5523 478.448 42 479 42H509.667C511.508 42 513 40.5076 513 38.6667C513 36.8257 514.492 35.3333 516.333 35.3333H533C533.552 35.3333 534 34.8856 534 34.3333V3Z" fill="#F2463A"/>
<path d="M534 3C534 2.44772 533.552 2 533 2H502.333C500.492 2 499 3.49238 499 5.33333V5.33333C499 7.17428 497.508 8.66667 495.667 8.66667H479C478.448 8.66667 478 9.11438 478 9.66667V41C478 41.5523 478.448 42 479 42H509.667C511.508 42 513 40.5076 513 38.6667V38.6667C513 36.8257 514.492 35.3333 516.333 35.3333H533C533.552 35.3333 534 34.8856 534 34.3333V3Z" stroke="#4D4D4D" stroke-width="4"/>
<path d="M533.471 124.241C533.761 124.09 534.106 124.09 534.396 124.241L625.933 172H441.933L533.471 124.241Z" fill="#F4F4F4" stroke="#4D4D4D" stroke-width="4"/>
<path d="M532.441 137.051C532.735 136.894 533.088 136.894 533.382 137.051L577.391 160.518C578.309 161.007 577.961 162.4 576.92 162.4H488.904C487.863 162.4 487.514 161.007 488.433 160.518L532.441 137.051Z" fill="#F4F4F4" stroke="#4D4D4D" stroke-width="4"/>
<path d="M762.256 375.208C762.124 374.586 762.599 374 763.234 374H816.766C817.401 374 817.876 374.586 817.744 375.208L813.501 395.208C813.403 395.67 812.996 396 812.523 396H767.477C767.004 396 766.597 395.67 766.499 395.208L762.256 375.208Z" fill="#F4F4F4" stroke="#4D4D4D" stroke-width="4"/>
<path d="M758 375C758 374.448 758.448 374 759 374H821C821.552 374 822 374.448 822 375V381C822 381.552 821.552 382 821 382H759C758.448 382 758 381.552 758 381V375Z" fill="#F4F4F4" stroke="#4D4D4D" stroke-width="4"/>
<path d="M774.178 304.406L789.196 284.088C789.596 283.547 790.404 283.547 790.804 284.088L805.822 304.406C806.309 305.066 805.838 306 805.017 306H801.389C800.586 306 800.111 306.898 800.562 307.562L815.438 329.438C815.889 330.102 815.414 331 814.611 331H808.869C808.07 331 807.593 331.89 808.036 332.555L819.964 350.445C820.407 351.11 819.93 352 819.131 352H816.973C816.154 352 815.683 352.931 816.167 353.591L824.833 365.409C825.317 366.069 824.846 367 824.027 367H756.027C755.198 367 754.729 366.049 755.233 365.392L764.267 353.608C764.771 352.951 764.302 352 763.473 352H759.481C758.66 352 758.189 351.066 758.676 350.406L771.824 332.594C772.311 331.934 771.84 331 771.019 331H765.952C765.137 331 764.664 330.077 765.141 329.416L780.859 307.584C781.336 306.923 780.863 306 780.048 306H774.983C774.162 306 773.691 305.066 774.178 304.406Z" fill="#F4F4F4" stroke="#4D4D4D" stroke-width="4"/>
<path d="M781 325L783.313 329.241C783.708 329.965 784.76 329.927 785.102 329.176L787 325" stroke="#4D4D4D" stroke-width="4" stroke-linecap="round"/>
<path d="M796 341L798.313 345.241C798.708 345.965 799.76 345.927 800.102 345.176L802 341" stroke="#4D4D4D" stroke-width="4" stroke-linecap="round"/>
<path d="M775 356L777.313 360.241C777.708 360.965 778.76 360.927 779.102 360.176L781 356" stroke="#4D4D4D" stroke-width="4" stroke-linecap="round"/>
<path d="M790 299L792.313 303.241C792.708 303.965 793.76 303.927 794.102 303.176L796 299" stroke="#4D4D4D" stroke-width="4" stroke-linecap="round"/>
<path d="M790 366.5V374.5" stroke="#4D4D4D" stroke-width="4"/>
<path d="M250.256 375.208C250.124 374.586 250.599 374 251.234 374H304.766C305.401 374 305.876 374.586 305.744 375.208L301.501 395.208C301.403 395.67 300.996 396 300.523 396H255.477C255.004 396 254.597 395.67 254.499 395.208L250.256 375.208Z" fill="#F4F4F4" stroke="#4D4D4D" stroke-width="4"/>
<path d="M246 375C246 374.448 246.448 374 247 374H309C309.552 374 310 374.448 310 375V381C310 381.552 309.552 382 309 382H247C246.448 382 246 381.552 246 381V375Z" fill="#F4F4F4" stroke="#4D4D4D" stroke-width="4"/>
<path d="M262.178 304.406L277.196 284.088C277.596 283.547 278.404 283.547 278.804 284.088L293.822 304.406C294.309 305.066 293.838 306 293.017 306H289.389C288.586 306 288.111 306.898 288.562 307.562L303.438 329.438C303.889 330.102 303.414 331 302.611 331H296.869C296.07 331 295.593 331.89 296.036 332.555L307.964 350.445C308.407 351.11 307.93 352 307.131 352H304.973C304.154 352 303.683 352.931 304.167 353.591L312.833 365.409C313.317 366.069 312.846 367 312.027 367H244.027C243.198 367 242.729 366.049 243.233 365.392L252.267 353.608C252.771 352.951 252.302 352 251.473 352H247.481C246.66 352 246.189 351.066 246.676 350.406L259.824 332.594C260.311 331.934 259.84 331 259.019 331H253.952C253.137 331 252.664 330.077 253.141 329.416L268.859 307.584C269.336 306.923 268.863 306 268.048 306H262.983C262.162 306 261.691 305.066 262.178 304.406Z" fill="#F4F4F4" stroke="#4D4D4D" stroke-width="4"/>
<path d="M269 325L271.313 329.241C271.708 329.965 272.76 329.927 273.102 329.176L275 325" stroke="#4D4D4D" stroke-width="4" stroke-linecap="round"/>
<path d="M284 341L286.313 345.241C286.708 345.965 287.76 345.927 288.102 345.176L290 341" stroke="#4D4D4D" stroke-width="4" stroke-linecap="round"/>
<path d="M263 356L265.313 360.241C265.708 360.965 266.76 360.927 267.102 360.176L269 356" stroke="#4D4D4D" stroke-width="4" stroke-linecap="round"/>
<path d="M278 299L280.313 303.241C280.708 303.965 281.76 303.927 282.102 303.176L284 299" stroke="#4D4D4D" stroke-width="4" stroke-linecap="round"/>
<path d="M278 366.5V374.5" stroke="#4D4D4D" stroke-width="4"/>
<rect x="114" y="372" width="88" height="24" rx="1" fill="#F4F4F4" stroke="#4D4D4D" stroke-width="4"/>
<rect x="119" y="228" width="78" height="156" rx="8" fill="#F4F4F4" stroke="#4D4D4D" stroke-width="4"/>
<path fill-rule="evenodd" clip-rule="evenodd" d="M190 251.062V247C190 246.448 189.552 246 189 246H127C126.448 246 126 246.448 126 247V357C126 357.552 126.448 358 127 358H132.167C132.056 355.849 132 353.682 132 351.5C132 306.554 155.865 267.933 190 251.062Z" fill="#D2D2D2"/>
<rect x="126" y="246" width="64" height="112" rx="1" stroke="#4D4D4D" stroke-width="4"/>
<path d="M146 237.5H170" stroke="#4D4D4D" stroke-width="4" stroke-linecap="round"/>
<circle cx="158" cy="371" r="8" stroke="#4D4D4D" stroke-width="4"/>
<path d="M147 210C154.875 204.244 169.75 205.107 175 210" stroke="#F2463A" stroke-width="4" stroke-linecap="round"/>
<path d="M130 203C142.023 191.498 174.531 190.512 187 203" stroke="#F2463A" stroke-width="4" stroke-linecap="round"/>
<path d="M119 192C153.543 168.456 185.393 182.19 197 192" stroke="#F2463A" stroke-width="4" stroke-linecap="round"/>
<path d="M870 360C870 348.954 878.954 340 890 340H1010C1021.05 340 1030 348.954 1030 360V396H870V360Z" fill="#F4F4F4" stroke="#4D4D4D" stroke-width="4"/>
<path d="M893 297C893 285.954 901.954 277 913 277H986C997.046 277 1006 285.954 1006 297V340H893V297Z" fill="#F4F4F4" stroke="#4D4D4D" stroke-width="4"/>
<rect x="941.012" y="136.995" width="24" height="88" transform="rotate(60 941.012 136.995)" fill="#F4F4F4" stroke="#4D4D4D" stroke-width="4"/>
<path d="M891.102 179.774L904.959 171.774" stroke="#4D4D4D" stroke-width="4" stroke-linecap="round"/>
<rect x="776.715" y="70.7955" width="16.6903" height="70.7378" transform="rotate(-90 776.715 70.7955)" fill="#F4F4F4" stroke="#4D4D4D" stroke-width="4"/>
<path d="M833.016 91.6594C821.37 83.8351 817.775 68.3271 824.79 56.1764C831.805 44.0258 847.033 39.3855 859.632 45.5591L974.592 101.89C980.147 104.612 983.71 110.308 983.34 116.483C981.845 141.422 975.467 153.193 955.858 164.41C950.905 167.243 944.774 166.743 940.037 163.561L833.016 91.6594Z" fill="#F4F4F4"/>
<path fill-rule="evenodd" clip-rule="evenodd" d="M821.904 63.4717C819.453 74.0012 823.607 85.338 833.016 91.6593L940.037 163.561C944.774 166.743 950.905 167.243 955.858 164.41C964.546 159.44 970.637 154.362 974.856 148.077C910.286 121.381 872.569 100.573 821.904 63.4717Z" fill="#D2D2D2"/>
<path d="M833.016 91.6594C821.37 83.8351 817.775 68.3271 824.79 56.1764V56.1764C831.805 44.0258 847.033 39.3855 859.632 45.5591L974.592 101.89C980.147 104.612 983.71 110.308 983.34 116.483C981.845 141.422 975.467 153.193 955.858 164.41C950.905 167.243 944.774 166.743 940.037 163.561L833.016 91.6594Z" stroke="#4D4D4D" stroke-width="4"/>
<circle cx="957.139" cy="132.588" r="8" transform="rotate(-60 957.139 132.588)" fill="#F2463A" stroke="#4D4D4D" stroke-width="4"/>
<circle cx="842.824" cy="66.5882" r="8" transform="rotate(-60 842.824 66.5882)" fill="#F2463A" stroke="#4D4D4D" stroke-width="4"/>
<path d="M865.96 223.367C854.439 215.193 851.032 199.594 858.095 187.361C865.157 175.128 880.37 170.279 893.209 176.17L967.108 210.074C973.768 213.129 977.601 220.355 975.813 227.462C970.897 246.996 963.944 258.226 951.62 269.719C946.378 274.607 938.397 274.759 932.551 270.612L865.96 223.367Z" fill="#F4F4F4"/>
<path fill-rule="evenodd" clip-rule="evenodd" d="M855.592 193.131C852.254 204.162 856.189 216.435 865.96 223.367L932.551 270.612C938.397 274.759 946.378 274.607 951.62 269.719C956.484 265.183 960.511 260.688 963.907 255.707C923.073 239.26 897.849 223.825 855.592 193.131Z" fill="#D2D2D2"/>
<path d="M865.96 223.367C854.439 215.193 851.032 199.594 858.095 187.361V187.361C865.157 175.128 880.37 170.279 893.209 176.17L967.108 210.074C973.768 213.129 977.601 220.355 975.813 227.462C970.897 246.996 963.944 258.226 951.62 269.719C946.378 274.607 938.397 274.759 932.551 270.612L865.96 223.367Z" stroke="#4D4D4D" stroke-width="4"/>
<circle cx="877.44" cy="198.131" r="8" transform="rotate(-60 877.44 198.131)" fill="#F2463A" stroke="#4D4D4D" stroke-width="4"/>
<path d="M919.856 224L906 216" stroke="#4D4D4D" stroke-width="4" stroke-linecap="round"/>
<path d="M912 241C912 221.118 928.118 205 948 205C967.882 205 984 221.118 984 241V277H912V241Z" fill="#F4F4F4"/>
<path fill-rule="evenodd" clip-rule="evenodd" d="M930 209.816C919.24 216.041 912 227.675 912 241V277H930V209.816Z" fill="#D2D2D2"/>
<path d="M912 241C912 221.118 928.118 205 948 205V205C967.882 205 984 221.118 984 241V277H912V241Z" stroke="#4D4D4D" stroke-width="4"/>
<path fill-rule="evenodd" clip-rule="evenodd" d="M739.943 170.073C741.448 171.578 743.867 171.641 745.449 170.217L771.043 147.168C772.396 146.58 773.364 145.264 773.441 143.7L775.064 110.892C775.177 108.607 773.354 106.691 771.067 106.69L763.153 106.686C760.865 106.685 759.045 108.599 759.16 110.883L760.348 134.379L736.307 161.075C734.883 162.656 734.946 165.076 736.45 166.58L739.943 170.073Z" fill="#D2D2D2"/>
<path fill-rule="evenodd" clip-rule="evenodd" d="M738.448 168.578L765.629 141.396C766.854 140.762 767.712 139.512 767.784 138.043L769.335 106.689L763.153 106.686C760.865 106.685 759.045 108.599 759.16 110.883L760.348 134.379L736.307 161.075C734.883 162.656 734.946 165.076 736.45 166.58L738.448 168.578Z" fill="#F4F4F4"/>
<path d="M745.449 170.217L746.787 171.703L746.787 171.703L745.449 170.217ZM771.043 147.168L770.246 145.334L769.947 145.464L769.705 145.682L771.043 147.168ZM773.441 143.7L771.444 143.602L771.444 143.602L773.441 143.7ZM775.064 110.892L773.066 110.793L773.066 110.793L775.064 110.892ZM771.067 106.69L771.068 104.69L771.068 104.69L771.067 106.69ZM763.153 106.686L763.152 108.686L763.153 106.686ZM759.16 110.883L757.163 110.984L759.16 110.883ZM760.348 134.379L761.834 135.717L762.387 135.103L762.345 134.278L760.348 134.379ZM736.307 161.075L734.82 159.737L734.82 159.737L736.307 161.075ZM744.11 168.731C743.32 169.443 742.11 169.411 741.358 168.659L738.529 171.487C740.786 173.744 744.415 173.839 746.787 171.703L744.11 168.731ZM769.705 145.682L744.11 168.731L746.787 171.703L772.382 148.655L769.705 145.682ZM771.444 143.602C771.405 144.38 770.925 145.039 770.246 145.334L771.841 149.002C773.868 148.121 775.323 146.147 775.439 143.799L771.444 143.602ZM773.066 110.793L771.444 143.602L775.439 143.799L777.061 110.991L773.066 110.793ZM771.065 108.69C772.21 108.691 773.123 109.65 773.066 110.793L777.061 110.991C777.231 107.565 774.498 104.692 771.068 104.69L771.065 108.69ZM763.152 108.686L771.065 108.69L771.068 104.69L763.154 104.686L763.152 108.686ZM761.158 110.782C761.1 109.641 762.009 108.685 763.152 108.686L763.154 104.686C759.722 104.684 756.989 107.556 757.163 110.984L761.158 110.782ZM762.345 134.278L761.158 110.782L757.163 110.984L758.35 134.479L762.345 134.278ZM737.793 162.414L761.834 135.717L758.862 133.04L734.82 159.737L737.793 162.414ZM737.865 165.166C737.112 164.414 737.081 163.204 737.793 162.414L734.82 159.737C732.684 162.109 732.779 165.738 735.036 167.995L737.865 165.166ZM741.358 168.659L737.865 165.166L735.036 167.995L738.529 171.487L741.358 168.659Z" fill="#4D4D4D"/>
<path d="M772.801 146.29L760.388 133.876" stroke="#4D4D4D" stroke-width="4"/>
<path fill-rule="evenodd" clip-rule="evenodd" d="M664.167 94.2965C662.662 92.7918 662.599 90.3726 664.023 88.7913L687.072 63.1965C687.66 61.8436 688.976 60.8758 690.54 60.7985L723.348 59.176C725.632 59.063 727.548 60.8857 727.55 63.1733L727.554 71.087C727.555 73.3746 725.641 75.1952 723.356 75.0797L699.861 73.8921L673.165 97.9333C671.583 99.3573 669.164 99.294 667.659 97.7893L664.167 94.2965Z" fill="#D2D2D2"/>
<path fill-rule="evenodd" clip-rule="evenodd" d="M664.023 88.7913C662.599 90.3726 662.662 92.7918 664.167 94.2965L667.076 97.2064L694.258 70.0248C694.892 68.8001 696.142 67.9422 697.611 67.8696L727.551 66.3889L727.55 63.1733C727.548 60.8857 725.632 59.063 723.348 59.176L690.54 60.7985C688.976 60.8758 687.66 61.8436 687.072 63.1965L664.023 88.7913Z" fill="#F4F4F4"/>
<path d="M664.023 88.7913L662.536 87.453L664.023 88.7913ZM664.167 94.2965L665.581 92.8823L664.167 94.2965ZM687.072 63.1965L688.906 63.9941L688.776 64.2928L688.558 64.5348L687.072 63.1965ZM690.54 60.7985L690.638 62.7961L690.638 62.7961L690.54 60.7985ZM723.348 59.176L723.447 61.1736L723.447 61.1736L723.348 59.176ZM727.55 63.1733L729.55 63.1722L729.55 63.1722L727.55 63.1733ZM727.554 71.087L725.554 71.0881L727.554 71.087ZM723.356 75.0797L723.255 77.0771L723.356 75.0797ZM699.861 73.8921L698.523 72.4059L699.137 71.8529L699.962 71.8946L699.861 73.8921ZM673.165 97.9333L674.503 99.4195L674.503 99.4195L673.165 97.9333ZM667.659 97.7893L666.245 99.2036L667.659 97.7893ZM665.509 90.1297C664.797 90.9203 664.828 92.13 665.581 92.8823L662.752 95.7107C660.495 93.4537 660.4 89.8248 662.536 87.453L665.509 90.1297ZM688.558 64.5348L665.509 90.1297L662.536 87.453L685.585 61.8581L688.558 64.5348ZM690.638 62.7961C689.86 62.8346 689.201 63.3151 688.906 63.9941L685.237 62.3988C686.119 60.372 688.093 58.9171 690.441 58.801L690.638 62.7961ZM723.447 61.1736L690.638 62.7961L690.441 58.801L723.249 57.1784L723.447 61.1736ZM725.55 63.1744C725.549 62.0296 724.59 61.117 723.447 61.1736L723.249 57.1784C726.675 57.009 729.548 59.7418 729.55 63.1722L725.55 63.1744ZM725.554 71.0881L725.55 63.1744L729.55 63.1722L729.554 71.0859L725.554 71.0881ZM723.457 73.0822C724.599 73.1399 725.555 72.2309 725.554 71.0881L729.554 71.0859C729.556 74.5182 726.683 77.2504 723.255 77.0771L723.457 73.0822ZM699.962 71.8946L723.457 73.0822L723.255 77.0771L699.76 75.8895L699.962 71.8946ZM671.826 96.4471L698.523 72.4059L701.2 75.3783L674.503 99.4195L671.826 96.4471ZM669.074 96.3751C669.826 97.1275 671.036 97.1591 671.826 96.4471L674.503 99.4195C672.131 101.555 668.502 101.461 666.245 99.2036L669.074 96.3751ZM665.581 92.8823L669.074 96.3751L666.245 99.2036L662.752 95.7107L665.581 92.8823Z" fill="#4D4D4D"/>
<path d="M687.95 61.4384L700.364 73.8523" stroke="#4D4D4D" stroke-width="4"/>
<rect x="790.299" y="106.165" width="88" height="16" rx="8" transform="rotate(-135 790.299 106.165)" fill="#F2463A"/>
<rect x="774.886" y="90.4649" width="66" height="16" rx="8" transform="rotate(-135 774.886 90.4649)" fill="#F56F65"/>
<rect x="790.299" y="106.165" width="88" height="16" rx="8" transform="rotate(-135 790.299 106.165)" stroke="#4D4D4D" stroke-width="4"/>
<path fill-rule="evenodd" clip-rule="evenodd" d="M730.902 103.337C715.281 87.7158 715.281 62.3892 730.902 46.7682L787.47 103.337C771.849 118.958 746.523 118.958 730.902 103.337ZM798.245 91.4843C798.543 91.7818 799.025 91.7818 799.323 91.4843C805.274 85.5335 805.274 75.8852 799.323 69.9344L764.304 34.9157C758.353 28.9649 748.705 28.9649 742.754 34.9157C742.457 35.2133 742.457 35.6957 742.754 35.9932L798.245 91.4843Z" fill="#F4F4F4"/>
<path fill-rule="evenodd" clip-rule="evenodd" d="M720.076 83.4669C721.636 90.7485 725.244 97.6792 730.902 103.337C746.523 118.958 771.849 118.958 787.47 103.337L777.911 93.7771C760.5 103.884 737.822 101.484 722.914 86.5758C721.911 85.5733 720.966 84.5357 720.076 83.4669ZM790.157 83.3962C793.813 78.9844 796.508 74.0443 798.242 68.8536L799.323 69.9344C805.274 75.8852 805.274 85.5335 799.323 91.4843C799.025 91.7818 798.543 91.7818 798.245 91.4843L790.157 83.3962Z" fill="#D2D2D2"/>
<path d="M730.902 46.7682L732.316 45.354L730.902 43.9398L729.488 45.354L730.902 46.7682ZM787.47 103.337L788.884 104.751L790.299 103.337L788.884 101.923L787.47 103.337ZM729.488 45.354C713.085 61.756 713.085 88.3489 729.488 104.751L732.316 101.923C717.476 87.0826 717.476 63.0223 732.316 48.1824L729.488 45.354ZM788.884 101.923L732.316 45.354L729.488 48.1824L786.056 104.751L788.884 101.923ZM729.488 104.751C745.89 121.153 772.482 121.153 788.884 104.751L786.056 101.923C771.216 116.762 747.156 116.762 732.316 101.923L729.488 104.751ZM797.909 90.0701C798.392 89.5866 799.176 89.5866 799.659 90.0701L796.831 92.8985C797.91 93.9771 799.658 93.9771 800.737 92.8985L797.909 90.0701ZM797.909 71.3486C803.078 76.5184 803.078 84.9003 797.909 90.0701L800.737 92.8985C807.469 86.1666 807.469 75.2521 800.737 68.5202L797.909 71.3486ZM762.89 36.33L797.909 71.3486L800.737 68.5202L765.718 33.5015L762.89 36.33ZM744.168 36.33C749.338 31.1602 757.72 31.1602 762.89 36.33L765.718 33.5015C758.986 26.7696 748.072 26.7696 741.34 33.5015L744.168 36.33ZM744.168 34.579C744.652 35.0625 744.652 35.8465 744.168 36.33L741.34 33.5015C740.261 34.5801 740.261 36.3288 741.34 37.4075L744.168 34.579ZM799.659 90.0701L744.168 34.579L741.34 37.4075L796.831 92.8985L799.659 90.0701Z" fill="#4D4D4D"/>
<path d="M779.129 108.85L767.815 97.536" stroke="#4D4D4D" stroke-width="4" stroke-linecap="round"/>
<path d="M740.945 45.2101L735.288 39.5532" stroke="#4D4D4D" stroke-width="4" stroke-linecap="round"/>
<path d="M700.493 142.402C698.919 143.881 696.454 143.842 694.926 142.315L691.924 139.312C690.396 137.784 690.358 135.32 691.837 133.745L730.197 92.9096C731.743 91.2638 734.345 91.2232 735.941 92.8199L741.419 98.2972C743.015 99.894 742.975 102.495 741.329 104.041L700.493 142.402Z" fill="#F4F4F4"/>
<path fill-rule="evenodd" clip-rule="evenodd" d="M694.132 141.521L694.926 142.315C696.454 143.842 698.919 143.881 700.493 142.402L741.329 104.041C742.975 102.495 743.015 99.894 741.419 98.2972L739.387 96.2657L694.132 141.521Z" fill="#BCBCBC"/>
<path d="M700.493 142.402C698.919 143.881 696.454 143.842 694.926 142.315L691.924 139.312C690.396 137.784 690.358 135.32 691.837 133.745L730.197 92.9096C731.743 91.2638 734.345 91.2232 735.941 92.8199L741.419 98.2972C743.015 99.894 742.975 102.495 741.329 104.041L700.493 142.402Z" stroke="#4D4D4D" stroke-width="4"/>
<circle cx="948" cy="229" r="8" fill="#F2463A" stroke="#4D4D4D" stroke-width="4"/>
</svg>
