<svg width="920" height="398" viewBox="0 0 920 398" fill="none" xmlns="http://www.w3.org/2000/svg">
<path d="M226.857 28H181.143L140 100V396H268V100L226.857 28Z" fill="#F4F4F4"/>
<path fill-rule="evenodd" clip-rule="evenodd" d="M173 395.5V43.2701L141 99.8889V395.5H173Z" fill="#D2D2D2"/>
<path d="M227.145 28.5039C226.967 28.1923 226.636 28 226.277 28H181.723C181.364 28 181.033 28.1923 180.855 28.5039L140.132 99.7694C140.045 99.9205 140 100.092 140 100.266V395C140 395.552 140.448 396 141 396H267C267.552 396 268 395.552 268 395V100.266C268 100.092 267.955 99.9205 267.868 99.7694L227.145 28.5039Z" stroke="#4D4D4D" stroke-width="4"/>
<rect x="148" y="102" width="16" height="16" rx="1" fill="#48DEE2" stroke="#4D4D4D" stroke-width="4"/>
<path fill-rule="evenodd" clip-rule="evenodd" d="M151.808 102H163C163.552 102 164 102.448 164 103V114.192C163.056 114.5 162.047 114.667 161 114.667C155.661 114.667 151.333 110.339 151.333 105C151.333 103.953 151.5 102.944 151.808 102Z" fill="#88FCFF"/>
<rect x="148" y="102" width="16" height="16" rx="1" stroke="#4D4D4D" stroke-width="4"/>
<rect x="244" y="102" width="16" height="16" rx="1" fill="#48DEE2" stroke="#4D4D4D" stroke-width="4"/>
<path fill-rule="evenodd" clip-rule="evenodd" d="M247.808 102H259C259.552 102 260 102.448 260 103V114.192C259.056 114.5 258.047 114.667 257 114.667C251.661 114.667 247.333 110.339 247.333 105C247.333 103.953 247.5 102.944 247.808 102Z" fill="#88FCFF"/>
<rect x="244" y="102" width="16" height="16" rx="1" stroke="#4D4D4D" stroke-width="4"/>
<rect x="221" y="126" width="16" height="16" rx="1" fill="#48DEE2" stroke="#4D4D4D" stroke-width="4"/>
<path fill-rule="evenodd" clip-rule="evenodd" d="M224.808 126H236C236.552 126 237 126.448 237 127V138.192C236.056 138.5 235.047 138.667 234 138.667C228.661 138.667 224.333 134.339 224.333 129C224.333 127.953 224.5 126.944 224.808 126Z" fill="#88FCFF"/>
<rect x="221" y="126" width="16" height="16" rx="1" stroke="#4D4D4D" stroke-width="4"/>
<rect x="173" y="126" width="16" height="16" rx="1" fill="#48DEE2" stroke="#4D4D4D" stroke-width="4"/>
<path fill-rule="evenodd" clip-rule="evenodd" d="M176.808 126H188C188.552 126 189 126.448 189 127V138.192C188.056 138.5 187.047 138.667 186 138.667C180.661 138.667 176.333 134.339 176.333 129C176.333 127.953 176.5 126.944 176.808 126Z" fill="#88FCFF"/>
<rect x="173" y="126" width="16" height="16" rx="1" stroke="#4D4D4D" stroke-width="4"/>
<rect x="197" y="150" width="16" height="16" rx="1" fill="#48DEE2" stroke="#4D4D4D" stroke-width="4"/>
<path fill-rule="evenodd" clip-rule="evenodd" d="M200.808 150H212C212.552 150 213 150.448 213 151V162.192C212.056 162.5 211.047 162.667 210 162.667C204.661 162.667 200.333 158.339 200.333 153C200.333 151.953 200.5 150.944 200.808 150Z" fill="#88FCFF"/>
<rect x="197" y="150" width="16" height="16" rx="1" stroke="#4D4D4D" stroke-width="4"/>
<path d="M153 131V138C153 138.552 153.448 139 154 139H161" stroke="#4D4D4D" stroke-width="4" stroke-linecap="round"/>
<path d="M153 155V162C153 162.552 153.448 163 154 163H161" stroke="#4D4D4D" stroke-width="4" stroke-linecap="round"/>
<path d="M177 155V162C177 162.552 177.448 163 178 163H185" stroke="#4D4D4D" stroke-width="4" stroke-linecap="round"/>
<path d="M248 131V138C248 138.552 248.448 139 249 139H256" stroke="#4D4D4D" stroke-width="4" stroke-linecap="round"/>
<path d="M224 155V162C224 162.552 224.448 163 225 163H232" stroke="#4D4D4D" stroke-width="4" stroke-linecap="round"/>
<path d="M248 155V162C248 162.552 248.448 163 249 163H256" stroke="#4D4D4D" stroke-width="4" stroke-linecap="round"/>
<path d="M153 179V186C153 186.552 153.448 187 154 187H161" stroke="#4D4D4D" stroke-width="4" stroke-linecap="round"/>
<path d="M177 179V186C177 186.552 177.448 187 178 187H185" stroke="#4D4D4D" stroke-width="4" stroke-linecap="round"/>
<path d="M153 203V210C153 210.552 153.448 211 154 211H161" stroke="#4D4D4D" stroke-width="4" stroke-linecap="round"/>
<path d="M177 203V210C177 210.552 177.448 211 178 211H185" stroke="#4D4D4D" stroke-width="4" stroke-linecap="round"/>
<path d="M153 227V234C153 234.552 153.448 235 154 235H161" stroke="#4D4D4D" stroke-width="4" stroke-linecap="round"/>
<path d="M177 227V234C177 234.552 177.448 235 178 235H185" stroke="#4D4D4D" stroke-width="4" stroke-linecap="round"/>
<path d="M153 251V258C153 258.552 153.448 259 154 259H161" stroke="#4D4D4D" stroke-width="4" stroke-linecap="round"/>
<path d="M177 251V258C177 258.552 177.448 259 178 259H185" stroke="#4D4D4D" stroke-width="4" stroke-linecap="round"/>
<path d="M153 275V282C153 282.552 153.448 283 154 283H161" stroke="#4D4D4D" stroke-width="4" stroke-linecap="round"/>
<path d="M177 275V282C177 282.552 177.448 283 178 283H185" stroke="#4D4D4D" stroke-width="4" stroke-linecap="round"/>
<path d="M153 299V306C153 306.552 153.448 307 154 307H161" stroke="#4D4D4D" stroke-width="4" stroke-linecap="round"/>
<path d="M177 299V306C177 306.552 177.448 307 178 307H185" stroke="#4D4D4D" stroke-width="4" stroke-linecap="round"/>
<path d="M153 323V330C153 330.552 153.448 331 154 331H161" stroke="#4D4D4D" stroke-width="4" stroke-linecap="round"/>
<path d="M177 323V330C177 330.552 177.448 331 178 331H185" stroke="#4D4D4D" stroke-width="4" stroke-linecap="round"/>
<path d="M153 347V354C153 354.552 153.448 355 154 355H161" stroke="#4D4D4D" stroke-width="4" stroke-linecap="round"/>
<path d="M177 347V354C177 354.552 177.448 355 178 355H185" stroke="#4D4D4D" stroke-width="4" stroke-linecap="round"/>
<path d="M224 179V186C224 186.552 224.448 187 225 187H232" stroke="#4D4D4D" stroke-width="4" stroke-linecap="round"/>
<path d="M248 179V186C248 186.552 248.448 187 249 187H256" stroke="#4D4D4D" stroke-width="4" stroke-linecap="round"/>
<path d="M224 203V210C224 210.552 224.448 211 225 211H232" stroke="#4D4D4D" stroke-width="4" stroke-linecap="round"/>
<path d="M248 203V210C248 210.552 248.448 211 249 211H256" stroke="#4D4D4D" stroke-width="4" stroke-linecap="round"/>
<path d="M224 227V234C224 234.552 224.448 235 225 235H232" stroke="#4D4D4D" stroke-width="4" stroke-linecap="round"/>
<path d="M248 227V234C248 234.552 248.448 235 249 235H256" stroke="#4D4D4D" stroke-width="4" stroke-linecap="round"/>
<path d="M224 251V258C224 258.552 224.448 259 225 259H232" stroke="#4D4D4D" stroke-width="4" stroke-linecap="round"/>
<path d="M248 251V258C248 258.552 248.448 259 249 259H256" stroke="#4D4D4D" stroke-width="4" stroke-linecap="round"/>
<path d="M224 275V282C224 282.552 224.448 283 225 283H232" stroke="#4D4D4D" stroke-width="4" stroke-linecap="round"/>
<path d="M248 275V282C248 282.552 248.448 283 249 283H256" stroke="#4D4D4D" stroke-width="4" stroke-linecap="round"/>
<path d="M224 299V306C224 306.552 224.448 307 225 307H232" stroke="#4D4D4D" stroke-width="4" stroke-linecap="round"/>
<path d="M248 299V306C248 306.552 248.448 307 249 307H256" stroke="#4D4D4D" stroke-width="4" stroke-linecap="round"/>
<path d="M224 323V330C224 330.552 224.448 331 225 331H232" stroke="#4D4D4D" stroke-width="4" stroke-linecap="round"/>
<path d="M248 323V330C248 330.552 248.448 331 249 331H256" stroke="#4D4D4D" stroke-width="4" stroke-linecap="round"/>
<path d="M224 347V354C224 354.552 224.448 355 225 355H232" stroke="#4D4D4D" stroke-width="4" stroke-linecap="round"/>
<path d="M248 347V354C248 354.552 248.448 355 249 355H256" stroke="#4D4D4D" stroke-width="4" stroke-linecap="round"/>
<path d="M153 371V378C153 378.552 153.448 379 154 379H161" stroke="#4D4D4D" stroke-width="4" stroke-linecap="round"/>
<path d="M177 371V378C177 378.552 177.448 379 178 379H185" stroke="#4D4D4D" stroke-width="4" stroke-linecap="round"/>
<path d="M224 371V378C224 378.552 224.448 379 225 379H232" stroke="#4D4D4D" stroke-width="4" stroke-linecap="round"/>
<path d="M248 371V378C248 378.552 248.448 379 249 379H256" stroke="#4D4D4D" stroke-width="4" stroke-linecap="round"/>
<path d="M200 38V142" stroke="#4D4D4D" stroke-width="4" stroke-linecap="round"/>
<path d="M208 38V142" stroke="#4D4D4D" stroke-width="4" stroke-linecap="round"/>
<path d="M200 174V374" stroke="#4D4D4D" stroke-width="4" stroke-linecap="round"/>
<path d="M208 174V374" stroke="#4D4D4D" stroke-width="4" stroke-linecap="round"/>
<rect x="330" y="172" width="184" height="88" fill="#F4F4F4" stroke="#4D4D4D" stroke-width="4"/>
<path fill-rule="evenodd" clip-rule="evenodd" d="M434 230H410V259H416.052C415.37 256.958 415 254.772 415 252.5C415 241.683 423.378 232.822 434 232.054V230Z" fill="#D2D2D2"/>
<path d="M410 244H434V260H410V244Z" stroke="#4D4D4D" stroke-width="4"/>
<path d="M410 228H434V244H410V228Z" stroke="#4D4D4D" stroke-width="4"/>
<path d="M406 221C406 220.448 406.448 220 407 220H437C437.552 220 438 220.448 438 221V227C438 227.552 437.552 228 437 228H407C406.448 228 406 227.552 406 227V221Z" fill="#F4F4F4" stroke="#4D4D4D" stroke-width="4"/>
<path d="M422 228V260" stroke="#4D4D4D" stroke-width="4"/>
<path fill-rule="evenodd" clip-rule="evenodd" d="M490 230H466V259H472.052C471.37 256.958 471 254.772 471 252.5C471 241.683 479.378 232.822 490 232.054V230Z" fill="#D2D2D2"/>
<path d="M466 244H490V260H466V244Z" stroke="#4D4D4D" stroke-width="4"/>
<path d="M466 228H490V244H466V228Z" stroke="#4D4D4D" stroke-width="4"/>
<path d="M462 221C462 220.448 462.448 220 463 220H493C493.552 220 494 220.448 494 221V227C494 227.552 493.552 228 493 228H463C462.448 228 462 227.552 462 227V221Z" fill="#F4F4F4" stroke="#4D4D4D" stroke-width="4"/>
<path d="M478 228V260" stroke="#4D4D4D" stroke-width="4"/>
<path fill-rule="evenodd" clip-rule="evenodd" d="M378 230H354V259H360.052C359.37 256.958 359 254.772 359 252.5C359 241.683 367.378 232.822 378 232.054V230Z" fill="#D2D2D2"/>
<path d="M354 244H378V260H354V244Z" stroke="#4D4D4D" stroke-width="4"/>
<path d="M354 228H378V244H354V228Z" stroke="#4D4D4D" stroke-width="4"/>
<path d="M350 221C350 220.448 350.448 220 351 220H381C381.552 220 382 220.448 382 221V227C382 227.552 381.552 228 381 228H351C350.448 228 350 227.552 350 227V221Z" fill="#F4F4F4" stroke="#4D4D4D" stroke-width="4"/>
<path d="M366 228V260" stroke="#4D4D4D" stroke-width="4"/>
<rect x="330" y="292" width="184" height="104" fill="#F4F4F4"/>
<path fill-rule="evenodd" clip-rule="evenodd" d="M514 292H330V387.313C354.249 338.283 409.821 304 474.5 304C488.141 304 501.377 305.525 514 308.392V292Z" fill="#D2D2D2"/>
<rect x="330" y="292" width="184" height="104" stroke="#4D4D4D" stroke-width="4"/>
<path d="M234.439 173.316C234.223 172.669 234.705 172 235.387 172H330V396H243C242.448 396 242 395.552 242 395V196L234.439 173.316Z" fill="#F4F4F4" stroke="#4D4D4D" stroke-width="4"/>
<path d="M609.561 173.316C609.777 172.669 609.295 172 608.613 172H514V396H601C601.552 396 602 395.552 602 395V196L609.561 173.316Z" fill="#F4F4F4" stroke="#4D4D4D" stroke-width="4"/>
<rect x="370" y="293" width="16" height="64" rx="1" fill="#F4F4F4"/>
<rect x="370" y="293" width="8" height="64" rx="1" fill="#D2D2D2"/>
<rect x="370" y="293" width="16" height="64" rx="1" stroke="#4D4D4D" stroke-width="4"/>
<rect x="458" y="293" width="16" height="64" rx="1" fill="#F4F4F4"/>
<rect x="458" y="293" width="8" height="64" rx="1" fill="#D2D2D2"/>
<rect x="458" y="293" width="16" height="64" rx="1" stroke="#4D4D4D" stroke-width="4"/>
<rect x="310" y="364" width="40" height="32" rx="1" fill="#F4F4F4" stroke="#4D4D4D" stroke-width="4"/>
<path fill-rule="evenodd" clip-rule="evenodd" d="M311 364C310.448 364 310 364.448 310 365V395C310 395.552 310.448 396 311 396H315.87C319.255 381.667 332.132 371 347.5 371C348.341 371 349.175 371.032 350 371.095V365C350 364.448 349.552 364 349 364H311Z" fill="#D2D2D2"/>
<rect x="310" y="364" width="40" height="32" rx="1" stroke="#4D4D4D" stroke-width="4"/>
<rect x="308" y="358" width="44" height="8" rx="1" fill="#F4F4F4" stroke="#4D4D4D" stroke-width="4"/>
<rect x="494" y="364" width="40" height="32" rx="1" fill="#F4F4F4" stroke="#4D4D4D" stroke-width="4"/>
<path fill-rule="evenodd" clip-rule="evenodd" d="M495 364C494.448 364 494 364.448 494 365V395C494 395.552 494.448 396 495 396H499.87C503.255 381.667 516.132 371 531.5 371C532.341 371 533.175 371.032 534 371.095V365C534 364.448 533.552 364 533 364H495Z" fill="#D2D2D2"/>
<rect x="494" y="364" width="40" height="32" rx="1" stroke="#4D4D4D" stroke-width="4"/>
<rect x="492" y="358" width="44" height="8" rx="1" fill="#F4F4F4" stroke="#4D4D4D" stroke-width="4"/>
<path d="M351.5 358H491.5" stroke="#4D4D4D" stroke-width="4"/>
<path d="M359.5 367H483.5" stroke="#4D4D4D" stroke-width="4" stroke-linecap="round"/>
<path d="M359.5 377H483.5" stroke="#4D4D4D" stroke-width="4" stroke-linecap="round"/>
<path d="M359.5 387H483.5" stroke="#4D4D4D" stroke-width="4" stroke-linecap="round"/>
<rect x="406" y="310" width="32" height="48" rx="1" fill="#F2463A" stroke="#4D4D4D" stroke-width="4"/>
<circle cx="330" cy="309" r="9" fill="#FFD081"/>
<circle cx="333" cy="306" r="4" fill="#FFEFB6"/>
<circle cx="330" cy="309" r="9" stroke="#4D4D4D" stroke-width="4"/>
<rect x="326" y="318" width="8" height="32" fill="#F4F4F4"/>
<rect x="326" y="319" width="4" height="32" fill="#D2D2D2"/>
<rect x="326" y="318" width="8" height="32" stroke="#4D4D4D" stroke-width="4"/>
<path d="M324 354C324 351.791 325.791 350 328 350H332C334.209 350 336 351.791 336 354V357C336 357.552 335.552 358 335 358H325C324.448 358 324 357.552 324 357V354Z" fill="#F4F4F4" stroke="#4D4D4D" stroke-width="4"/>
<circle cx="514" cy="309" r="9" fill="#FFD081"/>
<circle cx="517" cy="306" r="4" fill="#FFEFB6"/>
<circle cx="514" cy="309" r="9" stroke="#4D4D4D" stroke-width="4"/>
<rect x="510" y="318" width="8" height="32" fill="#F4F4F4"/>
<rect x="510" y="319" width="4" height="32" fill="#D2D2D2"/>
<rect x="510" y="318" width="8" height="32" stroke="#4D4D4D" stroke-width="4"/>
<path d="M508 354C508 351.791 509.791 350 512 350H516C518.209 350 520 351.791 520 354V357C520 357.552 519.552 358 519 358H509C508.448 358 508 357.552 508 357V354Z" fill="#F4F4F4" stroke="#4D4D4D" stroke-width="4"/>
<path fill-rule="evenodd" clip-rule="evenodd" d="M296 310H272V339H278.052C277.37 336.958 277 334.772 277 332.5C277 321.683 285.378 312.822 296 312.054V310Z" fill="#D2D2D2"/>
<path d="M272 324H296V339C296 339.552 295.552 340 295 340H273C272.448 340 272 339.552 272 339V324Z" stroke="#4D4D4D" stroke-width="4"/>
<path d="M272 308H296V324H272V308Z" stroke="#4D4D4D" stroke-width="4"/>
<path d="M268 301C268 300.448 268.448 300 269 300H299C299.552 300 300 300.448 300 301V307C300 307.552 299.552 308 299 308H269C268.448 308 268 307.552 268 307V301Z" fill="#F4F4F4" stroke="#4D4D4D" stroke-width="4"/>
<path fill-rule="evenodd" clip-rule="evenodd" d="M568 310H544V339H550.052C549.37 336.958 549 334.772 549 332.5C549 321.683 557.378 312.822 568 312.054V310Z" fill="#D2D2D2"/>
<path d="M544 324H568V339C568 339.552 567.552 340 567 340H545C544.448 340 544 339.552 544 339V324Z" stroke="#4D4D4D" stroke-width="4"/>
<path d="M544 308H568V324H544V308Z" stroke="#4D4D4D" stroke-width="4"/>
<path d="M540 301C540 300.448 540.448 300 541 300H571C571.552 300 572 300.448 572 301V307C572 307.552 571.552 308 571 308H541C540.448 308 540 307.552 540 307V301Z" fill="#F4F4F4" stroke="#4D4D4D" stroke-width="4"/>
<rect x="410" y="180" width="24" height="24" rx="1" fill="#48DEE2" stroke="#4D4D4D" stroke-width="4"/>
<path fill-rule="evenodd" clip-rule="evenodd" d="M415.712 180H433C433.552 180 434 180.448 434 181V198.288C432.583 198.75 431.071 199 429.5 199C421.492 199 415 192.508 415 184.5C415 182.929 415.25 181.417 415.712 180Z" fill="#88FCFF"/>
<rect x="410" y="180" width="24" height="24" rx="1" stroke="#4D4D4D" stroke-width="4"/>
<rect x="466" y="180" width="24" height="24" rx="1" fill="#48DEE2" stroke="#4D4D4D" stroke-width="4"/>
<path fill-rule="evenodd" clip-rule="evenodd" d="M471.712 180H489C489.552 180 490 180.448 490 181V198.288C488.583 198.75 487.071 199 485.5 199C477.492 199 471 192.508 471 184.5C471 182.929 471.25 181.417 471.712 180Z" fill="#88FCFF"/>
<rect x="466" y="180" width="24" height="24" rx="1" stroke="#4D4D4D" stroke-width="4"/>
<rect x="544" y="180" width="24" height="24" rx="1" fill="#48DEE2" stroke="#4D4D4D" stroke-width="4"/>
<path fill-rule="evenodd" clip-rule="evenodd" d="M549.712 180H567C567.552 180 568 180.448 568 181V198.288C566.583 198.75 565.071 199 563.5 199C555.492 199 549 192.508 549 184.5C549 182.929 549.25 181.417 549.712 180Z" fill="#88FCFF"/>
<rect x="544" y="180" width="24" height="24" rx="1" stroke="#4D4D4D" stroke-width="4"/>
<rect x="354" y="180" width="24" height="24" rx="1" fill="#48DEE2" stroke="#4D4D4D" stroke-width="4"/>
<path fill-rule="evenodd" clip-rule="evenodd" d="M359.712 180H377C377.552 180 378 180.448 378 181V198.288C376.583 198.75 375.071 199 373.5 199C365.492 199 359 192.508 359 184.5C359 182.929 359.25 181.417 359.712 180Z" fill="#88FCFF"/>
<rect x="354" y="180" width="24" height="24" rx="1" stroke="#4D4D4D" stroke-width="4"/>
<rect x="272" y="180" width="24" height="24" rx="1" fill="#48DEE2" stroke="#4D4D4D" stroke-width="4"/>
<path fill-rule="evenodd" clip-rule="evenodd" d="M277.712 180H295C295.552 180 296 180.448 296 181V198.288C294.583 198.75 293.071 199 291.5 199C283.492 199 277 192.508 277 184.5C277 182.929 277.25 181.417 277.712 180Z" fill="#88FCFF"/>
<rect x="272" y="180" width="24" height="24" rx="1" stroke="#4D4D4D" stroke-width="4"/>
<path d="M243 278H602" stroke="#4D4D4D" stroke-width="4"/>
<rect x="322" y="260" width="200" height="32" rx="1" fill="#F4F4F4" stroke="#4D4D4D" stroke-width="4"/>
<path fill-rule="evenodd" clip-rule="evenodd" d="M568 230H544V259H550.052C549.37 256.958 549 254.772 549 252.5C549 241.683 557.378 232.822 568 232.054V230Z" fill="#D2D2D2"/>
<path d="M544 244H568V259C568 259.552 567.552 260 567 260H545C544.448 260 544 259.552 544 259V244Z" stroke="#4D4D4D" stroke-width="4"/>
<path d="M544 228H568V244H544V228Z" stroke="#4D4D4D" stroke-width="4"/>
<path d="M540 221C540 220.448 540.448 220 541 220H571C571.552 220 572 220.448 572 221V227C572 227.552 571.552 228 571 228H541C540.448 228 540 227.552 540 227V221Z" fill="#F4F4F4" stroke="#4D4D4D" stroke-width="4"/>
<path d="M556 228V260" stroke="#4D4D4D" stroke-width="4"/>
<path fill-rule="evenodd" clip-rule="evenodd" d="M296 230H272V259H278.052C277.37 256.958 277 254.772 277 252.5C277 241.683 285.378 232.822 296 232.054V230Z" fill="#D2D2D2"/>
<path d="M272 244H296V259C296 259.552 295.552 260 295 260H273C272.448 260 272 259.552 272 259V244Z" stroke="#4D4D4D" stroke-width="4"/>
<path d="M272 228H296V244H272V228Z" stroke="#4D4D4D" stroke-width="4"/>
<path d="M268 221C268 220.448 268.448 220 269 220H299C299.552 220 300 220.448 300 221V227C300 227.552 299.552 228 299 228H269C268.448 228 268 227.552 268 227V221Z" fill="#F4F4F4" stroke="#4D4D4D" stroke-width="4"/>
<path d="M284 228V260" stroke="#4D4D4D" stroke-width="4"/>
<path d="M474 275H482M498 275H491M491 275V284M491 275H482M491 284H498M491 284H483M482 275V266" stroke="#4D4D4D" stroke-width="4" stroke-linecap="round"/>
<path d="M565 373H573M589 373H582M582 373V382M582 373H573M582 382H589M582 382H574M573 373V364" stroke="#4D4D4D" stroke-width="4" stroke-linecap="round"/>
<path d="M298 213H306M322 213H315M315 213V222M315 213H306M315 222H322M315 222H307M306 213V204" stroke="#4D4D4D" stroke-width="4" stroke-linecap="round"/>
<path fill-rule="evenodd" clip-rule="evenodd" d="M466 120V165.38C466 165.932 465.552 166.38 465 166.38H379C378.448 166.38 378 165.932 378 165.38V120V118.395C378 118.386 378.007 118.38 378.015 118.38C378.023 118.38 378.03 118.373 378.03 118.365C378.89 94.8222 398.247 76 422 76C445.753 76 465.11 94.8222 465.97 118.365C465.97 118.373 465.977 118.38 465.985 118.38C465.993 118.38 466 118.386 466 118.395V120Z" fill="#F4F4F4"/>
<path fill-rule="evenodd" clip-rule="evenodd" d="M422 76C398.247 76 378.89 94.8222 378.03 118.365C378.03 118.373 378.023 118.38 378.015 118.38C378.007 118.38 378 118.386 378 118.395V120V165.38C378 165.932 378.448 166.38 379 166.38H422V76Z" fill="#E9E9E9"/>
<path fill-rule="evenodd" clip-rule="evenodd" d="M391 88.7752C383.331 96.389 378.452 106.808 378.03 118.366C378.03 118.374 378.023 118.38 378.015 118.38C378.007 118.38 378 118.387 378 118.395V120V165.38C378 165.932 378.448 166.38 379 166.38H391V88.7752Z" fill="#D2D2D2"/>
<path d="M378.03 118.365L380.028 118.438L378.03 118.365ZM465.97 118.365L467.969 118.292L465.97 118.365ZM464 120V165.38H468V120H464ZM465 164.38H379V168.38H465V164.38ZM380 165.38V120H376V165.38H380ZM380 120V118.395H376V120H380ZM380.028 118.438C380.849 95.9666 399.327 78 422 78V74C397.167 74 376.93 93.6777 376.031 118.292L380.028 118.438ZM422 78C444.673 78 463.151 95.9666 463.972 118.438L467.969 118.292C467.07 93.6777 446.833 74 422 74V78ZM464 118.395V120H468V118.395H464ZM465.985 120.38C464.889 120.38 464 119.491 464 118.395H468C468 117.282 467.098 116.38 465.985 116.38V120.38ZM378.015 120.38C379.112 120.38 379.989 119.508 380.028 118.438L376.031 118.292C376.07 117.238 376.933 116.38 378.015 116.38V120.38ZM380 118.395C380 119.491 379.111 120.38 378.015 120.38V116.38C376.902 116.38 376 117.282 376 118.395H380ZM463.972 118.438C464.011 119.508 464.887 120.38 465.985 120.38V116.38C467.067 116.38 467.93 117.239 467.969 118.292L463.972 118.438ZM379 164.38C379.552 164.38 380 164.828 380 165.38H376C376 167.037 377.343 168.38 379 168.38V164.38ZM464 165.38C464 164.828 464.448 164.38 465 164.38V168.38C466.657 168.38 468 167.037 468 165.38H464Z" fill="#4D4D4D"/>
<rect x="414" y="94" width="16" height="24" rx="1" fill="#F4F4F4"/>
<path d="M392 95C392 94.4477 392.448 94 393 94H407C407.552 94 408 94.4477 408 95V116.382C408 117.125 407.218 117.609 406.553 117.276L392.553 110.276C392.214 110.107 392 109.761 392 109.382V95Z" fill="#F4F4F4"/>
<path d="M452 95C452 94.4477 451.552 94 451 94H437C436.448 94 436 94.4477 436 95V116.382C436 117.125 436.782 117.609 437.447 117.276L451.447 110.276C451.786 110.107 452 109.761 452 109.382V95Z" fill="#F4F4F4"/>
<path fill-rule="evenodd" clip-rule="evenodd" d="M415 94C414.448 94 414 94.4477 414 95V117C414 117.552 414.448 118 415 118H418.099C418.033 117.342 418 116.675 418 116C418 107.799 422.936 100.75 430 97.6642V95C430 94.4477 429.552 94 429 94H415Z" fill="#D2D2D2"/>
<path d="M452 95C452 94.4477 451.552 94 451 94H437C436.448 94 436 94.4477 436 95V116.382C436 117.125 436.782 117.609 437.447 117.276L451.447 110.276C451.786 110.107 452 109.761 452 109.382V95Z" fill="#F4F4F4"/>
<path fill-rule="evenodd" clip-rule="evenodd" d="M393 94C392.448 94 392 94.4477 392 95V109.382C392 109.761 392.214 110.107 392.553 110.276L395.267 111.633C395.092 110.783 395 109.902 395 109C395 101.82 400.82 96 408 96V95C408 94.4477 407.552 94 407 94H393Z" fill="#C4C4C4"/>
<path fill-rule="evenodd" clip-rule="evenodd" d="M436 96C435.448 96 435 96.4477 435 97V111.382C435 111.761 435.214 112.107 435.553 112.276L438.267 113.633C438.092 112.783 438 111.902 438 111C438 103.82 443.82 98 451 98V97C451 96.4477 450.552 96 450 96H436Z" fill="#C4C4C4"/>
<rect x="414" y="94" width="16" height="24" rx="1" stroke="#4D4D4D" stroke-width="4"/>
<path d="M392 95C392 94.4477 392.448 94 393 94H407C407.552 94 408 94.4477 408 95V116.382C408 117.125 407.218 117.609 406.553 117.276L392.553 110.276C392.214 110.107 392 109.761 392 109.382V95Z" stroke="#4D4D4D" stroke-width="4"/>
<path d="M452 95C452 94.4477 451.552 94 451 94H437C436.448 94 436 94.4477 436 95V116.382C436 117.125 436.782 117.609 437.447 117.276L451.447 110.276C451.786 110.107 452 109.761 452 109.382V95Z" stroke="#4D4D4D" stroke-width="4"/>
<path d="M422 74V2" stroke="#4D4D4D" stroke-width="4"/>
<path d="M422 3C422 2.44772 421.552 2 421 2H390.333C388.492 2 387 3.49238 387 5.33333C387 7.17428 385.508 8.66667 383.667 8.66667H367C366.448 8.66667 366 9.11438 366 9.66667V41C366 41.5523 366.448 42 367 42H397.667C399.508 42 401 40.5076 401 38.6667C401 36.8257 402.492 35.3333 404.333 35.3333H421C421.552 35.3333 422 34.8856 422 34.3333V3Z" fill="#F2463A"/>
<path d="M422 3C422 2.44772 421.552 2 421 2H390.333C388.492 2 387 3.49238 387 5.33333V5.33333C387 7.17428 385.508 8.66667 383.667 8.66667H367C366.448 8.66667 366 9.11438 366 9.66667V41C366 41.5523 366.448 42 367 42H397.667C399.508 42 401 40.5076 401 38.6667V38.6667C401 36.8257 402.492 35.3333 404.333 35.3333H421C421.552 35.3333 422 34.8856 422 34.3333V3Z" stroke="#4D4D4D" stroke-width="4"/>
<path d="M421.471 124.241C421.761 124.09 422.106 124.09 422.396 124.241L513.933 172H329.933L421.471 124.241Z" fill="#F4F4F4" stroke="#4D4D4D" stroke-width="4"/>
<path d="M420.441 137.051C420.736 136.894 421.088 136.894 421.382 137.051L465.391 160.518C466.309 161.007 465.961 162.4 464.92 162.4H376.904C375.863 162.4 375.515 161.007 376.433 160.518L420.441 137.051Z" fill="#F4F4F4" stroke="#4D4D4D" stroke-width="4"/>
<path d="M650.256 375.208C650.124 374.586 650.599 374 651.234 374H704.766C705.401 374 705.876 374.586 705.744 375.208L701.501 395.208C701.403 395.67 700.996 396 700.523 396H655.477C655.004 396 654.597 395.67 654.499 395.208L650.256 375.208Z" fill="#F4F4F4" stroke="#4D4D4D" stroke-width="4"/>
<path d="M646 375C646 374.448 646.448 374 647 374H709C709.552 374 710 374.448 710 375V381C710 381.552 709.552 382 709 382H647C646.448 382 646 381.552 646 381V375Z" fill="#F4F4F4" stroke="#4D4D4D" stroke-width="4"/>
<path d="M662.178 304.406L677.196 284.088C677.596 283.547 678.404 283.547 678.804 284.088L693.822 304.406C694.309 305.066 693.838 306 693.017 306H689.389C688.586 306 688.111 306.898 688.562 307.562L703.438 329.438C703.889 330.102 703.414 331 702.611 331H696.869C696.07 331 695.593 331.89 696.036 332.555L707.964 350.445C708.407 351.11 707.93 352 707.131 352H704.973C704.154 352 703.683 352.931 704.167 353.591L712.833 365.409C713.317 366.069 712.846 367 712.027 367H644.027C643.198 367 642.729 366.049 643.233 365.392L652.267 353.608C652.771 352.951 652.302 352 651.473 352H647.481C646.66 352 646.189 351.066 646.676 350.406L659.824 332.594C660.311 331.934 659.84 331 659.019 331H653.952C653.137 331 652.664 330.077 653.141 329.416L668.859 307.584C669.336 306.923 668.863 306 668.048 306H662.983C662.162 306 661.691 305.066 662.178 304.406Z" fill="#F4F4F4" stroke="#4D4D4D" stroke-width="4"/>
<path d="M669 325L671.313 329.241C671.708 329.965 672.76 329.927 673.102 329.176L675 325" stroke="#4D4D4D" stroke-width="4" stroke-linecap="round"/>
<path d="M684 341L686.313 345.241C686.708 345.965 687.76 345.927 688.102 345.176L690 341" stroke="#4D4D4D" stroke-width="4" stroke-linecap="round"/>
<path d="M663 356L665.313 360.241C665.708 360.965 666.76 360.927 667.102 360.176L669 356" stroke="#4D4D4D" stroke-width="4" stroke-linecap="round"/>
<path d="M678 299L680.313 303.241C680.708 303.965 681.76 303.927 682.102 303.176L684 299" stroke="#4D4D4D" stroke-width="4" stroke-linecap="round"/>
<path d="M678 366.5V374.5" stroke="#4D4D4D" stroke-width="4"/>
<path d="M138.256 375.208C138.124 374.586 138.599 374 139.234 374H192.766C193.401 374 193.876 374.586 193.744 375.208L189.501 395.208C189.403 395.67 188.996 396 188.523 396H143.477C143.004 396 142.597 395.67 142.499 395.208L138.256 375.208Z" fill="#F4F4F4" stroke="#4D4D4D" stroke-width="4"/>
<path d="M134 375C134 374.448 134.448 374 135 374H197C197.552 374 198 374.448 198 375V381C198 381.552 197.552 382 197 382H135C134.448 382 134 381.552 134 381V375Z" fill="#F4F4F4" stroke="#4D4D4D" stroke-width="4"/>
<path d="M150.178 304.406L165.196 284.088C165.596 283.547 166.404 283.547 166.804 284.088L181.822 304.406C182.309 305.066 181.838 306 181.017 306H177.389C176.586 306 176.111 306.898 176.562 307.562L191.438 329.438C191.889 330.102 191.414 331 190.611 331H184.869C184.07 331 183.593 331.89 184.036 332.555L195.964 350.445C196.407 351.11 195.93 352 195.131 352H192.973C192.154 352 191.683 352.931 192.167 353.591L200.833 365.409C201.317 366.069 200.846 367 200.027 367H132.027C131.198 367 130.729 366.049 131.233 365.392L140.267 353.608C140.771 352.951 140.302 352 139.473 352H135.481C134.66 352 134.189 351.066 134.676 350.406L147.824 332.594C148.311 331.934 147.84 331 147.019 331H141.952C141.137 331 140.664 330.077 141.141 329.416L156.859 307.584C157.336 306.923 156.863 306 156.048 306H150.983C150.162 306 149.691 305.066 150.178 304.406Z" fill="#F4F4F4" stroke="#4D4D4D" stroke-width="4"/>
<path d="M157 325L159.313 329.241C159.708 329.965 160.76 329.927 161.102 329.176L163 325" stroke="#4D4D4D" stroke-width="4" stroke-linecap="round"/>
<path d="M172 341L174.313 345.241C174.708 345.965 175.76 345.927 176.102 345.176L178 341" stroke="#4D4D4D" stroke-width="4" stroke-linecap="round"/>
<path d="M151 356L153.313 360.241C153.708 360.965 154.76 360.927 155.102 360.176L157 356" stroke="#4D4D4D" stroke-width="4" stroke-linecap="round"/>
<path d="M166 299L168.313 303.241C168.708 303.965 169.76 303.927 170.102 303.176L172 299" stroke="#4D4D4D" stroke-width="4" stroke-linecap="round"/>
<path d="M166 366.5V374.5" stroke="#4D4D4D" stroke-width="4"/>
<rect x="2" y="372" width="88" height="24" rx="1" fill="#F4F4F4" stroke="#4D4D4D" stroke-width="4"/>
<rect x="7" y="228" width="78" height="156" rx="8" fill="#F4F4F4" stroke="#4D4D4D" stroke-width="4"/>
<path fill-rule="evenodd" clip-rule="evenodd" d="M78 251.062V247C78 246.448 77.5523 246 77 246H15C14.4477 246 14 246.448 14 247V357C14 357.552 14.4477 358 15 358H20.1672C20.0563 355.849 20 353.682 20 351.5C20 306.554 43.8646 267.933 78 251.062Z" fill="#D2D2D2"/>
<rect x="14" y="246" width="64" height="112" rx="1" stroke="#4D4D4D" stroke-width="4"/>
<path d="M34 237.5H58" stroke="#4D4D4D" stroke-width="4" stroke-linecap="round"/>
<circle cx="46" cy="371" r="8" stroke="#4D4D4D" stroke-width="4"/>
<path d="M35 210C42.875 204.244 57.75 205.107 63 210" stroke="#F2463A" stroke-width="4" stroke-linecap="round"/>
<path d="M18 203C30.0234 191.498 62.5312 190.512 75 203" stroke="#F2463A" stroke-width="4" stroke-linecap="round"/>
<path d="M7 192C41.5429 168.456 73.3929 182.19 85 192" stroke="#F2463A" stroke-width="4" stroke-linecap="round"/>
<path d="M758 360C758 348.954 766.954 340 778 340H898C909.046 340 918 348.954 918 360V396H758V360Z" fill="#F4F4F4" stroke="#4D4D4D" stroke-width="4"/>
<path d="M781 297C781 285.954 789.954 277 801 277H874C885.046 277 894 285.954 894 297V340H781V297Z" fill="#F4F4F4" stroke="#4D4D4D" stroke-width="4"/>
<rect x="829.012" y="136.995" width="24" height="88" transform="rotate(60 829.012 136.995)" fill="#F4F4F4" stroke="#4D4D4D" stroke-width="4"/>
<path d="M779.102 179.774L792.959 171.774" stroke="#4D4D4D" stroke-width="4" stroke-linecap="round"/>
<rect x="664.716" y="70.7955" width="16.6903" height="70.7378" transform="rotate(-90 664.716 70.7955)" fill="#F4F4F4" stroke="#4D4D4D" stroke-width="4"/>
<path d="M721.016 91.6594C709.37 83.8351 705.775 68.3271 712.79 56.1764C719.805 44.0258 735.033 39.3855 747.632 45.5591L862.592 101.89C868.147 104.612 871.71 110.308 871.34 116.483C869.845 141.422 863.467 153.193 843.858 164.41C838.905 167.243 832.774 166.743 828.037 163.561L721.016 91.6594Z" fill="#F4F4F4"/>
<path fill-rule="evenodd" clip-rule="evenodd" d="M709.904 63.4717C707.453 74.0013 711.607 85.338 721.016 91.6594L828.037 163.561C832.774 166.743 838.905 167.243 843.858 164.41C852.546 159.44 858.636 154.362 862.856 148.077C798.286 121.381 760.569 100.573 709.904 63.4717Z" fill="#D2D2D2"/>
<path d="M721.016 91.6594C709.37 83.8351 705.775 68.3271 712.79 56.1764V56.1764C719.805 44.0258 735.033 39.3855 747.632 45.5591L862.592 101.89C868.147 104.612 871.71 110.308 871.34 116.483C869.845 141.422 863.467 153.193 843.858 164.41C838.905 167.243 832.774 166.743 828.037 163.561L721.016 91.6594Z" stroke="#4D4D4D" stroke-width="4"/>
<circle cx="845.139" cy="132.588" r="8" transform="rotate(-60 845.139 132.588)" fill="#F2463A" stroke="#4D4D4D" stroke-width="4"/>
<circle cx="730.823" cy="66.5882" r="8" transform="rotate(-60 730.823 66.5882)" fill="#F2463A" stroke="#4D4D4D" stroke-width="4"/>
<path d="M753.96 223.367C742.439 215.193 739.032 199.594 746.095 187.361C753.158 175.128 768.37 170.279 781.209 176.17L855.108 210.074C861.768 213.129 865.601 220.355 863.813 227.462C858.897 246.996 851.944 258.226 839.62 269.719C834.379 274.607 826.397 274.759 820.551 270.612L753.96 223.367Z" fill="#F4F4F4"/>
<path fill-rule="evenodd" clip-rule="evenodd" d="M743.592 193.131C740.254 204.162 744.189 216.435 753.96 223.367L820.551 270.612C826.397 274.759 834.378 274.607 839.62 269.719C844.484 265.183 848.512 260.688 851.907 255.707C811.073 239.26 785.849 223.825 743.592 193.131Z" fill="#D2D2D2"/>
<path d="M753.96 223.367C742.439 215.193 739.032 199.594 746.095 187.361V187.361C753.158 175.128 768.37 170.279 781.209 176.17L855.108 210.074C861.768 213.129 865.601 220.355 863.813 227.462C858.897 246.996 851.944 258.226 839.62 269.719C834.379 274.607 826.397 274.759 820.551 270.612L753.96 223.367Z" stroke="#4D4D4D" stroke-width="4"/>
<circle cx="765.441" cy="198.131" r="8" transform="rotate(-60 765.441 198.131)" fill="#F2463A" stroke="#4D4D4D" stroke-width="4"/>
<path d="M807.857 224L794 216" stroke="#4D4D4D" stroke-width="4" stroke-linecap="round"/>
<path d="M800 241C800 221.118 816.118 205 836 205C855.882 205 872 221.118 872 241V277H800V241Z" fill="#F4F4F4"/>
<path fill-rule="evenodd" clip-rule="evenodd" d="M818 209.816C807.24 216.041 800 227.675 800 241V277H818V209.816Z" fill="#D2D2D2"/>
<path d="M800 241C800 221.118 816.118 205 836 205V205C855.882 205 872 221.118 872 241V277H800V241Z" stroke="#4D4D4D" stroke-width="4"/>
<path fill-rule="evenodd" clip-rule="evenodd" d="M627.943 170.073C629.448 171.578 631.867 171.641 633.449 170.217L659.043 147.168C660.396 146.58 661.364 145.264 661.441 143.7L663.064 110.892C663.177 108.607 661.354 106.691 659.067 106.69L651.153 106.686C648.865 106.685 647.045 108.599 647.16 110.883L648.348 134.379L624.307 161.075C622.883 162.656 622.946 165.076 624.45 166.58L627.943 170.073Z" fill="#D2D2D2"/>
<path fill-rule="evenodd" clip-rule="evenodd" d="M626.448 168.578L653.629 141.396C654.854 140.762 655.712 139.512 655.785 138.043L657.335 106.689L651.153 106.686C648.865 106.685 647.045 108.599 647.16 110.883L648.348 134.379L624.307 161.075C622.883 162.656 622.946 165.076 624.451 166.58L626.448 168.578Z" fill="#F4F4F4"/>
<path d="M633.449 170.217L634.787 171.703L633.449 170.217ZM627.943 170.073L626.529 171.487L627.943 170.073ZM659.043 147.168L658.246 145.334L657.947 145.464L657.705 145.682L659.043 147.168ZM661.441 143.7L659.444 143.602L659.444 143.602L661.441 143.7ZM663.064 110.892L661.066 110.793L661.066 110.793L663.064 110.892ZM659.067 106.69L659.068 104.69L659.068 104.69L659.067 106.69ZM651.153 106.686L651.152 108.686L651.153 106.686ZM647.16 110.883L645.163 110.984L647.16 110.883ZM648.348 134.379L649.834 135.717L650.387 135.103L650.345 134.278L648.348 134.379ZM624.307 161.075L622.82 159.737L622.82 159.737L624.307 161.075ZM624.45 166.58L625.865 165.166L624.45 166.58ZM632.11 168.731C631.32 169.443 630.11 169.411 629.358 168.659L626.529 171.487C628.786 173.744 632.415 173.839 634.787 171.703L632.11 168.731ZM657.705 145.682L632.11 168.731L634.787 171.703L660.382 148.655L657.705 145.682ZM659.444 143.602C659.405 144.38 658.925 145.039 658.246 145.334L659.841 149.002C661.868 148.121 663.323 146.147 663.439 143.799L659.444 143.602ZM661.066 110.793L659.444 143.602L663.439 143.799L665.061 110.991L661.066 110.793ZM659.065 108.69C660.21 108.691 661.123 109.65 661.066 110.793L665.061 110.991C665.231 107.565 662.498 104.692 659.068 104.69L659.065 108.69ZM651.152 108.686L659.065 108.69L659.068 104.69L651.154 104.686L651.152 108.686ZM649.158 110.782C649.1 109.641 650.009 108.685 651.152 108.686L651.154 104.686C647.722 104.684 644.989 107.556 645.163 110.984L649.158 110.782ZM650.345 134.278L649.158 110.782L645.163 110.984L646.35 134.479L650.345 134.278ZM625.793 162.414L649.834 135.717L646.862 133.04L622.82 159.737L625.793 162.414ZM625.865 165.166C625.112 164.414 625.081 163.204 625.793 162.414L622.82 159.737C620.684 162.109 620.779 165.738 623.036 167.995L625.865 165.166ZM629.358 168.659L625.865 165.166L623.036 167.995L626.529 171.487L629.358 168.659Z" fill="#4D4D4D"/>
<path d="M660.802 146.29L648.388 133.876" stroke="#4D4D4D" stroke-width="4"/>
<path fill-rule="evenodd" clip-rule="evenodd" d="M552.167 94.2965C550.662 92.7918 550.599 90.3726 552.023 88.7913L575.072 63.1965C575.66 61.8436 576.976 60.8758 578.54 60.7985L611.348 59.176C613.633 59.063 615.549 60.8857 615.55 63.1733L615.554 71.087C615.555 73.3746 613.641 75.1952 611.357 75.0797L587.862 73.8921L561.165 97.9333C559.584 99.3573 557.164 99.294 555.66 97.7893L552.167 94.2965Z" fill="#D2D2D2"/>
<path fill-rule="evenodd" clip-rule="evenodd" d="M552.023 88.7913C550.599 90.3726 550.662 92.7918 552.167 94.2965L555.077 97.2064L582.258 70.0248C582.892 68.8001 584.143 67.9422 585.611 67.8696L615.552 66.3889L615.55 63.1733C615.549 60.8857 613.633 59.063 611.348 59.176L578.54 60.7985C576.976 60.8758 575.66 61.8436 575.072 63.1965L552.023 88.7913Z" fill="#F4F4F4"/>
<path d="M552.023 88.7913L550.537 87.453L552.023 88.7913ZM575.072 63.1965L576.906 63.9941L576.776 64.2928L576.558 64.5348L575.072 63.1965ZM578.54 60.7985L578.639 62.7961L578.639 62.7961L578.54 60.7985ZM611.348 59.176L611.447 61.1736L611.447 61.1736L611.348 59.176ZM615.55 63.1733L617.55 63.1722L617.55 63.1722L615.55 63.1733ZM615.554 71.087L613.554 71.0881L615.554 71.087ZM611.357 75.0797L611.256 77.0771L611.357 75.0797ZM587.862 73.8921L586.523 72.4059L587.137 71.8529L587.962 71.8946L587.862 73.8921ZM561.165 97.9333L562.503 99.4195L562.503 99.4195L561.165 97.9333ZM553.509 90.1297C552.797 90.9203 552.829 92.13 553.581 92.8823L550.753 95.7107C548.496 93.4537 548.401 89.8248 550.537 87.453L553.509 90.1297ZM576.558 64.5348L553.509 90.1297L550.537 87.453L573.586 61.8581L576.558 64.5348ZM578.639 62.7961C577.86 62.8346 577.201 63.3151 576.906 63.9941L573.238 62.3988C574.119 60.372 576.093 58.9171 578.441 58.801L578.639 62.7961ZM611.447 61.1736L578.639 62.7961L578.441 58.801L611.249 57.1784L611.447 61.1736ZM613.55 63.1744C613.549 62.0296 612.59 61.117 611.447 61.1736L611.249 57.1784C614.675 57.009 617.548 59.7418 617.55 63.1722L613.55 63.1744ZM613.554 71.0881L613.55 63.1744L617.55 63.1722L617.554 71.0859L613.554 71.0881ZM611.458 73.0822C612.599 73.1399 613.555 72.2309 613.554 71.0881L617.554 71.0859C617.556 74.5182 614.684 77.2504 611.256 77.0771L611.458 73.0822ZM587.962 71.8946L611.458 73.0822L611.256 77.0771L587.761 75.8895L587.962 71.8946ZM559.826 96.4471L586.523 72.4059L589.2 75.3783L562.503 99.4195L559.826 96.4471ZM557.074 96.3751C557.826 97.1275 559.036 97.1591 559.826 96.4471L562.503 99.4195C560.131 101.555 556.502 101.461 554.245 99.2036L557.074 96.3751ZM553.581 92.8823L557.074 96.3751L554.245 99.2036L550.753 95.7107L553.581 92.8823Z" fill="#4D4D4D"/>
<path d="M575.95 61.4384L588.364 73.8523" stroke="#4D4D4D" stroke-width="4"/>
<rect x="678.299" y="106.165" width="88" height="16" rx="8" transform="rotate(-135 678.299 106.165)" fill="#F2463A"/>
<rect x="662.886" y="90.4649" width="66" height="16" rx="8" transform="rotate(-135 662.886 90.4649)" fill="#F56F65"/>
<rect x="678.299" y="106.165" width="88" height="16" rx="8" transform="rotate(-135 678.299 106.165)" stroke="#4D4D4D" stroke-width="4"/>
<path fill-rule="evenodd" clip-rule="evenodd" d="M618.902 103.337C603.281 87.7158 603.281 62.3892 618.902 46.7682L675.47 103.337C659.849 118.958 634.523 118.958 618.902 103.337ZM686.245 91.4843C686.543 91.7818 687.025 91.7818 687.323 91.4843C693.274 85.5335 693.274 75.8852 687.323 69.9344L652.304 34.9157C646.353 28.9649 636.705 28.9649 630.754 34.9157C630.457 35.2133 630.457 35.6957 630.754 35.9932L686.245 91.4843Z" fill="#F4F4F4"/>
<path fill-rule="evenodd" clip-rule="evenodd" d="M608.076 83.4669C609.636 90.7485 613.244 97.6792 618.902 103.337C634.523 118.958 659.849 118.958 675.47 103.337L665.911 93.7771C648.5 103.884 625.822 101.484 610.914 86.5758C609.911 85.5733 608.966 84.5357 608.076 83.4669ZM678.157 83.3962C681.813 78.9844 684.508 74.0443 686.242 68.8536L687.323 69.9344C693.274 75.8852 693.274 85.5335 687.323 91.4843C687.025 91.7818 686.543 91.7818 686.245 91.4843L678.157 83.3962Z" fill="#D2D2D2"/>
<path d="M618.902 46.7682L620.316 45.354L618.902 43.9398L617.488 45.354L618.902 46.7682ZM675.47 103.337L676.885 104.751L678.299 103.337L676.885 101.923L675.47 103.337ZM617.488 45.354C601.086 61.756 601.086 88.3489 617.488 104.751L620.316 101.923C605.476 87.0826 605.476 63.0223 620.316 48.1824L617.488 45.354ZM676.885 101.923L620.316 45.354L617.488 48.1824L674.056 104.751L676.885 101.923ZM617.488 104.751C633.89 121.153 660.483 121.153 676.885 104.751L674.056 101.923C659.216 116.762 635.156 116.762 620.316 101.923L617.488 104.751ZM685.909 90.0701C686.392 89.5866 687.176 89.5866 687.659 90.0701L684.831 92.8985C685.91 93.9771 687.658 93.9771 688.737 92.8985L685.909 90.0701ZM685.909 71.3486C691.078 76.5184 691.078 84.9003 685.909 90.0701L688.737 92.8985C695.469 86.1666 695.469 75.2521 688.737 68.5202L685.909 71.3486ZM650.89 36.33L685.909 71.3486L688.737 68.5202L653.718 33.5015L650.89 36.33ZM632.168 36.33C637.338 31.1602 645.72 31.1602 650.89 36.33L653.718 33.5015C646.986 26.7696 636.072 26.7696 629.34 33.5015L632.168 36.33ZM632.168 34.579C632.652 35.0625 632.652 35.8465 632.168 36.33L629.34 33.5015C628.261 34.5801 628.261 36.3288 629.34 37.4075L632.168 34.579ZM687.659 90.0701L632.168 34.579L629.34 37.4075L684.831 92.8985L687.659 90.0701Z" fill="#4D4D4D"/>
<path d="M667.129 108.85L655.815 97.536" stroke="#4D4D4D" stroke-width="4" stroke-linecap="round"/>
<path d="M628.945 45.2101L623.288 39.5532" stroke="#4D4D4D" stroke-width="4" stroke-linecap="round"/>
<path d="M588.494 142.402C586.919 143.881 584.454 143.842 582.926 142.315L579.924 139.312C578.396 137.784 578.358 135.32 579.837 133.745L618.198 92.9096C619.744 91.2638 622.345 91.2232 623.941 92.8199L629.419 98.2972C631.015 99.894 630.975 102.495 629.329 104.041L588.494 142.402Z" fill="#F4F4F4"/>
<path fill-rule="evenodd" clip-rule="evenodd" d="M582.132 141.521L582.926 142.315C584.454 143.842 586.919 143.881 588.493 142.402L629.329 104.041C630.975 102.495 631.015 99.894 629.419 98.2972L627.387 96.2657L582.132 141.521Z" fill="#BCBCBC"/>
<path d="M588.494 142.402C586.919 143.881 584.454 143.842 582.926 142.315L579.924 139.312C578.396 137.784 578.358 135.32 579.837 133.745L618.198 92.9096C619.744 91.2638 622.345 91.2232 623.941 92.8199L629.419 98.2972C631.015 99.894 630.975 102.495 629.329 104.041L588.494 142.402Z" stroke="#4D4D4D" stroke-width="4"/>
<circle cx="836" cy="229" r="8" fill="#F2463A" stroke="#4D4D4D" stroke-width="4"/>
</svg>
