<svg width="816" height="322" viewBox="0 0 816 322" fill="none" xmlns="http://www.w3.org/2000/svg">
<path d="M305 87H328.385C331.338 76.7116 345 82.2619 345 87C345 66.694 365.923 64.6634 368.385 87H377" stroke="#E9E9E9" stroke-width="4" stroke-linecap="round"/>
<path d="M91 320H109.188C111.485 312.284 122.111 316.446 122.111 320C122.111 304.771 138.385 303.248 140.299 320H147" stroke="#E9E9E9" stroke-width="4" stroke-linecap="round"/>
<path d="M377 207.34C377 208.535 418.878 207.838 439.817 207.34C439.817 174.972 459.602 168 473.946 168C496.699 168 511.538 194.5 511.538 207.34C511.538 195 540.226 198 540.226 207.34H561" stroke="#F4F4F4" stroke-width="4" stroke-linecap="round"/>
<path d="M2 146H50" stroke="#F4F4F4" stroke-width="4" stroke-linecap="round"/>
<path d="M766 159H814" stroke="#F4F4F4" stroke-width="4" stroke-linecap="round"/>
<path d="M139 2H187" stroke="#F4F4F4" stroke-width="4" stroke-linecap="round"/>
<path d="M624 31.1431C624 13.6431 653.5 15.6431 653.5 33.3795C653.5 21.1431 668.5 23.6431 668.5 33.3795" stroke="#F4F4F4" stroke-width="4" stroke-linecap="round"/>
</svg>
