<svg width="1442" height="67" viewBox="0 0 1442 67" fill="none" xmlns="http://www.w3.org/2000/svg">
<rect x="228.152" y="19.7812" width="1213.85" height="29" fill="#1F244D"/>
<path d="M142.225 15.7683H225.14C227.349 15.7683 229.14 17.5592 229.14 19.7683V48.8692C229.14 51.0783 227.349 52.8692 225.14 52.8692H142.225V15.7683Z" fill="#4B518C"/>
<rect x="63.2109" width="79.0137" height="66.7815" rx="1" fill="#1F244D"/>
<path d="M86.915 38.9561L96.3839 28.6296C96.7802 28.1974 97.4617 28.1974 97.858 28.6296L106.59 38.1523C106.986 38.5845 107.668 38.5845 108.064 38.1523L117.533 27.8258" stroke="white" stroke-width="6" stroke-linecap="round"/>
<rect y="4.63818" width="63.211" height="59.3614" rx="1" fill="#E9E9E9"/>
<rect y="4.63818" width="63.211" height="59.3614" rx="1" fill="#5C63AB"/>
<rect x="23.7041" y="15.7683" width="15.8027" height="11.1303" rx="1" fill="white"/>
<rect x="23.7041" y="41.739" width="15.8027" height="11.1303" rx="1" fill="white"/>
<ellipse cx="56.2971" cy="26.8983" rx="1.97534" ry="1.85504" fill="white"/>
<ellipse cx="56.2971" cy="34.3182" rx="1.97534" ry="1.85504" fill="white"/>
<ellipse cx="56.2971" cy="41.7386" rx="1.97534" ry="1.85504" fill="white"/>
</svg>
