<svg width="156" height="212" viewBox="0 0 156 212" fill="none" xmlns="http://www.w3.org/2000/svg">
<rect x="66" y="194.311" width="24" height="15.6889" rx="2" fill="#FFD081"/>
<path fill-rule="evenodd" clip-rule="evenodd" d="M69.5064 194.311H87.9672C89.0718 194.311 89.9672 195.207 89.9672 196.311V203.873C88.1298 204.661 86.1005 205.097 83.9672 205.097C77.0681 205.097 71.2569 200.53 69.5064 194.311Z" fill="#FFE8C1"/>
<path d="M66 196.311C66 195.207 66.8955 194.311 68 194.311H88C89.1046 194.311 90 195.207 90 196.311V204C90 207.314 87.3137 210 84 210H72C68.6863 210 66 207.314 66 204V196.311Z" stroke="#4D4D4D" stroke-width="4"/>
<path d="M70 185.364V193.208" stroke="#4D4D4D" stroke-width="4"/>
<path d="M86 185.364V193.208" stroke="#4D4D4D" stroke-width="4"/>
<path d="M154 82.5744C154 104.505 144.869 124.284 130.232 138.256L90.1258 183.596C89.3665 184.454 88.2756 184.946 87.1297 184.946H68.8703C67.7244 184.946 66.6335 184.454 65.8742 183.596L25.7685 138.256C11.1313 124.284 2 104.505 2 82.5744C2 40.2406 36.0264 5.92221 78 5.92221C119.974 5.92221 154 40.2406 154 82.5744Z" fill="#D2D2D2" stroke="#4D4D4D" stroke-width="4"/>
<path fill-rule="evenodd" clip-rule="evenodd" d="M133.626 132.009C139.159 120.141 142.238 106.97 142.238 93.1028C142.238 53.9909 117.742 20.4204 82.7979 5.99854C121.467 9.58486 151.75 42.3884 151.75 82.3255C151.75 101.281 144.928 118.629 133.626 132.009ZM97.1577 172.854C88.651 178.131 79.2441 182.167 69.2099 184.697H84.8798C86.0257 184.697 87.1166 184.205 87.8758 183.347L97.1577 172.854Z" fill="#F4F4F4"/>
<path d="M77.5476 186.344C103.114 129.144 108.916 50.725 79.9646 11.3508C79.3504 10.5155 78.1069 11.1285 78.3012 12.1469C91.8129 82.9744 86.4345 112.622 77.5476 186.344Z" fill="#F4F4F4"/>
<path d="M73.0238 183.081C50.0368 116.944 40.6104 54.2581 68.8029 9.63478C69.3021 8.84453 68.5163 7.85614 67.6257 8.14008C-10.7499 33.1285 5.92225 123.149 73.0238 183.081Z" fill="#F4F4F4"/>
<path d="M154 82.5744C154 104.505 144.869 124.284 130.232 138.256L90.1258 183.596C89.3665 184.454 88.2756 184.946 87.1297 184.946H68.8703C67.7244 184.946 66.6335 184.454 65.8742 183.596L25.7685 138.256C11.1313 124.284 2 104.505 2 82.5744C2 40.2406 36.0264 5.92221 78 5.92221C119.974 5.92221 154 40.2406 154 82.5744Z" stroke="#4D4D4D" stroke-width="4"/>
<path d="M81.4809 184.383C106.85 118.571 113.922 53.9499 82.8072 9.40915C82.252 8.61437 83.0586 7.56413 83.9762 7.87687C159.182 33.5068 150.794 109.624 81.4809 184.383Z" fill="#F56F65"/>
<path fill-rule="evenodd" clip-rule="evenodd" d="M85.8185 177.296C107.609 159.367 122 128.452 122 93.3199C122 57.6474 107.163 26.322 84.8075 8.52524C114.944 51.6658 109.257 113.644 85.8185 177.296Z" fill="#F2463A"/>
<path d="M81.4809 184.383C106.85 118.571 113.922 53.9499 82.8072 9.40915C82.252 8.61437 83.0586 7.56413 83.9762 7.87687C159.182 33.5068 150.794 109.624 81.4809 184.383Z" stroke="#4D4D4D" stroke-width="4"/>
<path d="M80.5191 184.383C55.15 118.571 48.0775 53.9499 79.1928 9.40915C79.748 8.61437 78.9414 7.56413 78.0238 7.87687C2.81763 33.5068 11.2059 109.624 80.5191 184.383Z" fill="#F2463A"/>
<path fill-rule="evenodd" clip-rule="evenodd" d="M74.8549 173.642C56.2209 155.889 44 126.12 44 92.3907C44 57.7707 56.8749 27.3223 76.3446 9.75784C47.7292 52.0089 52.7544 111.881 74.8549 173.642Z" fill="#F56F65"/>
<path d="M80.5191 184.383C55.15 118.571 48.0775 53.9499 79.1928 9.40915C79.748 8.61437 78.9414 7.56413 78.0238 7.87687C2.81763 33.5068 11.2059 109.624 80.5191 184.383Z" stroke="#4D4D4D" stroke-width="4"/>
<path d="M97.1223 173.597C97.8935 173.597 98.2883 174.632 97.7551 175.255L90.1472 184.153C89.4862 184.926 88.5718 185.364 87.6159 185.364H68.3841C67.4282 185.364 66.5138 184.926 65.8528 184.153L58.2449 175.255C57.7117 174.632 58.1065 173.597 58.8777 173.597H97.1223Z" fill="#48DEE2"/>
<path fill-rule="evenodd" clip-rule="evenodd" d="M82.6773 185.364C77.1597 183.494 72.8281 179.109 71.0901 173.597L96.3902 173.597C97.1642 173.597 97.5605 174.632 97.0253 175.255L89.3894 184.153C88.726 184.926 87.8083 185.364 86.8489 185.364H82.6773Z" fill="#88FCFF"/>
<path d="M97.1223 173.597C97.8935 173.597 98.2883 174.632 97.7551 175.255L90.1472 184.153C89.4862 184.926 88.5718 185.364 87.6159 185.364H68.3841C67.4282 185.364 66.5138 184.926 65.8528 184.153L58.2449 175.255C57.7117 174.632 58.1065 173.597 58.8777 173.597H97.1223Z" stroke="#4D4D4D" stroke-width="4"/>
<path fill-rule="evenodd" clip-rule="evenodd" d="M57.2749 30.3836C58.126 29.6795 58.2451 28.4188 57.541 27.5677C56.8369 26.7167 55.5761 26.5976 54.7251 27.3017C47.9929 32.8715 43.4141 40.4572 40.4179 47.6072C37.4201 54.7611 35.9468 61.6211 35.5103 65.9008C35.3983 66.9996 36.1982 67.9813 37.2971 68.0934C38.396 68.2054 39.3776 67.4055 39.4897 66.3066C39.8866 62.415 41.2633 55.9395 44.1071 49.1532C46.9525 42.363 51.2071 35.4038 57.2749 30.3836ZM39 76.3995C39 75.2949 38.1046 74.3995 37 74.3995C35.8954 74.3995 35 75.2949 35 76.3995V78.3606C35 79.4652 35.8954 80.3606 37 80.3606C38.1046 80.3606 39 79.4652 39 78.3606V76.3995Z" fill="white"/>
<path d="M77 5.92222C77 0.692598 85 0.692597 85 5.92222" stroke="#4D4D4D" stroke-width="4"/>
</svg>
