<svg width="87" height="69" viewBox="0 0 87 69" fill="none" xmlns="http://www.w3.org/2000/svg">
<circle cx="46" cy="40" r="20" fill="#F2463A"/>
<path fill-rule="evenodd" clip-rule="evenodd" d="M49.5294 59.6896C48.3837 59.8936 47.2043 60 46 60C34.9543 60 26 51.0457 26 40C26 28.9543 34.9543 20 46 20C47.2043 20 48.3837 20.1064 49.5294 20.3104C42.9757 21.9774 38 30.1586 38 40C38 49.8414 42.9757 58.0226 49.5294 59.6896Z" fill="#F56F65"/>
<circle cx="46" cy="40" r="20" stroke="#4D4D4D" stroke-width="4"/>
<path d="M26 36.8773C18.6843 37.6104 14 38.7368 14 40C14 42.2091 28.3269 44 46 44C63.6731 44 78 42.2091 78 40C78 38.72 73.1899 37.5804 65.7059 36.8482" stroke="#4D4D4D" stroke-width="4"/>
<path d="M34 37.5C34 35.5 36 32 38 31" stroke="white" stroke-width="4" stroke-linecap="round"/>
<path d="M0.34314 24C3.71026 23.1026 4.81176 21.7078 5.99999 18.3431C6.48473 21.8515 7.69276 23.1131 11.6568 24C7.63158 24.8215 6.39084 26.0584 5.99999 29.6569C4.92936 25.8014 3.66184 24.6068 0.34314 24Z" fill="#F4F4F4"/>
<path d="M75 59.6569C78.3671 58.7595 79.4686 57.3647 80.6569 54C81.1416 57.5084 82.3496 58.77 86.3137 59.6569C82.2884 60.4783 81.0477 61.7152 80.6569 65.3137C79.5862 61.4583 78.3187 60.2637 75 59.6569Z" fill="#F4F4F4"/>
<path d="M42 5.65686C45.3671 4.75946 46.4686 3.36467 47.6569 6.19888e-06C48.1416 3.50836 49.3496 4.76996 53.3137 5.65686C49.2884 6.47834 48.0477 7.71524 47.6569 11.3137C46.5862 7.4583 45.3187 6.26366 42 5.65686Z" fill="#F4F4F4"/>
<path d="M20 62.6569C23.3671 61.7595 24.4686 60.3647 25.6569 57C26.1416 60.5084 27.3496 61.77 31.3137 62.6569C27.2884 63.4783 26.0477 64.7152 25.6569 68.3137C24.5862 64.4583 23.3187 63.2637 20 62.6569Z" fill="#F4F4F4"/>
<circle cx="76" cy="17" r="2" fill="#F89790"/>
<circle cx="10" cy="57" r="2" fill="#F89790"/>
</svg>
