<svg width="142" height="518" viewBox="0 0 142 518" fill="none" xmlns="http://www.w3.org/2000/svg">
<path d="M61.5 58H83.5L142 518H0L61.5 58Z" fill="#F56F65"/>
<ellipse cx="71.5" cy="43" rx="48" ry="20" fill="#F4F4F4"/>
<path fill-rule="evenodd" clip-rule="evenodd" d="M52.4243 61.3584C49.2908 56.5366 47.5 50.9524 47.5 45C47.5 37.052 50.6929 29.7604 56.0116 24.0641C37.1018 26.7485 23.5 34.2124 23.5 43C23.5 51.2213 35.4052 58.284 52.4243 61.3584Z" fill="#D2D2D2"/>
<ellipse cx="71.5" cy="43" rx="48" ry="20" stroke="#4D4D4D" stroke-width="4"/>
<path d="M23.5 40C39.5 47 99.5 47.5 119 40" stroke="#4D4D4D" stroke-width="4"/>
<circle cx="43.5" cy="43" r="4" fill="#F2463A" stroke="#4D4D4D" stroke-width="4"/>
<circle cx="99.5" cy="43" r="4" fill="#F2463A" stroke="#4D4D4D" stroke-width="4"/>
<circle cx="71.5" cy="45" r="4" fill="#F2463A" stroke="#4D4D4D" stroke-width="4"/>
<path fill-rule="evenodd" clip-rule="evenodd" d="M98.1926 25.7999C96.2024 12.3284 84.7858 2 71 2C57.2141 2 45.7975 12.3285 43.8073 25.8001C43.6049 26.1915 43.5 26.5922 43.5 27C43.5 31.4183 55.8122 35 71 35C86.1878 35 98.5 31.4183 98.5 27C98.5 26.5921 98.3951 26.1914 98.1926 25.7999Z" fill="white"/>
<path d="M98.1926 25.7999L96.2141 26.0922L96.2629 26.4223L96.4161 26.7186L98.1926 25.7999ZM43.8073 25.8001L45.5838 26.7187L45.737 26.4224L45.7858 26.0924L43.8073 25.8001ZM100.171 25.5076C98.0421 11.0965 85.8188 0 71 0V4C83.7528 4 94.3627 13.5603 96.2141 26.0922L100.171 25.5076ZM71 0C56.1811 0 43.9578 11.0966 41.8287 25.5078L45.7858 26.0924C47.6372 13.5604 58.2471 4 71 4V0ZM45.5 27C45.5 26.9477 45.5109 26.8598 45.5838 26.7187L42.0307 24.8815C41.6989 25.5232 41.5 26.2367 41.5 27H45.5ZM71 33C63.5402 33 56.8621 32.118 52.1132 30.7365C49.7255 30.0418 47.9388 29.2531 46.7945 28.4661C45.5873 27.6358 45.5 27.1064 45.5 27H41.5C41.5 29.1027 42.9517 30.6779 44.5277 31.7618C46.1666 32.889 48.4071 33.8241 50.9959 34.5772C56.2001 36.0912 63.272 37 71 37V33ZM96.5 27C96.5 27.1064 96.4127 27.6358 95.2055 28.4661C94.0612 29.2531 92.2745 30.0418 89.8868 30.7365C85.1379 32.118 78.4598 33 71 33V37C78.728 37 85.7999 36.0912 91.0041 34.5772C93.5929 33.8241 95.8334 32.889 97.4723 31.7618C99.0483 30.6779 100.5 29.1027 100.5 27H96.5ZM96.4161 26.7186C96.4891 26.8598 96.5 26.9477 96.5 27H100.5C100.5 26.2366 100.301 25.523 99.9692 24.8812L96.4161 26.7186Z" fill="#4D4D4D"/>
<path d="M53 25C53 21 56.3333 17.6667 57.5 17" stroke="#4D4D4D" stroke-width="4" stroke-linecap="round"/>
<path d="M61.5 13.5L62.5 12.5" stroke="#4D4D4D" stroke-width="4" stroke-linecap="round"/>
<path d="M36.5 58.5L32.5 66.5" stroke="#4D4D4D" stroke-width="4" stroke-linecap="round"/>
<path d="M106.5 58L110.5 66" stroke="#4D4D4D" stroke-width="4" stroke-linecap="round"/>
</svg>
