<svg width="420" height="420" viewBox="0 0 420 420" fill="none" xmlns="http://www.w3.org/2000/svg">
<path d="M36.4 0L0 28.1379L14 35.1724M36.4 0L71.4 4.22069M36.4 0L14 35.1724M36.4 0L32.2 39.3931M36.4 0L53.2 15.4759M71.4 4.22069L84 21.1034M71.4 4.22069L53.2 15.4759M84 21.1034L88.2 50.6483M84 21.1034L53.2 15.4759M84 21.1034L64.4 37.9862M88.2 50.6483L117.6 64.7172M88.2 50.6483L64.4 37.9862M88.2 50.6483L44.8 106.924M88.2 50.6483L54.6 63.3103M88.2 50.6483L99.4 91.4483M117.6 64.7172L208.6 35.1724M117.6 64.7172L99.4 91.4483M117.6 64.7172L120.4 109.738M117.6 64.7172H166.6M208.6 35.1724L189 64.7172M208.6 35.1724L166.6 64.7172M189 64.7172H214.2M189 64.7172H166.6M214.2 64.7172L182 104.11M214.2 64.7172L120.4 109.738M182 104.11L198.8 126.621M182 104.11L166.6 153.352M182 104.11L120.4 109.738M182 104.11L147 129.434M198.8 126.621L266 120.993L236.6 144.91M198.8 126.621L213.267 147.724M198.8 126.621L236.6 144.91M236.6 144.91L280 194.152L214.2 161.793M236.6 144.91L213.267 147.724M236.6 144.91L214.2 161.793M214.2 161.793L166.6 153.352M214.2 161.793L213.267 147.724M166.6 153.352L130.2 170.234M166.6 153.352L147 129.434M166.6 153.352L121.8 137.876M166.6 153.352L213.267 147.724M130.2 170.234L148.4 187.117L130.2 204M130.2 170.234V204M130.2 170.234L107.8 157.572M130.2 170.234L121.8 137.876M130.2 204L99.4 189.931M130.2 204L107.8 157.572M99.4 189.931L63 201.186L67.2 184.303M99.4 189.931L107.8 157.572M99.4 189.931L74.2 161.793M67.2 184.303L50.4 171.641L60.2 157.572M67.2 184.303L74.2 161.793M67.2 184.303L60.2 157.572M60.2 157.572L29.4 136.469M60.2 157.572L71.4 140.69M60.2 157.572L74.2 161.793M29.4 136.469L11.2 97.0759M29.4 136.469L71.4 140.69M29.4 136.469L44.8 106.924M11.2 97.0759L25.2 59.0897M11.2 97.0759L44.8 106.924M25.2 59.0897L8.4 46.4276M25.2 59.0897L32.2 39.3931M25.2 59.0897L44.8 106.924M25.2 59.0897L54.6 63.3103M25.2 59.0897L64.4 37.9862M8.4 46.4276L14 35.1724M8.4 46.4276L32.2 39.3931M14 35.1724L32.2 39.3931M32.2 39.3931L53.2 15.4759M32.2 39.3931L64.4 37.9862M53.2 15.4759L64.4 37.9862M64.4 37.9862L54.6 63.3103M99.4 91.4483L44.8 106.924M99.4 91.4483L71.4 140.69M99.4 91.4483L120.4 109.738M44.8 106.924L54.6 63.3103M44.8 106.924L71.4 140.69M71.4 140.69L74.2 161.793M71.4 140.69L107.8 157.572M71.4 140.69L120.4 109.738M71.4 140.69L121.8 137.876M74.2 161.793L107.8 157.572M107.8 157.572L121.8 137.876M120.4 109.738L147 129.434M120.4 109.738L121.8 137.876M147 129.434L121.8 137.876" transform="translate(70 108)" stroke="url(#paint0_linear)" stroke-width="2"/>
<defs>
<linearGradient id="paint0_linear" x2="1" gradientUnits="userSpaceOnUse" gradientTransform="translate(280) scale(280 204) rotate(90)">
<stop stop-color="#F2463A"/>
<stop offset="1" stop-color="#F89790"/>
</linearGradient>
</defs>
</svg>
