<svg width="1440" height="1652" viewBox="0 0 1440 1652" fill="none" xmlns="http://www.w3.org/2000/svg">
<path fill-rule="evenodd" clip-rule="evenodd" d="M490.4 522.616L490.398 522.618C414.251 598.721 281.102 731.794 -10.1047 785.935C-11.3059 786.158 -11.2997 788 -10.078 788H-0.00823975V1652H135H1143C1253.46 1652 1343 1562.46 1343 1452V1405V1154V1079.5C1343 969.043 1253.46 879.5 1143 879.5H503C460.75 879.5 426.5 845.25 426.5 803C426.5 760.75 460.75 726.5 503 726.5H1069.25C1113.02 726.5 1148.5 691.019 1148.5 647.25V609C1148.5 586.356 1130.14 568 1107.5 568H1343.5C1378.57 568 1407 596.43 1407 631.5C1422.22 631.5 1436.85 634.028 1450.49 638.687V127.877C1450.49 102.913 1430.25 82.6762 1405.29 82.6762C1390.67 82.6762 1376.96 75.6059 1368.47 63.6986L1352.55 41.3425C1325.67 3.60304 1276.11 -10.285 1233.54 7.98948L1193.49 25.1762L1058.25 95.8145C1043.95 103.278 1028.07 107.176 1011.95 107.176H943.191C898.668 107.176 855.418 122.032 820.293 149.391L817.068 151.903C789.499 173.377 768.037 201.699 754.821 234.049L746.587 254.204C743.205 262.481 738.729 270.268 733.277 277.355L680.192 346.366C668.005 362.209 651.351 374.036 632.377 380.321L620.419 384.283C594.792 392.773 574.235 412.166 564.268 437.256C555.736 458.733 539.245 476.291 522.116 491.804C512.665 500.364 502.219 510.804 490.4 522.616Z" fill="#F4F4F4"/>
</svg>
