<svg width="156" height="214" viewBox="0 0 156 214" fill="none" xmlns="http://www.w3.org/2000/svg">
<rect x="66" y="195.125" width="24" height="16" rx="2" fill="#FFD081"/>
<path fill-rule="evenodd" clip-rule="evenodd" d="M69.5063 195.125H87.9671C89.0717 195.125 89.9671 196.02 89.9671 197.125V204.877C88.1297 205.68 86.1004 206.125 83.9671 206.125C77.0681 206.125 71.2568 201.467 69.5063 195.125Z" fill="#FFE8C1"/>
<path d="M66 197.125C66 196.02 66.8954 195.125 68 195.125H88C89.1046 195.125 90 196.02 90 197.125V205.125C90 208.439 87.3137 211.125 84 211.125H72C68.6863 211.125 66 208.439 66 205.125V197.125Z" stroke="#4D4D4D" stroke-width="4"/>
<path d="M70 185V193" stroke="#4D4D4D" stroke-width="4"/>
<path d="M86 185V193" stroke="#4D4D4D" stroke-width="4"/>
<path d="M154 82.8978C154 104.898 144.869 124.741 130.232 138.758L90.1262 184.242C89.3668 185.104 88.274 185.597 87.1259 185.597H68.8741C67.726 185.597 66.6332 185.104 65.8739 184.242L25.7685 138.758C11.1313 124.741 2 104.898 2 82.8978C2 40.4283 36.0264 6 78 6C119.974 6 154 40.4283 154 82.8978Z" fill="#D2D2D2" stroke="#4D4D4D" stroke-width="4"/>
<path fill-rule="evenodd" clip-rule="evenodd" d="M133.626 132.491C139.159 120.585 142.238 107.372 142.238 93.4599C142.238 54.2227 117.742 20.5446 82.7979 6.07657C121.467 9.67437 151.75 42.583 151.75 82.6481C151.75 101.664 144.928 119.068 133.626 132.491ZM97.1577 173.466C88.651 178.761 79.2442 182.809 69.21 185.347H84.876C86.0241 185.347 87.1169 184.854 87.8762 183.993L97.1577 173.466Z" fill="#F4F4F4"/>
<path d="M77.5475 187C103.114 129.617 108.916 50.9464 79.9645 11.4461C79.3513 10.6094 78.1065 11.2216 78.3003 12.2406C91.813 83.298 86.4345 113.04 77.5475 187Z" fill="#F4F4F4"/>
<path d="M73.0237 183.726C50.0354 117.374 40.6092 54.4837 68.8075 9.71689C69.3056 8.92623 68.519 7.93926 67.629 8.2239C-10.7505 33.2908 5.92118 123.601 73.0237 183.726Z" fill="#F4F4F4"/>
<path d="M154 82.8978C154 104.898 144.869 124.741 130.232 138.758L90.1261 184.242C89.3668 185.104 88.274 185.597 87.1259 185.597H68.8741C67.726 185.597 66.6332 185.104 65.8739 184.242L25.7685 138.758C11.1313 124.741 2 104.898 2 82.8978C2 40.4283 36.0264 6 78 6C119.974 6 154 40.4283 154 82.8978Z" stroke="#4D4D4D" stroke-width="4"/>
<path d="M81.4809 185.875C106.856 119.158 113.926 53.6491 82.7838 8.50627C82.234 7.70931 83.0441 6.66543 83.9593 6.98139C159.184 32.9514 150.799 110.102 81.4809 185.875Z" fill="#F56F65"/>
<path fill-rule="evenodd" clip-rule="evenodd" d="M85.8185 178.693C107.609 160.522 122 129.189 122 93.5831C122 57.4293 107.163 25.6813 84.8075 7.64435C114.944 51.367 109.257 114.182 85.8185 178.693Z" fill="#F2463A"/>
<path d="M81.4809 185.875C106.856 119.158 113.926 53.6491 82.7838 8.50627C82.234 7.70931 83.0441 6.66543 83.9593 6.98139C159.184 32.9514 150.799 110.102 81.4809 185.875Z" stroke="#4D4D4D" stroke-width="4"/>
<path d="M80.5191 185.875C55.1437 119.158 48.074 53.6491 79.2162 8.50627C79.766 7.70931 78.9559 6.66543 78.0407 6.98139C2.81637 32.9514 11.2007 110.102 80.5191 185.875Z" fill="#F2463A"/>
<path fill-rule="evenodd" clip-rule="evenodd" d="M74.8549 174.989C56.2208 156.997 44 126.826 44 92.6415C44 57.5543 56.8749 26.6951 76.3446 8.89365C47.7292 51.7148 52.7543 112.395 74.8549 174.989Z" fill="#F56F65"/>
<path d="M80.5191 185.875C55.1437 119.158 48.074 53.6491 79.2162 8.50627C79.766 7.70931 78.9559 6.66543 78.0407 6.98139C2.81637 32.9514 11.2007 110.102 80.5191 185.875Z" stroke="#4D4D4D" stroke-width="4"/>
<path d="M96.979 173C97.7474 173 98.1408 174.055 97.6095 174.691L90.0294 183.766C89.3709 184.554 88.4598 185 87.5074 185H68.3461C67.3937 185 66.4826 184.554 65.8241 183.766L58.244 174.691C57.7127 174.055 58.1061 173 58.8745 173H96.979Z" fill="#48DEE2"/>
<path fill-rule="evenodd" clip-rule="evenodd" d="M71.0422 173L96.2496 173C97.0208 173 97.4157 174.055 96.8824 174.691L89.2745 183.766C88.6135 184.554 87.6991 185 86.7432 185H82.5869C77.0896 183.093 72.7738 178.621 71.0422 173Z" fill="#88FCFF"/>
<path d="M96.979 173C97.7474 173 98.1408 174.055 97.6095 174.691L90.0294 183.766C89.3709 184.554 88.4598 185 87.5074 185H68.3461C67.3937 185 66.4826 184.554 65.8241 183.766L58.244 174.691C57.7127 174.055 58.1061 173 58.8745 173H96.979Z" stroke="#4D4D4D" stroke-width="4"/>
<path fill-rule="evenodd" clip-rule="evenodd" d="M57.2897 26.9036C58.134 26.1913 58.2409 24.9295 57.5286 24.0853C56.8163 23.2411 55.5545 23.1341 54.7103 23.8464C47.9809 29.5244 43.4059 37.2551 40.4126 44.5399C37.4171 51.8299 35.9456 58.8191 35.5099 63.176C35.4 64.2751 36.2019 65.2552 37.301 65.3651C38.4001 65.475 39.3802 64.6731 39.4901 63.574C39.8877 59.5976 41.2662 52.9868 44.1124 46.0602C46.9608 39.1282 51.2191 32.0257 57.2897 26.9036ZM39 73.875C39 72.7704 38.1046 71.875 37 71.875C35.8954 71.875 35 72.7704 35 73.875V75.875C35 76.9796 35.8954 77.875 37 77.875C38.1046 77.875 39 76.9796 39 75.875V73.875Z" fill="white"/>
<path d="M77 6C77 0.66667 85 0.666669 85 6" stroke="#4D4D4D" stroke-width="4"/>
</svg>
